<?xml version="1.0" standalone="no"?>
<!DOCTYPE svg PUBLIC "-//W3C//DTD SVG 1.1//EN" "http://www.w3.org/Graphics/SVG/1.1/DTD/svg11.dtd" >
<svg xmlns="http://www.w3.org/2000/svg">
<metadata></metadata>
<defs>
<font id="toyota_textregular" horiz-adv-x="860" >
<font-face units-per-em="2048" ascent="1638" descent="-410" />
<missing-glyph horiz-adv-x="397" />
<glyph unicode="ff" horiz-adv-x="1345" d="M57 887v139h146v107q0 76 16.5 144.5t56 119.5t106.5 80.5t167 29.5q53 0 112.5 -14t110.5 -39l-49 -121q-20 10 -63.5 23.5t-96.5 13.5q-57 0 -91 -18.5t-51.5 -52t-22.5 -82t-5 -107.5v-84h434v107q0 76 16.5 144.5t56.5 119.5t106.5 80.5t167.5 29.5q53 0 112.5 -14 t110.5 -39l-49 -121q-20 10 -63.5 23.5t-96.5 13.5q-57 0 -91 -18.5t-51.5 -52t-22.5 -82t-5 -107.5v-84h295v-139h-295v-887h-191v887h-434v-887h-190v887h-146z" />
<glyph unicode="fi" horiz-adv-x="1181" d="M57 887v139h146v107q0 76 19.5 144.5t67.5 119.5t126 80.5t194 29.5q129 0 216 -29.5t141 -60.5l-60 -123q-43 27 -115.5 51.5t-160.5 24.5q-72 0 -118 -16.5t-72.5 -48t-37 -77.5t-10.5 -106v-96h625v-1026h-191v887h-434v-887h-190v887h-146z" />
<glyph unicode="fl" horiz-adv-x="1181" d="M57 887v139h146v107q0 76 19.5 144.5t67.5 119.5t126 80.5t194 29.5q125 0 224.5 -23.5t183.5 -58.5v-1425h-191v1333q-41 16 -92 26.5t-106 10.5q-72 0 -118 -16.5t-71.5 -48t-36 -77.5t-10.5 -106v-96h295v-139h-295v-887h-190v887h-146z" />
<glyph unicode="ffi" horiz-adv-x="1812" d="M57 887v139h146v107q0 76 16.5 144.5t56 119.5t106.5 80.5t167 29.5q53 0 112.5 -14t110.5 -39l-49 -121q-20 10 -63.5 23.5t-96.5 13.5q-57 0 -91 -18.5t-51.5 -52t-22.5 -82t-5 -107.5v-84h441v107q0 76 19 144.5t67.5 119.5t126 80.5t194.5 29.5q129 0 216 -29.5 t140 -60.5l-59 -123q-43 27 -115.5 51.5t-160.5 24.5q-72 0 -118 -16.5t-73 -48t-37 -77.5t-10 -106v-96h625v-1026h-191v887h-434v-887h-190v887h-441v-887h-190v887h-146z" />
<glyph unicode="ffl" horiz-adv-x="1808" d="M57 887v139h146v107q0 76 16.5 144.5t56 119.5t106.5 80.5t167 29.5q53 0 112.5 -14t110.5 -39l-49 -121q-20 10 -63.5 23.5t-96.5 13.5q-57 0 -91 -18.5t-51.5 -52t-22.5 -82t-5 -107.5v-84h436v107q0 76 19.5 144.5t68 119.5t126 80.5t194.5 29.5q125 0 224.5 -23.5 t183.5 -58.5v-1425h-191v1333q-41 16 -92 26.5t-107 10.5q-72 0 -117.5 -16.5t-71.5 -48t-36 -77.5t-10 -106v-96h295v-139h-295v-887h-191v887h-436v-887h-190v887h-146z" />
<glyph unicode="&#xd;" horiz-adv-x="0" />
<glyph unicode=" "  horiz-adv-x="397" />
<glyph unicode="&#x09;" horiz-adv-x="397" />
<glyph unicode="&#xa0;" horiz-adv-x="397" />
<glyph unicode="!" horiz-adv-x="565" d="M156 106q0 61 30.5 101.5t98.5 40.5q66 0 96.5 -40t30.5 -102q0 -61 -30.5 -101t-96.5 -40q-68 0 -98.5 40t-30.5 101zM178 1477h213l-26 -1057h-160z" />
<glyph unicode="&#x22;" horiz-adv-x="692" d="M104 1477h172l-16 -592h-139zM413 1477h172l-16 -592h-139z" />
<glyph unicode="#" horiz-adv-x="1480" d="M86 412v147h262l74 371h-229v149h260l57 293h164l-58 -293h349l61 293h160l-58 -293h242v-149h-274l-72 -371h238v-147h-269l-65 -332h-162l63 332h-348l-63 -332h-166l65 332h-231zM512 559h350l74 371h-350z" />
<glyph unicode="$" horiz-adv-x="1216" d="M102 117l72 141q43 -25 85 -45t87 -34.5t95.5 -23t111.5 -8.5q164 0 248 70t84 180q0 70 -23.5 115t-65.5 74.5t-101.5 49t-131.5 38.5q-82 20 -156.5 41.5t-132 60.5t-92.5 106.5t-35 182.5q0 156 92.5 266.5t286.5 138.5v183h164v-176q102 -6 200.5 -38t151.5 -69 l-67 -135q-66 41 -151 68.5t-175 27.5q-152 0 -232.5 -53t-80.5 -191q0 -61 25.5 -100t68.5 -63.5t97.5 -40t113.5 -29.5q78 -20 157 -46t141 -71t101 -117.5t39 -187.5q0 -174 -103.5 -286.5t-285.5 -143.5v-195h-164v185q-129 4 -233.5 36.5t-190.5 88.5z" />
<glyph unicode="%" horiz-adv-x="1777" d="M88 1067q0 86 20.5 159.5t63.5 129t108.5 87.5t155.5 32q80 0 139.5 -31t99.5 -85t59.5 -129t19.5 -161t-21.5 -160.5t-62.5 -128t-104.5 -84t-145.5 -30.5q-90 0 -153.5 31.5t-103.5 86t-57.5 127t-17.5 156.5zM260 1069q0 -135 39 -206.5t125 -71.5q80 0 121 71.5 t41 206.5t-41 208t-121 73q-86 0 -125 -73t-39 -208zM319 0l938 1458h187l-940 -1458h-185zM1024 383q0 86 20.5 159.5t63.5 129t108.5 87.5t155.5 32q80 0 139.5 -31t99.5 -85t59.5 -129t19.5 -161t-21.5 -160.5t-62.5 -128t-104.5 -84t-145.5 -30.5q-90 0 -153.5 31.5 t-103.5 86t-57.5 127t-17.5 156.5zM1194 385q0 -135 40 -207t126 -72q80 0 120 72t40 207t-40 208t-120 73q-86 0 -126 -73t-40 -208z" />
<glyph unicode="&#x26;" horiz-adv-x="1423" d="M102 344q0 86 27 160t73 138.5t109.5 121.5t137.5 115q-59 80 -85 144t-26 138q0 70 27.5 132.5t80 108.5t127 73.5t168.5 27.5q117 0 197 -29.5t129 -64.5l-74 -129q-47 33 -102 57.5t-139 24.5q-102 0 -158.5 -50t-56.5 -145q0 -66 37.5 -128t84.5 -121l359 -439 l178 287l139 -43l-223 -358l270 -342l-184 -60l-199 244q-43 -53 -89 -98.5t-100 -77t-120.5 -50t-148.5 -18.5q-133 0 -218 36t-134.5 91t-68 123t-18.5 131zM303 385q0 -51 14.5 -99t46 -85t81 -59.5t118.5 -22.5q61 0 110.5 17.5t90.5 46t74.5 65.5t66.5 76l-358 442 q-53 -47 -98.5 -87t-78 -83t-50 -93t-17.5 -118z" />
<glyph unicode="'" horiz-adv-x="380" d="M104 1477h172l-16 -592h-139z" />
<glyph unicode="(" horiz-adv-x="722" d="M131 608q0 143 36 280.5t98.5 259.5t145.5 223.5t175 172.5l104 -96q-98 -94 -167.5 -201.5t-112.5 -218t-63.5 -218.5t-20.5 -202t20.5 -201.5t63.5 -218t112.5 -218t167.5 -201.5l-104 -97q-92 72 -175 173.5t-145.5 222t-98.5 258t-36 282.5z" />
<glyph unicode=")" horiz-adv-x="722" d="M33 -233q98 94 167.5 201.5t112.5 218t63.5 218t20.5 201.5t-19.5 201.5t-63.5 218.5t-112.5 218.5t-166.5 201.5l104 96q92 -72 175 -173t144.5 -223t97.5 -259t36 -281q0 -145 -36 -282.5t-98.5 -258t-145.5 -222t-175 -173.5z" />
<glyph unicode="*" horiz-adv-x="1032" d="M119 1094l51 170l285 -127l-25 340h172l-22 -340l282 123l53 -166l-303 -72l217 -250l-141 -104l-172 276l-174 -278l-141 104l217 252z" />
<glyph unicode="+" horiz-adv-x="1208" d="M145 614v164h375v396h166v-396h375v-164h-375v-395h-166v395h-375z" />
<glyph unicode="," horiz-adv-x="432" d="M78 -266l82 481l198 -45l-151 -471z" />
<glyph unicode="-" horiz-adv-x="923" d="M152 553v182h620v-182h-620z" />
<glyph unicode="." horiz-adv-x="505" d="M125 106q0 61 30.5 101.5t98.5 40.5q66 0 96.5 -40t30.5 -102q0 -61 -30.5 -101t-96.5 -40q-68 0 -98.5 40t-30.5 101z" />
<glyph unicode="/" horiz-adv-x="923" d="M27 -160l682 1725h192l-682 -1725h-192z" />
<glyph unicode="0" horiz-adv-x="1216" d="M90 719q0 162 28.5 300t90 239.5t160 160t239.5 58.5q143 0 241.5 -57.5t160 -159t89 -239.5t27.5 -302q0 -162 -28.5 -298t-90 -235.5t-160 -156t-239.5 -56.5q-143 0 -241.5 55.5t-160 154t-89 235.5t-27.5 301zM297 723q0 -139 15.5 -251t51 -189.5t95 -119.5 t149.5 -42q92 0 151.5 41t95.5 118.5t50.5 189.5t14.5 253q0 139 -15.5 250.5t-51.5 190.5t-96.5 122t-148.5 43q-92 0 -152.5 -42t-95 -119.5t-49 -190.5t-14.5 -254z" />
<glyph unicode="1" horiz-adv-x="1216" d="M168 1171l293 240q35 31 70.5 48.5t86.5 17.5q27 0 53.5 -5.5t48 -20.5t34 -42t12.5 -68v-1196h324v-145h-854v145h342v1106q0 20 -2.5 29.5t-16.5 9.5q-10 0 -17 -5t-22 -15l-266 -209z" />
<glyph unicode="2" horiz-adv-x="1216" d="M131 154q0 41 15.5 81.5t72.5 94.5l348 329q78 74 132.5 129.5t88 104.5t49 98t15.5 109q0 121 -69.5 174t-178.5 53q-63 0 -116.5 -13.5t-98.5 -33.5t-83 -45t-68 -47l-82 123q84 66 198.5 116t263.5 50q109 0 190 -30t134 -80t80 -118.5t27 -146.5q0 -76 -22.5 -142.5 t-65.5 -131t-105.5 -130t-142.5 -141.5l-377 -350q-8 -8 -13.5 -15.5t-5.5 -17.5q0 -23 33 -22h719v-152h-750q-98 0 -143 40t-45 114z" />
<glyph unicode="3" horiz-adv-x="1216" d="M82 102l74 138q63 -45 163.5 -81t225.5 -36q141 0 225 78t84 219q0 150 -82 219.5t-278 69.5h-101v118l426 428q16 18 17 33q0 23 -33 23h-662v147h680q90 0 136.5 -33.5t46.5 -111.5q0 -45 -15.5 -82t-70.5 -90l-312 -303q209 -6 327 -106.5t118 -301.5q0 -90 -29 -173 t-91.5 -145.5t-159.5 -100.5t-234 -38q-139 0 -261 37t-194 92z" />
<glyph unicode="4" horiz-adv-x="1216" d="M90 520q0 49 20.5 90t65.5 101l580 747h174v-932h215v-149h-215v-377h-185v377h-466q-98 0 -143.5 37t-45.5 106zM281 569q0 -43 53 -43h411v670l-444 -575q-8 -10 -14 -22.5t-6 -29.5z" />
<glyph unicode="5" horiz-adv-x="1216" d="M125 90l72 135q78 -49 167 -75.5t181 -26.5q162 0 234.5 92t72.5 240q0 82 -20.5 139t-58.5 93t-90 52.5t-116 16.5q-59 0 -126.5 -12.5t-133.5 -43.5l-92 64l57 694h719v-147h-571l-37 -445q94 39 231 39q76 0 154 -22.5t140.5 -72.5t101.5 -133t39 -202 q0 -102 -28 -193.5t-89.5 -160t-158.5 -108.5t-236 -40q-141 0 -247 38t-165 79z" />
<glyph unicode="6" horiz-adv-x="1216" d="M145 631q0 158 26 310.5t88.5 271t170 191.5t270.5 73q111 0 188 -23.5t148 -64.5l-69 -132q-72 41 -129.5 56.5t-135.5 15.5q-96 0 -159.5 -42t-105.5 -110.5t-63.5 -158.5t-31.5 -187q59 45 129 73t180 28q104 0 188.5 -36t141.5 -98.5t88 -146.5t31 -180 q0 -113 -34 -205t-95.5 -156.5t-149.5 -100.5t-196 -36q-250 0 -365 167t-115 491zM334 670q0 -90 8 -186.5t38 -176.5t87 -132t158 -52q143 0 211.5 89t68.5 247q0 166 -77.5 246.5t-213.5 80.5q-80 0 -155.5 -32.5t-124.5 -83.5z" />
<glyph unicode="7" horiz-adv-x="1216" d="M121 1311v147h778q80 0 111.5 -31.5t31.5 -91.5q0 -35 -11 -64.5t-30 -70.5l-512 -1200h-208l540 1249q4 10 9.5 21.5t5.5 21.5q0 18 -31 19h-684z" />
<glyph unicode="8" horiz-adv-x="1216" d="M117 375q0 76 23.5 136t59.5 106.5t80 79t85 55.5q-86 51 -136.5 131t-50.5 190q0 92 32 166t90 127t141 82t186 29q106 0 186 -29t133 -79t80 -116.5t27 -140.5q0 -70 -17.5 -126t-45 -101t-62.5 -78t-70 -55q113 -51 176.5 -135.5t63.5 -215.5q0 -92 -34 -170.5 t-98.5 -136t-158.5 -89.5t-213 -32q-127 0 -218 31t-148.5 85t-84 128t-26.5 158zM299 381q0 -119 69.5 -191.5t225.5 -72.5q158 0 233.5 77.5t77.5 208.5q0 104 -56 158.5t-161 81.5l-184 47q-88 -39 -146.5 -113.5t-58.5 -195.5zM356 1094q0 -92 51.5 -159t167.5 -95 l140 -35q72 35 117 107.5t47 179.5q0 104 -60.5 173.5t-197.5 69.5q-135 0 -200 -65.5t-65 -175.5z" />
<glyph unicode="9" horiz-adv-x="1216" d="M117 979q0 113 32.5 205t94 156.5t149.5 100.5t197 36q250 0 362.5 -167t112.5 -491q0 -170 -18.5 -323.5t-75 -269t-159.5 -184.5t-271 -69q-111 0 -213.5 31t-161.5 74l70 129q61 -41 141 -64.5t158 -23.5q100 0 160.5 39t96 106.5t51 158.5t25.5 195 q-41 -35 -118.5 -67.5t-186.5 -32.5q-115 0 -198.5 36t-139 98.5t-82 146.5t-26.5 180zM311 991q0 -166 77 -246.5t212 -80.5q80 0 155 30.5t122 73.5q0 94 -7.5 193.5t-36 181.5t-86 133t-157.5 51q-143 0 -211 -89t-68 -247z" />
<glyph unicode=":" horiz-adv-x="505" d="M125 106q0 61 30.5 101.5t98.5 40.5q66 0 96.5 -40t30.5 -102q0 -61 -30.5 -101t-96.5 -40q-68 0 -98.5 40t-30.5 101zM125 903q0 61 30.5 101.5t98.5 40.5q66 0 96.5 -40t30.5 -102q0 -61 -30.5 -101t-96.5 -40q-68 0 -98.5 40t-30.5 101z" />
<glyph unicode=";" horiz-adv-x="505" d="M78 -266l82 481l198 -45l-151 -471zM125 903q0 61 30.5 101.5t98.5 40.5q66 0 96.5 -40t30.5 -102q0 -61 -30.5 -101t-96.5 -40q-68 0 -98.5 40t-30.5 101z" />
<glyph unicode="&#x3c;" horiz-adv-x="1208" d="M127 690q0 84 55.5 139.5t155.5 98.5l647 280l94 -139l-700 -301q-70 -29 -70 -76q0 -31 19.5 -46t54.5 -30l696 -288l-108 -142l-647 275q-98 41 -147.5 89t-49.5 140z" />
<glyph unicode="=" horiz-adv-x="1208" d="M145 430v164h916v-164h-916zM145 799v164h916v-164h-916z" />
<glyph unicode="&#x3e;" horiz-adv-x="1208" d="M127 326l698 303q70 29 70 76q0 31 -19.5 46t-54.5 29l-694 287l109 141l647 -274q98 -41 147 -89t49 -140q0 -84 -55 -139.5t-156 -98.5l-647 -281z" />
<glyph unicode="?" horiz-adv-x="1165" d="M106 1346q86 70 199 112.5t244 42.5q113 0 197.5 -29.5t140 -80t83 -117t27.5 -141.5q0 -119 -51 -198t-131 -147l-98 -81q-35 -29 -59.5 -52.5t-41 -48t-23.5 -53.5t-7 -68v-65h-156v106q0 49 8 85t23.5 65t38 54.5t51.5 49.5l127 115q63 55 93 107.5t30 111.5 q0 106 -62.5 172t-203.5 66q-113 0 -199 -37t-150 -92zM383 106q0 61 30.5 101.5t98.5 40.5q66 0 96.5 -40t30.5 -102q0 -61 -30.5 -101t-96.5 -40q-68 0 -98.5 40t-30.5 101z" />
<glyph unicode="@" horiz-adv-x="1970" d="M125 461q0 209 71.5 381t193.5 292.5t285 187.5t347 67t337.5 -53.5t264.5 -155t171 -247t60 -327.5q0 -145 -45 -259t-119.5 -195.5t-170 -129t-193.5 -55.5l-86 101q-53 -43 -121.5 -74t-158.5 -31q-391 0 -392 500q0 111 30 203t88 158.5t144.5 103.5t200.5 37 q98 0 188.5 -18.5t141.5 -41.5v-729l41 -57q123 35 189.5 165t66.5 318q0 143 -40 262t-119 203t-198.5 131t-279.5 47q-164 0 -294 -59.5t-220 -163.5t-138 -247.5t-48 -313.5q0 -195 54 -337t153.5 -236.5t239.5 -139.5t314 -45q92 0 161 9t120 22.5t87 29t65 27.5 l55 -117q-18 -12 -62.5 -30.5t-109 -37t-147.5 -31.5t-177 -13q-215 0 -390 54t-299 164.5t-192.5 279.5t-68.5 401zM762 465q0 -180 50 -272.5t161 -92.5q76 0 116.5 20.5t84.5 61.5v627q-29 10 -67 16t-87 6q-258 0 -258 -366z" />
<glyph unicode="A" horiz-adv-x="1323" d="M37 2l395 1282q33 104 79 160.5t138 56.5q55 0 92 -8t63.5 -32.5t47 -66.5t43.5 -110l401 -1284l-196 -33l-162 508h-580l-155 -508zM401 627h496l-195 641q-12 41 -23 56t-30 15q-23 0 -32 -15t-21 -56z" />
<glyph unicode="B" horiz-adv-x="1277" d="M176 0v1477h457q104 0 193 -21.5t153.5 -68t101.5 -120t37 -177.5q0 -94 -53 -178.5t-145 -129.5q133 -47 199.5 -141t66.5 -225q0 -104 -37 -182t-101.5 -130.5t-153.5 -78t-194 -25.5h-524zM377 145h291q160 0 236.5 71t76.5 208q0 80 -30.5 131t-79 79t-105.5 38 t-111 10h-278v-537zM377 836h282q66 0 114 20.5t79 54t46 78.5t15 92q0 137 -76.5 193.5t-236.5 56.5h-223v-495z" />
<glyph unicode="C" horiz-adv-x="1214" d="M123 735q0 166 38 307.5t115.5 245t197.5 161.5t284 58q125 0 226 -32.5t167 -73.5l-70 -133q-68 41 -146.5 64.5t-170.5 23.5q-86 0 -163 -26.5t-135 -95.5t-93 -189.5t-35 -309.5q0 -305 101.5 -459.5t322.5 -154.5q53 0 96 5t83 16.5t80 29.5t85 45l76 -129 q-66 -49 -179.5 -87t-248.5 -38q-176 0 -296 56.5t-195 159t-107.5 243.5t-32.5 313z" />
<glyph unicode="D" horiz-adv-x="1431" d="M176 0v1477h467q172 0 297 -51.5t206 -146.5t120 -232.5t39 -311.5q0 -170 -40 -305t-122 -231.5t-207 -147.5t-293 -51h-467zM377 154h274q129 0 214 43t135.5 120.5t71 185t20.5 234.5q0 123 -21.5 230.5t-72 187.5t-135.5 126t-212 46h-274v-1173z" />
<glyph unicode="E" horiz-adv-x="1181" d="M174 0v1477h901v-156h-700v-473h528v-156h-528v-536h725v-156h-926z" />
<glyph unicode="F" horiz-adv-x="1157" d="M174 0v1477h901v-156h-700v-473h528v-156h-528v-692h-201z" />
<glyph unicode="G" horiz-adv-x="1372" d="M117 735q0 166 36.5 307.5t115.5 245t203 161.5t300 58q121 0 225.5 -35.5t169.5 -76.5l-71 -133q-70 43 -149 68.5t-175 25.5q-86 0 -166 -26.5t-140 -95.5t-97 -189.5t-37 -309.5q0 -305 101.5 -459.5t324.5 -154.5q162 0 291 69v424h-301v156h491v-664 q-59 -37 -115.5 -63.5t-115 -44.5t-122 -26.5t-134.5 -8.5q-178 0 -300 56.5t-197 159t-106.5 243.5t-31.5 313z" />
<glyph unicode="H" horiz-adv-x="1406" d="M176 0v1477h201v-629h653v629h201v-1477h-201v692h-653v-692h-201z" />
<glyph unicode="I" horiz-adv-x="573" d="M186 0v1477h201v-1477h-201z" />
<glyph unicode="J" horiz-adv-x="972" d="M25 45l65 145q47 -29 113.5 -49t156.5 -20q121 0 179.5 79t58.5 259v1018h201v-1026q0 -238 -104.5 -363t-334.5 -125q-123 0 -204.5 26.5t-130.5 55.5z" />
<glyph unicode="K" horiz-adv-x="1232" d="M172 0v1477h193v-646h120q41 0 58.5 8.5t40.5 39.5l428 620l176 -37l-473 -684l506 -753l-209 -43l-426 639q-25 39 -47.5 47t-53.5 8h-120v-676h-193z" />
<glyph unicode="L" horiz-adv-x="1155" d="M174 0v1477h201v-1321h739v-156h-940z" />
<glyph unicode="M" horiz-adv-x="1652" d="M141 0l76 1477h205l346 -762q16 -35 25.5 -46.5t27.5 -11.5q16 0 25.5 13.5t25.5 44.5l371 762h193l75 -1477h-196l-53 1118l-242 -487q-18 -37 -35.5 -66.5t-39 -51t-52.5 -34t-78 -12.5q-49 0 -81 11t-54.5 31.5t-38.5 51.5t-35 72l-227 493l-45 -1126h-193z" />
<glyph unicode="N" horiz-adv-x="1419" d="M180 0v1477h199l639 -1260q14 -29 21.5 -38t17.5 -9q16 0 16 31v1276h166v-1272q0 -123 -49 -171t-131 -48q-37 0 -66.5 6t-54.5 22.5t-47.5 45t-44.5 73.5l-500 987v-1120h-166z" />
<glyph unicode="O" horiz-adv-x="1478" d="M123 735q0 168 38 310.5t114.5 245t192.5 159.5t271 57q160 0 277 -55t191.5 -156.5t111.5 -244t37 -316.5q0 -170 -38 -311t-115 -243.5t-192.5 -160t-271.5 -57.5q-160 0 -276.5 54.5t-191 155.5t-111.5 243.5t-37 318.5zM338 733q0 -123 19.5 -234.5t66.5 -195.5 t123.5 -134t191.5 -50q119 0 196 49t123 133t64.5 196.5t18.5 239.5q0 123 -20.5 234.5t-66.5 197.5t-124 136.5t-191 50.5q-119 0 -195.5 -49.5t-122.5 -134.5t-64.5 -198.5t-18.5 -240.5z" />
<glyph unicode="P" horiz-adv-x="1200" d="M174 0v1477h449q104 0 196 -20.5t161 -71t107.5 -133.5t38.5 -208q0 -84 -31.5 -164.5t-94 -144t-157.5 -103.5t-220 -40h-248v-592h-201zM375 745h215q170 0 251 69t81 222q0 88 -24 145.5t-67 90.5t-103 45t-136 12h-217v-584z" />
<glyph unicode="Q" horiz-adv-x="1482" d="M125 735q0 168 38 310.5t114.5 245t192.5 159.5t271 57q160 0 277 -55t191.5 -156.5t111.5 -244t37 -316.5q0 -215 -61.5 -383t-184.5 -268l215 -266l-153 -115l-216 295q-100 -35 -217 -35q-160 0 -276.5 54.5t-191 155.5t-111.5 243.5t-37 318.5zM338 733 q0 -123 20.5 -234.5t67.5 -196.5t123.5 -135t191.5 -50q119 0 197 49t124 133t64.5 197.5t18.5 240.5q0 123 -20.5 235.5t-67.5 197.5t-125 136.5t-191 51.5q-119 0 -196.5 -50.5t-123.5 -135.5t-64.5 -198.5t-18.5 -240.5z" />
<glyph unicode="R" horiz-adv-x="1245" d="M176 0v1477h428q102 0 193.5 -18.5t159 -64.5t106.5 -126t39 -203q0 -80 -26.5 -146.5t-72 -117.5t-102.5 -85t-121 -48q33 -20 63.5 -56.5t55.5 -76.5l313 -523l-208 -43l-312 520q-25 41 -47 69t-50 44t-62.5 23.5t-86.5 7.5h-69v-633h-201zM377 786h201 q145 0 234 63.5t89 207.5q0 86 -24.5 140t-67.5 83t-103.5 39t-130.5 10h-198v-543z" />
<glyph unicode="S" horiz-adv-x="1173" d="M72 84l73 145q88 -53 181.5 -80.5t226.5 -27.5q166 0 245 69.5t79 186.5q0 74 -27 121t-72 78.5t-104.5 51t-122.5 38.5q-78 20 -156 46.5t-140 71.5t-101 119t-39 191q0 84 30.5 158.5t94 132t160 90t225.5 32.5q59 0 119.5 -9t115.5 -24.5t102.5 -35t84.5 -41.5 l-72 -137q-68 43 -159 70.5t-181 27.5q-160 0 -243 -61.5t-83 -178.5q0 -70 29 -115t78 -74.5t111.5 -50t129.5 -40.5q76 -23 151 -50.5t135.5 -73.5t97 -117t36.5 -179q0 -209 -137 -332t-395 -123q-141 0 -261 31t-212 90z" />
<glyph unicode="T" horiz-adv-x="1124" d="M41 1325v152h1042v-152h-421v-1325h-201v1325h-420z" />
<glyph unicode="U" horiz-adv-x="1409" d="M176 555v922h201v-887q0 -109 10 -197t44 -149.5t98.5 -94t172.5 -32.5q109 0 177.5 30.5t106.5 90t52.5 145.5t14.5 199v895h180v-899q0 -135 -24.5 -249t-86 -195t-165 -126t-261.5 -45q-156 0 -256 39t-158.5 113.5t-82 185.5t-23.5 254z" />
<glyph unicode="V" horiz-adv-x="1306" d="M25 1464l202 33l394 -1300q14 -41 22 -56.5t27 -15.5q23 0 29 15.5t20 56.5l385 1300l172 -35l-385 -1282q-31 -104 -82 -160.5t-143 -56.5q-53 0 -91 9.5t-68 33t-51.5 65.5t-41.5 109z" />
<glyph unicode="W" horiz-adv-x="1867" d="M31 1458l200 33l291 -1294q10 -41 15.5 -56.5t23.5 -15.5q23 0 30 15.5t17 56.5l256 1280h166l283 -1280q10 -41 17 -56.5t24 -15.5q23 0 29 15.5t16 56.5l264 1294l174 -33l-264 -1278q-47 -217 -227 -217q-53 0 -91 12.5t-65 38t-44.5 66.5t-31.5 100l-178 826 l-154 -826q-29 -121 -79 -169t-146 -48q-109 0 -161 50t-79 167z" />
<glyph unicode="X" horiz-adv-x="1251" d="M20 37l431 711l-424 692l194 57l354 -586q12 -23 20.5 -30t22.5 -7q16 0 24.5 11.5t19.5 27.5l342 590l172 -53l-396 -684l451 -733l-195 -53l-374 618q-14 23 -22.5 33t-25.5 10q-16 0 -25 -12.5t-26 -34.5l-368 -614z" />
<glyph unicode="Y" horiz-adv-x="1165" d="M31 1458l188 37l320 -715q16 -37 25 -54t24 -17q14 0 23.5 16t29.5 55l328 711l166 -39l-326 -688q-35 -68 -63.5 -117t-67.5 -74v-573h-201v571q-25 12 -41 28.5t-30.5 40.5t-29 54.5t-32.5 69.5z" />
<glyph unicode="Z" horiz-adv-x="1122" d="M39 147q0 31 15.5 70t60.5 105l686 1003h-711v152h981v-113l-807 -1157q-14 -20 -14 -35q0 -20 33 -20h792v-152h-854q-98 0 -140 39t-42 108z" />
<glyph unicode="[" horiz-adv-x="675" d="M141 -297v1815h492v-140h-301v-1534h301v-141h-492z" />
<glyph unicode="\" horiz-adv-x="923" d="M23 1565h192l682 -1725h-192z" />
<glyph unicode="]" horiz-adv-x="675" d="M43 -158h301v1534h-301v142h492v-1815h-492v139z" />
<glyph unicode="^" horiz-adv-x="1103" d="M104 782l232 516q25 55 44 94.5t42.5 64t53.5 35.5t75 11t74.5 -11t52 -35.5t43 -63.5t45.5 -95l231 -516l-151 -59l-238 565q-14 33 -26.5 49.5t-30.5 16.5t-30.5 -16.5t-26.5 -49.5l-238 -565z" />
<glyph unicode="_" horiz-adv-x="1058" d="M100 0h858v-162h-858v162z" />
<glyph unicode="`" horiz-adv-x="591" d="M102 1526l150 104l237 -368l-94 -70z" />
<glyph unicode="a" horiz-adv-x="1050" d="M86 295q0 90 32 152.5t89 102.5t138 58.5t179 18.5h176v51q0 129 -39.5 185.5t-152.5 56.5q-147 0 -301 -62l-47 127q59 25 151 51.5t221 26.5q121 0 191 -33t105.5 -90t46 -135t10.5 -166v-440l88 -131l-133 -101l-97 117q-59 -47 -132.5 -84t-188.5 -37q-152 0 -244 81 t-92 251zM276 303q0 -100 44.5 -148.5t128.5 -48.5q90 0 154.5 33t96.5 68v293h-163q-141 0 -201 -43t-60 -154z" />
<glyph unicode="b" horiz-adv-x="1148" d="M168 16v1461h190v-469q51 25 109.5 40t130.5 15q207 0 320.5 -137.5t113.5 -409.5q0 -121 -26.5 -222t-86 -175t-155.5 -115t-236 -41q-115 0 -213 16.5t-147 36.5zM358 119q25 -10 78 -15.5t113 -5.5q154 0 220.5 105.5t66.5 316.5q0 184 -60.5 294t-206.5 110 q-61 0 -121.5 -16.5t-89.5 -39.5v-749z" />
<glyph unicode="c" horiz-adv-x="968" d="M115 504q0 119 28.5 221t89 178t153.5 118t224 42q94 0 173 -24.5t135 -57.5l-58 -127q-55 29 -116.5 48.5t-139.5 19.5q-152 0 -222.5 -103.5t-70.5 -314.5q0 -92 15.5 -165t50.5 -125t92 -80t141 -28q68 0 124.5 12.5t133.5 49.5l58 -123q-55 -31 -138 -56.5 t-192 -25.5q-139 0 -231.5 40t-147.5 110.5t-78.5 170t-23.5 220.5z" />
<glyph unicode="d" horiz-adv-x="1165" d="M115 512q0 123 31.5 224.5t94 174t157 112.5t216.5 40q53 0 100.5 -8t88.5 -19v471h190v-1308l88 -131l-133 -101l-94 111q-59 -47 -135 -81t-180 -34q-211 0 -317.5 136.5t-106.5 412.5zM311 512q0 -193 59.5 -301.5t196.5 -108.5q86 0 139.5 29t96.5 68v700 q-29 10 -81 19.5t-112 9.5q-154 0 -226.5 -106.5t-72.5 -309.5z" />
<glyph unicode="e" horiz-adv-x="1085" d="M115 512q0 113 26.5 213t82 175t141.5 119t206 44q115 0 194 -47t127 -122t69.5 -170t21.5 -189l-68 -72h-608q8 -180 80 -268.5t219 -88.5q78 0 147.5 16.5t131.5 45.5l57 -125q-49 -29 -142 -54.5t-196 -25.5q-141 0 -235.5 40t-150.5 111.5t-79.5 173t-23.5 224.5z M309 596h479q0 164 -59 248t-176 84q-127 0 -180.5 -88t-63.5 -244z" />
<glyph unicode="f" horiz-adv-x="720" d="M57 887v139h146v107q0 76 16.5 144.5t56 119.5t106.5 80.5t167 29.5q53 0 112.5 -14t110.5 -39l-49 -121q-20 10 -63.5 23.5t-96.5 13.5q-57 0 -91 -18.5t-51.5 -52t-22.5 -82t-5 -107.5v-84h295v-139h-295v-887h-190v887h-146z" />
<glyph unicode="g" horiz-adv-x="1155" d="M115 512q0 111 21.5 211t71.5 175t134 120t207 45q53 0 97 -12.5t79 -29.5t60.5 -36.5t43.5 -36.5l82 119l152 -80l-76 -174v-858q0 -197 -114.5 -306.5t-346.5 -109.5q-102 0 -196 18.5t-166 59.5l57 135q55 -27 124 -49t167 -22q162 0 223.5 74.5t61.5 234.5v45 q-51 -25 -108.5 -40t-121.5 -15q-227 0 -339.5 128t-112.5 404zM311 512q0 -193 63.5 -293t209.5 -100q66 0 115 13t98 46v639q-33 35 -86.5 71t-145.5 36q-123 0 -188.5 -99.5t-65.5 -312.5z" />
<glyph unicode="h" horiz-adv-x="1193" d="M168 0v1507h190v-559q72 53 154 84t164 31q102 0 170.5 -32t109.5 -86t57.5 -127t16.5 -152v-666h-190v655q0 129 -53.5 186.5t-155.5 57.5q-84 0 -150.5 -28.5t-122.5 -69.5v-801h-190z" />
<glyph unicode="i" horiz-adv-x="528" d="M43 891v135h322v-1026h-191v891h-131zM121 1354q0 59 33.5 99t93.5 40q61 0 95 -40t34 -99t-34 -98t-95 -39q-59 0 -93 38.5t-34 98.5z" />
<glyph unicode="j" horiz-adv-x="528" d="M-215 -406l47 127q39 -14 79 -27t99 -13q57 0 90 25.5t49.5 65.5t20.5 89t4 94v1071h191v-1106q0 -72 -15.5 -140.5t-54.5 -121.5t-104.5 -86t-165.5 -33q-51 0 -121 15.5t-119 39.5zM139 1356q0 55 33 95t94 40q63 0 95 -40t32 -95t-32 -94t-95 -39q-61 0 -94 38.5 t-33 94.5z" />
<glyph unicode="k" horiz-adv-x="1032" d="M166 0v1507h190v-858h64q35 0 50 6.5t32 24.5l307 369l164 -43l-352 -418l411 -565l-190 -46l-340 463q-27 37 -45.5 45.5t-59.5 8.5h-41v-494h-190z" />
<glyph unicode="l" horiz-adv-x="518" d="M37 1370v135h317v-1505h-190v1370h-127z" />
<glyph unicode="m" horiz-adv-x="1720" d="M92 987l152 80l88 -135q84 76 161.5 103.5t147.5 27.5q111 0 169 -35t97 -96q90 80 178.5 105.5t147.5 25.5q104 0 168.5 -32t98.5 -86t45 -127t11 -152v-666h-190v668q0 121 -36 177t-138 56q-59 0 -121.5 -22.5t-122.5 -71.5q4 -31 7 -69t3 -72v-666h-190v672 q0 117 -36 173t-138 56q-57 0 -116.5 -23.5t-115.5 -70.5v-807h-190v815z" />
<glyph unicode="n" horiz-adv-x="1187" d="M92 987l152 80l84 -135q92 70 174 100.5t174 30.5q102 0 170.5 -32t109.5 -86t57.5 -127t16.5 -152v-666h-190v655q0 129 -52.5 186.5t-156.5 57.5q-78 0 -148.5 -27.5t-120.5 -68.5v-803h-190v813z" />
<glyph unicode="o" horiz-adv-x="1161" d="M115 512q0 119 28.5 220.5t86 175t145.5 114.5t207 41q123 0 211 -41t144 -113.5t83 -174t27 -220.5q0 -121 -26 -221t-83 -174t-146.5 -115t-216.5 -41q-131 0 -219 41t-142 115t-76.5 174t-22.5 219zM311 512q0 -96 14.5 -173t46 -130t84 -82t126.5 -29 q147 0 207.5 106.5t60.5 309.5q0 195 -60.5 301.5t-207.5 106.5q-150 0 -210.5 -102.5t-60.5 -307.5z" />
<glyph unicode="p" horiz-adv-x="1167" d="M86 987l156 80l88 -131q53 49 122.5 88t170.5 39q211 0 320.5 -136t109.5 -413q0 -123 -33 -224.5t-96.5 -174t-159.5 -112.5t-221 -40q-45 0 -95.5 7t-89.5 18v-434h-190v1259zM358 129q35 -10 89.5 -20.5t105.5 -10.5q154 0 228.5 108.5t74.5 307.5q0 193 -56.5 301.5 t-189.5 108.5q-78 0 -131 -27t-121 -86v-682z" />
<glyph unicode="q" horiz-adv-x="1157" d="M117 512q0 123 32.5 224.5t96 174t159 112.5t222.5 40q109 0 208 -17.5t154 -39.5v-1452h-190v464q-51 -25 -107.5 -40t-124.5 -15q-231 0 -340.5 136.5t-109.5 412.5zM313 512q0 -193 60.5 -301.5t206.5 -108.5q72 0 121 13.5t98 46.5v745q-33 10 -83 15.5t-102 5.5 q-154 0 -227.5 -105.5t-73.5 -310.5z" />
<glyph unicode="r" horiz-adv-x="790" d="M55 891v135h264l33 -133q27 29 55.5 55.5t63.5 46t79 30.5t101 11q74 0 129 -16l-53 -172q-25 10 -55.5 14t-59.5 4q-150 0 -239 -102v-764h-191v891h-127z" />
<glyph unicode="s" horiz-adv-x="927" d="M59 63l62 130q47 -27 128 -58t185 -31q109 0 172.5 37t63.5 121q0 47 -20.5 77t-55.5 49.5t-81 31.5t-97 26q-57 14 -113.5 35t-100.5 53.5t-72 84t-28 129.5q0 68 24 125t73 99t121.5 66.5t171.5 24.5q98 0 184 -23.5t143 -56.5l-57 -125q-129 70 -273 70 q-100 0 -156.5 -35t-56.5 -113q0 -45 18.5 -73.5t50.5 -48t74 -33t87 -25.5q53 -16 112.5 -33.5t108.5 -51.5t81 -87t32 -139q0 -154 -97.5 -240t-302.5 -86q-135 0 -234.5 35t-146.5 65z" />
<glyph unicode="t" horiz-adv-x="786" d="M37 887v139h192v305h185v-305h303v-139h-303v-592q0 -59 10 -95t29.5 -55.5t46 -26.5t59.5 -7t75 8t81 24l41 -125q-35 -18 -98.5 -33.5t-129.5 -15.5q-72 0 -128 14.5t-95 48.5t-60.5 92t-21.5 146v617h-186z" />
<glyph unicode="u" horiz-adv-x="1142" d="M143 360v666h191v-668q0 -121 46 -186.5t155 -65.5q90 0 146 29t105 72v819h191v-831l84 -125l-137 -103l-95 115q-82 -63 -158.5 -91t-168.5 -28q-113 0 -182.5 32t-108.5 86t-53.5 127t-14.5 152z" />
<glyph unicode="v" horiz-adv-x="1060" d="M37 1016l192 31l269 -883q10 -37 19 -52.5t32 -15.5q25 0 32 15.5t19 52.5l266 883l164 -33l-264 -844q-31 -100 -80 -153.5t-137 -53.5q-59 0 -99 12.5t-68 37t-46.5 63.5t-34.5 94z" />
<glyph unicode="w" horiz-adv-x="1525" d="M47 1022l189 22l182 -894q10 -53 33 -54q16 0 22 12.5t14 41.5l211 876h154l209 -876q10 -53 31 -54q16 0 22 12.5t12 41.5l201 894l168 -22l-203 -852q-23 -102 -68.5 -154.5t-133.5 -52.5q-59 0 -95.5 11.5t-60 37t-36.5 64.5t-26 94l-112 481l-105 -481 q-25 -102 -70.5 -154.5t-133.5 -52.5q-59 0 -96.5 11.5t-60 36t-36.5 64.5t-27 95z" />
<glyph unicode="x" horiz-adv-x="958" d="M20 23l310 491l-297 481l168 49l237 -397q12 -20 20.5 -26.5t18.5 -6.5q16 0 35 29l231 406l148 -48l-277 -466l324 -510l-168 -48l-256 414q-16 23 -24.5 30t-20.5 7q-20 0 -45 -39l-262 -416z" />
<glyph unicode="y" horiz-adv-x="1015" d="M31 1018l188 31l189 -709q14 -57 31.5 -92t37 -54.5t42 -25.5t48.5 -6h29l221 887l170 -33l-307 -1178q-41 -154 -124 -226.5t-224 -72.5q-37 0 -74 6t-69.5 15.5t-59.5 18.5t-41 18l47 120q33 -12 83 -27.5t116 -15.5q78 0 121 46.5t65 138.5l43 168h-35 q-66 0 -113.5 15t-83.5 51t-62.5 92.5t-49.5 138.5z" />
<glyph unicode="z" horiz-adv-x="919" d="M66 137q0 39 12 72t47 76l489 604h-518v137h754v-133l-571 -703q-10 -12 -11.5 -19t-1.5 -9q0 -23 35 -23h555v-139h-625q-86 0 -125.5 39t-39.5 98z" />
<glyph unicode="{" horiz-adv-x="833" d="M100 537v147h107q43 0 63.5 28.5t20.5 75.5v351q0 186 86 287.5t274 101.5q18 0 40 -2t42.5 -5t39 -6.5t28.5 -7.5l-29 -131q-29 10 -58.5 13.5t-60.5 3.5q-96 0 -135 -59.5t-39 -174.5v-315q0 -90 -17.5 -147.5t-78.5 -86.5q61 -29 78.5 -86t17.5 -147v-316 q0 -115 39 -174t135 -59q31 0 60.5 3t58.5 13l29 -131q-10 -4 -28.5 -7t-39 -6t-42 -5t-40.5 -2q-188 0 -274 101.5t-86 287.5v350q0 47 -20.5 76t-63.5 29h-107z" />
<glyph unicode="|" horiz-adv-x="493" d="M156 -465v2085h182v-2085h-182z" />
<glyph unicode="}" horiz-adv-x="833" d="M33 -287l28 131q29 -10 59 -13t60 -3q96 0 135 59.5t39 173.5v316q0 90 17.5 147.5t79.5 85.5q-61 29 -79 86.5t-18 147.5v315q0 115 -39 174.5t-135 59.5q-31 0 -60.5 -3.5t-58.5 -13.5l-28 131q20 8 67 14.5t82 6.5q188 0 274.5 -101.5t86.5 -287.5v-351 q0 -47 20.5 -75.5t63.5 -28.5h106v-147h-106q-43 0 -63.5 -29t-20.5 -76v-350q0 -186 -86 -287.5t-275 -101.5q-35 0 -82 6t-67 14z" />
<glyph unicode="~" horiz-adv-x="1257" d="M164 721q18 27 48 56.5t67.5 54t83 40t96.5 15.5q49 0 89 -16.5t79 -35t80 -35t92 -16.5q63 0 111 34t83 75l101 -111q-18 -27 -48 -56.5t-68 -54t-83 -40t-96 -15.5q-49 0 -90 16.5t-79 35t-79 35t-92 16.5q-63 0 -111.5 -34t-83.5 -75z" />
<glyph unicode="&#xa1;" horiz-adv-x="565" d="M154 907q0 61 30.5 101.5t96.5 40.5q68 0 98.5 -40t30.5 -102q0 -61 -30.5 -101t-98.5 -40q-66 0 -96.5 40t-30.5 101zM174 -463l27 1057h159l27 -1057h-213z" />
<glyph unicode="&#xa2;" horiz-adv-x="1216" d="M223 649q0 106 22.5 200.5t71 167.5t123 120t178.5 63v236h160v-230q76 -8 138.5 -30.5t109.5 -49.5l-57 -127q-55 29 -116.5 48.5t-139.5 19.5q-152 0 -222.5 -103.5t-70.5 -314.5q0 -92 15.5 -164.5t50 -125t92 -80t141.5 -27.5q68 0 124 12t134 49l57 -123 q-47 -27 -110.5 -48t-145.5 -31v-236h-160v238q-115 12 -190.5 56t-120.5 114.5t-64.5 163t-19.5 202.5z" />
<glyph unicode="&#xa3;" horiz-adv-x="1216" d="M92 655v138h234l75 297q23 92 54.5 163.5t82 120.5t122 76t174.5 27q94 0 180 -23.5t137 -54.5l-59 -133q-47 27 -119 44t-137 17q-39 0 -75 -7t-66.5 -29.5t-56.5 -63.5t-44 -111l-82 -323h403v-138h-438l-94 -379q-4 -16 -8 -33.5t-4 -33.5q0 -57 69 -57h623v-152h-750 q-84 0 -115.5 38t-31.5 85q0 31 6 61.5t14 65.5l105 405h-199z" />
<glyph unicode="&#xa4;" horiz-adv-x="1216" d="M90 319l156 158q-45 59 -67.5 123t-22.5 145q0 78 21.5 139.5t62.5 119.5l-150 149l133 123l142 -143q57 39 123.5 60t140.5 21q72 0 137 -20t123 -59l137 141l135 -123l-143 -145q41 -59 62.5 -122t21.5 -141q0 -86 -22.5 -148t-69.5 -122l151 -153l-129 -117l-147 149 q-113 -76 -256 -75q-72 0 -137.5 20t-120.5 57l-154 -153zM332 745q0 -61 23.5 -115.5t63.5 -94t94 -63t116 -23.5q61 0 115.5 23.5t94.5 63t63.5 94t23.5 115.5t-23.5 115.5t-63.5 94.5t-94.5 63.5t-115.5 23.5t-115.5 -23.5t-94.5 -63.5t-63.5 -94.5t-23.5 -115.5z" />
<glyph unicode="&#xa5;" horiz-adv-x="1216" d="M78 1458l188 37l299 -661q16 -37 25.5 -50.5t23.5 -13.5t23.5 12.5t28.5 51.5l309 657l166 -39l-301 -616q-10 -23 -22.5 -44.5t-26.5 -37.5h288v-136h-374v-161h374v-135h-374v-322h-201v322h-357v135h357v161h-357v136h267q-16 20 -26.5 41.5t-20.5 42.5z" />
<glyph unicode="&#xa6;" horiz-adv-x="493" d="M156 401h182v-866h-182v866zM156 877v743h182v-743h-182z" />
<glyph unicode="&#xa7;" horiz-adv-x="1144" d="M137 588q0 72 40 149.5t126 149.5q-47 31 -88 89t-41 146t34 153.5t91 111t135 68t164 22.5q53 0 104.5 -7.5t96.5 -17.5t79.5 -22.5t57.5 -24.5l-51 -139q-66 25 -134.5 43t-154.5 18q-47 0 -90 -8t-78 -29.5t-55.5 -56.5t-20.5 -88t27 -87t71 -57.5t100 -39t116 -31.5 q61 -16 122.5 -37t110.5 -54.5t79 -87t30 -139.5q0 -74 -40 -147.5t-114 -142.5q47 -37 83 -91.5t36 -140.5q0 -88 -34 -154.5t-91 -111.5t-134 -68.5t-163 -23.5q-117 0 -207 24.5t-133 46.5l51 136q63 -25 133 -43.5t156 -18.5q100 0 171 43t71 141q0 53 -27 87t-70 57.5 t-99 39t-116 29.5q-70 16 -132 38t-109 58t-75 88t-28 130zM311 621q0 -43 20.5 -72t54.5 -48.5t79 -33.5t96 -27q43 -10 86 -22.5t86 -28.5q55 47 80 99.5t25 99.5q0 43 -20.5 70.5t-55.5 48t-80 35t-96 26.5q-41 10 -82 22.5t-82 26.5q-57 -47 -84 -98t-27 -98z" />
<glyph unicode="&#xa8;" horiz-adv-x="1024" d="M150 1370q0 55 31.5 94t97.5 39q63 0 95 -39t32 -94q0 -53 -32 -92t-95 -39q-66 0 -97.5 39t-31.5 92zM612 1370q0 55 32 94t97 39q63 0 95 -39t32 -94q0 -53 -32 -92t-95 -39q-66 0 -97.5 39t-31.5 92z" />
<glyph unicode="&#xa9;" horiz-adv-x="1767" d="M143 737q0 154 53.5 288t150.5 233.5t234.5 158t305.5 58.5t305 -58.5t232.5 -158t147.5 -233.5t52 -288t-53 -288t-150.5 -233t-234.5 -157.5t-305 -58.5q-172 0 -309.5 58.5t-232.5 157.5t-145.5 233t-50.5 288zM276 737q0 -127 42 -239.5t121 -196.5t193 -133t255 -49 q143 0 255.5 49t191.5 133t120 196.5t41 239.5q0 129 -41 241t-120 195.5t-191.5 132t-255.5 48.5q-141 0 -255 -48.5t-193 -132t-121 -195.5t-42 -241zM502 737q0 94 23.5 174t73.5 138.5t127 92.5t183 34q70 0 133.5 -19.5t110.5 -44.5l-47 -106q-47 23 -97.5 36 t-105.5 13q-123 0 -179 -76t-56 -242q0 -143 52 -219t189 -76q55 0 107.5 14.5t101.5 39.5l41 -107q-37 -23 -107.5 -46.5t-154.5 -23.5q-113 0 -188.5 34t-121.5 91.5t-65.5 133t-19.5 159.5z" />
<glyph unicode="&#xaa;" horiz-adv-x="1038" d="M197 799q0 131 88 181t233 50h100v45q0 78 -23.5 113t-88.5 35q-49 0 -108.5 -11.5t-112.5 -29.5l-39 108q41 16 115.5 34.5t158.5 18.5q88 0 139.5 -23.5t78 -64.5t33.5 -96t7 -119v-303l66 -96l-119 -84l-66 86q-41 -29 -91 -52.5t-122 -23.5q-111 0 -180 54.5 t-69 177.5zM362 805q0 -59 28 -88t77 -29q47 0 88 15.5t63 35.5v185h-96q-86 0 -123 -27t-37 -92z" />
<glyph unicode="&#xab;" horiz-adv-x="1099" d="M133 561q0 61 33 104.5t74 79.5l215 195l127 -66l-226 -221q-27 -27 -41 -43t-14 -39t15.5 -39t56.5 -53l215 -198l-119 -72l-203 158q-63 49 -98 89t-35 105zM553 561q0 61 33 104.5t74 79.5l215 195l127 -66l-226 -221q-27 -27 -41 -43t-14 -39t15.5 -39t56.5 -53 l215 -198l-119 -72l-203 158q-63 49 -98 89t-35 105z" />
<glyph unicode="&#xac;" horiz-adv-x="1454" d="M250 614v164h952v-424h-149v260h-803z" />
<glyph unicode="&#xad;" horiz-adv-x="923" d="M152 553v182h620v-182h-620z" />
<glyph unicode="&#xae;" horiz-adv-x="1257" d="M115 969q0 104 35.5 197.5t102 163t162 110.5t214.5 41q123 0 219 -40t161.5 -108.5t99.5 -161t34 -196.5t-38 -196.5t-106.5 -160t-163 -107.5t-206.5 -40q-115 0 -209 39t-162 105.5t-105.5 158t-37.5 195.5zM238 969q0 -80 25.5 -150.5t75.5 -124t123 -84t167 -30.5 q100 0 174 31.5t123 86t72.5 126t23.5 151.5t-23.5 152.5t-72.5 127t-123 86t-174 31.5t-174 -32.5t-122 -88t-71.5 -129t-23.5 -153.5zM451 731v512h192q74 0 126 -31.5t52 -113.5q0 -53 -29.5 -89t-76.5 -57q10 -6 16 -15t17 -26l92 -159l-99 -25l-92 168q-12 23 -21.5 29 t-25.5 6h-51v-199h-100zM551 1001h76q47 0 67.5 24t20.5 67q0 80 -88 79h-76v-170z" />
<glyph unicode="&#xaf;" horiz-adv-x="1024" d="M190 1260v149h641v-149h-641z" />
<glyph unicode="&#xb0;" horiz-adv-x="733" d="M113 1214q0 53 18.5 99.5t52 81.5t80.5 54t103 19q55 0 102 -19t81 -54t52.5 -81t18.5 -100q0 -53 -18.5 -99t-52.5 -81t-81 -54t-102 -19q-119 0 -186.5 73.5t-67.5 179.5zM238 1214q0 -55 36 -95t93 -40t93 40t36 95t-37 95.5t-92 40.5t-92 -40t-37 -96z" />
<glyph unicode="&#xb1;" horiz-adv-x="1208" d="M145 0v164h916v-164h-916zM145 655v164h375v375h166v-375h375v-164h-375v-374h-166v374h-375z" />
<glyph unicode="&#xb2;" d="M123 692q0 25 12 55.5t49 61.5l211 182q45 39 77 71t51.5 59.5t28.5 55t9 60.5q0 59 -36 86t-93 27q-72 0 -130 -30t-101 -58l-70 102q59 43 139 78t183 35q137 0 204.5 -70t67.5 -170q0 -96 -53.5 -171t-157.5 -161l-211 -172q-10 -8 -8 -15t18 -7h424v-129h-475 q-139 0 -139 110z" />
<glyph unicode="&#xb3;" d="M111 655l61 109q45 -29 110.5 -51.5t137.5 -22.5q76 0 120 39t44 113q0 78 -49.5 110.5t-153.5 32.5h-76v94l262 252h-415v127h448q59 0 91 -24.5t32 -79.5q0 -31 -16.5 -57.5t-53.5 -61.5l-166 -150q125 -6 193 -66.5t68 -176.5q0 -55 -19.5 -106.5t-60.5 -89.5 t-103.5 -60.5t-148.5 -22.5q-94 0 -173 26.5t-132 65.5z" />
<glyph unicode="&#xb4;" horiz-adv-x="1024" d="M358 1262l238 368l149 -104l-292 -334z" />
<glyph unicode="&#xb5;" horiz-adv-x="1202" d="M184 -446v1472h191v-692q0 -102 46 -165t154 -63q90 0 146.5 29t105.5 72v819h191v-831l84 -125l-137 -103l-95 115q-82 -63 -151.5 -91t-149.5 -28q-72 0 -125 22.5t-69 51.5v-483h-191z" />
<glyph unicode="&#xb6;" horiz-adv-x="1165" d="M92 1006q0 143 54.5 234t134 143.5t169 73t158.5 20.5h506v-148h-164v-1237q0 -473 -432 -473q-53 0 -103 8t-91 19.5t-72 23t-45 19.5l47 137q45 -20 115.5 -38.5t144.5 -18.5q111 0 173.5 73.5t62.5 257.5v1229h-152v-772q-246 0 -376 105.5t-130 343.5z" />
<glyph unicode="&#xb7;" horiz-adv-x="702" d="M223 759q0 61 30.5 101.5t98.5 40.5q66 0 96.5 -40t30.5 -102q0 -61 -30.5 -101t-96.5 -40q-68 0 -98.5 40t-30.5 101z" />
<glyph unicode="&#xb8;" horiz-adv-x="1024" d="M258 -426l51 107q33 -16 78 -34t96 -18q45 0 72 22.5t27 59.5q0 63 -50.5 82t-128.5 19l54 208h143l-31 -122q37 -4 71 -15.5t60.5 -33t43 -53.5t16.5 -77q0 -92 -64.5 -151.5t-193.5 -59.5q-63 0 -133 18.5t-111 47.5z" />
<glyph unicode="&#xb9;" d="M123 1282l188 145q29 23 58.5 36.5t64.5 13.5q41 0 73 -19.5t32 -79.5v-671h196v-125h-565v125h207v587q0 23 -21 9l-153 -119z" />
<glyph unicode="&#xba;" horiz-adv-x="1054" d="M193 950q0 86 20 158t62 124t105.5 81.5t149.5 29.5t148.5 -28.5t102.5 -80.5t59.5 -124t19.5 -158q0 -80 -19.5 -150.5t-60.5 -122.5t-104.5 -82t-153.5 -30q-94 0 -157.5 30t-101.5 82t-54 121.5t-16 149.5zM352 950q0 -129 38 -200.5t136 -71.5q96 0 135 71.5 t39 202.5q0 129 -38.5 203t-135.5 74q-98 0 -136 -72t-38 -207z" />
<glyph unicode="&#xbb;" horiz-adv-x="1079" d="M92 281l215 198q41 37 56.5 53.5t15.5 38.5q0 23 -14.5 39.5t-40.5 42.5l-226 221l127 66l215 -195q41 -37 74 -75.5t33 -100.5q0 -66 -35 -109.5t-98 -92.5l-203 -158zM491 281l215 198q41 37 56.5 53.5t15.5 38.5q0 23 -14.5 39.5t-40.5 42.5l-226 221l127 66l215 -195 q41 -37 74 -75.5t33 -100.5q0 -66 -35 -109.5t-98 -92.5l-203 -158z" />
<glyph unicode="&#xbc;" horiz-adv-x="2048" d="M107 1282l188 145q29 23 58.5 36.5t64.5 13.5q41 0 73 -19.5t32 -79.5v-671h196v-125h-565v125h207v587q0 23 -21 9l-153 -119zM523 0l901 1477h182l-899 -1477h-184zM1186 327q0 33 13.5 60.5t41.5 62.5l359 428h135v-538h131v-117h-131v-221h-154v221h-260 q-72 0 -103.5 25.5t-31.5 78.5zM1321 364q-20 -25 4 -24h256v331z" />
<glyph unicode="&#xbd;" horiz-adv-x="2048" d="M100 1282l188 145q29 23 58.5 36.5t64.5 13.5q41 0 73 -19.5t32 -79.5v-671h196v-125h-565v125h207v587q0 23 -21 9l-153 -119zM510 0l901 1477h182l-899 -1477h-184zM1317 110q0 25 12 55.5t49 61.5l211 182q45 39 77 71t51.5 59.5t28.5 55t9 60.5q0 59 -36 86t-93 27 q-72 0 -130 -30t-101 -58l-70 102q59 43 139 78t183 35q137 0 204.5 -70t67.5 -170q0 -96 -53.5 -171t-157.5 -161l-211 -172q-10 -8 -8 -15t18 -7h424v-129h-475q-139 0 -139 110z" />
<glyph unicode="&#xbe;" horiz-adv-x="2048" d="M103 655l61 109q45 -29 110.5 -51.5t137.5 -22.5q76 0 120 39t44 113q0 78 -49.5 110.5t-153.5 32.5h-76v94l262 252h-415v127h448q59 0 91 -24.5t32 -79.5q0 -31 -16.5 -57.5t-53.5 -61.5l-166 -150q125 -6 193 -66.5t68 -176.5q0 -55 -19.5 -106.5t-60.5 -89.5 t-103.5 -60.5t-148.5 -22.5q-94 0 -173 26.5t-132 65.5zM508 0l901 1477h182l-899 -1477h-184zM1194 327q0 33 13.5 60.5t41.5 62.5l359 428h135v-538h131v-117h-131v-221h-154v221h-260q-72 0 -103.5 25.5t-31.5 78.5zM1329 364q-20 -25 4 -24h256v331z" />
<glyph unicode="&#xbf;" horiz-adv-x="1165" d="M182 -121q0 119 51.5 198t131.5 146l98 82q35 29 59.5 52.5t41 48t23.5 53t7 67.5v66h156v-107q0 -49 -8.5 -84.5t-24 -65.5t-38 -54.5t-50.5 -49.5l-127 -114q-63 -55 -93 -107.5t-30 -111.5q0 -106 62.5 -172t203.5 -66q113 0 199 37t149 92l80 -123 q-86 -70 -198.5 -112.5t-243.5 -42.5q-115 0 -199 29.5t-139 79.5t-83 116.5t-28 142.5zM541 905q0 61 30.5 101.5t96.5 40.5q68 0 98.5 -40t30.5 -102q0 -61 -30.5 -101t-98.5 -40q-66 0 -96.5 40t-30.5 101z" />
<glyph unicode="&#xc0;" horiz-adv-x="1323" d="M37 2l395 1282q33 104 79 160.5t138 56.5q55 0 92 -8t63.5 -32.5t47 -66.5t43.5 -110l401 -1284l-196 -33l-162 508h-580l-155 -508zM401 627h496l-195 641q-12 41 -23 56t-30 15q-23 0 -32 -15t-21 -56zM440 1851l138 123l282 -329l-84 -78z" />
<glyph unicode="&#xc1;" horiz-adv-x="1323" d="M37 2l395 1282q33 104 79 160.5t138 56.5q55 0 92 -8t63.5 -32.5t47 -66.5t43.5 -110l401 -1284l-196 -33l-162 508h-580l-155 -508zM401 627h496l-195 641q-12 41 -23 56t-30 15q-23 0 -32 -15t-21 -56zM534 1636l285 334l137 -123l-340 -284z" />
<glyph unicode="&#xc2;" horiz-adv-x="1323" d="M37 2l395 1282q33 104 79 160.5t138 56.5q55 0 92 -8t63.5 -32.5t47 -66.5t43.5 -110l401 -1284l-196 -33l-162 508h-580l-155 -508zM379 1636l209 256h158l199 -254l-82 -71l-197 170l-201 -170zM401 627h496l-195 641q-12 41 -23 56t-30 15q-23 0 -32 -15t-21 -56z" />
<glyph unicode="&#xc3;" horiz-adv-x="1323" d="M37 2l395 1282q33 104 79 160.5t138 56.5q55 0 92 -8t63.5 -32.5t47 -66.5t43.5 -110l401 -1284l-196 -33l-162 508h-580l-155 -508zM272 1602q0 123 40 193.5t136 70.5q35 0 77 -10.5t83 -26.5l86 -33q41 -16 72.5 -27.5t56.5 -11.5q39 0 57.5 23.5t18.5 91.5h116 q0 -266 -170 -266q-47 0 -88 12t-88 29l-75 28q-39 16 -75 27.5t-63 11.5q-39 0 -54 -22.5t-15 -89.5h-115zM401 627h496l-195 641q-12 41 -23 56t-30 15q-23 0 -32 -15t-21 -56z" />
<glyph unicode="&#xc4;" horiz-adv-x="1323" d="M37 2l395 1282q33 104 79 160.5t138 56.5q55 0 92 -8t63.5 -32.5t47 -66.5t43.5 -110l401 -1284l-196 -33l-162 508h-580l-155 -508zM293 1726q0 55 31.5 94.5t97.5 39.5q63 0 95 -39t32 -95q0 -53 -32 -92t-95 -39q-66 0 -97.5 39t-31.5 92zM401 627h496l-195 641 q-12 41 -23 56t-30 15q-23 0 -32 -15t-21 -56zM755 1726q0 55 32 94.5t97 39.5q63 0 95 -39t32 -95q0 -53 -32 -92t-95 -39q-66 0 -97.5 39t-31.5 92z" />
<glyph unicode="&#xc5;" horiz-adv-x="1323" d="M37 2l395 1282q33 104 79 160.5t138 56.5q55 0 92 -8t63.5 -32.5t47 -66.5t43.5 -110l401 -1284l-196 -33l-162 508h-580l-155 -508zM395 1819q0 55 20.5 103t56 84t84 56.5t103.5 20.5t103.5 -20.5t84 -56.5t56 -84t20.5 -103t-20.5 -103.5t-56 -84.5t-84 -56.5 t-103.5 -20.5t-103.5 20.5t-84 56.5t-56 84.5t-20.5 103.5zM401 627h496l-195 641q-12 41 -23 56t-30 15q-23 0 -32 -15t-21 -56zM526 1819q0 -55 38 -95.5t95 -40.5t95 40t38 96q0 55 -39 95t-94 40t-94 -40t-39 -95z" />
<glyph unicode="&#xc6;" horiz-adv-x="1976" d="M31 27l573 1206q53 115 135 179.5t230 64.5h901v-156h-701v-502h529v-155h-529v-508h725v-156h-925v664h-449l-323 -684zM588 819h381v506q-47 0 -78 -8t-52.5 -23.5t-38 -40t-30.5 -55.5z" />
<glyph unicode="&#xc7;" horiz-adv-x="1214" d="M123 735q0 166 38 307.5t115.5 245t197.5 161.5t284 58q125 0 226 -32.5t167 -73.5l-70 -133q-68 41 -146.5 64.5t-170.5 23.5q-86 0 -163 -26.5t-135 -95.5t-93 -189.5t-35 -309.5q0 -305 101.5 -459.5t322.5 -154.5q53 0 96 5t83 16.5t80 29.5t85 45l76 -129 q-59 -45 -158.5 -80t-220.5 -43l-17 -67q37 -4 71 -15.5t60.5 -33t43 -53.5t16.5 -77q0 -92 -64.5 -151.5t-193.5 -59.5q-63 0 -133 18.5t-111 47.5l51 107q33 -16 78 -34t96 -18q45 0 72 22.5t27 59.5q0 63 -50.5 82t-127.5 19l38 155q-147 14 -249.5 76.5t-166 163 t-92 234.5t-28.5 294z" />
<glyph unicode="&#xc8;" horiz-adv-x="1181" d="M174 0v1477h901v-156h-700v-473h528v-156h-528v-536h725v-156h-926zM346 1851l138 123l282 -329l-84 -78z" />
<glyph unicode="&#xc9;" horiz-adv-x="1181" d="M174 0v1477h901v-156h-700v-473h528v-156h-528v-536h725v-156h-926zM489 1636l285 334l137 -123l-340 -284z" />
<glyph unicode="&#xca;" horiz-adv-x="1181" d="M174 0v1477h901v-156h-700v-473h528v-156h-528v-536h725v-156h-926zM350 1636l209 256h158l199 -254l-82 -71l-197 170l-201 -170z" />
<glyph unicode="&#xcb;" horiz-adv-x="1181" d="M174 0v1477h901v-156h-700v-473h528v-156h-528v-536h725v-156h-926zM263 1726q0 55 31.5 94.5t97.5 39.5q63 0 95 -39t32 -95q0 -53 -32 -92t-95 -39q-66 0 -97.5 39t-31.5 92zM725 1726q0 55 32 94.5t97 39.5q63 0 95 -39t32 -95q0 -53 -32 -92t-95 -39q-66 0 -97.5 39 t-31.5 92z" />
<glyph unicode="&#xcc;" horiz-adv-x="573" d="M32 1851l138 123l282 -329l-84 -78zM186 0v1477h201v-1477h-201z" />
<glyph unicode="&#xcd;" horiz-adv-x="573" d="M110 1636l285 334l137 -123l-340 -284zM186 0v1477h201v-1477h-201z" />
<glyph unicode="&#xce;" horiz-adv-x="573" d="M6 1636l209 256h158l199 -254l-82 -71l-197 170l-201 -170zM186 0v1477h201v-1477h-201z" />
<glyph unicode="&#xcf;" horiz-adv-x="573" d="M-69 1726q0 55 31.5 94.5t97.5 39.5q63 0 95 -39t32 -95q0 -53 -32 -92t-95 -39q-66 0 -97.5 39t-31.5 92zM186 0v1477h201v-1477h-201zM393 1726q0 55 32 94.5t97 39.5q63 0 95 -39t32 -95q0 -53 -32 -92t-95 -39q-66 0 -97.5 39t-31.5 92z" />
<glyph unicode="&#xd0;" horiz-adv-x="1439" d="M39 674v145h145v658h467q172 0 297 -51.5t206 -146.5t120 -232.5t39 -311.5q0 -170 -40 -305t-122 -231.5t-207 -147.5t-293 -51h-467v674h-145zM385 154h274q129 0 214 43t135.5 120.5t71 185t20.5 234.5q0 123 -21.5 230.5t-72 187.5t-135.5 126t-212 46h-274v-508h418 v-145h-418v-520z" />
<glyph unicode="&#xd1;" horiz-adv-x="1419" d="M180 0v1477h199l639 -1260q14 -29 21.5 -38t17.5 -9q16 0 16 31v1276h166v-1272q0 -123 -49 -171t-131 -48q-37 0 -66.5 6t-54.5 22.5t-47.5 45t-44.5 73.5l-500 987v-1120h-166zM356 1602q0 123 40 193.5t136 70.5q35 0 77 -10.5t83 -26.5l86 -33q41 -16 72.5 -27.5 t56.5 -11.5q39 0 57.5 23.5t18.5 91.5h116q0 -266 -170 -266q-47 0 -88 12t-88 29l-75 28q-39 16 -75 27.5t-63 11.5q-39 0 -54 -22.5t-15 -89.5h-115z" />
<glyph unicode="&#xd2;" horiz-adv-x="1478" d="M123 735q0 168 38 310.5t114.5 245t192.5 159.5t271 57q160 0 277 -55t191.5 -156.5t111.5 -244t37 -316.5q0 -170 -38 -311t-115 -243.5t-192.5 -160t-271.5 -57.5q-160 0 -276.5 54.5t-191 155.5t-111.5 243.5t-37 318.5zM338 733q0 -123 19.5 -234.5t66.5 -195.5 t123.5 -134t191.5 -50q119 0 196 49t123 133t64.5 196.5t18.5 239.5q0 123 -20.5 234.5t-66.5 197.5t-124 136.5t-191 50.5q-119 0 -195.5 -49.5t-122.5 -134.5t-64.5 -198.5t-18.5 -240.5zM501 1851l138 123l282 -329l-84 -78z" />
<glyph unicode="&#xd3;" horiz-adv-x="1478" d="M123 735q0 168 38 310.5t114.5 245t192.5 159.5t271 57q160 0 277 -55t191.5 -156.5t111.5 -244t37 -316.5q0 -170 -38 -311t-115 -243.5t-192.5 -160t-271.5 -57.5q-160 0 -276.5 54.5t-191 155.5t-111.5 243.5t-37 318.5zM338 733q0 -123 19.5 -234.5t66.5 -195.5 t123.5 -134t191.5 -50q119 0 196 49t123 133t64.5 196.5t18.5 239.5q0 123 -20.5 234.5t-66.5 197.5t-124 136.5t-191 50.5q-119 0 -195.5 -49.5t-122.5 -134.5t-64.5 -198.5t-18.5 -240.5zM594 1636l285 334l137 -123l-340 -284z" />
<glyph unicode="&#xd4;" horiz-adv-x="1478" d="M123 735q0 168 38 310.5t114.5 245t192.5 159.5t271 57q160 0 277 -55t191.5 -156.5t111.5 -244t37 -316.5q0 -170 -38 -311t-115 -243.5t-192.5 -160t-271.5 -57.5q-160 0 -276.5 54.5t-191 155.5t-111.5 243.5t-37 318.5zM338 733q0 -123 19.5 -234.5t66.5 -195.5 t123.5 -134t191.5 -50q119 0 196 49t123 133t64.5 196.5t18.5 239.5q0 123 -20.5 234.5t-66.5 197.5t-124 136.5t-191 50.5q-119 0 -195.5 -49.5t-122.5 -134.5t-64.5 -198.5t-18.5 -240.5zM469 1636l209 256h158l199 -254l-82 -71l-197 170l-201 -170z" />
<glyph unicode="&#xd5;" horiz-adv-x="1478" d="M123 735q0 168 38 310.5t114.5 245t192.5 159.5t271 57q160 0 277 -55t191.5 -156.5t111.5 -244t37 -316.5q0 -170 -38 -311t-115 -243.5t-192.5 -160t-271.5 -57.5q-160 0 -276.5 54.5t-191 155.5t-111.5 243.5t-37 318.5zM338 733q0 -123 19.5 -234.5t66.5 -195.5 t123.5 -134t191.5 -50q119 0 196 49t123 133t64.5 196.5t18.5 239.5q0 123 -20.5 234.5t-66.5 197.5t-124 136.5t-191 50.5q-119 0 -195.5 -49.5t-122.5 -134.5t-64.5 -198.5t-18.5 -240.5zM363 1602q0 123 40 193.5t136 70.5q35 0 77 -10.5t83 -26.5l86 -33 q41 -16 72.5 -27.5t56.5 -11.5q39 0 57.5 23.5t18.5 91.5h116q0 -266 -170 -266q-47 0 -88 12t-88 29l-75 28q-39 16 -75 27.5t-63 11.5q-39 0 -54 -22.5t-15 -89.5h-115z" />
<glyph unicode="&#xd6;" horiz-adv-x="1478" d="M123 735q0 168 38 310.5t114.5 245t192.5 159.5t271 57q160 0 277 -55t191.5 -156.5t111.5 -244t37 -316.5q0 -170 -38 -311t-115 -243.5t-192.5 -160t-271.5 -57.5q-160 0 -276.5 54.5t-191 155.5t-111.5 243.5t-37 318.5zM338 733q0 -123 19.5 -234.5t66.5 -195.5 t123.5 -134t191.5 -50q119 0 196 49t123 133t64.5 196.5t18.5 239.5q0 123 -20.5 234.5t-66.5 197.5t-124 136.5t-191 50.5q-119 0 -195.5 -49.5t-122.5 -134.5t-64.5 -198.5t-18.5 -240.5zM396 1726q0 55 31.5 94.5t97.5 39.5q63 0 95 -39t32 -95q0 -53 -32 -92t-95 -39 q-66 0 -97.5 39t-31.5 92zM858 1726q0 55 32 94.5t97 39.5q63 0 95 -39t32 -95q0 -53 -32 -92t-95 -39q-66 0 -97.5 39t-31.5 92z" />
<glyph unicode="&#xd7;" horiz-adv-x="1208" d="M205 975l123 123l282 -283l277 277l114 -117l-276 -277l283 -282l-121 -121l-283 283l-276 -277l-115 117l274 274z" />
<glyph unicode="&#xd8;" horiz-adv-x="1478" d="M123 735q0 168 38 310.5t114.5 245t192.5 159.5t271 57q170 0 295 -65l92 172h181l-144 -271q98 -102 145.5 -255.5t47.5 -352.5q0 -170 -38 -311t-115 -243.5t-192.5 -160t-271.5 -57.5q-162 0 -278 55l-99 -186h-180l146 277q-104 100 -154.5 258.5t-50.5 367.5z M338 733q0 -127 20.5 -239.5t69.5 -198.5l526 993q-43 33 -96 50.5t-119 17.5q-119 0 -195.5 -49.5t-122.5 -134.5t-64.5 -198.5t-18.5 -240.5zM543 172q82 -53 196 -53q119 0 196 49t123 133t64.5 196.5t18.5 239.5q0 117 -18.5 223.5t-59.5 192.5z" />
<glyph unicode="&#xd9;" horiz-adv-x="1409" d="M176 555v922h201v-887q0 -109 10 -197t44 -149.5t98.5 -94t172.5 -32.5q109 0 177.5 30.5t106.5 90t52.5 145.5t14.5 199v895h180v-899q0 -135 -24.5 -249t-86 -195t-165 -126t-261.5 -45q-156 0 -256 39t-158.5 113.5t-82 185.5t-23.5 254zM487 1851l138 123l282 -329 l-84 -78z" />
<glyph unicode="&#xda;" horiz-adv-x="1409" d="M176 555v922h201v-887q0 -109 10 -197t44 -149.5t98.5 -94t172.5 -32.5q109 0 177.5 30.5t106.5 90t52.5 145.5t14.5 199v895h180v-899q0 -135 -24.5 -249t-86 -195t-165 -126t-261.5 -45q-156 0 -256 39t-158.5 113.5t-82 185.5t-23.5 254zM592 1636l285 334l137 -123 l-340 -284z" />
<glyph unicode="&#xdb;" horiz-adv-x="1409" d="M176 555v922h201v-887q0 -109 10 -197t44 -149.5t98.5 -94t172.5 -32.5q109 0 177.5 30.5t106.5 90t52.5 145.5t14.5 199v895h180v-899q0 -135 -24.5 -249t-86 -195t-165 -126t-261.5 -45q-156 0 -256 39t-158.5 113.5t-82 185.5t-23.5 254zM450 1636l209 256h158 l199 -254l-82 -71l-197 170l-201 -170z" />
<glyph unicode="&#xdc;" horiz-adv-x="1409" d="M176 555v922h201v-887q0 -109 10 -197t44 -149.5t98.5 -94t172.5 -32.5q109 0 177.5 30.5t106.5 90t52.5 145.5t14.5 199v895h180v-899q0 -135 -24.5 -249t-86 -195t-165 -126t-261.5 -45q-156 0 -256 39t-158.5 113.5t-82 185.5t-23.5 254zM361 1726q0 55 31.5 94.5 t97.5 39.5q63 0 95 -39t32 -95q0 -53 -32 -92t-95 -39q-66 0 -97.5 39t-31.5 92zM823 1726q0 55 32 94.5t97 39.5q63 0 95 -39t32 -95q0 -53 -32 -92t-95 -39q-66 0 -97.5 39t-31.5 92z" />
<glyph unicode="&#xdd;" horiz-adv-x="1165" d="M31 1458l188 37l320 -715q16 -37 25 -54t24 -17q14 0 23.5 16t29.5 55l328 711l166 -39l-326 -688q-35 -68 -63.5 -117t-67.5 -74v-573h-201v571q-25 12 -41 28.5t-30.5 40.5t-29 54.5t-32.5 69.5zM481 1636l285 334l137 -123l-340 -284z" />
<glyph unicode="&#xde;" horiz-adv-x="1200" d="M174 0v1477h201v-222h248q104 0 196 -20.5t161 -70.5t107.5 -133t38.5 -208q0 -84 -31.5 -164.5t-94 -144t-157.5 -103.5t-220 -40h-248v-371h-201zM375 524h215q170 0 251 69t81 222q0 88 -24 145.5t-67 90t-103 45t-136 12.5h-217v-584z" />
<glyph unicode="&#xdf;" horiz-adv-x="1224" d="M143 0v1108q0 84 27 156.5t81 126t137 83t198 29.5q119 0 197.5 -25.5t123.5 -66.5t63.5 -90t18.5 -96q0 -68 -35.5 -123t-77.5 -102.5t-78 -91.5t-36 -89q0 -41 27.5 -70.5t68.5 -58t89 -60.5t89 -76t69 -105.5t28 -147.5q0 -68 -24 -129t-71 -107.5t-119.5 -74 t-173.5 -27.5q-119 0 -193.5 23.5t-111.5 44.5l56 133q41 -18 104.5 -40t147.5 -22q119 0 169 51.5t50 133.5q0 61 -29 102t-72 74t-92 60.5t-92 62.5t-71.5 81t-28.5 113q0 70 35.5 125.5t77.5 104.5t78 97t36 107q0 63 -47 108.5t-176 45.5q-139 0 -195.5 -79t-56.5 -222 v-1067h-191z" />
<glyph unicode="&#xe0;" horiz-adv-x="1050" d="M86 295q0 90 32 152.5t89 102.5t138 58.5t179 18.5h176v51q0 129 -39.5 185.5t-152.5 56.5q-147 0 -301 -62l-47 127q59 25 151 51.5t221 26.5q121 0 191 -33t105.5 -90t46 -135t10.5 -166v-440l88 -131l-133 -101l-97 117q-59 -47 -132.5 -84t-188.5 -37q-152 0 -244 81 t-92 251zM276 303q0 -100 44.5 -148.5t128.5 -48.5q90 0 154.5 33t96.5 68v293h-163q-141 0 -201 -43t-60 -154zM284 1526l150 104l237 -368l-94 -70z" />
<glyph unicode="&#xe1;" horiz-adv-x="1050" d="M86 295q0 90 32 152.5t89 102.5t138 58.5t179 18.5h176v51q0 129 -39.5 185.5t-152.5 56.5q-147 0 -301 -62l-47 127q59 25 151 51.5t221 26.5q121 0 191 -33t105.5 -90t46 -135t10.5 -166v-440l88 -131l-133 -101l-97 117q-59 -47 -132.5 -84t-188.5 -37q-152 0 -244 81 t-92 251zM276 303q0 -100 44.5 -148.5t128.5 -48.5q90 0 154.5 33t96.5 68v293h-163q-141 0 -201 -43t-60 -154zM391 1262l238 368l149 -104l-292 -334z" />
<glyph unicode="&#xe2;" horiz-adv-x="1050" d="M86 295q0 90 32 152.5t89 102.5t138 58.5t179 18.5h176v51q0 129 -39.5 185.5t-152.5 56.5q-147 0 -301 -62l-47 127q59 25 151 51.5t221 26.5q121 0 191 -33t105.5 -90t46 -135t10.5 -166v-440l88 -131l-133 -101l-97 117q-59 -47 -132.5 -84t-188.5 -37q-152 0 -244 81 t-92 251zM221 1245l221 340h158l215 -344l-94 -63l-199 243l-205 -241zM276 303q0 -100 44.5 -148.5t128.5 -48.5q90 0 154.5 33t96.5 68v293h-163q-141 0 -201 -43t-60 -154z" />
<glyph unicode="&#xe3;" horiz-adv-x="1050" d="M86 295q0 90 32 152.5t89 102.5t138 58.5t179 18.5h176v51q0 129 -39.5 185.5t-152.5 56.5q-147 0 -301 -62l-47 127q59 25 151 51.5t221 26.5q121 0 191 -33t105.5 -90t46 -135t10.5 -166v-440l88 -131l-133 -101l-97 117q-59 -47 -132.5 -84t-188.5 -37q-152 0 -244 81 t-92 251zM145 1229q0 123 40 193.5t136 70.5q35 0 77 -10t83 -27l86 -33q41 -16 72.5 -27.5t56.5 -11.5q39 0 57.5 24t18.5 91h116q0 -266 -170 -266q-47 0 -88 12t-88 29l-75 29q-39 16 -75 27t-63 11q-39 0 -54 -22.5t-15 -89.5h-115zM276 303q0 -100 44.5 -148.5 t128.5 -48.5q90 0 154.5 33t96.5 68v293h-163q-141 0 -201 -43t-60 -154z" />
<glyph unicode="&#xe4;" horiz-adv-x="1050" d="M86 295q0 90 32 152.5t89 102.5t138 58.5t179 18.5h176v51q0 129 -39.5 185.5t-152.5 56.5q-147 0 -301 -62l-47 127q59 25 151 51.5t221 26.5q121 0 191 -33t105.5 -90t46 -135t10.5 -166v-440l88 -131l-133 -101l-97 117q-59 -47 -132.5 -84t-188.5 -37q-152 0 -244 81 t-92 251zM162 1370q0 55 31.5 94t97.5 39q63 0 95 -39t32 -94q0 -53 -32 -92t-95 -39q-66 0 -97.5 39t-31.5 92zM276 303q0 -100 44.5 -148.5t128.5 -48.5q90 0 154.5 33t96.5 68v293h-163q-141 0 -201 -43t-60 -154zM624 1370q0 55 32 94t97 39q63 0 95 -39t32 -94 q0 -53 -32 -92t-95 -39q-66 0 -97.5 39t-31.5 92z" />
<glyph unicode="&#xe5;" horiz-adv-x="1050" d="M86 295q0 90 32 152.5t89 102.5t138 58.5t179 18.5h176v51q0 129 -39.5 185.5t-152.5 56.5q-147 0 -301 -62l-47 127q59 25 151 51.5t221 26.5q121 0 191 -33t105.5 -90t46 -135t10.5 -166v-440l88 -131l-133 -101l-97 117q-59 -47 -132.5 -84t-188.5 -37q-152 0 -244 81 t-92 251zM250 1454q0 55 20.5 103.5t56 84t84 56t103.5 20.5t103.5 -20.5t84 -56t56 -84t20.5 -103.5t-20.5 -103t-56 -84t-84 -56.5t-103.5 -20.5t-103.5 20.5t-84 56.5t-56 84t-20.5 103zM276 303q0 -100 44.5 -148.5t128.5 -48.5q90 0 154.5 33t96.5 68v293h-163 q-141 0 -201 -43t-60 -154zM381 1454q0 -55 38 -95t95 -40t95 40t38 95t-39 95t-94 40t-94 -40t-39 -95z" />
<glyph unicode="&#xe6;" horiz-adv-x="1671" d="M86 295q0 90 32 151.5t89 98.5t138 53t179 16h176v64q0 129 -39.5 185.5t-152.5 56.5q-147 0 -301 -62l-47 127q59 25 151 51.5t221 26.5q125 0 195 -36t104 -101q55 61 136.5 99t189.5 38q115 0 194 -44t127 -117t69.5 -165t21.5 -186l-68 -72h-608q8 -180 79.5 -276.5 t219.5 -96.5q78 0 147.5 16.5t130.5 45.5l58 -125q-49 -29 -142.5 -54.5t-195.5 -25.5q-131 0 -221 34t-148 95q-92 -70 -193.5 -99.5t-205.5 -29.5q-152 0 -244 81t-92 251zM276 303q0 -197 181 -197q88 0 165.5 27t131.5 68q-53 115 -54 280h-163q-141 0 -201 -37.5 t-60 -140.5zM895 612h479q0 164 -59.5 240t-175.5 76q-127 0 -180.5 -80t-63.5 -236z" />
<glyph unicode="&#xe7;" horiz-adv-x="968" d="M115 504q0 119 28.5 221t89 178t153.5 118t224 42q94 0 173 -24.5t135 -57.5l-58 -127q-55 29 -116.5 48.5t-139.5 19.5q-152 0 -222.5 -103.5t-70.5 -314.5q0 -92 15.5 -165t50.5 -125t92 -80t141 -28q68 0 124.5 12.5t133.5 49.5l58 -123q-47 -27 -116 -49.5 t-157 -30.5l-16 -67q37 -4 70.5 -15.5t60.5 -33t43 -53.5t16 -77q0 -92 -64.5 -151.5t-193.5 -59.5q-63 0 -132.5 18.5t-110.5 47.5l51 107q33 -16 78 -34t96 -18q45 0 71.5 22.5t26.5 59.5q0 63 -50 82t-128 19l39 157q-115 12 -190.5 55.5t-120.5 113t-64.5 162.5 t-19.5 204z" />
<glyph unicode="&#xe8;" horiz-adv-x="1085" d="M115 512q0 113 26.5 213t82 175t141.5 119t206 44q115 0 194 -47t127 -122t69.5 -170t21.5 -189l-68 -72h-608q8 -180 80 -268.5t219 -88.5q78 0 147.5 16.5t131.5 45.5l57 -125q-49 -29 -142 -54.5t-196 -25.5q-141 0 -235.5 40t-150.5 111.5t-79.5 173t-23.5 224.5z M309 596h479q0 164 -59 248t-176 84q-127 0 -180.5 -88t-63.5 -244zM348 1526l150 104l237 -368l-94 -70z" />
<glyph unicode="&#xe9;" horiz-adv-x="1085" d="M115 512q0 113 26.5 213t82 175t141.5 119t206 44q115 0 194 -47t127 -122t69.5 -170t21.5 -189l-68 -72h-608q8 -180 80 -268.5t219 -88.5q78 0 147.5 16.5t131.5 45.5l57 -125q-49 -29 -142 -54.5t-196 -25.5q-141 0 -235.5 40t-150.5 111.5t-79.5 173t-23.5 224.5z M309 596h479q0 164 -59 248t-176 84q-127 0 -180.5 -88t-63.5 -244zM417 1262l238 368l149 -104l-292 -334z" />
<glyph unicode="&#xea;" horiz-adv-x="1085" d="M115 512q0 113 26.5 213t82 175t141.5 119t206 44q115 0 194 -47t127 -122t69.5 -170t21.5 -189l-68 -72h-608q8 -180 80 -268.5t219 -88.5q78 0 147.5 16.5t131.5 45.5l57 -125q-49 -29 -142 -54.5t-196 -25.5q-141 0 -235.5 40t-150.5 111.5t-79.5 173t-23.5 224.5z M268 1245l221 340h158l215 -344l-94 -63l-199 243l-205 -241zM309 596h479q0 164 -59 248t-176 84q-127 0 -180.5 -88t-63.5 -244z" />
<glyph unicode="&#xeb;" horiz-adv-x="1085" d="M115 512q0 113 26.5 213t82 175t141.5 119t206 44q115 0 194 -47t127 -122t69.5 -170t21.5 -189l-68 -72h-608q8 -180 80 -268.5t219 -88.5q78 0 147.5 16.5t131.5 45.5l57 -125q-49 -29 -142 -54.5t-196 -25.5q-141 0 -235.5 40t-150.5 111.5t-79.5 173t-23.5 224.5z M211 1370q0 55 31.5 94t97.5 39q63 0 95 -39t32 -94q0 -53 -32 -92t-95 -39q-66 0 -97.5 39t-31.5 92zM309 596h479q0 164 -59 248t-176 84q-127 0 -180.5 -88t-63.5 -244zM673 1370q0 55 32 94t97 39q63 0 95 -39t32 -94q0 -53 -32 -92t-95 -39q-66 0 -97.5 39t-31.5 92z " />
<glyph unicode="&#xec;" horiz-adv-x="528" d="M-9 1526l150 104l237 -368l-94 -70zM43 891v135h322v-1026h-191v891h-131z" />
<glyph unicode="&#xed;" horiz-adv-x="528" d="M43 891v135h322v-1026h-191v891h-131zM86 1262l238 368l149 -104l-292 -334z" />
<glyph unicode="&#xee;" horiz-adv-x="528" d="M-64 1245l221 340h158l215 -344l-94 -63l-199 243l-205 -241zM43 891v135h322v-1026h-191v891h-131z" />
<glyph unicode="&#xef;" horiz-adv-x="528" d="M-122 1370q0 55 31.5 94t97.5 39q63 0 95 -39t32 -94q0 -53 -32 -92t-95 -39q-66 0 -97.5 39t-31.5 92zM43 891v135h322v-1026h-191v891h-131zM340 1370q0 55 32 94t97 39q63 0 95 -39t32 -94q0 -53 -32 -92t-95 -39q-66 0 -97.5 39t-31.5 92z" />
<glyph unicode="&#xf0;" horiz-adv-x="1200" d="M133 475q0 127 34 223.5t92 160t137 95t171 31.5q90 0 165 -33.5t118 -72.5q-16 86 -67.5 177t-120.5 154l-181 -133l-75 97l153 112q-49 29 -104.5 53.5t-110.5 38.5l55 133q66 -14 142.5 -43.5t144.5 -83.5l193 142l77 -94l-165 -123q55 -53 105 -124t89 -159 t61.5 -192.5t22.5 -223.5q0 -143 -27.5 -262t-86 -205t-147.5 -133t-214 -47q-225 0 -343 135t-118 377zM326 487q0 -195 71.5 -292t208.5 -97q82 0 136.5 44t85 112t43 149.5t12.5 157.5q0 39 -2.5 85t-6.5 77q-16 18 -43.5 39.5t-64.5 41t-83 32t-97 12.5 q-55 0 -102.5 -20.5t-82 -64.5t-55 -112.5t-20.5 -163.5z" />
<glyph unicode="&#xf1;" horiz-adv-x="1187" d="M92 987l152 80l84 -135q92 70 174 100.5t174 30.5q102 0 170.5 -32t109.5 -86t57.5 -127t16.5 -152v-666h-190v655q0 129 -52.5 186.5t-156.5 57.5q-78 0 -148.5 -27.5t-120.5 -68.5v-803h-190v813zM238 1229q0 123 40 193.5t136 70.5q35 0 77 -10t83 -27l86 -33 q41 -16 72.5 -27.5t56.5 -11.5q39 0 57.5 24t18.5 91h116q0 -266 -170 -266q-47 0 -88 12t-88 29l-75 29q-39 16 -75 27t-63 11q-39 0 -54 -22.5t-15 -89.5h-115z" />
<glyph unicode="&#xf2;" horiz-adv-x="1161" d="M115 512q0 119 28.5 220.5t86 175t145.5 114.5t207 41q123 0 211 -41t144 -113.5t83 -174t27 -220.5q0 -121 -26 -221t-83 -174t-146.5 -115t-216.5 -41q-131 0 -219 41t-142 115t-76.5 174t-22.5 219zM311 512q0 -96 14.5 -173t46 -130t84 -82t126.5 -29 q147 0 207.5 106.5t60.5 309.5q0 195 -60.5 301.5t-207.5 106.5q-150 0 -210.5 -102.5t-60.5 -307.5zM352 1526l150 104l237 -368l-94 -70z" />
<glyph unicode="&#xf3;" horiz-adv-x="1161" d="M115 512q0 119 28.5 220.5t86 175t145.5 114.5t207 41q123 0 211 -41t144 -113.5t83 -174t27 -220.5q0 -121 -26 -221t-83 -174t-146.5 -115t-216.5 -41q-131 0 -219 41t-142 115t-76.5 174t-22.5 219zM311 512q0 -96 14.5 -173t46 -130t84 -82t126.5 -29 q147 0 207.5 106.5t60.5 309.5q0 195 -60.5 301.5t-207.5 106.5q-150 0 -210.5 -102.5t-60.5 -307.5zM460 1262l238 368l149 -104l-292 -334z" />
<glyph unicode="&#xf4;" horiz-adv-x="1161" d="M115 512q0 119 28.5 220.5t86 175t145.5 114.5t207 41q123 0 211 -41t144 -113.5t83 -174t27 -220.5q0 -121 -26 -221t-83 -174t-146.5 -115t-216.5 -41q-131 0 -219 41t-142 115t-76.5 174t-22.5 219zM293 1245l221 340h158l215 -344l-94 -63l-199 243l-205 -241z M311 512q0 -96 14.5 -173t46 -130t84 -82t126.5 -29q147 0 207.5 106.5t60.5 309.5q0 195 -60.5 301.5t-207.5 106.5q-150 0 -210.5 -102.5t-60.5 -307.5z" />
<glyph unicode="&#xf5;" horiz-adv-x="1161" d="M115 512q0 119 28.5 220.5t86 175t145.5 114.5t207 41q123 0 211 -41t144 -113.5t83 -174t27 -220.5q0 -121 -26 -221t-83 -174t-146.5 -115t-216.5 -41q-131 0 -219 41t-142 115t-76.5 174t-22.5 219zM213 1229q0 123 40 193.5t136 70.5q35 0 77 -10t83 -27l86 -33 q41 -16 72.5 -27.5t56.5 -11.5q39 0 57.5 24t18.5 91h116q0 -266 -170 -266q-47 0 -88 12t-88 29l-75 29q-39 16 -75 27t-63 11q-39 0 -54 -22.5t-15 -89.5h-115zM311 512q0 -96 14.5 -173t46 -130t84 -82t126.5 -29q147 0 207.5 106.5t60.5 309.5q0 195 -60.5 301.5 t-207.5 106.5q-150 0 -210.5 -102.5t-60.5 -307.5z" />
<glyph unicode="&#xf6;" horiz-adv-x="1161" d="M115 512q0 119 28.5 220.5t86 175t145.5 114.5t207 41q123 0 211 -41t144 -113.5t83 -174t27 -220.5q0 -121 -26 -221t-83 -174t-146.5 -115t-216.5 -41q-131 0 -219 41t-142 115t-76.5 174t-22.5 219zM228 1370q0 55 31.5 94t97.5 39q63 0 95 -39t32 -94q0 -53 -32 -92 t-95 -39q-66 0 -97.5 39t-31.5 92zM311 512q0 -96 14.5 -173t46 -130t84 -82t126.5 -29q147 0 207.5 106.5t60.5 309.5q0 195 -60.5 301.5t-207.5 106.5q-150 0 -210.5 -102.5t-60.5 -307.5zM690 1370q0 55 32 94t97 39q63 0 95 -39t32 -94q0 -53 -32 -92t-95 -39 q-66 0 -97.5 39t-31.5 92z" />
<glyph unicode="&#xf7;" horiz-adv-x="1208" d="M145 614v164h916v-164h-916zM473 1054q0 61 30.5 101.5t98.5 40.5q66 0 96.5 -40t30.5 -102q0 -61 -30.5 -101t-96.5 -40q-68 0 -98.5 40t-30.5 101zM475 346q0 61 30.5 101.5t98.5 40.5q66 0 96.5 -40t30.5 -102q0 -61 -30.5 -101t-96.5 -40q-68 0 -98.5 40t-30.5 101z " />
<glyph unicode="&#xf8;" horiz-adv-x="1161" d="M98 -213l156 285q-76 74 -107.5 186.5t-31.5 253.5q0 119 28.5 220.5t86 175t145.5 114.5t207 41q111 0 196 -35l103 184h174l-150 -270q72 -74 107 -183.5t35 -244.5q0 -121 -26 -221t-83 -174t-146.5 -115t-216.5 -41q-111 0 -190 31l-113 -207h-174zM311 512 q0 -80 9.5 -145.5t31.5 -116.5l353 643q-51 29 -123 29q-150 0 -210.5 -102.5t-60.5 -307.5zM457 125q51 -27 125 -27q147 0 207.5 106.5t60.5 309.5q0 78 -9.5 142.5t-29.5 113.5z" />
<glyph unicode="&#xf9;" horiz-adv-x="1142" d="M143 360v666h191v-668q0 -121 46 -186.5t155 -65.5q90 0 146 29t105 72v819h191v-831l84 -125l-137 -103l-95 115q-82 -63 -158.5 -91t-168.5 -28q-113 0 -182.5 32t-108.5 86t-53.5 127t-14.5 152zM370 1526l150 104l237 -368l-94 -70z" />
<glyph unicode="&#xfa;" horiz-adv-x="1142" d="M143 360v666h191v-668q0 -121 46 -186.5t155 -65.5q90 0 146 29t105 72v819h191v-831l84 -125l-137 -103l-95 115q-82 -63 -158.5 -91t-168.5 -28q-113 0 -182.5 32t-108.5 86t-53.5 127t-14.5 152zM450 1262l238 368l149 -104l-292 -334z" />
<glyph unicode="&#xfb;" horiz-adv-x="1142" d="M143 360v666h191v-668q0 -121 46 -186.5t155 -65.5q90 0 146 29t105 72v819h191v-831l84 -125l-137 -103l-95 115q-82 -63 -158.5 -91t-168.5 -28q-113 0 -182.5 32t-108.5 86t-53.5 127t-14.5 152zM268 1245l221 340h158l215 -344l-94 -63l-199 243l-205 -241z" />
<glyph unicode="&#xfc;" horiz-adv-x="1142" d="M143 360v666h191v-668q0 -121 46 -186.5t155 -65.5q90 0 146 29t105 72v819h191v-831l84 -125l-137 -103l-95 115q-82 -63 -158.5 -91t-168.5 -28q-113 0 -182.5 32t-108.5 86t-53.5 127t-14.5 152zM205 1370q0 55 31.5 94t97.5 39q63 0 95 -39t32 -94q0 -53 -32 -92 t-95 -39q-66 0 -97.5 39t-31.5 92zM667 1370q0 55 32 94t97 39q63 0 95 -39t32 -94q0 -53 -32 -92t-95 -39q-66 0 -97.5 39t-31.5 92z" />
<glyph unicode="&#xfd;" horiz-adv-x="1015" d="M31 1018l188 31l189 -709q14 -57 31.5 -92t37 -54.5t42 -25.5t48.5 -6h29l221 887l170 -33l-307 -1178q-41 -154 -124 -226.5t-224 -72.5q-37 0 -74 6t-69.5 15.5t-59.5 18.5t-41 18l47 120q33 -12 83 -27.5t116 -15.5q78 0 121 46.5t65 138.5l43 168h-35 q-66 0 -113.5 15t-83.5 51t-62.5 92.5t-49.5 138.5zM448 1262l238 368l149 -104l-292 -334z" />
<glyph unicode="&#xfe;" horiz-adv-x="1167" d="M168 -446v1953h182v-549q45 39 116 72t171 33q199 0 307.5 -136t108.5 -413q0 -123 -33 -224.5t-96.5 -174t-159.5 -112.5t-221 -40q-45 0 -95.5 7t-89.5 18v-434h-190zM358 129q35 -10 89.5 -20.5t105.5 -10.5q154 0 228.5 108.5t74.5 307.5q0 193 -56.5 301.5 t-189.5 108.5q-72 0 -133 -31t-119 -82v-682z" />
<glyph unicode="&#xff;" horiz-adv-x="1015" d="M31 1018l188 31l189 -709q14 -57 31.5 -92t37 -54.5t42 -25.5t48.5 -6h29l221 887l170 -33l-307 -1178q-41 -154 -124 -226.5t-224 -72.5q-37 0 -74 6t-69.5 15.5t-59.5 18.5t-41 18l47 120q33 -12 83 -27.5t116 -15.5q78 0 121 46.5t65 138.5l43 168h-35 q-66 0 -113.5 15t-83.5 51t-62.5 92.5t-49.5 138.5zM170 1370q0 55 31.5 94t97.5 39q63 0 95 -39t32 -94q0 -53 -32 -92t-95 -39q-66 0 -97.5 39t-31.5 92zM632 1370q0 55 32 94t97 39q63 0 95 -39t32 -94q0 -53 -32 -92t-95 -39q-66 0 -97.5 39t-31.5 92z" />
<glyph unicode="&#x100;" horiz-adv-x="1323" d="M37 2l395 1282q33 104 79 160.5t138 56.5q55 0 92 -8t63.5 -32.5t47 -66.5t43.5 -110l401 -1284l-196 -33l-162 508h-580l-155 -508zM340 1618v149h641v-149h-641zM401 627h496l-195 641q-12 41 -23 56t-30 15q-23 0 -32 -15t-21 -56z" />
<glyph unicode="&#x101;" horiz-adv-x="1050" d="M86 295q0 90 32 152.5t89 102.5t138 58.5t179 18.5h176v51q0 129 -39.5 185.5t-152.5 56.5q-147 0 -301 -62l-47 127q59 25 151 51.5t221 26.5q121 0 191 -33t105.5 -90t46 -135t10.5 -166v-440l88 -131l-133 -101l-97 117q-59 -47 -132.5 -84t-188.5 -37q-152 0 -244 81 t-92 251zM188 1260v153h641v-153h-641zM276 303q0 -100 44.5 -148.5t128.5 -48.5q90 0 154.5 33t96.5 68v293h-163q-141 0 -201 -43t-60 -154z" />
<glyph unicode="&#x102;" horiz-adv-x="1323" d="M37 2l395 1282q33 104 79 160.5t138 56.5q55 0 92 -8t63.5 -32.5t47 -66.5t43.5 -110l401 -1284l-196 -33l-162 508h-580l-155 -508zM365 1821l117 41q23 -55 62.5 -89t123.5 -34q76 0 118 30.5t66 92.5l119 -37q-29 -117 -110.5 -173.5t-192.5 -56.5t-196 54.5 t-107 171.5zM401 627h496l-195 641q-12 41 -23 56t-30 15q-23 0 -32 -15t-21 -56z" />
<glyph unicode="&#x103;" horiz-adv-x="1050" d="M86 295q0 90 32 152.5t89 102.5t138 58.5t179 18.5h176v51q0 129 -39.5 185.5t-152.5 56.5q-147 0 -301 -62l-47 127q59 25 151 51.5t221 26.5q121 0 191 -33t105.5 -90t46 -135t10.5 -166v-440l88 -131l-133 -101l-97 117q-59 -47 -132.5 -84t-188.5 -37q-152 0 -244 81 t-92 251zM213 1436l117 41q23 -55 62.5 -89t123.5 -34q76 0 118 30.5t66 92.5l119 -37q-29 -117 -110.5 -173.5t-192.5 -56.5t-196 54.5t-107 171.5zM276 303q0 -100 44.5 -148.5t128.5 -48.5q90 0 154.5 33t96.5 68v293h-163q-141 0 -201 -43t-60 -154z" />
<glyph unicode="&#x104;" horiz-adv-x="1323" d="M37 2l395 1282q33 104 79 160.5t138 56.5q55 0 92 -8t63.5 -32.5t47 -66.5t43.5 -110l401 -1284q-29 -29 -56.5 -63.5t-55.5 -77.5q-14 -20 -30.5 -47t-16.5 -62q0 -20 7 -36.5t26.5 -31t56.5 -26.5t98 -25l-35 -102q-96 12 -160.5 29.5t-104.5 42t-56.5 56.5t-16.5 73 q0 31 10.5 58.5t28.5 55.5q51 78 103 142l-156 489h-580l-155 -508zM401 627h496l-195 641q-12 41 -23 56t-30 15q-23 0 -32 -15t-21 -56z" />
<glyph unicode="&#x105;" horiz-adv-x="1050" d="M86 295q0 90 32 152.5t89 102.5t138 58.5t179 18.5h176v51q0 129 -39.5 185.5t-152.5 56.5q-147 0 -301 -62l-47 127q59 25 151 51.5t221 26.5q121 0 191 -33t105.5 -90t46 -135t10.5 -166v-440l119 -168q-29 -35 -62 -77t-72 -95q-14 -20 -30.5 -47t-16.5 -62 q0 -20 7.5 -36.5t27 -31t56 -26.5t98.5 -25l-35 -102q-96 12 -160.5 29.5t-104.5 42t-56.5 56.5t-16.5 73q0 31 10 58.5t29 55.5q33 47 62.5 88t62.5 78l-60 74q-59 -47 -132.5 -84t-188.5 -37q-152 0 -244 81t-92 251zM276 303q0 -100 44.5 -148.5t128.5 -48.5 q90 0 154.5 33t96.5 68v293h-163q-141 0 -201 -43t-60 -154z" />
<glyph unicode="&#x106;" horiz-adv-x="1214" d="M123 735q0 166 38 307.5t115.5 245t197.5 161.5t284 58q125 0 226 -32.5t167 -73.5l-70 -133q-68 41 -146.5 64.5t-170.5 23.5q-86 0 -163 -26.5t-135 -95.5t-93 -189.5t-35 -309.5q0 -305 101.5 -459.5t322.5 -154.5q53 0 96 5t83 16.5t80 29.5t85 45l76 -129 q-66 -49 -179.5 -87t-248.5 -38q-176 0 -296 56.5t-195 159t-107.5 243.5t-32.5 313zM604 1636l285 334l137 -123l-340 -284z" />
<glyph unicode="&#x107;" horiz-adv-x="968" d="M115 504q0 119 28.5 221t89 178t153.5 118t224 42q94 0 173 -24.5t135 -57.5l-58 -127q-55 29 -116.5 48.5t-139.5 19.5q-152 0 -222.5 -103.5t-70.5 -314.5q0 -92 15.5 -165t50.5 -125t92 -80t141 -28q68 0 124.5 12.5t133.5 49.5l58 -123q-55 -31 -138 -56.5 t-192 -25.5q-139 0 -231.5 40t-147.5 110.5t-78.5 170t-23.5 220.5zM473 1262l238 368l149 -104l-292 -334z" />
<glyph unicode="&#x108;" horiz-adv-x="1214" d="M123 735q0 166 38 307.5t115.5 245t197.5 161.5t284 58q125 0 226 -32.5t167 -73.5l-70 -133q-68 41 -146.5 64.5t-170.5 23.5q-86 0 -163 -26.5t-135 -95.5t-93 -189.5t-35 -309.5q0 -305 101.5 -459.5t322.5 -154.5q53 0 96 5t83 16.5t80 29.5t85 45l76 -129 q-66 -49 -179.5 -87t-248.5 -38q-176 0 -296 56.5t-195 159t-107.5 243.5t-32.5 313zM460 1636l209 256h158l199 -254l-82 -71l-197 170l-201 -170z" />
<glyph unicode="&#x109;" horiz-adv-x="968" d="M115 504q0 119 28.5 221t89 178t153.5 118t224 42q94 0 173 -24.5t135 -57.5l-58 -127q-55 29 -116.5 48.5t-139.5 19.5q-152 0 -222.5 -103.5t-70.5 -314.5q0 -92 15.5 -165t50.5 -125t92 -80t141 -28q68 0 124.5 12.5t133.5 49.5l58 -123q-55 -31 -138 -56.5 t-192 -25.5q-139 0 -231.5 40t-147.5 110.5t-78.5 170t-23.5 220.5zM291 1245l221 340h158l215 -344l-94 -63l-199 243l-205 -241z" />
<glyph unicode="&#x10a;" horiz-adv-x="1214" d="M123 735q0 166 38 307.5t115.5 245t197.5 161.5t284 58q125 0 226 -32.5t167 -73.5l-70 -133q-68 41 -146.5 64.5t-170.5 23.5q-86 0 -163 -26.5t-135 -95.5t-93 -189.5t-35 -309.5q0 -305 101.5 -459.5t322.5 -154.5q53 0 96 5t83 16.5t80 29.5t85 45l76 -129 q-66 -49 -179.5 -87t-248.5 -38q-176 0 -296 56.5t-195 159t-107.5 243.5t-32.5 313zM629 1731q0 59 34 99t93 40q61 0 95 -40t34 -99t-34 -98.5t-95 -39.5q-59 0 -93 39t-34 99z" />
<glyph unicode="&#x10b;" horiz-adv-x="968" d="M115 504q0 119 28.5 221t89 178t153.5 118t224 42q94 0 173 -24.5t135 -57.5l-58 -127q-55 29 -116.5 48.5t-139.5 19.5q-152 0 -222.5 -103.5t-70.5 -314.5q0 -92 15.5 -165t50.5 -125t92 -80t141 -28q68 0 124.5 12.5t133.5 49.5l58 -123q-55 -31 -138 -56.5 t-192 -25.5q-139 0 -231.5 40t-147.5 110.5t-78.5 170t-23.5 220.5zM459 1354q0 59 34 99t93 40q61 0 95 -40t34 -99t-34 -98t-95 -39q-59 0 -93 38.5t-34 98.5z" />
<glyph unicode="&#x10c;" horiz-adv-x="1214" d="M123 735q0 166 38 307.5t115.5 245t197.5 161.5t284 58q125 0 226 -32.5t167 -73.5l-70 -133q-68 41 -146.5 64.5t-170.5 23.5q-86 0 -163 -26.5t-135 -95.5t-93 -189.5t-35 -309.5q0 -305 101.5 -459.5t322.5 -154.5q53 0 96 5t83 16.5t80 29.5t85 45l76 -129 q-66 -49 -179.5 -87t-248.5 -38q-176 0 -296 56.5t-195 159t-107.5 243.5t-32.5 313zM475 1837l86 72l197 -170l201 170l82 -70l-209 -256h-158z" />
<glyph unicode="&#x10d;" horiz-adv-x="968" d="M115 504q0 119 28.5 221t89 178t153.5 118t224 42q94 0 173 -24.5t135 -57.5l-58 -127q-55 29 -116.5 48.5t-139.5 19.5q-152 0 -222.5 -103.5t-70.5 -314.5q0 -92 15.5 -165t50.5 -125t92 -80t141 -28q68 0 124.5 12.5t133.5 49.5l58 -123q-55 -31 -138 -56.5 t-192 -25.5q-139 0 -231.5 40t-147.5 110.5t-78.5 170t-23.5 220.5zM293 1530l96 65l205 -241l199 243l94 -63l-215 -344h-158z" />
<glyph unicode="&#x10e;" horiz-adv-x="1431" d="M176 0v1477h467q172 0 297 -51.5t206 -146.5t120 -232.5t39 -311.5q0 -170 -40 -305t-122 -231.5t-207 -147.5t-293 -51h-467zM329 1837l86 72l197 -170l201 170l82 -70l-209 -256h-158zM377 154h274q129 0 214 43t135.5 120.5t71 185t20.5 234.5q0 123 -21.5 230.5 t-72 187.5t-135.5 126t-212 46h-274v-1173z" />
<glyph unicode="&#x10f;" horiz-adv-x="1310" d="M115 512q0 123 31.5 224.5t94 174t157 112.5t216.5 40q53 0 100.5 -8t88.5 -19v471h190v-1308l88 -131l-133 -101l-94 111q-59 -47 -135 -81t-180 -34q-211 0 -317.5 136.5t-106.5 412.5zM311 512q0 -193 59.5 -301.5t196.5 -108.5q86 0 139.5 29t96.5 68v700 q-29 10 -81 19.5t-112 9.5q-154 0 -226.5 -106.5t-72.5 -309.5zM1145 1039v469h180l-70 -469h-110z" />
<glyph unicode="&#x110;" horiz-adv-x="1439" d="M39 674v145h145v658h467q172 0 297 -51.5t206 -146.5t120 -232.5t39 -311.5q0 -170 -40 -305t-122 -231.5t-207 -147.5t-293 -51h-467v674h-145zM385 154h274q129 0 214 43t135.5 120.5t71 185t20.5 234.5q0 123 -21.5 230.5t-72 187.5t-135.5 126t-212 46h-274v-508h418 v-145h-418v-520z" />
<glyph unicode="&#x111;" horiz-adv-x="1165" d="M115 492q0 119 32.5 216t96 166.5t157 108.5t213.5 39q53 0 100.5 -8t88.5 -19v193h-330v141h330v178h190v-178h142v-141h-142v-989l88 -131l-133 -101l-94 111q-59 -47 -135 -81t-180 -34q-211 0 -317.5 130t-106.5 399zM311 492q0 -186 59.5 -288t196.5 -102 q86 0 139.5 29t96.5 68v659q-29 10 -81 19.5t-112 9.5q-154 0 -226.5 -102.5t-72.5 -292.5z" />
<glyph unicode="&#x112;" horiz-adv-x="1181" d="M174 0v1477h901v-156h-700v-473h528v-156h-528v-536h725v-156h-926zM305 1618v149h641v-149h-641z" />
<glyph unicode="&#x113;" horiz-adv-x="1085" d="M115 512q0 113 26.5 213t82 175t141.5 119t206 44q115 0 194 -47t127 -122t69.5 -170t21.5 -189l-68 -72h-608q8 -180 80 -268.5t219 -88.5q78 0 147.5 16.5t131.5 45.5l57 -125q-49 -29 -142 -54.5t-196 -25.5q-141 0 -235.5 40t-150.5 111.5t-79.5 173t-23.5 224.5z M262 1260v153h641v-153h-641zM309 596h479q0 164 -59 248t-176 84q-127 0 -180.5 -88t-63.5 -244z" />
<glyph unicode="&#x114;" horiz-adv-x="1181" d="M174 0v1477h901v-156h-700v-473h528v-156h-528v-536h725v-156h-926zM338 1821l117 41q23 -55 62.5 -89t123.5 -34q76 0 118 30.5t66 92.5l119 -37q-29 -117 -110.5 -173.5t-192.5 -56.5t-196 54.5t-107 171.5z" />
<glyph unicode="&#x115;" horiz-adv-x="1085" d="M115 512q0 113 26.5 213t82 175t141.5 119t206 44q115 0 194 -47t127 -122t69.5 -170t21.5 -189l-68 -72h-608q8 -180 80 -268.5t219 -88.5q78 0 147.5 16.5t131.5 45.5l57 -125q-49 -29 -142 -54.5t-196 -25.5q-141 0 -235.5 40t-150.5 111.5t-79.5 173t-23.5 224.5z M262 1436l117 41q23 -55 62.5 -89t123.5 -34q76 0 118 30.5t66 92.5l119 -37q-29 -117 -110.5 -173.5t-192.5 -56.5t-196 54.5t-107 171.5zM309 596h479q0 164 -59 248t-176 84q-127 0 -180.5 -88t-63.5 -244z" />
<glyph unicode="&#x116;" horiz-adv-x="1181" d="M174 0v1477h901v-156h-700v-473h528v-156h-528v-536h725v-156h-926zM514 1731q0 59 34 99t93 40q61 0 95 -40t34 -99t-34 -98.5t-95 -39.5q-59 0 -93 39t-34 99z" />
<glyph unicode="&#x117;" horiz-adv-x="1085" d="M115 512q0 113 26.5 213t82 175t141.5 119t206 44q115 0 194 -47t127 -122t69.5 -170t21.5 -189l-68 -72h-608q8 -180 80 -268.5t219 -88.5q78 0 147.5 16.5t131.5 45.5l57 -125q-49 -29 -142 -54.5t-196 -25.5q-141 0 -235.5 40t-150.5 111.5t-79.5 173t-23.5 224.5z M309 596h479q0 164 -59 248t-176 84q-127 0 -180.5 -88t-63.5 -244zM440 1354q0 59 34 99t93 40q61 0 95 -40t34 -99t-34 -98t-95 -39q-59 0 -93 38.5t-34 98.5z" />
<glyph unicode="&#x118;" horiz-adv-x="1181" d="M174 0v1477h901v-156h-700v-473h528v-156h-528v-536h725v-156h-109q-23 -29 -50.5 -63.5t-55.5 -77.5q-14 -20 -30.5 -47t-16.5 -62q0 -20 7 -36.5t26.5 -31t56.5 -26.5t98 -25l-35 -102q-96 12 -160.5 29.5t-104.5 42t-56.5 56.5t-16.5 73q0 31 10.5 58.5t28.5 55.5 q29 45 57.5 83t57.5 73h-633z" />
<glyph unicode="&#x119;" horiz-adv-x="1085" d="M115 512q0 113 26.5 213t82 175t141.5 119t206 44q115 0 194 -47t127 -122t69.5 -170t21.5 -189l-68 -72h-608q8 -180 80 -268.5t219 -88.5q78 0 147.5 16.5t131.5 45.5l57 -125q-45 -45 -80 -88t-74 -96q-14 -20 -30.5 -47t-16.5 -62q0 -20 7.5 -36.5t27 -31t56 -26.5 t98.5 -25l-35 -102q-96 12 -160.5 29.5t-104.5 42t-56.5 56.5t-16.5 73q0 31 10.5 58.5t28.5 55.5q23 35 47.5 65t46.5 58q-20 -2 -42.5 -3t-43.5 -1q-141 0 -235.5 40t-150.5 111.5t-79.5 173t-23.5 224.5zM309 596h479q0 164 -59 248t-176 84q-127 0 -180.5 -88 t-63.5 -244z" />
<glyph unicode="&#x11a;" horiz-adv-x="1181" d="M174 0v1477h901v-156h-700v-473h528v-156h-528v-536h725v-156h-926zM366 1837l86 72l197 -170l201 170l82 -70l-209 -256h-158z" />
<glyph unicode="&#x11b;" horiz-adv-x="1085" d="M115 512q0 113 26.5 213t82 175t141.5 119t206 44q115 0 194 -47t127 -122t69.5 -170t21.5 -189l-68 -72h-608q8 -180 80 -268.5t219 -88.5q78 0 147.5 16.5t131.5 45.5l57 -125q-49 -29 -142 -54.5t-196 -25.5q-141 0 -235.5 40t-150.5 111.5t-79.5 173t-23.5 224.5z M260 1530l96 65l205 -241l199 243l94 -63l-215 -344h-158zM309 596h479q0 164 -59 248t-176 84q-127 0 -180.5 -88t-63.5 -244z" />
<glyph unicode="&#x11c;" horiz-adv-x="1372" d="M117 735q0 166 36.5 307.5t115.5 245t203 161.5t300 58q121 0 225.5 -35.5t169.5 -76.5l-71 -133q-70 43 -149 68.5t-175 25.5q-86 0 -166 -26.5t-140 -95.5t-97 -189.5t-37 -309.5q0 -305 101.5 -459.5t324.5 -154.5q162 0 291 69v424h-301v156h491v-664 q-59 -37 -115.5 -63.5t-115 -44.5t-122 -26.5t-134.5 -8.5q-178 0 -300 56.5t-197 159t-106.5 243.5t-31.5 313zM462 1636l209 256h158l199 -254l-82 -71l-197 170l-201 -170z" />
<glyph unicode="&#x11d;" horiz-adv-x="1155" d="M115 512q0 111 21.5 211t71.5 175t134 120t207 45q53 0 97 -12.5t79 -29.5t60.5 -36.5t43.5 -36.5l82 119l152 -80l-76 -174v-858q0 -197 -114.5 -306.5t-346.5 -109.5q-102 0 -196 18.5t-166 59.5l57 135q55 -27 124 -49t167 -22q162 0 223.5 74.5t61.5 234.5v45 q-51 -25 -108.5 -40t-121.5 -15q-227 0 -339.5 128t-112.5 404zM293 1245l221 340h158l215 -344l-94 -63l-199 243l-205 -241zM311 512q0 -193 63.5 -293t209.5 -100q66 0 115 13t98 46v639q-33 35 -86.5 71t-145.5 36q-123 0 -188.5 -99.5t-65.5 -312.5z" />
<glyph unicode="&#x11e;" horiz-adv-x="1372" d="M117 735q0 166 36.5 307.5t115.5 245t203 161.5t300 58q121 0 225.5 -35.5t169.5 -76.5l-71 -133q-70 43 -149 68.5t-175 25.5q-86 0 -166 -26.5t-140 -95.5t-97 -189.5t-37 -309.5q0 -305 101.5 -459.5t324.5 -154.5q162 0 291 69v424h-301v156h491v-664 q-59 -37 -115.5 -63.5t-115 -44.5t-122 -26.5t-134.5 -8.5q-178 0 -300 56.5t-197 159t-106.5 243.5t-31.5 313zM453 1821l117 41q23 -55 62.5 -89t123.5 -34q76 0 118 30.5t66 92.5l119 -37q-29 -117 -110.5 -173.5t-192.5 -56.5t-196 54.5t-107 171.5z" />
<glyph unicode="&#x11f;" horiz-adv-x="1155" d="M115 512q0 111 21.5 211t71.5 175t134 120t207 45q53 0 97 -12.5t79 -29.5t60.5 -36.5t43.5 -36.5l82 119l152 -80l-76 -174v-858q0 -197 -114.5 -306.5t-346.5 -109.5q-102 0 -196 18.5t-166 59.5l57 135q55 -27 124 -49t167 -22q162 0 223.5 74.5t61.5 234.5v45 q-51 -25 -108.5 -40t-121.5 -15q-227 0 -339.5 128t-112.5 404zM293 1436l117 41q23 -55 62.5 -89t123.5 -34q76 0 118 30.5t66 92.5l119 -37q-29 -117 -110.5 -173.5t-192.5 -56.5t-196 54.5t-107 171.5zM311 512q0 -193 63.5 -293t209.5 -100q66 0 115 13t98 46v639 q-33 35 -86.5 71t-145.5 36q-123 0 -188.5 -99.5t-65.5 -312.5z" />
<glyph unicode="&#x120;" horiz-adv-x="1372" d="M117 735q0 166 36.5 307.5t115.5 245t203 161.5t300 58q121 0 225.5 -35.5t169.5 -76.5l-71 -133q-70 43 -149 68.5t-175 25.5q-86 0 -166 -26.5t-140 -95.5t-97 -189.5t-37 -309.5q0 -305 101.5 -459.5t324.5 -154.5q162 0 291 69v424h-301v156h491v-664 q-59 -37 -115.5 -63.5t-115 -44.5t-122 -26.5t-134.5 -8.5q-178 0 -300 56.5t-197 159t-106.5 243.5t-31.5 313zM633 1731q0 59 34 99t93 40q61 0 95 -40t34 -99t-34 -98.5t-95 -39.5q-59 0 -93 39t-34 99z" />
<glyph unicode="&#x121;" horiz-adv-x="1155" d="M115 512q0 111 21.5 211t71.5 175t134 120t207 45q53 0 97 -12.5t79 -29.5t60.5 -36.5t43.5 -36.5l82 119l152 -80l-76 -174v-858q0 -197 -114.5 -306.5t-346.5 -109.5q-102 0 -196 18.5t-166 59.5l57 135q55 -27 124 -49t167 -22q162 0 223.5 74.5t61.5 234.5v45 q-51 -25 -108.5 -40t-121.5 -15q-227 0 -339.5 128t-112.5 404zM311 512q0 -193 63.5 -293t209.5 -100q66 0 115 13t98 46v639q-33 35 -86.5 71t-145.5 36q-123 0 -188.5 -99.5t-65.5 -312.5zM442 1354q0 59 34 99t93 40q61 0 95 -40t34 -99t-34 -98t-95 -39q-59 0 -93 38.5 t-34 98.5z" />
<glyph unicode="&#x122;" horiz-adv-x="1372" d="M117 735q0 166 36.5 307.5t115.5 245t203 161.5t300 58q121 0 225.5 -35.5t169.5 -76.5l-71 -133q-70 43 -149 68.5t-175 25.5q-86 0 -166 -26.5t-140 -95.5t-97 -189.5t-37 -309.5q0 -305 101.5 -459.5t324.5 -154.5q162 0 291 69v424h-301v156h491v-664 q-59 -37 -115.5 -63.5t-115 -44.5t-122 -26.5t-134.5 -8.5q-178 0 -300 56.5t-197 159t-106.5 243.5t-31.5 313zM588 -530l58 391l192 -43l-133 -375z" />
<glyph unicode="&#x123;" horiz-adv-x="1155" d="M115 512q0 111 21.5 211t71.5 175t134 120t207 45q53 0 97 -12.5t79 -29.5t60.5 -36.5t43.5 -36.5l82 119l152 -80l-76 -174v-858q0 -197 -114.5 -306.5t-346.5 -109.5q-102 0 -196 18.5t-166 59.5l57 135q55 -27 124 -49t167 -22q162 0 223.5 74.5t61.5 234.5v45 q-51 -25 -108.5 -40t-121.5 -15q-227 0 -339.5 128t-112.5 404zM311 512q0 -193 63.5 -293t209.5 -100q66 0 115 13t98 46v639q-33 35 -86.5 71t-145.5 36q-123 0 -188.5 -99.5t-65.5 -312.5zM467 1214l133 375l117 -26l-58 -392z" />
<glyph unicode="&#x124;" horiz-adv-x="1406" d="M176 0v1477h201v-629h653v629h201v-1477h-201v692h-653v-692h-201zM442 1636l209 256h158l199 -254l-82 -71l-197 170l-201 -170z" />
<glyph unicode="&#x125;" horiz-adv-x="1193" d="M135 1636l209 256h158l199 -254l-82 -71l-197 170l-201 -170zM168 0v1507h190v-559q72 53 154 84t164 31q102 0 170.5 -32t109.5 -86t57.5 -127t16.5 -152v-666h-190v655q0 129 -53.5 186.5t-155.5 57.5q-84 0 -150.5 -28.5t-122.5 -69.5v-801h-190z" />
<glyph unicode="&#x126;" horiz-adv-x="1423" d="M72 1110v145h112v222h201v-222h653v222h201v-222h119v-145h-119v-1110h-201v692h-653v-692h-201v1110h-112zM385 848h653v262h-653v-262z" />
<glyph unicode="&#x127;" horiz-adv-x="1193" d="M43 1188v141h125v178h190v-178h347v-141h-347v-281q72 53 154 84t164 31q102 0 170.5 -32t109.5 -86t57.5 -126.5t16.5 -152.5v-625h-190v614q0 129 -53.5 186.5t-155.5 57.5q-84 0 -150.5 -28.5t-122.5 -69.5v-760h-190v1188h-125z" />
<glyph unicode="&#x128;" horiz-adv-x="573" d="M-84 1602q0 123 40 193.5t136 70.5q35 0 77 -10.5t83 -26.5l86 -33q41 -16 72.5 -27.5t56.5 -11.5q39 0 57.5 23.5t18.5 91.5h116q0 -266 -170 -266q-47 0 -88 12t-88 29l-75 28q-39 16 -75 27.5t-63 11.5q-39 0 -54 -22.5t-15 -89.5h-115zM186 0v1477h201v-1477h-201z " />
<glyph unicode="&#x129;" horiz-adv-x="528" d="M-139 1229q0 123 40 193.5t136 70.5q35 0 77 -10t83 -27l86 -33q41 -16 72.5 -27.5t56.5 -11.5q39 0 57.5 24t18.5 91h116q0 -266 -170 -266q-47 0 -88 12t-88 29l-75 29q-39 16 -75 27t-63 11q-39 0 -54 -22.5t-15 -89.5h-115zM43 891v135h322v-1026h-191v891h-131z" />
<glyph unicode="&#x12a;" horiz-adv-x="573" d="M-33 1618v149h641v-149h-641zM186 0v1477h201v-1477h-201z" />
<glyph unicode="&#x12b;" horiz-adv-x="528" d="M-89 1260v153h641v-153h-641zM43 891v135h322v-1026h-191v891h-131z" />
<glyph unicode="&#x12c;" horiz-adv-x="573" d="M-8 1821l117 41q23 -55 62.5 -89t123.5 -34q76 0 118 30.5t66 92.5l119 -37q-29 -117 -110.5 -173.5t-192.5 -56.5t-196 54.5t-107 171.5zM186 0v1477h201v-1477h-201z" />
<glyph unicode="&#x12d;" horiz-adv-x="528" d="M-57 1436l117 41q23 -55 62.5 -89t123.5 -34q76 0 118 30.5t66 92.5l119 -37q-29 -117 -110.5 -173.5t-192.5 -56.5t-196 54.5t-107 171.5zM43 891v135h322v-1026h-191v891h-131z" />
<glyph unicode="&#x12e;" horiz-adv-x="573" d="M33 -270q0 31 10 58.5t29 55.5q29 45 57.5 83t56.5 73v1477h201v-1477q-29 -25 -61.5 -61.5t-61.5 -79.5q-14 -20 -30.5 -47t-16.5 -62q0 -20 7 -36.5t26.5 -31t56.5 -26.5t99 -25l-35 -102q-96 12 -161 29.5t-104.5 42t-56 56.5t-16.5 73z" />
<glyph unicode="&#x12f;" horiz-adv-x="528" d="M8 -270q0 31 10.5 58.5t28.5 55.5q33 47 63.5 88t63.5 80v879h-131v135h322v-1026q-29 -27 -63 -62.5t-62 -78.5q-14 -20 -30.5 -47t-16.5 -62q0 -20 7 -36.5t26.5 -31t56 -26.5t98.5 -25l-35 -102q-96 12 -160.5 29.5t-104.5 42t-56.5 56.5t-16.5 73zM121 1354 q0 59 33.5 99t93.5 40q61 0 95 -40t34 -99t-34 -98t-95 -39q-59 0 -93 38.5t-34 98.5z" />
<glyph unicode="&#x130;" horiz-adv-x="573" d="M166 1731q0 59 34 99t93 40q61 0 95 -40t34 -99t-34 -98.5t-95 -39.5q-59 0 -93 39t-34 99zM186 0v1477h201v-1477h-201z" />
<glyph unicode="&#x131;" horiz-adv-x="528" d="M43 891v135h322v-1026h-191v891h-131z" />
<glyph unicode="&#x132;" horiz-adv-x="1490" d="M186 0v1477h201v-1477h-201zM543 45l65 145q47 -29 113.5 -49t156.5 -20q121 0 179.5 79t58.5 259v1018h201v-1026q0 -238 -104.5 -363t-334.5 -125q-123 0 -204.5 26.5t-130.5 55.5z" />
<glyph unicode="&#x133;" horiz-adv-x="1048" d="M43 891v135h322v-1026h-191v891h-131zM121 1354q0 59 33.5 99t93.5 40q61 0 95 -40t34 -99t-34 -98t-95 -39q-59 0 -93 38.5t-34 98.5zM305 -406l47 127q39 -14 79 -27t99 -13q57 0 90 25.5t49.5 65.5t20.5 89t4 94v1071h191v-1106q0 -72 -15.5 -140.5t-54.5 -121.5 t-104.5 -86t-165.5 -33q-51 0 -121 15.5t-119 39.5zM659 1356q0 55 33 95t94 40q63 0 95 -40t32 -95t-32 -94t-95 -39q-61 0 -94 38.5t-33 94.5z" />
<glyph unicode="&#x134;" horiz-adv-x="972" d="M25 45l65 145q47 -29 113.5 -49t156.5 -20q121 0 179.5 79t58.5 259v1018h201v-1026q0 -238 -104.5 -363t-334.5 -125q-123 0 -204.5 26.5t-130.5 55.5zM417 1636l209 256h158l199 -254l-82 -71l-197 170l-201 -170z" />
<glyph unicode="&#x135;" horiz-adv-x="528" d="M-215 -406l47 127q39 -14 79 -27t99 -13q57 0 90 25.5t49.5 65.5t20.5 89t4 94v1071h191v-1106q0 -72 -15.5 -140.5t-54.5 -121.5t-104.5 -86t-165.5 -33q-51 0 -121 15.5t-119 39.5zM-29 1245l221 340h158l215 -344l-94 -63l-199 243l-205 -241z" />
<glyph unicode="&#x136;" horiz-adv-x="1232" d="M172 0v1477h193v-646h120q41 0 58.5 8.5t40.5 39.5l428 620l176 -37l-473 -684l506 -753l-209 -43l-426 639q-25 39 -47.5 47t-53.5 8h-120v-676h-193zM495 -530l58 391l192 -43l-133 -375z" />
<glyph unicode="&#x137;" horiz-adv-x="1032" d="M166 0v1507h190v-858h64q35 0 50 6.5t32 24.5l307 369l164 -43l-352 -418l411 -565l-190 -46l-340 463q-27 37 -45.5 45.5t-59.5 8.5h-41v-494h-190zM415 -530l58 391l192 -43l-133 -375z" />
<glyph unicode="&#x138;" horiz-adv-x="1032" d="M166 0v1026h190v-420h64q35 0 51 5t31 26l307 412l164 -43l-352 -467l411 -516l-190 -46l-340 420q-29 35 -47.5 44.5t-57.5 9.5h-41v-451h-190z" />
<glyph unicode="&#x139;" horiz-adv-x="1155" d="M112 1636l285 334l137 -123l-340 -284zM174 0v1477h201v-1321h739v-156h-940z" />
<glyph unicode="&#x13a;" horiz-adv-x="518" d="M37 1370v135h317v-1505h-190v1370h-127zM63 1636l285 334l137 -123l-340 -284z" />
<glyph unicode="&#x13b;" horiz-adv-x="1155" d="M174 0v1477h201v-1321h739v-156h-940zM538 -530l58 391l192 -43l-133 -375z" />
<glyph unicode="&#x13c;" horiz-adv-x="518" d="M37 1370v135h317v-1505h-190v1370h-127zM106 -530l58 391l192 -43l-133 -375z" />
<glyph unicode="&#x13d;" horiz-adv-x="1155" d="M174 0v1477h201v-1321h739v-156h-940zM658 1008v469h180l-70 -469h-110z" />
<glyph unicode="&#x13e;" horiz-adv-x="653" d="M21 1370v135h317v-1505h-190v1370h-127zM496 1039v469h180l-70 -469h-110z" />
<glyph unicode="&#x13f;" horiz-adv-x="1155" d="M174 0v1477h201v-1321h739v-156h-940zM727 748q0 59 34 99t93 40q61 0 95 -40t34 -99t-34 -98.5t-95 -39.5q-59 0 -93 39t-34 99z" />
<glyph unicode="&#x140;" horiz-adv-x="702" d="M21 1370v135h317v-1505h-190v1370h-127zM481 711q0 59 34 99t93 40q61 0 95 -40t34 -99t-34 -98t-95 -39q-59 0 -93 38.5t-34 98.5z" />
<glyph unicode="&#x141;" horiz-adv-x="1155" d="M12 565v158l162 63v691h201v-623l413 166v-158l-413 -166v-540h739v-156h-940v629z" />
<glyph unicode="&#x142;" horiz-adv-x="528" d="M35 582v166l129 63v559h-127v135h317v-622l138 67v-166l-138 -67v-717h-190v645z" />
<glyph unicode="&#x143;" horiz-adv-x="1419" d="M180 0v1477h199l639 -1260q14 -29 21.5 -38t17.5 -9q16 0 16 31v1276h166v-1272q0 -123 -49 -171t-131 -48q-37 0 -66.5 6t-54.5 22.5t-47.5 45t-44.5 73.5l-500 987v-1120h-166zM600 1636l285 334l137 -123l-340 -284z" />
<glyph unicode="&#x144;" horiz-adv-x="1187" d="M92 987l152 80l84 -135q92 70 174 100.5t174 30.5q102 0 170.5 -32t109.5 -86t57.5 -127t16.5 -152v-666h-190v655q0 129 -52.5 186.5t-156.5 57.5q-78 0 -148.5 -27.5t-120.5 -68.5v-803h-190v813zM485 1262l238 368l149 -104l-292 -334z" />
<glyph unicode="&#x145;" horiz-adv-x="1419" d="M180 0v1477h199l639 -1260q14 -29 21.5 -38t17.5 -9q16 0 16 31v1276h166v-1272q0 -123 -49 -171t-131 -48q-37 0 -66.5 6t-54.5 22.5t-47.5 45t-44.5 73.5l-500 987v-1120h-166zM567 -530l58 391l192 -43l-133 -375z" />
<glyph unicode="&#x146;" horiz-adv-x="1187" d="M92 987l152 80l84 -135q92 70 174 100.5t174 30.5q102 0 170.5 -32t109.5 -86t57.5 -127t16.5 -152v-666h-190v655q0 129 -52.5 186.5t-156.5 57.5q-78 0 -148.5 -27.5t-120.5 -68.5v-803h-190v813zM461 -530l58 391l192 -43l-133 -375z" />
<glyph unicode="&#x147;" horiz-adv-x="1419" d="M180 0v1477h199l639 -1260q14 -29 21.5 -38t17.5 -9q16 0 16 31v1276h166v-1272q0 -123 -49 -171t-131 -48q-37 0 -66.5 6t-54.5 22.5t-47.5 45t-44.5 73.5l-500 987v-1120h-166zM454 1837l86 72l197 -170l201 170l82 -70l-209 -256h-158z" />
<glyph unicode="&#x148;" horiz-adv-x="1187" d="M92 987l152 80l84 -135q92 70 174 100.5t174 30.5q102 0 170.5 -32t109.5 -86t57.5 -127t16.5 -152v-666h-190v655q0 129 -52.5 186.5t-156.5 57.5q-78 0 -148.5 -27.5t-120.5 -68.5v-803h-190v813zM313 1530l96 65l205 -241l199 243l94 -63l-215 -344h-158z" />
<glyph unicode="&#x149;" horiz-adv-x="1210" d="M-43 1122l96 482l192 -43l-155 -471zM115 987l152 80l84 -135q92 70 174 100.5t174 30.5q102 0 170.5 -32t109.5 -86t57.5 -127t16.5 -152v-666h-190v655q0 129 -52.5 186.5t-156.5 57.5q-78 0 -148.5 -27.5t-120.5 -68.5v-803h-190v813z" />
<glyph unicode="&#x14a;" horiz-adv-x="1419" d="M180 0v1477h199l639 -1260q14 -29 21.5 -38t17.5 -9q16 0 16 31v1276h166v-1454q0 -238 -104.5 -363t-333.5 -125q-123 0 -205 26.5t-131 55.5l65 145q47 -29 114 -49t157 -20q119 0 177 69.5t58 223.5q-66 2 -106.5 32.5t-83.5 114.5l-500 987v-1120h-166z" />
<glyph unicode="&#x14b;" horiz-adv-x="1187" d="M92 987l152 80l84 -135q92 70 174 100.5t174 30.5q102 0 170.5 -32t109.5 -86t57.5 -127t16.5 -152v-758q0 -72 -16.5 -137.5t-55 -117.5t-104.5 -83t-166 -31q-51 0 -120.5 15.5t-118.5 39.5l47 127q39 -14 78.5 -27t99.5 -13q57 0 90 19t49 55t21.5 87.5t5.5 112.5v700 q0 129 -52.5 186.5t-156.5 57.5q-78 0 -148.5 -27.5t-120.5 -68.5v-803h-190v813z" />
<glyph unicode="&#x14c;" horiz-adv-x="1478" d="M123 735q0 168 38 310.5t114.5 245t192.5 159.5t271 57q160 0 277 -55t191.5 -156.5t111.5 -244t37 -316.5q0 -170 -38 -311t-115 -243.5t-192.5 -160t-271.5 -57.5q-160 0 -276.5 54.5t-191 155.5t-111.5 243.5t-37 318.5zM338 733q0 -123 19.5 -234.5t66.5 -195.5 t123.5 -134t191.5 -50q119 0 196 49t123 133t64.5 196.5t18.5 239.5q0 123 -20.5 234.5t-66.5 197.5t-124 136.5t-191 50.5q-119 0 -195.5 -49.5t-122.5 -134.5t-64.5 -198.5t-18.5 -240.5zM430 1618v149h641v-149h-641z" />
<glyph unicode="&#x14d;" horiz-adv-x="1161" d="M115 512q0 119 28.5 220.5t86 175t145.5 114.5t207 41q123 0 211 -41t144 -113.5t83 -174t27 -220.5q0 -121 -26 -221t-83 -174t-146.5 -115t-216.5 -41q-131 0 -219 41t-142 115t-76.5 174t-22.5 219zM258 1260v153h641v-153h-641zM311 512q0 -96 14.5 -173t46 -130 t84 -82t126.5 -29q147 0 207.5 106.5t60.5 309.5q0 195 -60.5 301.5t-207.5 106.5q-150 0 -210.5 -102.5t-60.5 -307.5z" />
<glyph unicode="&#x14e;" horiz-adv-x="1478" d="M123 735q0 168 38 310.5t114.5 245t192.5 159.5t271 57q160 0 277 -55t191.5 -156.5t111.5 -244t37 -316.5q0 -170 -38 -311t-115 -243.5t-192.5 -160t-271.5 -57.5q-160 0 -276.5 54.5t-191 155.5t-111.5 243.5t-37 318.5zM338 733q0 -123 19.5 -234.5t66.5 -195.5 t123.5 -134t191.5 -50q119 0 196 49t123 133t64.5 196.5t18.5 239.5q0 123 -20.5 234.5t-66.5 197.5t-124 136.5t-191 50.5q-119 0 -195.5 -49.5t-122.5 -134.5t-64.5 -198.5t-18.5 -240.5zM461 1821l117 41q23 -55 62.5 -89t123.5 -34q76 0 118 30.5t66 92.5l119 -37 q-29 -117 -110.5 -173.5t-192.5 -56.5t-196 54.5t-107 171.5z" />
<glyph unicode="&#x14f;" horiz-adv-x="1161" d="M115 512q0 119 28.5 220.5t86 175t145.5 114.5t207 41q123 0 211 -41t144 -113.5t83 -174t27 -220.5q0 -121 -26 -221t-83 -174t-146.5 -115t-216.5 -41q-131 0 -219 41t-142 115t-76.5 174t-22.5 219zM285 1436l117 41q23 -55 62.5 -89t123.5 -34q76 0 118 30.5t66 92.5 l119 -37q-29 -117 -110.5 -173.5t-192.5 -56.5t-196 54.5t-107 171.5zM311 512q0 -96 14.5 -173t46 -130t84 -82t126.5 -29q147 0 207.5 106.5t60.5 309.5q0 195 -60.5 301.5t-207.5 106.5q-150 0 -210.5 -102.5t-60.5 -307.5z" />
<glyph unicode="&#x150;" horiz-adv-x="1478" d="M123 735q0 168 38 310.5t114.5 245t192.5 159.5t271 57q160 0 277 -55t191.5 -156.5t111.5 -244t37 -316.5q0 -170 -38 -311t-115 -243.5t-192.5 -160t-271.5 -57.5q-160 0 -276.5 54.5t-191 155.5t-111.5 243.5t-37 318.5zM338 733q0 -123 19.5 -234.5t66.5 -195.5 t123.5 -134t191.5 -50q119 0 196 49t123 133t64.5 196.5t18.5 239.5q0 123 -20.5 234.5t-66.5 197.5t-124 136.5t-191 50.5q-119 0 -195.5 -49.5t-122.5 -134.5t-64.5 -198.5t-18.5 -240.5zM483 1626l223 356l148 -106l-277 -313zM817 1626l221 356l147 -106l-276 -313z" />
<glyph unicode="&#x151;" horiz-adv-x="1161" d="M115 512q0 119 28.5 220.5t86 175t145.5 114.5t207 41q123 0 211 -41t144 -113.5t83 -174t27 -220.5q0 -121 -26 -221t-83 -174t-146.5 -115t-216.5 -41q-131 0 -219 41t-142 115t-76.5 174t-22.5 219zM311 512q0 -96 14.5 -173t46 -130t84 -82t126.5 -29 q147 0 207.5 106.5t60.5 309.5q0 195 -60.5 301.5t-207.5 106.5q-150 0 -210.5 -102.5t-60.5 -307.5zM317 1262l238 368l149 -104l-292 -334zM678 1262l237 368l150 -104l-293 -334z" />
<glyph unicode="&#x152;" horiz-adv-x="2129" d="M123 735q0 168 38 310.5t114.5 245t192.5 159.5t271 57q125 0 219.5 -33.5t163.5 -99.5v103h901v-156h-700v-473h528v-156h-528v-536h725v-156h-926v104q-68 -66 -168 -103.5t-225 -37.5q-160 0 -274.5 54.5t-188 155.5t-108.5 243.5t-35 318.5zM338 733 q0 -123 19.5 -234.5t66.5 -195.5t124 -134t191 -50q76 0 137.5 15.5t107.5 41t80 57t58 62.5v885q-20 31 -53 61.5t-79 56t-105.5 42t-134.5 16.5q-119 0 -198 -49.5t-127 -134.5t-67.5 -198.5t-19.5 -240.5z" />
<glyph unicode="&#x153;" horiz-adv-x="1806" d="M115 512q0 119 28.5 220.5t86 175t145.5 114.5t207 41q135 0 222 -54.5t136 -142.5q49 86 135 141.5t217 55.5q115 0 194 -47t127 -122t69.5 -170t21.5 -189l-68 -72h-608q8 -180 80 -268.5t219 -88.5q78 0 147.5 16.5t131.5 45.5l57 -125q-49 -29 -142.5 -54.5 t-195.5 -25.5q-156 0 -248 50t-141 137q-51 -84 -143.5 -135.5t-227.5 -51.5q-129 0 -216 41t-139 115t-73.5 174t-21.5 219zM311 512q0 -96 14.5 -173t46 -130t84 -82t126.5 -29q147 0 207.5 106.5t60.5 309.5q0 195 -60.5 301.5t-207.5 106.5q-150 0 -210.5 -102.5 t-60.5 -307.5zM1030 596h479q0 164 -59 248t-176 84q-127 0 -180.5 -88t-63.5 -244z" />
<glyph unicode="&#x154;" horiz-adv-x="1245" d="M176 0v1477h428q102 0 193.5 -18.5t159 -64.5t106.5 -126t39 -203q0 -80 -26.5 -146.5t-72 -117.5t-102.5 -85t-121 -48q33 -20 63.5 -56.5t55.5 -76.5l313 -523l-208 -43l-312 520q-25 41 -47 69t-50 44t-62.5 23.5t-86.5 7.5h-69v-633h-201zM377 786h201 q145 0 234 63.5t89 207.5q0 86 -24.5 140t-67.5 83t-103.5 39t-130.5 10h-198v-543zM463 1636l285 334l137 -123l-340 -284z" />
<glyph unicode="&#x155;" horiz-adv-x="790" d="M55 891v135h264l33 -133q27 29 55.5 55.5t63.5 46t79 30.5t101 11q74 0 129 -16l-53 -172q-25 10 -55.5 14t-59.5 4q-150 0 -239 -102v-764h-191v891h-127zM350 1262l238 368l149 -104l-292 -334z" />
<glyph unicode="&#x156;" horiz-adv-x="1245" d="M176 0v1477h428q102 0 193.5 -18.5t159 -64.5t106.5 -126t39 -203q0 -80 -26.5 -146.5t-72 -117.5t-102.5 -85t-121 -48q33 -20 63.5 -56.5t55.5 -76.5l313 -523l-208 -43l-312 520q-25 41 -47 69t-50 44t-62.5 23.5t-86.5 7.5h-69v-633h-201zM377 786h201 q145 0 234 63.5t89 207.5q0 86 -24.5 140t-67.5 83t-103.5 39t-130.5 10h-198v-543zM532 -530l58 391l192 -43l-133 -375z" />
<glyph unicode="&#x157;" horiz-adv-x="790" d="M55 891v135h264l33 -133q27 29 55.5 55.5t63.5 46t79 30.5t101 11q74 0 129 -16l-53 -172q-25 10 -55.5 14t-59.5 4q-150 0 -239 -102v-764h-191v891h-127zM119 -530l58 391l192 -43l-133 -375z" />
<glyph unicode="&#x158;" horiz-adv-x="1245" d="M176 0v1477h428q102 0 193.5 -18.5t159 -64.5t106.5 -126t39 -203q0 -80 -26.5 -146.5t-72 -117.5t-102.5 -85t-121 -48q33 -20 63.5 -56.5t55.5 -76.5l313 -523l-208 -43l-312 520q-25 41 -47 69t-50 44t-62.5 23.5t-86.5 7.5h-69v-633h-201zM297 1837l86 72l197 -170 l201 170l82 -70l-209 -256h-158zM377 786h201q145 0 234 63.5t89 207.5q0 86 -24.5 140t-67.5 83t-103.5 39t-130.5 10h-198v-543z" />
<glyph unicode="&#x159;" horiz-adv-x="790" d="M55 891v135h264l33 -133q27 29 55.5 55.5t63.5 46t79 30.5t101 11q74 0 129 -16l-53 -172q-25 10 -55.5 14t-59.5 4q-150 0 -239 -102v-764h-191v891h-127zM145 1530l96 65l205 -241l199 243l94 -63l-215 -344h-158z" />
<glyph unicode="&#x15a;" horiz-adv-x="1173" d="M72 84l73 145q88 -53 181.5 -80.5t226.5 -27.5q166 0 245 69.5t79 186.5q0 74 -27 121t-72 78.5t-104.5 51t-122.5 38.5q-78 20 -156 46.5t-140 71.5t-101 119t-39 191q0 84 30.5 158.5t94 132t160 90t225.5 32.5q59 0 119.5 -9t115.5 -24.5t102.5 -35t84.5 -41.5 l-72 -137q-68 43 -159 70.5t-181 27.5q-160 0 -243 -61.5t-83 -178.5q0 -70 29 -115t78 -74.5t111.5 -50t129.5 -40.5q76 -23 151 -50.5t135.5 -73.5t97 -117t36.5 -179q0 -209 -137 -332t-395 -123q-141 0 -261 31t-212 90zM450 1636l285 334l137 -123l-340 -284z" />
<glyph unicode="&#x15b;" horiz-adv-x="927" d="M59 63l62 130q47 -27 128 -58t185 -31q109 0 172.5 37t63.5 121q0 47 -20.5 77t-55.5 49.5t-81 31.5t-97 26q-57 14 -113.5 35t-100.5 53.5t-72 84t-28 129.5q0 68 24 125t73 99t121.5 66.5t171.5 24.5q98 0 184 -23.5t143 -56.5l-57 -125q-129 70 -273 70 q-100 0 -156.5 -35t-56.5 -113q0 -45 18.5 -73.5t50.5 -48t74 -33t87 -25.5q53 -16 112.5 -33.5t108.5 -51.5t81 -87t32 -139q0 -154 -97.5 -240t-302.5 -86q-135 0 -234.5 35t-146.5 65zM391 1262l238 368l149 -104l-292 -334z" />
<glyph unicode="&#x15c;" horiz-adv-x="1173" d="M72 84l73 145q88 -53 181.5 -80.5t226.5 -27.5q166 0 245 69.5t79 186.5q0 74 -27 121t-72 78.5t-104.5 51t-122.5 38.5q-78 20 -156 46.5t-140 71.5t-101 119t-39 191q0 84 30.5 158.5t94 132t160 90t225.5 32.5q59 0 119.5 -9t115.5 -24.5t102.5 -35t84.5 -41.5 l-72 -137q-68 43 -159 70.5t-181 27.5q-160 0 -243 -61.5t-83 -178.5q0 -70 29 -115t78 -74.5t111.5 -50t129.5 -40.5q76 -23 151 -50.5t135.5 -73.5t97 -117t36.5 -179q0 -209 -137 -332t-395 -123q-141 0 -261 31t-212 90zM346 1636l209 256h158l199 -254l-82 -71 l-197 170l-201 -170z" />
<glyph unicode="&#x15d;" horiz-adv-x="927" d="M59 63l62 130q47 -27 128 -58t185 -31q109 0 172.5 37t63.5 121q0 47 -20.5 77t-55.5 49.5t-81 31.5t-97 26q-57 14 -113.5 35t-100.5 53.5t-72 84t-28 129.5q0 68 24 125t73 99t121.5 66.5t171.5 24.5q98 0 184 -23.5t143 -56.5l-57 -125q-129 70 -273 70 q-100 0 -156.5 -35t-56.5 -113q0 -45 18.5 -73.5t50.5 -48t74 -33t87 -25.5q53 -16 112.5 -33.5t108.5 -51.5t81 -87t32 -139q0 -154 -97.5 -240t-302.5 -86q-135 0 -234.5 35t-146.5 65zM184 1245l221 340h158l215 -344l-94 -63l-199 243l-205 -241z" />
<glyph unicode="&#x15e;" horiz-adv-x="1173" d="M72 84l73 145q88 -53 181.5 -80.5t226.5 -27.5q166 0 245 69.5t79 186.5q0 74 -27 121t-72 78.5t-104.5 51t-122.5 38.5q-78 20 -156 46.5t-140 71.5t-101 119t-39 191q0 84 30.5 158.5t94 132t160 90t225.5 32.5q59 0 119.5 -9t115.5 -24.5t102.5 -35t84.5 -41.5 l-72 -137q-68 43 -159 70.5t-181 27.5q-160 0 -243 -61.5t-83 -178.5q0 -70 29 -115t78 -74.5t111.5 -50t129.5 -40.5q76 -23 151 -50.5t135.5 -73.5t97 -117t36.5 -179q0 -186 -109.5 -304t-314.5 -145l-18 -71q37 -4 70.5 -15.5t60.5 -33t43 -53.5t16 -77 q0 -92 -64.5 -151.5t-193.5 -59.5q-63 0 -132.5 18.5t-110.5 47.5l51 107q33 -16 78 -34t96 -18q45 0 71.5 22.5t26.5 59.5q0 63 -50 82t-128 19l39 151q-129 4 -239.5 34t-196.5 87z" />
<glyph unicode="&#x15f;" horiz-adv-x="927" d="M59 63l62 130q47 -27 128 -58t185 -31q109 0 172.5 37t63.5 121q0 47 -20.5 77t-55.5 49.5t-81 31.5t-97 26q-57 14 -113.5 35t-100.5 53.5t-72 84t-28 129.5q0 68 24 125t73 99t121.5 66.5t171.5 24.5q98 0 184 -23.5t143 -56.5l-57 -125q-129 70 -273 70 q-100 0 -156.5 -35t-56.5 -113q0 -45 18.5 -73.5t50.5 -48t74 -33t87 -25.5q53 -16 112.5 -33.5t108.5 -51.5t81 -87t32 -139q0 -135 -78 -219t-238 -101l-16 -71q37 -4 70.5 -15.5t60.5 -33t43 -53.5t16 -77q0 -92 -64.5 -151.5t-193.5 -59.5q-63 0 -132.5 18.5 t-110.5 47.5l51 107q33 -16 78 -34t96 -18q45 0 71.5 22.5t26.5 59.5q0 63 -50 82t-128 19l39 155q-115 8 -198 38t-124 58z" />
<glyph unicode="&#x160;" horiz-adv-x="1173" d="M72 84l73 145q88 -53 181.5 -80.5t226.5 -27.5q166 0 245 69.5t79 186.5q0 74 -27 121t-72 78.5t-104.5 51t-122.5 38.5q-78 20 -156 46.5t-140 71.5t-101 119t-39 191q0 84 30.5 158.5t94 132t160 90t225.5 32.5q59 0 119.5 -9t115.5 -24.5t102.5 -35t84.5 -41.5 l-72 -137q-68 43 -159 70.5t-181 27.5q-160 0 -243 -61.5t-83 -178.5q0 -70 29 -115t78 -74.5t111.5 -50t129.5 -40.5q76 -23 151 -50.5t135.5 -73.5t97 -117t36.5 -179q0 -209 -137 -332t-395 -123q-141 0 -261 31t-212 90zM340 1837l86 72l197 -170l201 170l82 -70 l-209 -256h-158z" />
<glyph unicode="&#x161;" horiz-adv-x="927" d="M59 63l62 130q47 -27 128 -58t185 -31q109 0 172.5 37t63.5 121q0 47 -20.5 77t-55.5 49.5t-81 31.5t-97 26q-57 14 -113.5 35t-100.5 53.5t-72 84t-28 129.5q0 68 24 125t73 99t121.5 66.5t171.5 24.5q98 0 184 -23.5t143 -56.5l-57 -125q-129 70 -273 70 q-100 0 -156.5 -35t-56.5 -113q0 -45 18.5 -73.5t50.5 -48t74 -33t87 -25.5q53 -16 112.5 -33.5t108.5 -51.5t81 -87t32 -139q0 -154 -97.5 -240t-302.5 -86q-135 0 -234.5 35t-146.5 65zM197 1530l96 65l205 -241l199 243l94 -63l-215 -344h-158z" />
<glyph unicode="&#x162;" horiz-adv-x="1124" d="M41 1325v152h1042v-152h-421v-1325h-201v1325h-420zM399 -530l58 391l192 -43l-133 -375z" />
<glyph unicode="&#x163;" horiz-adv-x="786" d="M37 887v139h192v305h185v-305h303v-139h-303v-592q0 -59 10 -95t29.5 -55.5t46 -26.5t59.5 -7t75 8t81 24l41 -125q-35 -18 -98.5 -33.5t-129.5 -15.5q-72 0 -128 14.5t-95 48.5t-60.5 92t-21.5 146v617h-186zM334 -530l58 391l192 -43l-133 -375z" />
<glyph unicode="&#x164;" horiz-adv-x="1124" d="M41 1325v152h1042v-152h-421v-1325h-201v1325h-420zM288 1837l86 72l197 -170l201 170l82 -70l-209 -256h-158z" />
<glyph unicode="&#x165;" horiz-adv-x="786" d="M37 887v139h192v305h185v-305h303v-139h-303v-592q0 -59 10 -95t29.5 -55.5t46 -26.5t59.5 -7t75 8t81 24l41 -125q-35 -18 -98.5 -33.5t-129.5 -15.5q-72 0 -128 14.5t-95 48.5t-60.5 92t-21.5 146v617h-186zM576 1168v469h180l-70 -469h-110z" />
<glyph unicode="&#x166;" horiz-adv-x="1124" d="M41 1325v152h1042v-152h-421v-506h268v-145h-268v-674h-201v674h-246v145h246v506h-420z" />
<glyph unicode="&#x167;" horiz-adv-x="786" d="M37 492v139h186v256h-186v139h192v305h185v-305h303v-139h-303v-256h303v-139h-303v-197q0 -59 10 -95t29.5 -55.5t46 -26.5t59.5 -7t75 8t81 24l41 -125q-35 -18 -98.5 -33.5t-129.5 -15.5q-72 0 -128 14.5t-95 48.5t-60.5 92t-21.5 146v222h-186z" />
<glyph unicode="&#x168;" horiz-adv-x="1409" d="M176 555v922h201v-887q0 -109 10 -197t44 -149.5t98.5 -94t172.5 -32.5q109 0 177.5 30.5t106.5 90t52.5 145.5t14.5 199v895h180v-899q0 -135 -24.5 -249t-86 -195t-165 -126t-261.5 -45q-156 0 -256 39t-158.5 113.5t-82 185.5t-23.5 254zM344 1602q0 123 40 193.5 t136 70.5q35 0 77 -10.5t83 -26.5l86 -33q41 -16 72.5 -27.5t56.5 -11.5q39 0 57.5 23.5t18.5 91.5h116q0 -266 -170 -266q-47 0 -88 12t-88 29l-75 28q-39 16 -75 27.5t-63 11.5q-39 0 -54 -22.5t-15 -89.5h-115z" />
<glyph unicode="&#x169;" horiz-adv-x="1142" d="M143 360v666h191v-668q0 -121 46 -186.5t155 -65.5q90 0 146 29t105 72v819h191v-831l84 -125l-137 -103l-95 115q-82 -63 -158.5 -91t-168.5 -28q-113 0 -182.5 32t-108.5 86t-53.5 127t-14.5 152zM190 1229q0 123 40 193.5t136 70.5q35 0 77 -10t83 -27l86 -33 q41 -16 72.5 -27.5t56.5 -11.5q39 0 57.5 24t18.5 91h116q0 -266 -170 -266q-47 0 -88 12t-88 29l-75 29q-39 16 -75 27t-63 11q-39 0 -54 -22.5t-15 -89.5h-115z" />
<glyph unicode="&#x16a;" horiz-adv-x="1409" d="M176 555v922h201v-887q0 -109 10 -197t44 -149.5t98.5 -94t172.5 -32.5q109 0 177.5 30.5t106.5 90t52.5 145.5t14.5 199v895h180v-899q0 -135 -24.5 -249t-86 -195t-165 -126t-261.5 -45q-156 0 -256 39t-158.5 113.5t-82 185.5t-23.5 254zM393 1618v149h641v-149h-641z " />
<glyph unicode="&#x16b;" horiz-adv-x="1142" d="M143 360v666h191v-668q0 -121 46 -186.5t155 -65.5q90 0 146 29t105 72v819h191v-831l84 -125l-137 -103l-95 115q-82 -63 -158.5 -91t-168.5 -28q-113 0 -182.5 32t-108.5 86t-53.5 127t-14.5 152zM235 1260v153h641v-153h-641z" />
<glyph unicode="&#x16c;" horiz-adv-x="1409" d="M176 555v922h201v-887q0 -109 10 -197t44 -149.5t98.5 -94t172.5 -32.5q109 0 177.5 30.5t106.5 90t52.5 145.5t14.5 199v895h180v-899q0 -135 -24.5 -249t-86 -195t-165 -126t-261.5 -45q-156 0 -256 39t-158.5 113.5t-82 185.5t-23.5 254zM434 1821l117 41 q23 -55 62.5 -89t123.5 -34q76 0 118 30.5t66 92.5l119 -37q-29 -117 -110.5 -173.5t-192.5 -56.5t-196 54.5t-107 171.5z" />
<glyph unicode="&#x16d;" horiz-adv-x="1142" d="M143 360v666h191v-668q0 -121 46 -186.5t155 -65.5q90 0 146 29t105 72v819h191v-831l84 -125l-137 -103l-95 115q-82 -63 -158.5 -91t-168.5 -28q-113 0 -182.5 32t-108.5 86t-53.5 127t-14.5 152zM275 1436l117 41q23 -55 62.5 -89t123.5 -34q76 0 118 30.5t66 92.5 l119 -37q-29 -117 -110.5 -173.5t-192.5 -56.5t-196 54.5t-107 171.5z" />
<glyph unicode="&#x16e;" horiz-adv-x="1409" d="M176 555v922h201v-887q0 -109 10 -197t44 -149.5t98.5 -94t172.5 -32.5q109 0 177.5 30.5t106.5 90t52.5 145.5t14.5 199v895h180v-899q0 -135 -24.5 -249t-86 -195t-165 -126t-261.5 -45q-156 0 -256 39t-158.5 113.5t-82 185.5t-23.5 254zM469 1819q0 55 20.5 103 t56 84t84 56.5t103.5 20.5t103.5 -20.5t84 -56.5t56 -84t20.5 -103t-20.5 -103.5t-56 -84.5t-84 -56.5t-103.5 -20.5t-103.5 20.5t-84 56.5t-56 84.5t-20.5 103.5zM600 1819q0 -55 38 -95.5t95 -40.5t95 40t38 96q0 55 -39 95t-94 40t-94 -40t-39 -95z" />
<glyph unicode="&#x16f;" horiz-adv-x="1142" d="M143 360v666h191v-668q0 -121 46 -186.5t155 -65.5q90 0 146 29t105 72v819h191v-831l84 -125l-137 -103l-95 115q-82 -63 -158.5 -91t-168.5 -28q-113 0 -182.5 32t-108.5 86t-53.5 127t-14.5 152zM311 1454q0 55 20.5 103.5t56 84t84 56t103.5 20.5t103.5 -20.5t84 -56 t56 -84t20.5 -103.5t-20.5 -103t-56 -84t-84 -56.5t-103.5 -20.5t-103.5 20.5t-84 56.5t-56 84t-20.5 103zM442 1454q0 -55 38 -95t95 -40t95 40t38 95t-39 95t-94 40t-94 -40t-39 -95z" />
<glyph unicode="&#x170;" horiz-adv-x="1409" d="M176 555v922h201v-887q0 -109 10 -197t44 -149.5t98.5 -94t172.5 -32.5q109 0 177.5 30.5t106.5 90t52.5 145.5t14.5 199v895h180v-899q0 -135 -24.5 -249t-86 -195t-165 -126t-261.5 -45q-156 0 -256 39t-158.5 113.5t-82 185.5t-23.5 254zM447 1626l223 356l148 -106 l-277 -313zM781 1626l221 356l147 -106l-276 -313z" />
<glyph unicode="&#x171;" horiz-adv-x="1142" d="M143 360v666h191v-668q0 -121 46 -186.5t155 -65.5q90 0 146 29t105 72v819h191v-831l84 -125l-137 -103l-95 115q-82 -63 -158.5 -91t-168.5 -28q-113 0 -182.5 32t-108.5 86t-53.5 127t-14.5 152zM301 1262l238 368l149 -104l-292 -334zM662 1262l237 368l150 -104 l-293 -334z" />
<glyph unicode="&#x172;" horiz-adv-x="1409" d="M176 555v922h201v-887q0 -109 10 -197t44 -149.5t98.5 -94t172.5 -32.5q109 0 177.5 30.5t106.5 90t52.5 145.5t14.5 199v895h180v-899q0 -96 -11.5 -173t-39 -143.5t-71.5 -125t-107 -118.5q-31 -29 -68 -68.5t-72 -90.5q-14 -20 -30.5 -47t-16.5 -62q0 -20 7 -36.5 t26.5 -31t56.5 -26.5t99 -25l-35 -102q-96 12 -161 29.5t-104.5 42t-56 56.5t-16.5 73q0 31 10 58.5t29 55.5q23 35 44 64t44 57q-16 0 -31.5 -1t-32.5 -1q-156 0 -256 39t-158.5 113.5t-82 185.5t-23.5 254z" />
<glyph unicode="&#x173;" horiz-adv-x="1142" d="M143 360v666h191v-668q0 -121 46 -186.5t155 -65.5q90 0 146 29t105 72v819h191v-831l108 -164q-35 -37 -67.5 -78t-69.5 -94q-14 -20 -30.5 -47t-16.5 -62q0 -20 7 -36.5t26.5 -31t56.5 -26.5t99 -25l-35 -102q-96 12 -161 29.5t-104.5 42t-56 56.5t-16.5 73 q0 31 10 58.5t29 55.5q35 49 66.5 90t66.5 80l-60 68q-82 -63 -158.5 -91t-168.5 -28q-113 0 -182.5 32t-108.5 86t-53.5 127t-14.5 152z" />
<glyph unicode="&#x174;" horiz-adv-x="1867" d="M31 1458l200 33l291 -1294q10 -41 15.5 -56.5t23.5 -15.5q23 0 30 15.5t17 56.5l256 1280h166l283 -1280q10 -41 17 -56.5t24 -15.5q23 0 29 15.5t16 56.5l264 1294l174 -33l-264 -1278q-47 -217 -227 -217q-53 0 -91 12.5t-65 38t-44.5 66.5t-31.5 100l-178 826 l-154 -826q-29 -121 -79 -169t-146 -48q-109 0 -161 50t-79 167zM667 1636l209 256h158l199 -254l-82 -71l-197 170l-201 -170z" />
<glyph unicode="&#x175;" horiz-adv-x="1525" d="M47 1022l189 22l182 -894q10 -53 33 -54q16 0 22 12.5t14 41.5l211 876h154l209 -876q10 -53 31 -54q16 0 22 12.5t12 41.5l201 894l168 -22l-203 -852q-23 -102 -68.5 -154.5t-133.5 -52.5q-59 0 -95.5 11.5t-60 37t-36.5 64.5t-26 94l-112 481l-105 -481 q-25 -102 -70.5 -154.5t-133.5 -52.5q-59 0 -96.5 11.5t-60 36t-36.5 64.5t-27 95zM479 1245l221 340h158l215 -344l-94 -63l-199 243l-205 -241z" />
<glyph unicode="&#x176;" horiz-adv-x="1165" d="M31 1458l188 37l320 -715q16 -37 25 -54t24 -17q14 0 23.5 16t29.5 55l328 711l166 -39l-326 -688q-35 -68 -63.5 -117t-67.5 -74v-573h-201v571q-25 12 -41 28.5t-30.5 40.5t-29 54.5t-32.5 69.5zM319 1636l209 256h158l199 -254l-82 -71l-197 170l-201 -170z" />
<glyph unicode="&#x177;" horiz-adv-x="1015" d="M31 1018l188 31l189 -709q14 -57 31.5 -92t37 -54.5t42 -25.5t48.5 -6h29l221 887l170 -33l-307 -1178q-41 -154 -124 -226.5t-224 -72.5q-37 0 -74 6t-69.5 15.5t-59.5 18.5t-41 18l47 120q33 -12 83 -27.5t116 -15.5q78 0 121 46.5t65 138.5l43 168h-35 q-66 0 -113.5 15t-83.5 51t-62.5 92.5t-49.5 138.5zM229 1245l221 340h158l215 -344l-94 -63l-199 243l-205 -241z" />
<glyph unicode="&#x178;" horiz-adv-x="1165" d="M31 1458l188 37l320 -715q16 -37 25 -54t24 -17q14 0 23.5 16t29.5 55l328 711l166 -39l-326 -688q-35 -68 -63.5 -117t-67.5 -74v-573h-201v571q-25 12 -41 28.5t-30.5 40.5t-29 54.5t-32.5 69.5zM244 1726q0 55 31.5 94.5t97.5 39.5q63 0 95 -39t32 -95q0 -53 -32 -92 t-95 -39q-66 0 -97.5 39t-31.5 92zM706 1726q0 55 32 94.5t97 39.5q63 0 95 -39t32 -95q0 -53 -32 -92t-95 -39q-66 0 -97.5 39t-31.5 92z" />
<glyph unicode="&#x179;" horiz-adv-x="1122" d="M39 147q0 31 15.5 70t60.5 105l686 1003h-711v152h981v-113l-807 -1157q-14 -20 -14 -35q0 -20 33 -20h792v-152h-854q-98 0 -140 39t-42 108zM440 1636l285 334l137 -123l-340 -284z" />
<glyph unicode="&#x17a;" horiz-adv-x="919" d="M66 137q0 39 12 72t47 76l489 604h-518v137h754v-133l-571 -703q-10 -12 -11.5 -19t-1.5 -9q0 -23 35 -23h555v-139h-625q-86 0 -125.5 39t-39.5 98zM376 1262l238 368l149 -104l-292 -334z" />
<glyph unicode="&#x17b;" horiz-adv-x="1122" d="M39 147q0 31 15.5 70t60.5 105l686 1003h-711v152h981v-113l-807 -1157q-14 -20 -14 -35q0 -20 33 -20h792v-152h-854q-98 0 -140 39t-42 108zM471 1731q0 59 34 99t93 40q61 0 95 -40t34 -99t-34 -98.5t-95 -39.5q-59 0 -93 39t-34 99z" />
<glyph unicode="&#x17c;" horiz-adv-x="919" d="M66 137q0 39 12 72t47 76l489 604h-518v137h754v-133l-571 -703q-10 -12 -11.5 -19t-1.5 -9q0 -23 35 -23h555v-139h-625q-86 0 -125.5 39t-39.5 98zM371 1354q0 59 34 99t93 40q61 0 95 -40t34 -99t-34 -98t-95 -39q-59 0 -93 38.5t-34 98.5z" />
<glyph unicode="&#x17d;" horiz-adv-x="1122" d="M39 147q0 31 15.5 70t60.5 105l686 1003h-711v152h981v-113l-807 -1157q-14 -20 -14 -35q0 -20 33 -20h792v-152h-854q-98 0 -140 39t-42 108zM317 1837l86 72l197 -170l201 170l82 -70l-209 -256h-158z" />
<glyph unicode="&#x17e;" horiz-adv-x="919" d="M66 137q0 39 12 72t47 76l489 604h-518v137h754v-133l-571 -703q-10 -12 -11.5 -19t-1.5 -9q0 -23 35 -23h555v-139h-625q-86 0 -125.5 39t-39.5 98zM195 1530l96 65l205 -241l199 243l94 -63l-215 -344h-158z" />
<glyph unicode="&#x17f;" horiz-adv-x="720" d="M203 0v1133q0 76 16.5 144.5t56 119.5t106.5 80.5t167 29.5q53 0 112.5 -14t110.5 -39l-49 -121q-20 10 -63.5 23.5t-96.5 13.5q-57 0 -91 -18.5t-51.5 -52t-22.5 -82t-5 -107.5v-1110h-190z" />
<glyph unicode="&#x192;" horiz-adv-x="1216" d="M-123 -410l43 123q41 -14 95.5 -26.5t115.5 -12.5q53 0 89 14.5t59.5 43t37 69.5t23.5 97l139 796h-211l23 140h213l53 301q29 166 125 254t276 88q74 0 137.5 -16.5t104.5 -37.5l-51 -118q-53 18 -96 27t-97 9q-59 0 -96 -18t-59.5 -49t-34.5 -71t-21 -83l-51 -286h289 l-25 -140h-288l-142 -811q-29 -160 -119 -252t-262 -92q-84 0 -159.5 17.5t-110.5 33.5z" />
<glyph unicode="&#x218;" horiz-adv-x="1173" d="M72 84l73 145q88 -53 181.5 -80.5t226.5 -27.5q166 0 245 69.5t79 186.5q0 74 -27 121t-72 78.5t-104.5 51t-122.5 38.5q-78 20 -156 46.5t-140 71.5t-101 119t-39 191q0 84 30.5 158.5t94 132t160 90t225.5 32.5q59 0 119.5 -9t115.5 -24.5t102.5 -35t84.5 -41.5 l-72 -137q-68 43 -159 70.5t-181 27.5q-160 0 -243 -61.5t-83 -178.5q0 -70 29 -115t78 -74.5t111.5 -50t129.5 -40.5q76 -23 151 -50.5t135.5 -73.5t97 -117t36.5 -179q0 -209 -137 -332t-395 -123q-141 0 -261 31t-212 90zM393 -530l58 391l192 -43l-133 -375z" />
<glyph unicode="&#x219;" horiz-adv-x="927" d="M59 63l62 130q47 -27 128 -58t185 -31q109 0 172.5 37t63.5 121q0 47 -20.5 77t-55.5 49.5t-81 31.5t-97 26q-57 14 -113.5 35t-100.5 53.5t-72 84t-28 129.5q0 68 24 125t73 99t121.5 66.5t171.5 24.5q98 0 184 -23.5t143 -56.5l-57 -125q-129 70 -273 70 q-100 0 -156.5 -35t-56.5 -113q0 -45 18.5 -73.5t50.5 -48t74 -33t87 -25.5q53 -16 112.5 -33.5t108.5 -51.5t81 -87t32 -139q0 -154 -97.5 -240t-302.5 -86q-135 0 -234.5 35t-146.5 65zM307 -530l58 391l192 -43l-133 -375z" />
<glyph unicode="&#x21a;" horiz-adv-x="1124" d="M41 1325v152h1042v-152h-421v-1325h-201v1325h-420zM397 -530l58 391l192 -43l-133 -375z" />
<glyph unicode="&#x21b;" horiz-adv-x="786" d="M37 887v139h192v305h185v-305h303v-139h-303v-592q0 -59 10 -95t29.5 -55.5t46 -26.5t59.5 -7t75 8t81 24l41 -125q-35 -18 -98.5 -33.5t-129.5 -15.5q-72 0 -128 14.5t-95 48.5t-60.5 92t-21.5 146v617h-186zM317 -530l58 391l192 -43l-133 -375z" />
<glyph unicode="&#x237;" horiz-adv-x="528" d="M-215 -406l47 127q39 -14 79 -27t99 -13q57 0 90 25.5t49.5 65.5t20.5 89t4 94v1071h191v-1106q0 -72 -15.5 -140.5t-54.5 -121.5t-104.5 -86t-165.5 -33q-51 0 -121 15.5t-119 39.5z" />
<glyph unicode="&#x2bc;" horiz-adv-x="1024" d="M367 1122l96 482l192 -43l-155 -471z" />
<glyph unicode="&#x2c6;" horiz-adv-x="1024" d="M217 1245l221 340h158l215 -344l-94 -63l-199 243l-205 -241z" />
<glyph unicode="&#x2c7;" horiz-adv-x="1024" d="M213 1530l96 65l205 -241l199 243l94 -63l-215 -344h-158z" />
<glyph unicode="&#x2c9;" horiz-adv-x="1024" d="M190 1260v153h641v-153h-641z" />
<glyph unicode="&#x2d8;" horiz-adv-x="1024" d="M209 1436l117 41q23 -55 62.5 -89t123.5 -34q76 0 118 30.5t66 92.5l119 -37q-29 -117 -110.5 -173.5t-192.5 -56.5t-196 54.5t-107 171.5z" />
<glyph unicode="&#x2d9;" horiz-adv-x="1024" d="M381 1354q0 59 34 99t93 40q61 0 95 -40t34 -99t-34 -98t-95 -39q-59 0 -93 38.5t-34 98.5z" />
<glyph unicode="&#x2da;" horiz-adv-x="1024" d="M248 1454q0 55 20.5 103.5t56 84t84 56t103.5 20.5t103.5 -20.5t84 -56t56 -84t20.5 -103.5t-20.5 -103t-56 -84t-84 -56.5t-103.5 -20.5t-103.5 20.5t-84 56.5t-56 84t-20.5 103zM379 1454q0 -55 38 -95t95 -40t95 40t38 95t-39 95t-94 40t-94 -40t-39 -95z" />
<glyph unicode="&#x2db;" horiz-adv-x="1024" d="M322 -270q0 31 10 58.5t28 55.5q41 59 80 109.5t82 99.5l164 -22q-29 -35 -61.5 -77t-71.5 -95q-14 -20 -30.5 -47t-16.5 -62q0 -20 7 -36.5t26.5 -31t56.5 -26.5t98 -25l-35 -102q-96 12 -160.5 29.5t-104.5 42t-56 56.5t-16 73z" />
<glyph unicode="&#x2dc;" horiz-adv-x="1024" d="M127 1229q0 123 40 193.5t136 70.5q35 0 77 -10t83 -27l86 -33q41 -16 72.5 -27.5t56.5 -11.5q39 0 57.5 24t18.5 91h116q0 -266 -170 -266q-47 0 -88 12t-88 29l-75 29q-39 16 -75 27t-63 11q-39 0 -54 -22.5t-15 -89.5h-115z" />
<glyph unicode="&#x2dd;" horiz-adv-x="1024" d="M145 1262l238 368l149 -104l-292 -334zM506 1262l237 368l150 -104l-293 -334z" />
<glyph unicode="&#x384;" horiz-adv-x="1024" d="M393 1190l131 450l174 -57l-200 -430z" />
<glyph unicode="&#x385;" horiz-adv-x="1024" d="M76 1370q0 55 31.5 94t97.5 39q63 0 95 -39t32 -94q0 -53 -32 -92t-95 -39q-66 0 -97.5 39t-31.5 92zM385 1190l131 450l174 -57l-201 -430zM707 1370q0 55 31.5 94t97.5 39q63 0 95 -39t32 -94q0 -53 -32 -92t-95 -39q-66 0 -97.5 39t-31.5 92z" />
<glyph unicode="&#x386;" horiz-adv-x="1323" d="M37 2l395 1282q33 104 79 160.5t138 56.5q55 0 92 -8t63.5 -32.5t47 -66.5t43.5 -110l401 -1284l-196 -33l-162 508h-580l-155 -508zM52 1053l131 450l174 -57l-201 -430zM401 627h496l-195 641q-12 41 -23 56t-30 15q-23 0 -32 -15t-21 -56z" />
<glyph unicode="&#x388;" horiz-adv-x="1210" d="M-202 1053l131 450l174 -57l-201 -430zM203 0v1477h901v-156h-700v-473h528v-156h-528v-536h725v-156h-926z" />
<glyph unicode="&#x389;" horiz-adv-x="1435" d="M-202 1053l131 450l174 -57l-201 -430zM205 0v1477h201v-629h653v629h201v-1477h-201v692h-653v-692h-201z" />
<glyph unicode="&#x38a;" horiz-adv-x="591" d="M-202 1053l131 450l174 -57l-201 -430zM215 0v1477h201v-1477h-201z" />
<glyph unicode="&#x38c;" horiz-adv-x="1478" d="M-129 1053l131 450l174 -57l-201 -430zM123 735q0 168 38 310.5t114.5 245t192.5 159.5t271 57q160 0 277 -55t191.5 -156.5t111.5 -244t37 -316.5q0 -170 -38 -311t-115 -243.5t-192.5 -160t-271.5 -57.5q-160 0 -276.5 54.5t-191 155.5t-111.5 243.5t-37 318.5z M338 733q0 -123 19.5 -234.5t66.5 -195.5t123.5 -134t191.5 -50q119 0 196 49t123 133t64.5 196.5t18.5 239.5q0 123 -20.5 234.5t-66.5 197.5t-124 136.5t-191 50.5q-119 0 -195.5 -49.5t-122.5 -134.5t-64.5 -198.5t-18.5 -240.5z" />
<glyph unicode="&#x38e;" horiz-adv-x="1298" d="M-202 1053l131 450l174 -57l-201 -430zM164 1458l188 37l320 -715q16 -37 25 -54t24 -17q14 0 23.5 16t29.5 55l328 711l166 -39l-326 -688q-35 -68 -63.5 -117t-67.5 -74v-573h-201v571q-25 12 -41 28.5t-30.5 40.5t-29 54.5t-32.5 69.5z" />
<glyph unicode="&#x38f;" horiz-adv-x="1513" d="M-141 1055l131 450l174 -57l-201 -430zM61 0v154h338q35 0 35 22q0 10 -7 20.5t-34 36.5q-63 66 -117.5 129.5t-93.5 134t-60.5 153.5t-21.5 192q0 123 39 240.5t119 212t203 151.5t291 57t287.5 -57t196.5 -147.5t113.5 -201t36.5 -214.5t-22.5 -189.5t-62 -162 t-95 -149.5t-121.5 -149q-25 -29 -33 -38t-8 -19q0 -23 37 -22h340v-154h-389q-47 0 -79.5 11.5t-52 30.5t-28 46t-8.5 55q0 63 62 144q51 63 96 122.5t78 126t52 146.5t19 188q0 82 -23.5 167t-74.5 155t-132 114t-193 44q-117 0 -201 -43t-136.5 -115t-77 -165t-24.5 -193 q0 -96 18.5 -168t51.5 -134.5t79 -121t99 -123.5q35 -41 50.5 -76t15.5 -72q0 -53 -41 -96t-138 -43h-383z" />
<glyph unicode="&#x390;" horiz-adv-x="628" d="M-119 1370q0 55 31.5 94t97.5 39q63 0 95 -39t32 -94q0 -53 -32 -92t-95 -39q-66 0 -97.5 39t-31.5 92zM172 276v750h190v-735q0 -43 3.5 -77t13.5 -55.5t31.5 -32.5t56.5 -11q29 0 52.5 4t64.5 14l28 -129q-49 -16 -89 -23.5t-103 -7.5q-61 0 -107.5 14.5t-78 49.5 t-47 93t-15.5 146zM190 1190l131 450l174 -57l-201 -430zM512 1370q0 55 31.5 94t97.5 39q63 0 95 -39t32 -94q0 -53 -32 -92t-95 -39q-66 0 -97.5 39t-31.5 92z" />
<glyph unicode="&#x391;" horiz-adv-x="1323" d="M37 2l395 1282q33 104 79 160.5t138 56.5q55 0 92 -8t63.5 -32.5t47 -66.5t43.5 -110l401 -1284l-196 -33l-162 508h-580l-155 -508zM401 627h496l-195 641q-12 41 -23 56t-30 15q-23 0 -32 -15t-21 -56z" />
<glyph unicode="&#x392;" horiz-adv-x="1277" d="M176 0v1477h457q104 0 193 -21.5t153.5 -68t101.5 -120t37 -177.5q0 -94 -53 -178.5t-145 -129.5q133 -47 199.5 -141t66.5 -225q0 -104 -37 -182t-101.5 -130.5t-153.5 -78t-194 -25.5h-524zM377 145h291q160 0 236.5 71t76.5 208q0 80 -30.5 131t-79 79t-105.5 38 t-111 10h-278v-537zM377 836h282q66 0 114 20.5t79 54t46 78.5t15 92q0 137 -76.5 193.5t-236.5 56.5h-223v-495z" />
<glyph unicode="&#x393;" horiz-adv-x="1021" d="M176 0v1477h805v-152h-604v-1325h-201z" />
<glyph unicode="&#x394;" horiz-adv-x="1347" d="M43 150q0 43 9.5 79.5t19.5 71.5l313 944q18 57 42 105.5t57.5 82t81 52t112.5 18.5q66 0 113 -18.5t79.5 -52t55.5 -80.5t41 -105l313 -964q10 -33 19.5 -66t9.5 -74q0 -27 -8 -52t-29.5 -45.5t-56.5 -33t-86 -12.5h-905q-51 0 -86 13.5t-55.5 35t-30 48t-9.5 53.5z M240 215q0 -16 10 -26.5t41 -10.5h744q31 0 40 10.5t9 26.5q0 10 -2 22.5t-7 22.5l-303 952q-25 72 -44 97.5t-60 25.5q-45 0 -66.5 -25.5t-44.5 -97.5l-307 -952q-4 -10 -7 -22.5t-3 -22.5z" />
<glyph unicode="&#x395;" horiz-adv-x="1181" d="M174 0v1477h901v-156h-700v-473h528v-156h-528v-536h725v-156h-926z" />
<glyph unicode="&#x396;" horiz-adv-x="1122" d="M39 147q0 31 15.5 70t60.5 105l686 1003h-711v152h981v-113l-807 -1157q-14 -20 -14 -35q0 -20 33 -20h792v-152h-854q-98 0 -140 39t-42 108z" />
<glyph unicode="&#x397;" horiz-adv-x="1406" d="M176 0v1477h201v-629h653v629h201v-1477h-201v692h-653v-692h-201z" />
<glyph unicode="&#x398;" horiz-adv-x="1478" d="M123 735q0 168 38 310.5t114.5 245t192.5 159.5t271 57q160 0 277 -55t191.5 -156.5t111.5 -244t37 -316.5q0 -170 -38 -311t-115 -243.5t-192.5 -160t-271.5 -57.5q-160 0 -276.5 54.5t-191 155.5t-111.5 243.5t-37 318.5zM338 733q0 -123 19.5 -234.5t66.5 -195.5 t123.5 -134t191.5 -50q119 0 196 49t123 133t64.5 196.5t18.5 239.5q0 123 -20.5 234.5t-66.5 197.5t-124 136.5t-191 50.5q-119 0 -195.5 -49.5t-122.5 -134.5t-64.5 -198.5t-18.5 -240.5zM424 645v182h620v-182h-620z" />
<glyph unicode="&#x399;" horiz-adv-x="573" d="M186 0v1477h201v-1477h-201z" />
<glyph unicode="&#x39a;" horiz-adv-x="1232" d="M172 0v1477h193v-646h120q41 0 58.5 8.5t40.5 39.5l428 620l176 -37l-473 -684l506 -753l-209 -43l-426 639q-25 39 -47.5 47t-53.5 8h-120v-676h-193z" />
<glyph unicode="&#x39b;" horiz-adv-x="1363" d="M37 8l379 1231q18 59 39.5 107.5t51.5 83t73 53t104 18.5q66 0 110 -18.5t72.5 -51t48 -79.5t37.5 -105l385 -1245l-196 -33l-385 1260q-18 59 -31.5 84.5t-46.5 25.5q-35 0 -50.5 -27.5t-37.5 -99.5l-379 -1243z" />
<glyph unicode="&#x39c;" horiz-adv-x="1652" d="M141 0l76 1477h205l346 -762q16 -35 25.5 -46.5t27.5 -11.5q16 0 25.5 13.5t25.5 44.5l371 762h193l75 -1477h-196l-53 1118l-242 -487q-18 -37 -35.5 -66.5t-39 -51t-52.5 -34t-78 -12.5q-49 0 -81 11t-54.5 31.5t-38.5 51.5t-35 72l-227 493l-45 -1126h-193z" />
<glyph unicode="&#x39d;" horiz-adv-x="1419" d="M180 0v1477h199l639 -1260q14 -29 21.5 -38t17.5 -9q16 0 16 31v1276h166v-1272q0 -123 -49 -171t-131 -48q-37 0 -66.5 6t-54.5 22.5t-47.5 45t-44.5 73.5l-500 987v-1120h-166z" />
<glyph unicode="&#x39e;" horiz-adv-x="1157" d="M92 0v158h973v-158h-973zM92 1321v156h957v-156h-957zM215 670v155h698v-155h-698z" />
<glyph unicode="&#x39f;" horiz-adv-x="1478" d="M123 735q0 168 38 310.5t114.5 245t192.5 159.5t271 57q160 0 277 -55t191.5 -156.5t111.5 -244t37 -316.5q0 -170 -38 -311t-115 -243.5t-192.5 -160t-271.5 -57.5q-160 0 -276.5 54.5t-191 155.5t-111.5 243.5t-37 318.5zM338 733q0 -123 19.5 -234.5t66.5 -195.5 t123.5 -134t191.5 -50q119 0 196 49t123 133t64.5 196.5t18.5 239.5q0 123 -20.5 234.5t-66.5 197.5t-124 136.5t-191 50.5q-119 0 -195.5 -49.5t-122.5 -134.5t-64.5 -198.5t-18.5 -240.5z" />
<glyph unicode="&#x3a0;" horiz-adv-x="1384" d="M176 0v1477h1032v-1477h-200v1321h-631v-1321h-201z" />
<glyph unicode="&#x3a1;" horiz-adv-x="1200" d="M174 0v1477h449q104 0 196 -20.5t161 -71t107.5 -133.5t38.5 -208q0 -84 -31.5 -164.5t-94 -144t-157.5 -103.5t-220 -40h-248v-592h-201zM375 745h215q170 0 251 69t81 222q0 88 -24 145.5t-67 90.5t-103 45t-136 12h-217v-584z" />
<glyph unicode="&#x3a3;" horiz-adv-x="1116" d="M41 0v119l430 516q41 49 57.5 73.5t16.5 47.5t-20.5 48t-67.5 79l-416 477v117h977v-156h-711l322 -367q59 -70 81.5 -109.5t22.5 -88.5q0 -41 -21.5 -82t-78.5 -109l-348 -407h770v-158h-1014z" />
<glyph unicode="&#x3a4;" horiz-adv-x="1124" d="M41 1325v152h1042v-152h-421v-1325h-201v1325h-420z" />
<glyph unicode="&#x3a5;" horiz-adv-x="1165" d="M31 1458l188 37l320 -715q16 -37 25 -54t24 -17q14 0 23.5 16t29.5 55l328 711l166 -39l-326 -688q-35 -68 -63.5 -117t-67.5 -74v-573h-201v571q-25 12 -41 28.5t-30.5 40.5t-29 54.5t-32.5 69.5z" />
<glyph unicode="&#x3a6;" horiz-adv-x="1601" d="M123 731q0 135 43 236.5t119.5 171t184.5 107.5t235 46v205h196v-203q123 -8 229.5 -44t183.5 -102.5t121 -166.5t44 -236q0 -135 -45 -237t-123 -172t-183.5 -109t-226.5 -47v-203h-196v205q-123 6 -229.5 42t-185.5 103.5t-123 168t-44 235.5zM338 737 q0 -180 92 -289.5t272 -117.5v815q-90 -2 -158.5 -33t-114.5 -84t-68.5 -127t-22.5 -164zM901 330q178 8 270.5 117.5t92.5 289.5q0 90 -22.5 164t-68 127t-114 84t-158.5 33v-815z" />
<glyph unicode="&#x3a7;" horiz-adv-x="1251" d="M20 37l431 711l-424 692l194 57l354 -586q12 -23 20.5 -30t22.5 -7q16 0 24.5 11.5t19.5 27.5l342 590l172 -53l-396 -684l451 -733l-195 -53l-374 618q-14 23 -22.5 33t-25.5 10q-16 0 -25 -12.5t-26 -34.5l-368 -614z" />
<glyph unicode="&#x3a8;" horiz-adv-x="1640" d="M154 1042v435h202v-422q0 -117 16.5 -203t57.5 -144.5t111.5 -91t181.5 -41.5v902h201v-902q109 8 178 41t110 91.5t57.5 144.5t16.5 203v422h201v-420q0 -145 -28.5 -257t-94.5 -192t-173.5 -125t-266.5 -57v-426h-201v426q-166 10 -275.5 53t-175 120t-92 187.5 t-26.5 255.5z" />
<glyph unicode="&#x3a9;" horiz-adv-x="1482" d="M61 0v154h338q35 0 35 22q0 10 -7 20.5t-34 36.5q-63 66 -117.5 129.5t-93.5 134t-60.5 153.5t-21.5 192q0 123 39 240.5t119 212t203 151.5t291 57t287.5 -57t196.5 -147.5t113.5 -201t36.5 -214.5t-22.5 -189.5t-62 -162t-95 -149.5t-121.5 -149q-25 -29 -33 -38 t-8 -19q0 -23 37 -22h340v-154h-389q-47 0 -79.5 11.5t-52 30.5t-28 46t-8.5 55q0 63 62 144q51 63 96 122.5t78 126t52 146.5t19 188q0 82 -23.5 167t-74.5 155t-132 114t-193 44q-117 0 -201 -43t-136.5 -115t-77 -165t-24.5 -193q0 -96 18.5 -168t51.5 -134.5t79 -121 t99 -123.5q35 -41 50.5 -76t15.5 -72q0 -53 -41 -96t-138 -43h-383z" />
<glyph unicode="&#x3aa;" horiz-adv-x="573" d="M-71 1726q0 55 31.5 94.5t97.5 39.5q63 0 95 -39t32 -95q0 -53 -32 -92t-95 -39q-66 0 -97.5 39t-31.5 92zM186 0v1477h201v-1477h-201zM391 1726q0 55 32 94.5t97 39.5q63 0 95 -39t32 -95q0 -53 -32 -92t-95 -39q-66 0 -97.5 39t-31.5 92z" />
<glyph unicode="&#x3ab;" horiz-adv-x="1165" d="M31 1458l188 37l320 -715q16 -37 25 -54t24 -17q14 0 23.5 16t29.5 55l328 711l166 -39l-326 -688q-35 -68 -63.5 -117t-67.5 -74v-573h-201v571q-25 12 -41 28.5t-30.5 40.5t-29 54.5t-32.5 69.5zM230 1726q0 55 31.5 94.5t97.5 39.5q63 0 95 -39t32 -95q0 -53 -32 -92 t-95 -39q-66 0 -97.5 39t-31.5 92zM692 1726q0 55 32 94.5t97 39.5q63 0 95 -39t32 -95q0 -53 -32 -92t-95 -39q-66 0 -97.5 39t-31.5 92z" />
<glyph unicode="&#x3ac;" horiz-adv-x="1171" d="M115 512q0 266 113.5 408.5t318.5 142.5q84 0 153.5 -29.5t126.5 -85.5l84 119l150 -78l-74 -170v-586q0 -47 6 -74.5t16.5 -41t25 -17.5t30.5 -4q14 0 51 10l25 -114q-23 -10 -64 -19.5t-73 -9.5q-66 0 -106 32t-56 81q-53 -39 -127 -76t-174 -37q-115 0 -196 42 t-132 116t-74.5 174t-23.5 217zM311 512q0 -207 69 -301t200 -94q59 0 117.5 19.5t99.5 58.5v620q-37 45 -95.5 76t-128.5 31q-55 0 -103 -20.5t-83 -69t-55.5 -126t-20.5 -194.5zM499 1190l131 450l174 -57l-200 -430z" />
<glyph unicode="&#x3ad;" horiz-adv-x="976" d="M123 268q0 111 59.5 178.5t145.5 90.5q-74 27 -116 89t-42 140q0 59 23.5 112.5t73.5 94.5t127 65.5t184 24.5q119 0 201.5 -27.5t135.5 -56.5l-55 -121q-61 31 -127.5 47.5t-152.5 16.5q-117 0 -165 -45.5t-48 -114.5q0 -55 20.5 -87t52 -49.5t70.5 -21.5t74 -4h194 v-139h-200q-51 0 -98.5 -8.5t-83.5 -27.5t-57.5 -54t-21.5 -88t21.5 -87t57.5 -53.5t81 -28t92 -8.5q72 0 142.5 12.5t156.5 49.5l58 -123q-53 -31 -154.5 -56.5t-220.5 -25.5q-197 0 -312.5 71.5t-115.5 233.5zM504 1190l131 450l174 -57l-200 -430z" />
<glyph unicode="&#x3ae;" horiz-adv-x="1187" d="M92 987l152 80l84 -135q92 70 174 100.5t174 30.5q102 0 170.5 -32t109.5 -86t57.5 -127t16.5 -152v-1112h-190v1101q0 129 -52.5 186.5t-156.5 57.5q-78 0 -148.5 -27.5t-120.5 -68.5v-803h-190v813zM551 1190l131 450l174 -57l-200 -430z" />
<glyph unicode="&#x3af;" horiz-adv-x="628" d="M172 276v750h190v-735q0 -43 3.5 -77t13.5 -55.5t31.5 -32.5t56.5 -11q29 0 52.5 4t64.5 14l28 -129q-49 -16 -89 -23.5t-103 -7.5q-61 0 -107.5 14.5t-78 49.5t-47 93t-15.5 146zM184 1190l131 450l174 -57l-200 -430z" />
<glyph unicode="&#x3b0;" horiz-adv-x="1171" d="M41 1026q23 10 59.5 16.5t75.5 6.5q59 0 96 -20.5t58.5 -60.5t29 -96.5t7.5 -130.5q0 -78 -2.5 -141t-2.5 -127q0 -49 4.5 -108.5t18.5 -106.5q25 -86 72 -119t137 -33q80 0 132 33t83 92.5t42 142.5t11 181q0 123 -25.5 241.5t-60.5 223.5l182 22q20 -51 37 -103 t29 -111.5t18.5 -126t6.5 -146.5q0 -121 -24 -228.5t-79 -188.5t-147 -128t-228 -47q-150 0 -250 68.5t-128 226.5q-10 47 -13.5 93t-3.5 93q0 66 2 136.5t2 140.5q0 88 -10 139t-59 51q-10 0 -20.5 -1t-24.5 -5zM76 1370q0 55 31.5 94t97.5 39q63 0 95 -39t32 -94 q0 -53 -32 -92t-95 -39q-66 0 -97.5 39t-31.5 92zM385 1190l131 450l174 -57l-201 -430zM707 1370q0 55 31.5 94t97.5 39q63 0 95 -39t32 -94q0 -53 -32 -92t-95 -39q-66 0 -97.5 39t-31.5 92z" />
<glyph unicode="&#x3b1;" horiz-adv-x="1171" d="M115 512q0 266 113.5 408.5t318.5 142.5q84 0 153.5 -29.5t126.5 -85.5l84 119l150 -78l-74 -170v-586q0 -47 6 -74.5t16.5 -41t25 -17.5t30.5 -4q14 0 51 10l25 -114q-23 -10 -64 -19.5t-73 -9.5q-66 0 -106 32t-56 81q-53 -39 -127 -76t-174 -37q-115 0 -196 42 t-132 116t-74.5 174t-23.5 217zM311 512q0 -207 69 -301t200 -94q59 0 117.5 19.5t99.5 58.5v620q-37 45 -95.5 76t-128.5 31q-55 0 -103 -20.5t-83 -69t-55.5 -126t-20.5 -194.5z" />
<glyph unicode="&#x3b2;" horiz-adv-x="1230" d="M172 -446v1488q0 129 34 218.5t94 143.5t142 78.5t181 24.5q113 0 190.5 -29.5t125.5 -78.5t69.5 -112.5t21.5 -131.5q0 -84 -22.5 -144.5t-57.5 -102.5t-74.5 -66.5t-72.5 -36.5q63 -10 121.5 -38t103.5 -75t72.5 -116.5t27.5 -163.5q0 -90 -26.5 -172t-83.5 -143.5 t-144.5 -97.5t-209.5 -36q-90 0 -167 17.5t-135 39.5v-466h-190zM362 170q59 -29 132 -48.5t155 -19.5q141 0 212 79t71 229q0 78 -18.5 135t-63.5 96t-121 58.5t-188 21.5v127q141 4 218 71.5t77 206.5q0 51 -11.5 95.5t-38 77t-68.5 51t-106 18.5q-53 0 -98 -14.5t-79 -50 t-53.5 -95t-19.5 -149.5v-889z" />
<glyph unicode="&#x3b3;" horiz-adv-x="1050" d="M4 1022q29 12 73 21.5t89 9.5q88 0 135 -53.5t84 -157.5q35 -98 67.5 -220t59.5 -270q8 -43 15.5 -86t13.5 -86q23 0 40 7.5t30.5 26.5t26.5 54t28 88l188 693l166 -33l-211 -740q-20 -70 -43 -117.5t-52.5 -78.5t-66.5 -46.5t-86 -17.5q18 -190 19 -411v-51h-183v36 q0 201 -14 366t-41 312q-29 164 -66.5 303.5t-76.5 237.5q-23 57 -43.5 77.5t-55.5 20.5q-20 0 -37.5 -4t-29.5 -8z" />
<glyph unicode="&#x3b4;" horiz-adv-x="1175" d="M113 459q0 117 33.5 205t90 151.5t130 105.5t153.5 64l-190 139q-82 57 -102.5 102.5t-20.5 88.5q0 61 47 111.5t141 50.5h578v-156h-555q-29 0 -29 -18q0 -12 27 -33l202 -158q82 -63 161 -124.5t141.5 -134.5t101.5 -165t39 -217q0 -100 -27.5 -192.5t-86 -162 t-152 -111.5t-222.5 -42q-123 0 -210 40t-143 107.5t-81.5 157.5t-25.5 191zM309 469q0 -174 71 -272.5t206 -98.5q137 0 207.5 97.5t70.5 285.5q0 137 -53 232.5t-170 181.5q-72 -23 -132 -54.5t-104.5 -80.5t-70 -120t-25.5 -171z" />
<glyph unicode="&#x3b5;" horiz-adv-x="976" d="M123 268q0 111 59.5 178.5t145.5 90.5q-74 27 -116 89t-42 140q0 59 23.5 112.5t73.5 94.5t127 65.5t184 24.5q119 0 201.5 -27.5t135.5 -56.5l-55 -121q-61 31 -127.5 47.5t-152.5 16.5q-117 0 -165 -45.5t-48 -114.5q0 -55 20.5 -87t52 -49.5t70.5 -21.5t74 -4h194 v-139h-200q-51 0 -98.5 -8.5t-83.5 -27.5t-57.5 -54t-21.5 -88t21.5 -87t57.5 -53.5t81 -28t92 -8.5q72 0 142.5 12.5t156.5 49.5l58 -123q-53 -31 -154.5 -56.5t-220.5 -25.5q-197 0 -312.5 71.5t-115.5 233.5z" />
<glyph unicode="&#x3b6;" horiz-adv-x="923" d="M113 428q0 113 35.5 220.5t102 214t162 214t214.5 217.5q14 12 14 21q0 10 -18 10h-471v152h512q27 0 53 -5.5t47.5 -17.5t34 -34.5t12.5 -59.5q0 -25 -4 -45.5t-16.5 -43t-34 -49t-56.5 -61.5q-80 -80 -150.5 -158.5t-124.5 -166.5t-86 -186.5t-32 -215.5 q0 -66 16.5 -107.5t45 -68.5t67.5 -42t84 -26q31 -6 53.5 -11t41 -9t38 -8t43.5 -8q109 -23 158 -83.5t49 -144.5q0 -53 -19.5 -104t-48 -96t-59.5 -81t-55 -61l-127 62q49 63 87 126.5t38 125.5q0 49 -30 71.5t-118 34.5q-61 10 -99 17.5t-89 23.5q-127 37 -198.5 125 t-71.5 258z" />
<glyph unicode="&#x3b7;" horiz-adv-x="1187" d="M92 987l152 80l84 -135q92 70 174 100.5t174 30.5q102 0 170.5 -32t109.5 -86t57.5 -127t16.5 -152v-1112h-190v1101q0 129 -52.5 186.5t-156.5 57.5q-78 0 -148.5 -27.5t-120.5 -68.5v-803h-190v813z" />
<glyph unicode="&#x3b8;" horiz-adv-x="1171" d="M115 719q0 162 24.5 300t82 239.5t150.5 160t228 58.5q125 0 212 -58.5t141.5 -160t79 -239.5t24.5 -300q0 -166 -24.5 -305.5t-80 -239.5t-145.5 -155.5t-221 -55.5q-135 0 -225.5 56.5t-144.5 155.5t-77.5 238.5t-23.5 305.5zM307 647q2 -121 15.5 -221t45 -172 t85 -113t137.5 -41t136 41t82 113t41 172t13 221h-555zM307 793h555q-2 119 -14 219t-43 171.5t-83 111.5t-136 40t-136.5 -40t-83 -111.5t-44 -172t-15.5 -218.5z" />
<glyph unicode="&#x3b9;" horiz-adv-x="628" d="M172 276v750h190v-735q0 -43 3.5 -77t13.5 -55.5t31.5 -32.5t56.5 -11q29 0 52.5 4t64.5 14l28 -129q-49 -16 -89 -23.5t-103 -7.5q-61 0 -107.5 14.5t-78 49.5t-47 93t-15.5 146z" />
<glyph unicode="&#x3ba;" horiz-adv-x="1085" d="M172 0v1026h188v-440h76q33 0 60.5 7t50.5 38l278 405l166 -39l-334 -467l408 -489l-182 -59l-324 387q-29 35 -53.5 48t-67.5 13h-78v-430h-188z" />
<glyph unicode="&#x3bb;" horiz-adv-x="1118" d="M20 -10l418 1028l-63 194q-25 74 -50.5 112t-72.5 38q-33 0 -60.5 -7t-46.5 -14l-32 127q29 14 83 26.5t107 12.5q39 0 73 -6t63.5 -28.5t57 -66.5t52.5 -122l356 -1077q23 -66 46.5 -84.5t58.5 -18.5q23 0 36 3.5t33 11.5l29 -125q-35 -14 -69.5 -22.5t-80.5 -8.5 q-37 0 -70.5 6t-64 26.5t-56.5 57.5t-46 99l-201 626l-332 -817z" />
<glyph unicode="&#x3bc;" horiz-adv-x="1202" d="M184 -446v1472h191v-692q0 -102 46 -165t154 -63q90 0 146.5 29t105.5 72v819h191v-831l84 -125l-137 -103l-95 115q-82 -63 -151.5 -91t-149.5 -28q-72 0 -125 22.5t-69 51.5v-483h-191z" />
<glyph unicode="&#x3bd;" horiz-adv-x="1067" d="M0 1026q23 10 64.5 20.5t85.5 10.5q92 0 137 -46t73 -153l170 -661q10 -35 17.5 -53.5t27.5 -18.5q18 0 26.5 19.5t19.5 50.5l241 854l164 -33l-242 -817q-16 -57 -34.5 -101.5t-43 -74t-60.5 -45t-87 -15.5q-53 0 -89 15.5t-61.5 44t-43 72.5t-31.5 104l-154 602 q-16 61 -33.5 90t-52.5 29q-23 0 -37 -4.5t-26 -8.5z" />
<glyph unicode="&#x3be;" horiz-adv-x="1026" d="M123 420q0 57 15.5 113.5t49 106.5t86 91t125.5 68q-109 29 -172 109.5t-63 203.5q0 82 27.5 153.5t83 125t139.5 85t198 31.5q92 0 179.5 -18.5t162.5 -63.5l-57 -127q-66 33 -131.5 50.5t-149.5 17.5q-51 0 -97 -15.5t-81 -47t-55.5 -80.5t-20.5 -119q0 -109 73 -173.5 t218 -64.5h199v-143h-215q-86 0 -145.5 -24.5t-96.5 -64.5t-54 -94.5t-17 -111.5q0 -111 53 -164t145 -74q72 -16 137.5 -26t133.5 -19q104 -12 159.5 -73.5t55.5 -151.5q0 -51 -19.5 -101t-47.5 -94t-58.5 -80t-55.5 -61l-131 62q16 18 39 46.5t42.5 61.5t32.5 68t13 69 q0 51 -30.5 68.5t-85.5 26.5q-104 12 -175 25.5t-131 29.5q-61 16 -112 47t-88 77t-57.5 109.5t-20.5 145.5z" />
<glyph unicode="&#x3bf;" horiz-adv-x="1161" d="M115 512q0 119 28.5 220.5t86 175t145.5 114.5t207 41q123 0 211 -41t144 -113.5t83 -174t27 -220.5q0 -121 -26 -221t-83 -174t-146.5 -115t-216.5 -41q-131 0 -219 41t-142 115t-76.5 174t-22.5 219zM311 512q0 -96 14.5 -173t46 -130t84 -82t126.5 -29 q147 0 207.5 106.5t60.5 309.5q0 195 -60.5 301.5t-207.5 106.5q-150 0 -210.5 -102.5t-60.5 -307.5z" />
<glyph unicode="&#x3c0;" horiz-adv-x="1431" d="M20 881v145h1309v-145h-262v-602q0 -94 23.5 -131t91.5 -37q49 0 114 24l31 -119q-35 -16 -84 -30.5t-102 -14.5q-55 0 -103.5 12.5t-84 42t-55 82t-19.5 132.5v641h-439v-881h-190v881h-230z" />
<glyph unicode="&#x3c1;" horiz-adv-x="1220" d="M172 -446v995q0 109 25.5 203t83 162.5t149.5 108.5t223 40q119 0 205 -41t141.5 -112.5t81 -171t25.5 -216.5q0 -121 -26.5 -223t-82 -177t-142.5 -117t-210 -42q-96 0 -165.5 24.5t-119.5 59.5v-493h-188zM360 211q37 -39 108 -76t173 -37q127 0 196.5 103.5 t69.5 318.5q0 209 -68.5 305.5t-199.5 96.5q-135 0 -207 -100.5t-72 -295.5v-315z" />
<glyph unicode="&#x3c2;" horiz-adv-x="1005" d="M115 512q0 262 129 405.5t358 143.5q111 0 190.5 -19.5t157.5 -60.5l-59 -125q-88 41 -151.5 53.5t-131.5 12.5q-156 0 -226.5 -105.5t-70.5 -290.5q0 -86 21.5 -146.5t59.5 -103.5t88 -71.5t108 -48.5q53 -18 89 -28.5t79 -23.5q98 -29 153.5 -80t55.5 -147 q0 -51 -19.5 -100t-48.5 -93t-59.5 -79t-55.5 -60l-125 62q16 18 38 47t40.5 61.5t31.5 67.5t13 65q0 47 -34.5 66.5t-112.5 40.5q-41 10 -83 22.5t-79 26.5q-63 23 -126.5 59.5t-115 96t-83 145.5t-31.5 207z" />
<glyph unicode="&#x3c3;" horiz-adv-x="1210" d="M115 477q0 178 80.5 313.5t228.5 194.5q98 41 266 41h469v-139h-289q37 -31 68 -77t54.5 -99.5t35.5 -112.5t12 -117q0 -106 -26.5 -200.5t-83 -165t-144.5 -111.5t-211 -41q-125 0 -212 40t-142 108.5t-80.5 163t-25.5 202.5zM309 485q0 -184 65.5 -285.5t200.5 -101.5 q139 0 205 99.5t66 296.5q0 131 -45 239.5t-123 153.5h-45q-152 0 -238 -98.5t-86 -303.5z" />
<glyph unicode="&#x3c4;" horiz-adv-x="890" d="M20 887v139h809v-139h-327v-621q0 -82 22.5 -123t83.5 -41q35 0 66 6.5t71 18.5l29 -117q-35 -16 -87 -26.5t-105 -10.5q-145 0 -207 66.5t-62 232.5v615h-293z" />
<glyph unicode="&#x3c5;" horiz-adv-x="1171" d="M41 1026q23 10 59.5 16.5t75.5 6.5q59 0 96 -20.5t58.5 -60.5t29 -96.5t7.5 -130.5q0 -78 -2.5 -141t-2.5 -127q0 -49 4.5 -108.5t18.5 -106.5q25 -86 72 -119t137 -33q80 0 132 33t83 92.5t42 142.5t11 181q0 123 -25.5 241.5t-60.5 223.5l182 22q20 -51 37 -103 t29 -111.5t18.5 -126t6.5 -146.5q0 -121 -24 -228.5t-79 -188.5t-147 -128t-228 -47q-150 0 -250 68.5t-128 226.5q-10 47 -13.5 93t-3.5 93q0 66 2 136.5t2 140.5q0 88 -10 139t-59 51q-10 0 -20.5 -1t-24.5 -5z" />
<glyph unicode="&#x3c6;" horiz-adv-x="1492" d="M115 512q0 111 34.5 206t102 166.5t169 118t234.5 56.5v418h189v-418q131 -12 231.5 -58.5t168 -118t101 -165.5t33.5 -203t-32.5 -204t-98 -166.5t-167 -117.5t-236.5 -59v-411h-189v411q-143 10 -245.5 55.5t-168 117t-96 166.5t-30.5 206zM311 512q0 -193 81 -293 t263 -117v820q-184 -16 -264 -119t-80 -291zM844 104q174 20 255 122t81 286q0 186 -81 286.5t-255 121.5v-816z" />
<glyph unicode="&#x3c7;" horiz-adv-x="1050" d="M6 1030q20 10 68.5 21.5t95.5 11.5q39 0 65.5 -11.5t48 -35t39 -60t35.5 -88.5l156 -393q14 -35 22.5 -50t24.5 -15t24.5 12t22.5 45l242 586l162 -39l-281 -684l217 -547q18 -47 35.5 -69.5t52.5 -22.5q23 0 37 3t27 7l33 -115q-23 -10 -66 -22.5t-96 -12.5 q-80 0 -122 42t-81 143l-172 448q-12 31 -20.5 46.5t-24.5 15.5q-14 0 -23.5 -16.5t-25.5 -49.5l-285 -635l-164 45l328 732l-193 489q-25 61 -40 86t-46 25q-18 0 -33.5 -3.5t-27.5 -7.5z" />
<glyph unicode="&#x3c8;" horiz-adv-x="1519" d="M113 1016l188 26l39 -448q12 -135 36.5 -225t64.5 -145.5t97.5 -81t135.5 -31.5v1366h188v-1366q78 6 133.5 31.5t92 81t58 145.5t34.5 225l37 450l190 -24l-41 -449q-16 -170 -57 -283.5t-104.5 -182t-149.5 -100.5t-193 -38v-411h-188v409q-102 6 -191.5 33t-158 94.5 t-114.5 184t-60 301.5z" />
<glyph unicode="&#x3c9;" horiz-adv-x="1624" d="M115 467q0 88 19.5 177t47 170t60 147.5t61.5 107.5l168 -74q-27 -41 -54.5 -98t-51 -127t-39 -148.5t-15.5 -160.5q0 -74 8.5 -137.5t30 -111.5t58 -74.5t96.5 -26.5q217 0 217 364v256h182v-256q0 -170 53.5 -267t157.5 -97q61 0 100 26.5t61.5 72.5t32 109.5 t9.5 137.5q0 82 -15.5 161.5t-40 150.5t-53 129t-55.5 99l168 72q27 -41 60.5 -110.5t61 -152.5t47 -175t19.5 -180q0 -109 -20.5 -199t-65.5 -154.5t-117.5 -99.5t-177.5 -35q-98 0 -180 48t-133 151q-55 -102 -138 -150.5t-188 -48.5q-102 0 -172.5 37t-115.5 103.5 t-65.5 159.5t-20.5 204z" />
<glyph unicode="&#x3ca;" horiz-adv-x="628" d="M-88 1370q0 55 31.5 94t97.5 39q63 0 95 -39t32 -94q0 -53 -32 -92t-95 -39q-66 0 -97.5 39t-31.5 92zM172 276v750h190v-735q0 -43 3.5 -77t13.5 -55.5t31.5 -32.5t56.5 -11q29 0 52.5 4t64.5 14l28 -129q-49 -16 -89 -23.5t-103 -7.5q-61 0 -107.5 14.5t-78 49.5 t-47 93t-15.5 146zM374 1370q0 55 32 94t97 39q63 0 95 -39t32 -94q0 -53 -32 -92t-95 -39q-66 0 -97.5 39t-31.5 92z" />
<glyph unicode="&#x3cb;" horiz-adv-x="1171" d="M41 1026q23 10 59.5 16.5t75.5 6.5q59 0 96 -20.5t58.5 -60.5t29 -96.5t7.5 -130.5q0 -78 -2.5 -141t-2.5 -127q0 -49 4.5 -108.5t18.5 -106.5q25 -86 72 -119t137 -33q80 0 132 33t83 92.5t42 142.5t11 181q0 123 -25.5 241.5t-60.5 223.5l182 22q20 -51 37 -103 t29 -111.5t18.5 -126t6.5 -146.5q0 -121 -24 -228.5t-79 -188.5t-147 -128t-228 -47q-150 0 -250 68.5t-128 226.5q-10 47 -13.5 93t-3.5 93q0 66 2 136.5t2 140.5q0 88 -10 139t-59 51q-10 0 -20.5 -1t-24.5 -5zM199 1370q0 55 31.5 94t97.5 39q63 0 95 -39t32 -94 q0 -53 -32 -92t-95 -39q-66 0 -97.5 39t-31.5 92zM661 1370q0 55 32 94t97 39q63 0 95 -39t32 -94q0 -53 -32 -92t-95 -39q-66 0 -97.5 39t-31.5 92z" />
<glyph unicode="&#x3cc;" horiz-adv-x="1161" d="M115 512q0 119 28.5 220.5t86 175t145.5 114.5t207 41q123 0 211 -41t144 -113.5t83 -174t27 -220.5q0 -121 -26 -221t-83 -174t-146.5 -115t-216.5 -41q-131 0 -219 41t-142 115t-76.5 174t-22.5 219zM311 512q0 -96 14.5 -173t46 -130t84 -82t126.5 -29 q147 0 207.5 106.5t60.5 309.5q0 195 -60.5 301.5t-207.5 106.5q-150 0 -210.5 -102.5t-60.5 -307.5zM547 1190l131 450l174 -57l-200 -430z" />
<glyph unicode="&#x3cd;" horiz-adv-x="1171" d="M41 1026q23 10 59.5 16.5t75.5 6.5q59 0 96 -20.5t58.5 -60.5t29 -96.5t7.5 -130.5q0 -78 -2.5 -141t-2.5 -127q0 -49 4.5 -108.5t18.5 -106.5q25 -86 72 -119t137 -33q80 0 132 33t83 92.5t42 142.5t11 181q0 123 -25.5 241.5t-60.5 223.5l182 22q20 -51 37 -103 t29 -111.5t18.5 -126t6.5 -146.5q0 -121 -24 -228.5t-79 -188.5t-147 -128t-228 -47q-150 0 -250 68.5t-128 226.5q-10 47 -13.5 93t-3.5 93q0 66 2 136.5t2 140.5q0 88 -10 139t-59 51q-10 0 -20.5 -1t-24.5 -5zM508 1190l131 450l174 -57l-200 -430z" />
<glyph unicode="&#x3ce;" horiz-adv-x="1624" d="M115 467q0 88 19.5 177t47 170t60 147.5t61.5 107.5l168 -74q-27 -41 -54.5 -98t-51 -127t-39 -148.5t-15.5 -160.5q0 -74 8.5 -137.5t30 -111.5t58 -74.5t96.5 -26.5q217 0 217 364v256h182v-256q0 -170 53.5 -267t157.5 -97q61 0 100 26.5t61.5 72.5t32 109.5 t9.5 137.5q0 82 -15.5 161.5t-40 150.5t-53 129t-55.5 99l168 72q27 -41 60.5 -110.5t61 -152.5t47 -175t19.5 -180q0 -109 -20.5 -199t-65.5 -154.5t-117.5 -99.5t-177.5 -35q-98 0 -180 48t-133 151q-55 -102 -138 -150.5t-188 -48.5q-102 0 -172.5 37t-115.5 103.5 t-65.5 159.5t-20.5 204zM751 1190l131 450l174 -57l-200 -430z" />
<glyph unicode="&#x401;" horiz-adv-x="1181" d="M174 0v1477h901v-156h-700v-473h528v-156h-528v-536h725v-156h-926zM273 1726q0 55 31.5 94.5t97.5 39.5q63 0 95 -39t32 -95q0 -53 -32 -92t-95 -39q-66 0 -97.5 39t-31.5 92zM735 1726q0 55 32 94.5t97 39.5q63 0 95 -39t32 -95q0 -53 -32 -92t-95 -39q-66 0 -97.5 39 t-31.5 92z" />
<glyph unicode="&#x402;" horiz-adv-x="1441" d="M31 1325v152h905v-152h-356v-428q78 41 153.5 64.5t177.5 23.5q94 0 172 -31.5t135.5 -93t89 -150.5t31.5 -204q0 -100 -22.5 -194.5t-75.5 -167t-141 -116.5t-221 -44q-49 0 -95.5 6t-68.5 14l24 135q16 -6 51 -11t72 -5q150 0 207 94t57 268q0 190 -72.5 271.5 t-185.5 81.5q-104 0 -179 -32t-107 -52v-754h-201v1325h-350z" />
<glyph unicode="&#x403;" horiz-adv-x="1021" d="M176 0v1477h805v-152h-604v-1325h-201zM440 1636l285 334l137 -123l-340 -284z" />
<glyph unicode="&#x404;" horiz-adv-x="1214" d="M123 735q0 166 38 307.5t115.5 245t197.5 161.5t284 58q125 0 226 -32.5t167 -73.5l-70 -133q-68 41 -146.5 64.5t-170.5 23.5q-80 0 -153.5 -23.5t-131 -84t-94.5 -164t-45 -265.5h530v-145h-532q10 -276 111.5 -414.5t312.5 -138.5q53 0 96 5t83 16.5t80 29.5t85 45 l76 -129q-66 -49 -179.5 -87t-248.5 -38q-176 0 -296 56.5t-195 159t-107.5 243.5t-32.5 313z" />
<glyph unicode="&#x405;" horiz-adv-x="1173" d="M72 84l73 145q88 -53 181.5 -80.5t226.5 -27.5q166 0 245 69.5t79 186.5q0 74 -27 121t-72 78.5t-104.5 51t-122.5 38.5q-78 20 -156 46.5t-140 71.5t-101 119t-39 191q0 84 30.5 158.5t94 132t160 90t225.5 32.5q59 0 119.5 -9t115.5 -24.5t102.5 -35t84.5 -41.5 l-72 -137q-68 43 -159 70.5t-181 27.5q-160 0 -243 -61.5t-83 -178.5q0 -70 29 -115t78 -74.5t111.5 -50t129.5 -40.5q76 -23 151 -50.5t135.5 -73.5t97 -117t36.5 -179q0 -209 -137 -332t-395 -123q-141 0 -261 31t-212 90z" />
<glyph unicode="&#x406;" horiz-adv-x="573" d="M186 0v1477h201v-1477h-201z" />
<glyph unicode="&#x407;" horiz-adv-x="573" d="M-67 1726q0 55 31.5 94.5t97.5 39.5q63 0 95 -39t32 -95q0 -53 -32 -92t-95 -39q-66 0 -97.5 39t-31.5 92zM186 0v1477h201v-1477h-201zM395 1726q0 55 32 94.5t97 39.5q63 0 95 -39t32 -95q0 -53 -32 -92t-95 -39q-66 0 -97.5 39t-31.5 92z" />
<glyph unicode="&#x408;" horiz-adv-x="972" d="M25 45l65 145q47 -29 113.5 -49t156.5 -20q121 0 179.5 79t58.5 259v1018h201v-1026q0 -238 -104.5 -363t-334.5 -125q-123 0 -204.5 26.5t-130.5 55.5z" />
<glyph unicode="&#x409;" horiz-adv-x="2048" d="M27 74q59 39 105 94t69 100q12 23 21 44.5t17.5 48t15.5 60.5t11 81l103 975h780v-607h344q209 0 331 -103t122 -312q0 -219 -132.5 -337t-388.5 -118h-477v1321h-403l-88 -834q-12 -111 -36 -185.5t-65 -135.5q-76 -117 -186 -193zM1149 147h254q74 0 135 16.5 t105.5 52.5t69 94.5t24.5 142.5q0 82 -23.5 134t-64.5 79.5t-96.5 38t-118.5 10.5h-285v-568z" />
<glyph unicode="&#x40a;" horiz-adv-x="2109" d="M176 0v1477h201v-629h633v629h200v-629h344q209 0 331 -96.5t122 -305.5q0 -219 -132 -332.5t-388 -113.5h-477v692h-633v-692h-201zM1210 147h254q74 0 135.5 15.5t105.5 50.5t68.5 91t24.5 140q0 82 -23.5 131.5t-64.5 76t-96 33.5t-119 7h-285v-545z" />
<glyph unicode="&#x40b;" horiz-adv-x="1458" d="M31 1323v154h907v-154h-356v-442q70 37 154.5 73.5t207.5 36.5q166 0 258 -97t92 -310v-584h-202v547q0 156 -53.5 216t-161.5 60q-49 0 -93.5 -10t-81 -24.5t-67.5 -32t-51 -29.5v-727h-203v1323h-350z" />
<glyph unicode="&#x40c;" horiz-adv-x="1251" d="M176 0v1477h201v-639h119q55 0 83.5 17t55.5 75l227 430q29 59 73 93t122 34q29 0 59.5 -5t59.5 -16l-23 -135q-14 4 -28.5 6t-26.5 2q-39 0 -60.5 -22.5t-38.5 -54.5l-221 -422q-8 -16 -20.5 -31.5t-24.5 -26.5l492 -757l-199 -43l-463 700h-186v-682h-201zM508 1636 l285 334l137 -123l-340 -284z" />
<glyph unicode="&#x40e;" horiz-adv-x="1187" d="M41 1450l190 41l258 -819q14 -47 28.5 -78t35 -47.5t49.5 -23.5t72 -7l299 977l174 -39l-365 -1137q-31 -96 -66.5 -160.5t-80.5 -102.5t-101.5 -54t-130.5 -16q-51 0 -92 6t-71 14l22 141q20 -6 54 -12t67 -6q37 0 67.5 4t57.5 22.5t49.5 54.5t44.5 97l21 57 q-61 2 -109.5 15.5t-85.5 39t-64.5 67.5t-46.5 102zM288 1831l117 41q23 -55 73 -92t140 -37q80 0 133 33.5t78 95.5l119 -37q-29 -117 -120 -176.5t-210 -59.5q-59 0 -113.5 14.5t-98.5 43t-74.5 71.5t-43.5 103z" />
<glyph unicode="&#x40f;" horiz-adv-x="1423" d="M176 0v1477h203v-1321h665v1321h203v-1477h-426v-291h-200v291h-445z" />
<glyph unicode="&#x410;" horiz-adv-x="1323" d="M37 2l395 1282q33 104 79 160.5t138 56.5q55 0 92 -8t63.5 -32.5t47 -66.5t43.5 -110l401 -1284l-196 -33l-162 508h-580l-155 -508zM401 627h496l-195 641q-12 41 -23 56t-30 15q-23 0 -32 -15t-21 -56z" />
<glyph unicode="&#x411;" horiz-adv-x="1280" d="M176 0v1477h875v-156h-674v-451h334q104 0 192 -20.5t150.5 -68.5t98.5 -127t36 -193q0 -219 -135 -340t-398 -121h-479zM377 145h252q78 0 143.5 16.5t111.5 53.5t71.5 95.5t25.5 142.5q0 92 -30.5 145t-80 80t-112 33t-125.5 6h-256v-572z" />
<glyph unicode="&#x412;" horiz-adv-x="1277" d="M176 0v1477h457q104 0 193 -21.5t153.5 -68t101.5 -120t37 -177.5q0 -94 -53 -178.5t-145 -129.5q133 -47 199.5 -141t66.5 -225q0 -104 -37 -182t-101.5 -130.5t-153.5 -78t-194 -25.5h-524zM377 145h291q160 0 236.5 71t76.5 208q0 80 -30.5 131t-79 79t-105.5 38 t-111 10h-278v-537zM377 836h282q66 0 114 20.5t79 54t46 78.5t15 92q0 137 -76.5 193.5t-236.5 56.5h-223v-495z" />
<glyph unicode="&#x413;" horiz-adv-x="1021" d="M176 0v1477h805v-152h-604v-1325h-201z" />
<glyph unicode="&#x414;" horiz-adv-x="1366" d="M8 156h109q43 49 76.5 110.5t59.5 142t44 185t33 240.5l65 643h772v-1321h107v-447h-201v291h-862v-291h-203v447zM332 156h635v1167h-406l-61 -559q-12 -119 -28.5 -212t-36 -167t-45 -129t-58.5 -100z" />
<glyph unicode="&#x415;" horiz-adv-x="1181" d="M174 0v1477h901v-156h-700v-473h528v-156h-528v-536h725v-156h-926z" />
<glyph unicode="&#x416;" horiz-adv-x="1890" d="M31 27l497 751q-10 8 -20 22.5t-19 30.5l-204 433q-23 47 -41.5 62t-53.5 15q-16 0 -30.5 -2t-26.5 -6l-22 133q29 10 61.5 15.5t67.5 5.5q74 0 112.5 -30t71.5 -97l207 -430q27 -57 54.5 -74.5t84.5 -17.5h80v639h201v-639h79q55 0 84 17t56 75l209 430q29 59 66.5 93 t117.5 34q33 0 64.5 -5t60.5 -16l-25 -133q-14 4 -26.5 6t-24.5 2q-39 0 -60.5 -22.5t-37.5 -54.5l-203 -426q-8 -16 -20.5 -31.5t-24.5 -26.5l494 -753l-201 -45l-455 700h-153v-682h-201v682h-162l-459 -700z" />
<glyph unicode="&#x417;" horiz-adv-x="1126" d="M16 117l78 125q78 -47 179.5 -83t218.5 -36q156 0 239.5 69.5t83.5 213.5q0 57 -14.5 107t-50 87t-99 58.5t-162.5 21.5h-227v156h213q90 0 148.5 23.5t92.5 62.5t47 86t13 96q0 137 -71.5 195.5t-198.5 58.5q-102 0 -197.5 -29t-167.5 -67l-67 120q27 18 74 40t107 40.5 t132 31.5t150 13q121 0 205.5 -26.5t139 -74.5t79 -115.5t24.5 -151.5q0 -74 -21.5 -134.5t-55.5 -106.5t-75.5 -78t-82.5 -50q57 -16 107 -45t87 -74t58.5 -104.5t21.5 -136.5q0 -96 -30.5 -177t-94 -138.5t-163 -89.5t-234.5 -32q-172 0 -295 46.5t-191 97.5z" />
<glyph unicode="&#x418;" horiz-adv-x="1421" d="M176 0v1477h203v-1055l665 842v213h201v-1477h-201v1022l-665 -842v-180h-203z" />
<glyph unicode="&#x419;" horiz-adv-x="1421" d="M176 0v1477h203v-1055l665 842v213h201v-1477h-201v1022l-665 -842v-180h-203zM415 1829l117 41q23 -55 73 -92t140 -37q80 0 133 33.5t78 95.5l119 -37q-29 -117 -120 -176.5t-210 -59.5q-59 0 -113.5 14.5t-98.5 43t-74.5 71.5t-43.5 103z" />
<glyph unicode="&#x41a;" horiz-adv-x="1251" d="M176 0v1477h201v-639h119q55 0 83.5 17t55.5 75l227 430q29 59 73 93t122 34q29 0 59.5 -5t59.5 -16l-23 -135q-14 4 -28.5 6t-26.5 2q-39 0 -60.5 -22.5t-38.5 -54.5l-221 -422q-8 -16 -20.5 -31.5t-24.5 -26.5l492 -757l-199 -43l-463 700h-186v-682h-201z" />
<glyph unicode="&#x41b;" horiz-adv-x="1318" d="M10 74q59 39 105.5 94t68.5 100q12 23 21.5 44.5t17.5 48t15.5 60.5t11.5 81l102 975h791v-1477h-201v1321h-418l-88 -834q-12 -111 -35.5 -185.5t-64.5 -135.5q-76 -117 -186 -193z" />
<glyph unicode="&#x41c;" horiz-adv-x="1652" d="M141 0l76 1477h205l346 -762q16 -35 25.5 -46.5t27.5 -11.5q16 0 25.5 13.5t25.5 44.5l371 762h193l75 -1477h-196l-53 1118l-242 -487q-18 -37 -35.5 -66.5t-39 -51t-52.5 -34t-78 -12.5q-49 0 -81 11t-54.5 31.5t-38.5 51.5t-35 72l-227 493l-45 -1126h-193z" />
<glyph unicode="&#x41d;" horiz-adv-x="1406" d="M176 0v1477h201v-629h653v629h201v-1477h-201v692h-653v-692h-201z" />
<glyph unicode="&#x41e;" horiz-adv-x="1478" d="M123 735q0 168 38 310.5t114.5 245t192.5 159.5t271 57q160 0 277 -55t191.5 -156.5t111.5 -244t37 -316.5q0 -170 -38 -311t-115 -243.5t-192.5 -160t-271.5 -57.5q-160 0 -276.5 54.5t-191 155.5t-111.5 243.5t-37 318.5zM338 733q0 -123 19.5 -234.5t66.5 -195.5 t123.5 -134t191.5 -50q119 0 196 49t123 133t64.5 196.5t18.5 239.5q0 123 -20.5 234.5t-66.5 197.5t-124 136.5t-191 50.5q-119 0 -195.5 -49.5t-122.5 -134.5t-64.5 -198.5t-18.5 -240.5z" />
<glyph unicode="&#x41f;" horiz-adv-x="1384" d="M176 0v1477h1032v-1477h-200v1321h-631v-1321h-201z" />
<glyph unicode="&#x420;" horiz-adv-x="1200" d="M174 0v1477h449q104 0 196 -20.5t161 -71t107.5 -133.5t38.5 -208q0 -84 -31.5 -164.5t-94 -144t-157.5 -103.5t-220 -40h-248v-592h-201zM375 745h215q170 0 251 69t81 222q0 88 -24 145.5t-67 90.5t-103 45t-136 12h-217v-584z" />
<glyph unicode="&#x421;" horiz-adv-x="1214" d="M123 735q0 166 38 307.5t115.5 245t197.5 161.5t284 58q125 0 226 -32.5t167 -73.5l-70 -133q-68 41 -146.5 64.5t-170.5 23.5q-86 0 -163 -26.5t-135 -95.5t-93 -189.5t-35 -309.5q0 -305 101.5 -459.5t322.5 -154.5q53 0 96 5t83 16.5t80 29.5t85 45l76 -129 q-66 -49 -179.5 -87t-248.5 -38q-176 0 -296 56.5t-195 159t-107.5 243.5t-32.5 313z" />
<glyph unicode="&#x422;" horiz-adv-x="1124" d="M41 1325v152h1042v-152h-421v-1325h-201v1325h-420z" />
<glyph unicode="&#x423;" horiz-adv-x="1187" d="M41 1450l190 41l258 -819q14 -47 28.5 -78t35 -47.5t49.5 -23.5t72 -7l299 977l174 -39l-365 -1137q-31 -96 -66.5 -160.5t-80.5 -102.5t-101.5 -54t-130.5 -16q-51 0 -92 6t-71 14l22 141q20 -6 54 -12t67 -6q37 0 67.5 4t57.5 22.5t49.5 54.5t44.5 97l21 57 q-61 2 -109.5 15.5t-85.5 39t-64.5 67.5t-46.5 102z" />
<glyph unicode="&#x424;" horiz-adv-x="1581" d="M113 731q0 152 43 255.5t119.5 169t184 97t234.5 39.5v205h197v-203q125 -6 231.5 -36.5t183 -93t119.5 -165t43 -254.5t-45 -256t-122.5 -169.5t-183 -98.5t-226.5 -41v-203h-197v205q-123 6 -229.5 37t-185 93.5t-122.5 165t-44 253.5zM328 737q0 -211 92 -305 t272 -102v815q-182 -4 -273 -100.5t-91 -307.5zM891 330q88 4 155.5 27.5t113.5 74.5t69.5 131t23.5 195q0 197 -86 290t-276 97v-815z" />
<glyph unicode="&#x425;" horiz-adv-x="1251" d="M20 37l431 711l-424 692l194 57l354 -586q12 -23 20.5 -30t22.5 -7q16 0 24.5 11.5t19.5 27.5l342 590l172 -53l-396 -684l451 -733l-195 -53l-374 618q-14 23 -22.5 33t-25.5 10q-16 0 -25 -12.5t-26 -34.5l-368 -614z" />
<glyph unicode="&#x426;" horiz-adv-x="1417" d="M176 0v1477h203v-1321h647v1321h203v-1321h106v-447h-200v291h-959z" />
<glyph unicode="&#x427;" horiz-adv-x="1333" d="M143 1006v471h205v-385q0 -82 4 -141.5t15 -88.5q14 -45 32.5 -76.5t49 -51t74.5 -28t110 -8.5q51 0 101 7.5t92 17.5t75 21.5t51 21.5v711h205v-1477h-205v604q-68 -27 -164 -48t-202 -21q-180 0 -284.5 65.5t-139.5 204.5q-10 33 -14.5 87t-4.5 114z" />
<glyph unicode="&#x428;" horiz-adv-x="1853" d="M176 0v1477h203v-1319h448v1319h201v-1319h449v1319h200v-1477h-1501z" />
<glyph unicode="&#x429;" horiz-adv-x="1884" d="M176 0v1477h203v-1309h448v1309h201v-1309h449v1309h200v-1309h125v-459h-200v291h-1426z" />
<glyph unicode="&#x42a;" horiz-adv-x="1429" d="M31 1325v152h499v-607h344q209 0 331 -103t122 -312q0 -219 -132 -337t-388 -118h-477v1325h-299zM530 147h250q74 0 135.5 16.5t105.5 52.5t68.5 94.5t24.5 142.5q0 82 -23.5 134t-64.5 79.5t-96.5 38t-118.5 10.5h-281v-568z" />
<glyph unicode="&#x42b;" horiz-adv-x="1767" d="M176 0v1477h201v-607h344q209 0 331 -103t122 -312q0 -219 -132.5 -337t-388.5 -118h-477zM377 147h250q74 0 135 16.5t105 52.5t69 94.5t25 142.5q0 82 -24 134t-65 79.5t-96 38t-119 10.5h-280v-568zM1391 0v1477h200v-1477h-200z" />
<glyph unicode="&#x42c;" horiz-adv-x="1275" d="M176 0v1477h201v-607h344q209 0 331 -103t122 -312q0 -219 -132.5 -337t-388.5 -118h-477zM377 147h250q74 0 135 16.5t105 52.5t69 94.5t25 142.5q0 82 -24 134t-65 79.5t-96 38t-119 10.5h-280v-568z" />
<glyph unicode="&#x42d;" horiz-adv-x="1198" d="M20 72l68 129q66 -39 157 -62.5t189 -23.5q88 0 163 22.5t130 83t90 166t41 270.5h-530v146h532q-10 274 -99 410.5t-298 136.5q-102 0 -187.5 -26t-160.5 -62l-72 120q37 25 84 47.5t102.5 40t117 27.5t124.5 10q174 0 291 -56t186.5 -156.5t98 -241t28.5 -305.5 q0 -170 -30.5 -314.5t-103.5 -249t-194.5 -163t-306.5 -58.5q-66 0 -127 9.5t-115.5 24.5t-99.5 34.5t-78 40.5z" />
<glyph unicode="&#x42e;" horiz-adv-x="1945" d="M176 0v1477h203v-623h256q12 145 53 265t113.5 206t178 134t247.5 48q160 0 272.5 -55t185 -156.5t105.5 -244t33 -316.5q0 -170 -35 -311t-107.5 -243.5t-185.5 -160t-268 -57.5q-154 0 -265.5 51.5t-183 145.5t-107.5 227t-40 299h-252v-686h-203zM846 733 q0 -123 16.5 -234.5t59.5 -195.5t116.5 -134t188.5 -50q119 0 192.5 49t115.5 133t57.5 196.5t15.5 239.5q0 123 -17.5 234.5t-60.5 197.5t-117 136.5t-186 50.5q-119 0 -192.5 -49.5t-115.5 -134.5t-57.5 -198.5t-15.5 -240.5z" />
<glyph unicode="&#x42f;" horiz-adv-x="1234" d="M76 86q109 72 167 165t99 222l47 154q-55 16 -105.5 48t-88 81t-59 114.5t-21.5 147.5q0 121 34.5 208t96 142t145.5 82t182 27h486v-1477h-201v594h-289l-34 -135q-39 -152 -114 -277t-210 -207zM319 1036q0 -82 23 -136t63.5 -88t97 -48t124.5 -14h231v579h-248 q-125 0 -208 -68.5t-83 -224.5z" />
<glyph unicode="&#x430;" horiz-adv-x="1050" d="M86 295q0 90 32 152.5t89 102.5t138 58.5t179 18.5h176v67q0 129 -39.5 185.5t-152.5 56.5q-147 0 -301 -62l-47 127q59 25 151 51.5t221 26.5q121 0 191 -32.5t105.5 -90t46 -135.5t10.5 -166v-456l88 -131l-133 -101l-97 117q-59 -47 -132.5 -84t-188.5 -37 q-152 0 -244 81t-92 251zM276 303q0 -100 44.5 -148.5t128.5 -48.5q90 0 154.5 33t96.5 68v293h-163q-141 0 -201 -43t-60 -154z" />
<glyph unicode="&#x431;" horiz-adv-x="1155" d="M115 612q0 137 18.5 259t63.5 218.5t118.5 163t184.5 95.5q61 16 110 26t97 23q43 10 67.5 33.5t44.5 91.5l131 -31q-10 -45 -17 -78t-18.5 -58.5t-28 -45t-42.5 -33.5q-41 -23 -103.5 -37t-160.5 -37q-72 -16 -121 -46t-81 -75t-48.5 -106.5t-22.5 -140.5 q55 55 142.5 101t203.5 46q102 0 176 -38t121 -102.5t68.5 -148.5t21.5 -178q0 -117 -26.5 -218t-84 -175t-145.5 -116t-213 -42q-127 0 -215 46t-141 131t-76.5 205t-23.5 267zM315 580q0 -94 7.5 -181.5t35 -154t79.5 -106.5t143 -40q137 0 200.5 108.5t63.5 291.5 q0 168 -54.5 254t-177.5 86q-49 0 -94 -14.5t-83 -37t-68 -49t-50 -53.5q-2 -20 -2 -51v-53z" />
<glyph unicode="&#x432;" horiz-adv-x="1093" d="M154 0v1053h467q162 0 246.5 -60.5t84.5 -206.5q0 -74 -30.5 -130t-83.5 -91q63 -29 113 -88t50 -168q0 -147 -91 -228t-253 -81h-503zM342 139h293q74 0 124 42t50 128q0 96 -55.5 133t-132.5 37h-279v-340zM342 616h256q70 0 115 35t45 113q0 80 -40 114.5t-132 34.5 h-244v-297z" />
<glyph unicode="&#x433;" horiz-adv-x="849" d="M154 0v1053h675v-140h-485v-913h-190z" />
<glyph unicode="&#x434;" horiz-adv-x="1083" d="M18 139h101q41 68 73.5 149t55.5 179q12 53 19 111.5t12.5 128t7.5 154.5t2 192h635v-914h118v-383h-180v244h-665v-244h-179v383zM305 139h426v772h-274q-2 -133 -13.5 -262t-33.5 -227q-18 -78 -47 -155t-58 -128z" />
<glyph unicode="&#x435;" horiz-adv-x="1075" d="M115 522q0 113 26.5 214.5t82 177t141.5 120.5t206 45q115 0 194 -48t127 -124t69.5 -172t21.5 -190l-68 -72h-608q8 -180 80 -273.5t219 -93.5q78 0 147.5 16.5t131.5 45.5l57 -125q-49 -29 -142 -54.5t-196 -25.5q-141 0 -235.5 41t-150.5 116t-79.5 177t-23.5 225z M309 606h479q0 164 -59 251t-176 87q-127 0 -180.5 -91t-63.5 -247z" />
<glyph unicode="&#x436;" horiz-adv-x="1421" d="M33 37l327 520q-23 18 -32 43l-133 281q-16 33 -30.5 47t-37.5 14q-16 0 -27.5 -2t-23.5 -6l-15 104q29 10 57.5 17.5t67.5 7.5q55 0 86 -24.5t56 -77.5l141 -302q23 -45 74 -45h73v439h181v-439h86q51 0 71 45l138 289q25 53 57.5 84t103.5 31q31 0 58.5 -7t44.5 -14 l-15 -106q-8 2 -19 4t-28 2q-29 0 -44 -15.5t-29 -45.5l-127 -275q-18 -35 -39 -51l334 -518l-172 -51l-314 487h-106v-473h-181v473h-104l-311 -487z" />
<glyph unicode="&#x437;" horiz-adv-x="888" d="M6 86l74 119q53 -37 140 -69t179 -32q96 0 159 44.5t63 142.5q0 90 -56.5 133t-161.5 43h-196v139h188q55 0 92 14.5t58.5 38t31 54t9.5 65.5q0 78 -44 119t-130 41q-72 0 -152 -22.5t-145 -55.5l-52 115q27 14 66 32.5t87 35t104.5 26.5t117.5 10q174 0 257 -74.5 t83 -191.5q0 -86 -42 -152.5t-109 -113.5q74 -20 130 -82t56 -168q0 -158 -103.5 -246t-306.5 -88q-135 0 -236 38t-161 85z" />
<glyph unicode="&#x438;" horiz-adv-x="1155" d="M154 0v1053h190v-684l467 528v156h190v-1053h-190v684l-467 -532v-152h-190z" />
<glyph unicode="&#x439;" horiz-adv-x="1155" d="M154 0v1053h190v-684l467 528v156h190v-1053h-190v684l-467 -532v-152h-190zM272 1442l117 41q23 -55 73 -92t140 -37q80 0 133 33.5t78 95.5l119 -37q-29 -117 -120 -176.5t-210 -59.5q-59 0 -113.5 14.5t-98.5 43t-74.5 71.5t-43.5 103z" />
<glyph unicode="&#x43a;" horiz-adv-x="999" d="M154 0v1053h184v-443h125q51 0 72 45l137 293q25 51 55.5 83t99.5 32q31 0 58.5 -7t44.5 -14l-15 -106q-8 2 -20 4t-29 2q-29 0 -41 -15.5t-28 -45.5l-129 -277q-12 -31 -39 -51l334 -522l-170 -45l-314 483h-141v-469h-184z" />
<glyph unicode="&#x43b;" horiz-adv-x="1044" d="M20 57q82 78 115 150t43 164l72 682h641v-1053h-193v911h-290l-60 -557q-10 -111 -53 -205t-131 -165z" />
<glyph unicode="&#x43c;" horiz-adv-x="1298" d="M154 0v1053h165l291 -541q18 -35 39 -35q14 0 21.5 8.5t19.5 28.5l285 539h170v-1053h-182v723l-162 -305q-39 -66 -76 -89.5t-80 -23.5q-47 0 -83 23.5t-66 79.5l-166 315v-723h-176z" />
<glyph unicode="&#x43d;" horiz-adv-x="1157" d="M154 0v1053h190v-432h467v432h193v-1053h-193v477h-467v-477h-190z" />
<glyph unicode="&#x43e;" horiz-adv-x="1161" d="M115 520q0 119 28.5 221.5t86 178t145.5 117.5t207 42q123 0 211 -42t144 -116.5t83 -177t27 -221.5q0 -121 -26 -222t-83 -177t-146.5 -118t-216.5 -42q-131 0 -219 42t-142 117t-76.5 177t-22.5 221zM311 520q0 -96 14.5 -174t46 -133t84 -85t126.5 -30 q147 0 207.5 110.5t60.5 313.5q0 195 -60.5 305.5t-207.5 110.5q-150 0 -210.5 -106.5t-60.5 -311.5z" />
<glyph unicode="&#x43f;" horiz-adv-x="1136" d="M154 0v1053h829v-1053h-192v913h-445v-913h-192z" />
<glyph unicode="&#x440;" horiz-adv-x="1167" d="M86 1004l156 79l88 -131q53 49 122.5 88t170.5 39q211 0 320.5 -134t109.5 -421q0 -127 -33 -230.5t-96.5 -177t-159.5 -113.5t-221 -40q-45 0 -95.5 7t-89.5 18v-434h-190v1275zM358 129q35 -10 89.5 -20.5t105.5 -10.5q154 0 228.5 109.5t74.5 316.5q0 205 -55.5 310.5 t-190.5 105.5q-78 0 -131 -26.5t-121 -86.5v-698z" />
<glyph unicode="&#x441;" horiz-adv-x="968" d="M115 512q0 119 28.5 223.5t89 180t153.5 119.5t224 44q94 0 173 -24.5t135 -57.5l-58 -127q-55 29 -116.5 48.5t-139.5 19.5q-152 0 -222.5 -107.5t-70.5 -318.5q0 -92 15.5 -167t50.5 -128t92 -82t141 -29q68 0 124.5 12.5t133.5 49.5l58 -123q-55 -31 -138 -56.5 t-192 -25.5q-139 0 -231.5 41t-147.5 113.5t-78.5 173t-23.5 221.5z" />
<glyph unicode="&#x442;" horiz-adv-x="921" d="M31 913v140h860v-140h-334v-913h-190v913h-336z" />
<glyph unicode="&#x443;" horiz-adv-x="1038" d="M41 1034l188 31l189 -725q14 -57 31.5 -92t37 -54.5t42 -25.5t49.5 -6h28l221 903l170 -33l-307 -1194q-41 -154 -124 -226.5t-224 -72.5q-37 0 -74 6t-69.5 15.5t-59 18.5t-41.5 18l47 120q33 -12 83.5 -27.5t115.5 -15.5q78 0 121 46.5t65 138.5l43 168h-34 q-66 0 -114 15t-84 51t-62.5 92.5t-49.5 138.5z" />
<glyph unicode="&#x444;" horiz-adv-x="1488" d="M115 512q0 111 34.5 206t102 166.5t169 118t234.5 56.5v418h189v-418q131 -12 231.5 -58.5t168 -118t101 -165.5t33.5 -203t-32.5 -204t-98 -166.5t-167 -117.5t-236.5 -59v-411h-189v411q-143 10 -245.5 55.5t-168 117t-96 166.5t-30.5 206zM311 512q0 -193 81 -293 t263 -117v820q-184 -16 -264 -119t-80 -291zM844 104q174 20 255 122t81 286q0 186 -81 286.5t-255 121.5v-816z" />
<glyph unicode="&#x445;" horiz-adv-x="958" d="M20 23l310 505l-293 484l164 49l237 -404q12 -20 20.5 -26t18.5 -6q16 0 35 28l231 412l148 -47l-277 -473l324 -520l-168 -48l-256 424q-16 23 -24.5 30t-20.5 7q-20 0 -45 -39l-262 -426z" />
<glyph unicode="&#x446;" horiz-adv-x="1161" d="M154 0v1053h192v-914h463v914h192v-914h119v-383h-180v244h-786z" />
<glyph unicode="&#x447;" horiz-adv-x="1087" d="M123 700v353h192v-326q0 -53 2 -75.5t9 -45.5q27 -100 182 -100q72 0 138.5 11t94.5 26v510h193v-1053h-193v412q-53 -18 -123.5 -30.5t-136.5 -12.5q-147 0 -235 51t-111 155q-6 25 -9 54.5t-3 70.5z" />
<glyph unicode="&#x448;" horiz-adv-x="1515" d="M154 0v1053h192v-914h316v914h192v-914h315v914h193v-1053h-1208z" />
<glyph unicode="&#x449;" horiz-adv-x="1519" d="M154 0v1053h192v-914h316v914h192v-914h315v914h193v-914h117v-383h-179v244h-1146z" />
<glyph unicode="&#x44a;" horiz-adv-x="1116" d="M14 915v138h396v-416h274q106 0 175 -27.5t108 -72.5t53 -102.5t14 -117.5q0 -147 -88 -232t-235 -85h-490v915h-207zM410 141h258q74 0 124 45t50 131q0 88 -52.5 133.5t-150.5 45.5h-229v-355z" />
<glyph unicode="&#x44b;" horiz-adv-x="1466" d="M154 0v1053h188v-416h264q106 0 175 -27.5t108 -72.5t53 -102.5t14 -117.5q0 -147 -88 -232t-235 -85h-479zM342 141h248q74 0 124 45t50 131q0 88 -52.5 133.5t-150.5 45.5h-219v-355zM1120 0v1053h193v-1053h-193z" />
<glyph unicode="&#x44c;" horiz-adv-x="1038" d="M154 0v1053h188v-416h264q106 0 175 -27.5t108 -72.5t53 -102.5t14 -117.5q0 -147 -88 -232t-235 -85h-479zM342 141h248q74 0 124 45t50 131q0 88 -52.5 133.5t-150.5 45.5h-219v-355z" />
<glyph unicode="&#x44d;" horiz-adv-x="980" d="M33 51l57 127q55 -29 130 -51.5t153 -22.5q137 0 209.5 83t85.5 264h-449v141h449q-4 76 -17.5 139.5t-44.5 109.5t-80 70.5t-125 24.5q-68 0 -135 -14.5t-145 -49.5l-55 121q55 31 148 58.5t202 27.5q139 0 227 -42t137 -116.5t67.5 -177t18.5 -221.5 q0 -258 -116.5 -408.5t-362.5 -150.5q-111 0 -205 27.5t-149 60.5z" />
<glyph unicode="&#x44e;" horiz-adv-x="1568" d="M154 0v1053h192v-443h201q8 102 39.5 188.5t88 149t136.5 97t188 34.5q123 0 209 -42t141.5 -116.5t80 -177t24.5 -221.5q0 -121 -24.5 -222t-79 -177t-142.5 -118t-215 -42q-123 0 -205.5 37t-135 103.5t-78 156.5t-29.5 199h-199v-459h-192zM739 520q0 -96 12.5 -174 t43 -133t80.5 -85t124 -30q147 0 202.5 110.5t55.5 313.5q0 96 -12 173t-43 131.5t-80 83t-123 28.5q-150 0 -205 -107.5t-55 -310.5z" />
<glyph unicode="&#x44f;" horiz-adv-x="1030" d="M80 45q29 20 62.5 59t65.5 89.5t56.5 107.5t36.5 115q-88 31 -145.5 102.5t-57.5 190.5q0 180 99.5 262t259.5 82h420v-1053h-193v395h-213q-10 -53 -28.5 -108.5t-46 -110.5t-66.5 -106.5t-92 -96.5zM291 721q0 -96 50 -141t132 -45h211v378h-207q-88 0 -137 -44 t-49 -148z" />
<glyph unicode="&#x451;" horiz-adv-x="1075" d="M115 512q0 113 26.5 213t82 175t141.5 119t206 44q115 0 194 -47t127 -122t69.5 -170t21.5 -189l-68 -72h-608q8 -180 80 -268.5t219 -88.5q78 0 147.5 16.5t131.5 45.5l57 -125q-49 -29 -142 -54.5t-196 -25.5q-141 0 -235.5 40t-150.5 111.5t-79.5 173t-23.5 224.5z M220 1370q0 55 31.5 94t97.5 39q63 0 95 -39t32 -94q0 -53 -32 -92t-95 -39q-66 0 -97.5 39t-31.5 92zM309 596h479q0 164 -59 248t-176 84q-127 0 -180.5 -88t-63.5 -244zM682 1370q0 55 32 94t97 39q63 0 95 -39t32 -94q0 -53 -32 -92t-95 -39q-66 0 -97.5 39t-31.5 92z " />
<glyph unicode="&#x452;" horiz-adv-x="1159" d="M47 1188v141h107v178h190v-178h365v-141h-365v-324q72 53 154 84t164 31q102 0 170.5 -32t109.5 -86t57.5 -126.5t16.5 -152.5l-2 -662q0 -72 -15.5 -140.5t-54.5 -121.5t-104.5 -86t-165.5 -33q-51 0 -121 15.5t-119 39.5l47 127q39 -14 79 -27t99 -13q57 0 90 25.5 t49.5 65.5t21.5 89t5 94v616q0 129 -53 186.5t-156 57.5q-84 0 -150.5 -28.5t-121.5 -69.5v-717h-190v1188h-107z" />
<glyph unicode="&#x453;" horiz-adv-x="849" d="M154 0v1053h675v-140h-485v-913h-190zM385 1262l238 368l149 -104l-292 -334z" />
<glyph unicode="&#x454;" horiz-adv-x="968" d="M115 512q0 119 28.5 223.5t89 180t153.5 119.5t224 44q94 0 173 -24.5t135 -57.5l-58 -127q-55 29 -116.5 48.5t-139.5 19.5q-266 0 -291 -346h435v-141h-437q10 -158 78 -251.5t221 -93.5q68 0 124.5 12.5t133.5 49.5l58 -123q-55 -31 -138 -56.5t-192 -25.5 q-139 0 -231.5 41t-147.5 113.5t-78.5 173t-23.5 221.5z" />
<glyph unicode="&#x455;" horiz-adv-x="927" d="M59 63l62 130q47 -27 128 -58t185 -31q109 0 172.5 37t63.5 121q0 47 -20.5 78t-55.5 51.5t-81 33.5t-97 28q-57 14 -113.5 34.5t-100.5 54t-72 86t-28 130.5q0 68 24 126t73 101t121.5 68.5t171.5 25.5q98 0 184 -23.5t143 -56.5l-57 -125q-129 70 -273 70 q-100 0 -156.5 -38t-56.5 -115q0 -45 18.5 -75t50.5 -49.5t74 -34t87 -26.5q53 -16 112.5 -34.5t108.5 -53.5t81 -89t32 -140q0 -154 -97.5 -240t-302.5 -86q-135 0 -234.5 35t-146.5 65z" />
<glyph unicode="&#x456;" horiz-adv-x="528" d="M43 918v135h322v-1053h-191v918h-131zM121 1354q0 59 33.5 99t93.5 40q61 0 95 -40t34 -99t-34 -98t-95 -39q-59 0 -93 38.5t-34 98.5z" />
<glyph unicode="&#x457;" horiz-adv-x="528" d="M-125 1370q0 55 32 94t97 39q63 0 95 -39t32 -94q0 -53 -32 -92t-95 -39q-66 0 -97.5 39t-31.5 92zM43 918v135h322v-1053h-191v918h-131zM338 1370q0 55 31.5 94t97.5 39q63 0 95 -39t32 -94q0 -53 -32 -92t-95 -39q-66 0 -97.5 39t-31.5 92z" />
<glyph unicode="&#x458;" horiz-adv-x="528" d="M-215 -406l47 127q39 -14 79 -27t99 -13q57 0 90 25.5t49.5 65.5t20.5 89t4 94v1096h191v-1131q0 -72 -15.5 -140.5t-54.5 -121.5t-104.5 -86t-165.5 -33q-51 0 -121 15.5t-119 39.5zM139 1356q0 55 33 95t94 40q63 0 95 -40t32 -95t-32 -94t-95 -39q-61 0 -94 38.5 t-33 94.5z" />
<glyph unicode="&#x459;" horiz-adv-x="1587" d="M20 57q82 78 115 150t43 164l72 682h641v-416h264q106 0 175 -27.5t108 -72.5t53 -102.5t14 -117.5q0 -147 -88 -232t-235 -85h-480v911h-294l-60 -557q-10 -111 -53 -205t-131 -165zM891 141h248q74 0 124 45t50 131q0 88 -52.5 133.5t-150.5 45.5h-219v-355z" />
<glyph unicode="&#x45a;" horiz-adv-x="1699" d="M154 0v1053h190v-424h467v424h193v-424h264q106 0 174.5 -27t107.5 -70t53.5 -99t14.5 -116q0 -147 -88 -232t-236 -85h-483v485h-467v-485h-190zM1004 141h247q74 0 124 45t50 131q0 88 -52 129t-150 41h-219v-346z" />
<glyph unicode="&#x45b;" horiz-adv-x="1159" d="M47 1188v141h107v178h190v-178h365v-141h-365v-324q72 53 154 84t164 31q102 0 170.5 -32t109.5 -86t57.5 -126.5t16.5 -152.5v-582h-191v571q0 129 -53 186.5t-156 57.5q-84 0 -150.5 -28.5t-121.5 -69.5v-717h-190v1188h-107z" />
<glyph unicode="&#x45c;" horiz-adv-x="999" d="M154 0v1053h184v-443h125q51 0 72 45l137 293q25 51 55.5 83t99.5 32q31 0 58.5 -7t44.5 -14l-15 -106q-8 2 -20 4t-29 2q-29 0 -41 -15.5t-28 -45.5l-129 -277q-12 -31 -39 -51l334 -522l-170 -45l-314 483h-141v-469h-184zM444 1262l238 368l149 -104l-292 -334z" />
<glyph unicode="&#x45e;" horiz-adv-x="1038" d="M41 1034l188 31l189 -725q14 -57 31.5 -92t37 -54.5t42 -25.5t49.5 -6h28l221 903l170 -33l-307 -1194q-41 -154 -124 -226.5t-224 -72.5q-37 0 -74 6t-69.5 15.5t-59 18.5t-41.5 18l47 120q33 -12 83.5 -27.5t115.5 -15.5q78 0 121 46.5t65 138.5l43 168h-34 q-66 0 -114 15t-84 51t-62.5 92.5t-49.5 138.5zM219 1442l117 41q23 -55 73 -92t140 -37q80 0 133 33.5t78 95.5l119 -37q-29 -117 -120 -176.5t-210 -59.5q-59 0 -113.5 14.5t-98.5 43t-74.5 71.5t-43.5 103z" />
<glyph unicode="&#x45f;" horiz-adv-x="1142" d="M154 0v1053h192v-914h451v914h192v-1053h-327v-244h-181v244h-327z" />
<glyph unicode="&#x490;" horiz-adv-x="1021" d="M176 0v1477h619v252h186v-404h-604v-1325h-201z" />
<glyph unicode="&#x491;" d="M154 0v1053h508v217h167v-357h-485v-913h-190z" />
<glyph unicode="&#x1e80;" horiz-adv-x="1867" d="M31 1458l200 33l291 -1294q10 -41 15.5 -56.5t23.5 -15.5q23 0 30 15.5t17 56.5l256 1280h166l283 -1280q10 -41 17 -56.5t24 -15.5q23 0 29 15.5t16 56.5l264 1294l174 -33l-264 -1278q-47 -217 -227 -217q-53 0 -91 12.5t-65 38t-44.5 66.5t-31.5 100l-178 826 l-154 -826q-29 -121 -79 -169t-146 -48q-109 0 -161 50t-79 167zM745 1851l138 123l282 -329l-84 -78z" />
<glyph unicode="&#x1e81;" horiz-adv-x="1525" d="M47 1022l189 22l182 -894q10 -53 33 -54q16 0 22 12.5t14 41.5l211 876h154l209 -876q10 -53 31 -54q16 0 22 12.5t12 41.5l201 894l168 -22l-203 -852q-23 -102 -68.5 -154.5t-133.5 -52.5q-59 0 -95.5 11.5t-60 37t-36.5 64.5t-26 94l-112 481l-105 -481 q-25 -102 -70.5 -154.5t-133.5 -52.5q-59 0 -96.5 11.5t-60 36t-36.5 64.5t-27 95zM573 1526l150 104l237 -368l-94 -70z" />
<glyph unicode="&#x1e82;" horiz-adv-x="1867" d="M31 1458l200 33l291 -1294q10 -41 15.5 -56.5t23.5 -15.5q23 0 30 15.5t17 56.5l256 1280h166l283 -1280q10 -41 17 -56.5t24 -15.5q23 0 29 15.5t16 56.5l264 1294l174 -33l-264 -1278q-47 -217 -227 -217q-53 0 -91 12.5t-65 38t-44.5 66.5t-31.5 100l-178 826 l-154 -826q-29 -121 -79 -169t-146 -48q-109 0 -161 50t-79 167zM776 1636l285 334l137 -123l-340 -284z" />
<glyph unicode="&#x1e83;" horiz-adv-x="1525" d="M47 1022l189 22l182 -894q10 -53 33 -54q16 0 22 12.5t14 41.5l211 876h154l209 -876q10 -53 31 -54q16 0 22 12.5t12 41.5l201 894l168 -22l-203 -852q-23 -102 -68.5 -154.5t-133.5 -52.5q-59 0 -95.5 11.5t-60 37t-36.5 64.5t-26 94l-112 481l-105 -481 q-25 -102 -70.5 -154.5t-133.5 -52.5q-59 0 -96.5 11.5t-60 36t-36.5 64.5t-27 95zM655 1262l238 368l149 -104l-292 -334z" />
<glyph unicode="&#x1e84;" horiz-adv-x="1867" d="M31 1458l200 33l291 -1294q10 -41 15.5 -56.5t23.5 -15.5q23 0 30 15.5t17 56.5l256 1280h166l283 -1280q10 -41 17 -56.5t24 -15.5q23 0 29 15.5t16 56.5l264 1294l174 -33l-264 -1278q-47 -217 -227 -217q-53 0 -91 12.5t-65 38t-44.5 66.5t-31.5 100l-178 826 l-154 -826q-29 -121 -79 -169t-146 -48q-109 0 -161 50t-79 167zM592 1726q0 55 31.5 94.5t97.5 39.5q63 0 95 -39t32 -95q0 -53 -32 -92t-95 -39q-66 0 -97.5 39t-31.5 92zM1054 1726q0 55 32 94.5t97 39.5q63 0 95 -39t32 -95q0 -53 -32 -92t-95 -39q-66 0 -97.5 39 t-31.5 92z" />
<glyph unicode="&#x1e85;" horiz-adv-x="1525" d="M47 1022l189 22l182 -894q10 -53 33 -54q16 0 22 12.5t14 41.5l211 876h154l209 -876q10 -53 31 -54q16 0 22 12.5t12 41.5l201 894l168 -22l-203 -852q-23 -102 -68.5 -154.5t-133.5 -52.5q-59 0 -95.5 11.5t-60 37t-36.5 64.5t-26 94l-112 481l-105 -481 q-25 -102 -70.5 -154.5t-133.5 -52.5q-59 0 -96.5 11.5t-60 36t-36.5 64.5t-27 95zM414 1370q0 55 31.5 94t97.5 39q63 0 95 -39t32 -94q0 -53 -32 -92t-95 -39q-66 0 -97.5 39t-31.5 92zM876 1370q0 55 32 94t97 39q63 0 95 -39t32 -94q0 -53 -32 -92t-95 -39 q-66 0 -97.5 39t-31.5 92z" />
<glyph unicode="&#x1ef2;" horiz-adv-x="1165" d="M31 1458l188 37l320 -715q16 -37 25 -54t24 -17q14 0 23.5 16t29.5 55l328 711l166 -39l-326 -688q-35 -68 -63.5 -117t-67.5 -74v-573h-201v571q-25 12 -41 28.5t-30.5 40.5t-29 54.5t-32.5 69.5zM319 1851l138 123l282 -329l-84 -78z" />
<glyph unicode="&#x1ef3;" horiz-adv-x="1015" d="M31 1018l188 31l189 -709q14 -57 31.5 -92t37 -54.5t42 -25.5t48.5 -6h29l221 887l170 -33l-307 -1178q-41 -154 -124 -226.5t-224 -72.5q-37 0 -74 6t-69.5 15.5t-59.5 18.5t-41 18l47 120q33 -12 83 -27.5t116 -15.5q78 0 121 46.5t65 138.5l43 168h-35 q-66 0 -113.5 15t-83.5 51t-62.5 92.5t-49.5 138.5zM268 1526l150 104l237 -368l-94 -70z" />
<glyph unicode="&#x2000;" horiz-adv-x="1041" />
<glyph unicode="&#x2001;" horiz-adv-x="2083" />
<glyph unicode="&#x2002;" horiz-adv-x="1041" />
<glyph unicode="&#x2003;" horiz-adv-x="2083" />
<glyph unicode="&#x2004;" horiz-adv-x="694" />
<glyph unicode="&#x2005;" horiz-adv-x="520" />
<glyph unicode="&#x2006;" horiz-adv-x="347" />
<glyph unicode="&#x2007;" horiz-adv-x="347" />
<glyph unicode="&#x2008;" horiz-adv-x="260" />
<glyph unicode="&#x2009;" horiz-adv-x="416" />
<glyph unicode="&#x200a;" horiz-adv-x="115" />
<glyph unicode="&#x2010;" horiz-adv-x="923" d="M152 553v182h620v-182h-620z" />
<glyph unicode="&#x2011;" horiz-adv-x="923" d="M152 553v182h620v-182h-620z" />
<glyph unicode="&#x2012;" horiz-adv-x="923" d="M152 553v182h620v-182h-620z" />
<glyph unicode="&#x2013;" horiz-adv-x="1024" d="M0 532v173h1024v-173h-1024z" />
<glyph unicode="&#x2014;" horiz-adv-x="2048" d="M0 532v173h2048v-173h-2048z" />
<glyph unicode="&#x2015;" horiz-adv-x="2048" d="M0 532v173h2048v-173h-2048z" />
<glyph unicode="&#x2018;" horiz-adv-x="520" d="M117 1122q0 20 5 45t16.5 57.5t30.5 79t48 109.5l41 88l102 -33l-61 -227q41 -6 70.5 -35.5t29.5 -83.5q0 -63 -36.5 -101t-108.5 -38q-70 0 -103.5 41t-33.5 98z" />
<glyph unicode="&#x2019;" horiz-adv-x="520" d="M117 1362q0 63 36.5 101t108.5 38q70 0 103.5 -41t33.5 -98q0 -20 -5 -45t-16 -57.5t-30.5 -78.5t-48.5 -110l-41 -88l-102 33l61 227q-41 6 -70.5 36t-29.5 83z" />
<glyph unicode="&#x201a;" horiz-adv-x="520" d="M117 106q0 63 36.5 101.5t108.5 38.5q70 0 103.5 -41t33.5 -99q0 -20 -5 -44.5t-16 -57.5t-30.5 -79t-48.5 -109l-41 -88l-102 32l61 228q-41 6 -70.5 35.5t-29.5 82.5z" />
<glyph unicode="&#x201c;" horiz-adv-x="903" d="M117 1122q0 20 5 45t16.5 57.5t30.5 79t48 109.5l41 88l102 -33l-61 -227q41 -6 70.5 -35.5t29.5 -83.5q0 -63 -36.5 -101t-108.5 -38q-70 0 -103.5 41t-33.5 98zM500 1122q0 20 5 45t16.5 57.5t30.5 79t48 109.5l41 88l102 -33l-61 -227q41 -6 70.5 -35.5t29.5 -83.5 q0 -63 -36.5 -101t-108.5 -38q-70 0 -103.5 41t-33.5 98z" />
<glyph unicode="&#x201d;" horiz-adv-x="903" d="M117 1362q0 63 36.5 101t108.5 38q70 0 103.5 -41t33.5 -98q0 -20 -5 -45t-16 -57.5t-30.5 -78.5t-48.5 -110l-41 -88l-102 33l61 227q-41 6 -70.5 36t-29.5 83zM500 1362q0 63 36.5 101t108.5 38q70 0 103.5 -41t33.5 -98q0 -20 -5 -45t-16 -57.5t-30.5 -78.5 t-48.5 -110l-41 -88l-102 33l61 227q-41 6 -70.5 36t-29.5 83z" />
<glyph unicode="&#x201e;" horiz-adv-x="903" d="M117 106q0 63 36.5 101.5t108.5 38.5q70 0 103.5 -41t33.5 -99q0 -20 -5 -44.5t-16 -57.5t-30.5 -79t-48.5 -109l-41 -88l-102 32l61 228q-41 6 -70.5 35.5t-29.5 82.5zM500 106q0 63 36.5 101.5t108.5 38.5q70 0 103.5 -41t33.5 -99q0 -20 -5 -44.5t-16 -57.5t-30.5 -79 t-48.5 -109l-41 -88l-102 32l61 228q-41 6 -70.5 35.5t-29.5 82.5z" />
<glyph unicode="&#x2020;" horiz-adv-x="999" d="M102 913v164h330l-39 400h213l-37 -400h328v-164l-328 45l35 -1259h-209l35 1259z" />
<glyph unicode="&#x2021;" horiz-adv-x="999" d="M102 98v164l330 -43l-43 369l43 368l-330 -43v164h332l-41 400h215l-41 -400h330v-164l-330 43l45 -368l-45 -369l330 43v-164h-330l41 -399h-215l41 399h-332z" />
<glyph unicode="&#x2022;" horiz-adv-x="1024" d="M299 678q0 98 51 159.5t164 61.5q111 0 161 -61.5t50 -159.5t-50 -159.5t-161 -61.5q-113 0 -164 61.5t-51 159.5z" />
<glyph unicode="&#x2026;" horiz-adv-x="1689" d="M125 106q0 61 30.5 101.5t98.5 40.5q66 0 96.5 -40t30.5 -102q0 -61 -30.5 -101t-96.5 -40q-68 0 -98.5 40t-30.5 101zM717 106q0 61 30.5 101.5t98.5 40.5q66 0 96.5 -40t30.5 -102q0 -61 -30.5 -101t-96.5 -40q-68 0 -98.5 40t-30.5 101zM1309 106q0 61 30.5 101.5 t98.5 40.5q66 0 96.5 -40t30.5 -102q0 -61 -30.5 -101t-96.5 -40q-68 0 -98.5 40t-30.5 101z" />
<glyph unicode="&#x202f;" horiz-adv-x="416" />
<glyph unicode="&#x2030;" horiz-adv-x="2224" d="M88 1128q0 72 19.5 135.5t57.5 110.5t97.5 75t138.5 28q72 0 126.5 -27t91 -73t55 -109.5t18.5 -139.5q0 -74 -20.5 -137t-60.5 -109t-96 -72t-128 -26q-80 0 -136 27t-93 73t-53.5 109.5t-16.5 134.5zM201 0l938 1458h186l-940 -1458h-184zM246 1128q0 -111 33.5 -173 t111.5 -62q72 0 109 60.5t37 174.5q0 125 -37 182.5t-109 57.5q-78 0 -111.5 -59.5t-33.5 -180.5zM827 309q0 72 19.5 135.5t57.5 110.5t97.5 74.5t139.5 27.5q72 0 126 -26.5t91 -72.5t55.5 -109.5t18.5 -139.5q0 -74 -20.5 -137t-60.5 -109.5t-96.5 -72t-128.5 -25.5 q-80 0 -136 26.5t-93 73t-53.5 110t-16.5 134.5zM985 309q0 -111 33.5 -173t111.5 -62q72 0 109 60.5t37 174.5q0 125 -37 182.5t-109 57.5q-78 0 -111.5 -59.5t-33.5 -180.5zM1532 309q0 72 19.5 135.5t57.5 110.5t97 74.5t139 27.5q72 0 126 -26.5t91 -72.5t55.5 -109.5 t18.5 -139.5q0 -74 -20.5 -137t-60.5 -109.5t-96 -72t-128 -25.5q-80 0 -136.5 26.5t-93 73t-53 110t-16.5 134.5zM1690 309q0 -111 33.5 -173t111.5 -62q72 0 108.5 60.5t36.5 174.5q0 125 -36.5 182.5t-108.5 57.5q-78 0 -111.5 -59.5t-33.5 -180.5z" />
<glyph unicode="&#x2039;" horiz-adv-x="679" d="M133 561q0 61 33 104.5t74 79.5l215 195l127 -66l-226 -221q-27 -27 -41 -43t-14 -39t15.5 -39t56.5 -53l215 -198l-119 -72l-203 158q-63 49 -98 89t-35 105z" />
<glyph unicode="&#x203a;" horiz-adv-x="679" d="M92 281l215 198q41 37 56.5 53.5t15.5 38.5q0 23 -14.5 39.5t-40.5 42.5l-226 221l127 66l215 -195q41 -37 74 -75.5t33 -100.5q0 -66 -35 -109.5t-98 -92.5l-203 -158z" />
<glyph unicode="&#x2044;" horiz-adv-x="194" d="M-444 0l901 1477h182l-899 -1477h-184z" />
<glyph unicode="&#x205f;" horiz-adv-x="520" />
<glyph unicode="&#x2070;" d="M90 1014q0 98 18.5 182t59.5 146.5t104.5 98.5t155.5 36q94 0 159.5 -35t105.5 -97.5t58.5 -147.5t18.5 -183q0 -96 -18.5 -178t-59.5 -141.5t-106.5 -94.5t-157.5 -35t-156.5 34t-104.5 93.5t-58.5 141t-18.5 180.5zM264 1016q0 -74 8.5 -133.5t26.5 -101.5t50 -65.5 t79 -23.5q49 0 82 22.5t52.5 64.5t26.5 102.5t7 134.5q0 154 -36 244t-132 90q-98 0 -131 -89.5t-33 -244.5z" />
<glyph unicode="&#x2074;" d="M90 907q0 33 13.5 60.5t41.5 62.5l359 428h135v-538h131v-117h-131v-221h-154v221h-260q-72 0 -103.5 25.5t-31.5 78.5zM225 944q-20 -25 4 -24h256v331z" />
<glyph unicode="&#x2075;" d="M125 645l63 111q49 -29 105.5 -49.5t114.5 -20.5q86 0 126.5 49t40.5 127q0 92 -40.5 129t-112.5 37q-41 0 -80 -12t-80 -31l-78 53l37 420h479v-127h-354l-18 -209q25 10 58.5 16.5t72.5 6.5q47 0 96 -13.5t89 -45t65.5 -83t25.5 -126.5q0 -63 -18.5 -121t-56 -101 t-98 -68.5t-146.5 -25.5q-100 0 -174 26.5t-117 57.5z" />
<glyph unicode="&#x2076;" d="M117 983q0 90 17.5 179t58 159t111.5 113t177 43q72 0 131.5 -18.5t100.5 -43.5l-58 -106q-47 25 -86 36t-84 11q-102 0 -155.5 -71t-61.5 -187q102 59 205 59q129 0 199.5 -83t70.5 -206q0 -137 -82.5 -220t-222.5 -83q-166 0 -243.5 113t-77.5 305zM268 987 q2 -61 8.5 -116.5t24.5 -96.5t52 -64.5t87 -23.5q72 0 110 45t38 129q0 184 -156 184q-41 0 -86 -17t-78 -40z" />
<glyph unicode="&#x2077;" d="M127 1331v127h496q61 0 84.5 -24.5t23.5 -67.5q0 -23 -6 -43t-16 -45l-316 -700h-172l328 737q8 16 -8 16h-414z" />
<glyph unicode="&#x2078;" d="M106 817q0 78 40.5 133t89.5 86q-43 35 -68 81t-25 110q0 111 80 180.5t215 69.5q141 0 211 -65.5t70 -160.5q0 -74 -33 -128t-68 -81q59 -33 96.5 -82t37.5 -126q0 -119 -90.5 -194t-239.5 -75q-84 0 -143.5 19.5t-98.5 53.5t-56.5 80t-17.5 99zM252 823q0 -63 42 -104 t136 -41q72 0 113 42t43 109q0 53 -28 82t-89 45l-121 29q-35 -23 -65.5 -62.5t-30.5 -99.5zM293 1235q0 -94 110 -125l99 -27q31 27 54.5 67t23.5 93q0 55 -38 87t-108 32t-105.5 -36t-35.5 -91z" />
<glyph unicode="&#x2079;" d="M113 1163q0 152 88 233t229 81q166 0 240.5 -111t74.5 -301q0 -109 -13 -201t-51 -158.5t-103.5 -103.5t-169.5 -37q-86 0 -159 25.5t-108 52.5l56 100q45 -25 96 -42t110 -17q98 0 137.5 68.5t43.5 181.5q-29 -20 -76 -35.5t-107 -15.5q-145 0 -216.5 80.5t-71.5 199.5z M272 1182q0 -88 44 -135.5t122 -47.5q41 0 84 14.5t66 30.5q0 66 -5 123.5t-21.5 99.5t-50.5 65.5t-89 23.5q-66 0 -108 -41t-42 -133z" />
<glyph unicode="&#x2080;" d="M90 432q0 98 18.5 182t59.5 146.5t104.5 98.5t155.5 36q94 0 159.5 -35t105.5 -97.5t58.5 -147.5t18.5 -183q0 -96 -18.5 -178t-59.5 -141.5t-106.5 -94.5t-157.5 -35t-156.5 34t-104.5 93.5t-58.5 141t-18.5 180.5zM264 434q0 -74 8.5 -133.5t26.5 -101.5t50 -65.5 t79 -23.5q49 0 82 22.5t52.5 64.5t26.5 102.5t7 134.5q0 154 -36 244t-132 90q-98 0 -131 -89.5t-33 -244.5z" />
<glyph unicode="&#x2081;" d="M123 700l188 145q29 23 58.5 36.5t64.5 13.5q41 0 73 -19.5t32 -79.5v-671h196v-125h-565v125h207v587q0 23 -21 9l-153 -119z" />
<glyph unicode="&#x2082;" d="M123 110q0 25 12 55.5t49 61.5l211 182q45 39 77 71t51.5 59.5t28.5 55t9 60.5q0 59 -36 86t-93 27q-72 0 -130 -30t-101 -58l-70 102q59 43 139 78t183 35q137 0 204.5 -70t67.5 -170q0 -96 -53.5 -171t-157.5 -161l-211 -172q-10 -8 -8 -15t18 -7h424v-129h-475 q-139 0 -139 110z" />
<glyph unicode="&#x2083;" d="M111 73l61 109q45 -29 110.5 -51.5t137.5 -22.5q76 0 120 39t44 113q0 78 -49.5 110.5t-153.5 32.5h-76v94l262 252h-415v127h448q59 0 91 -24.5t32 -79.5q0 -31 -16.5 -57.5t-53.5 -61.5l-166 -150q125 -6 193 -66.5t68 -176.5q0 -55 -19.5 -106.5t-60.5 -89.5 t-103.5 -60.5t-148.5 -22.5q-94 0 -173 26.5t-132 65.5z" />
<glyph unicode="&#x2084;" d="M90 325q0 33 13.5 60.5t41.5 62.5l359 428h135v-538h131v-117h-131v-221h-154v221h-260q-72 0 -103.5 25.5t-31.5 78.5zM225 362q-20 -25 4 -24h256v331z" />
<glyph unicode="&#x2085;" d="M125 63l63 111q49 -29 105.5 -49.5t114.5 -20.5q86 0 126.5 49t40.5 127q0 92 -40.5 129t-112.5 37q-41 0 -80 -12t-80 -31l-78 53l37 420h479v-127h-354l-18 -209q25 10 58.5 16.5t72.5 6.5q47 0 96 -13.5t89 -45t65.5 -83t25.5 -126.5q0 -63 -18.5 -121t-56 -101 t-98 -68.5t-146.5 -25.5q-100 0 -174 26.5t-117 57.5z" />
<glyph unicode="&#x2086;" d="M117 401q0 90 17.5 179t58 159t111.5 113t177 43q72 0 131.5 -18.5t100.5 -43.5l-58 -106q-47 25 -86 36t-84 11q-102 0 -155.5 -71t-61.5 -187q102 59 205 59q129 0 199.5 -83t70.5 -206q0 -137 -82.5 -220t-222.5 -83q-166 0 -243.5 113t-77.5 305zM268 405 q2 -61 8.5 -116.5t24.5 -96.5t52 -64.5t87 -23.5q72 0 110 45t38 129q0 184 -156 184q-41 0 -86 -17t-78 -40z" />
<glyph unicode="&#x2087;" d="M127 749v127h496q61 0 84.5 -24.5t23.5 -67.5q0 -23 -6 -43t-16 -45l-316 -700h-172l328 737q8 16 -8 16h-414z" />
<glyph unicode="&#x2088;" d="M106 235q0 78 40.5 133t89.5 86q-43 35 -68 81t-25 110q0 111 80 180.5t215 69.5q141 0 211 -65.5t70 -160.5q0 -74 -33 -128t-68 -81q59 -33 96.5 -82t37.5 -126q0 -119 -90.5 -194t-239.5 -75q-84 0 -143.5 19.5t-98.5 53.5t-56.5 80t-17.5 99zM252 241q0 -63 42 -104 t136 -41q72 0 113 42t43 109q0 53 -28 82t-89 45l-121 29q-35 -23 -65.5 -62.5t-30.5 -99.5zM293 653q0 -94 110 -125l99 -27q31 27 54.5 67t23.5 93q0 55 -38 87t-108 32t-105.5 -36t-35.5 -91z" />
<glyph unicode="&#x2089;" d="M113 581q0 152 88 233t229 81q166 0 240.5 -111t74.5 -301q0 -109 -13 -201t-51 -158.5t-103.5 -103.5t-169.5 -37q-86 0 -159 25.5t-108 52.5l56 100q45 -25 96 -42t110 -17q98 0 137.5 68.5t43.5 181.5q-29 -20 -76 -35.5t-107 -15.5q-145 0 -216.5 80.5t-71.5 199.5z M272 600q0 -88 44 -135.5t122 -47.5q41 0 84 14.5t66 30.5q0 66 -5 123.5t-21.5 99.5t-50.5 65.5t-89 23.5q-66 0 -108 -41t-42 -133z" />
<glyph unicode="&#x20ac;" horiz-adv-x="1216" d="M78 489v136h823v-136h-455q33 -186 127.5 -277t272.5 -91q45 0 84 4t75.5 14.5t74.5 26.5t81 43l70 -125q-61 -49 -169 -85t-237 -36q-135 0 -237.5 37t-174 105.5t-114.5 166t-63 217.5h-158zM78 786v136h153q18 125 64.5 228t120 175t177 112t234.5 40q119 0 215.5 -31 t159.5 -72l-65 -129q-55 35 -136 57.5t-167 22.5q-68 0 -132.5 -19.5t-117 -65.5t-90 -124t-54.5 -194h461v-136h-823z" />
<glyph unicode="&#x2113;" horiz-adv-x="933" d="M61 342q39 27 76 56.5t74 62.5v434q0 145 19.5 244.5t57.5 160t92 87t126 26.5q104 0 171.5 -76.5t67.5 -218.5q0 -186 -98 -353t-278 -335v-41q0 -84 12 -136t33.5 -81t51.5 -40t64 -11q66 0 126.5 33.5t93.5 81.5q20 -20 39.5 -40t41.5 -38q-55 -82 -134 -129t-185 -47 q-143 0 -221 80.5t-78 261.5q-27 -20 -50.5 -37t-49.5 -35q-10 23 -23.5 45t-28.5 45zM369 592q111 123 175 253t64 271q0 98 -32.5 138t-77.5 40q-53 0 -91 -67.5t-38 -222.5v-412z" />
<glyph unicode="&#x2116;" horiz-adv-x="2136" d="M176 0v1477h199l588 -1260q14 -29 21 -38t17 -9q16 0 17 31v1276h166v-1272q0 -123 -49.5 -171t-130.5 -48q-37 0 -68 6t-56.5 21.5t-47 44t-41.5 75.5l-449 987v-1120h-166zM1360 950q0 86 20.5 158t62.5 124t105.5 81.5t149.5 29.5t148.5 -28.5t102.5 -80.5t59.5 -124 t19.5 -158q0 -80 -19.5 -150.5t-60.5 -122.5t-104.5 -82t-153.5 -30q-94 0 -158 30t-101.5 82t-54 121.5t-16.5 149.5zM1370 303v162h641v-162h-641zM1520 950q0 -129 38 -200.5t136 -71.5q96 0 135 71.5t39 202.5q0 129 -39 203t-135 74q-98 0 -136 -72t-38 -207z" />
<glyph unicode="&#x2122;" horiz-adv-x="1855" d="M98 1350v127h656v-127h-248v-699h-162v699h-246zM842 651l51 826h141l187 -418q8 -16 15 -22.5t17 -6.5t18.5 6t16.5 23l180 418h144l51 -826h-147l-33 541l-90 -197q-33 -70 -65 -92t-77 -22q-43 0 -75.5 21.5t-63.5 86.5l-94 205l-29 -543h-147z" />
<glyph unicode="&#x2126;" horiz-adv-x="1482" d="M61 0v154h338q35 0 35 22q0 10 -7 20.5t-34 36.5q-63 66 -117.5 129.5t-93.5 134t-60.5 153.5t-21.5 192q0 123 39 240.5t119 212t203 151.5t291 57t287.5 -57t196.5 -147.5t113.5 -201t36.5 -214.5t-22.5 -189.5t-62 -162t-95 -149.5t-121.5 -149q-25 -29 -33 -38 t-8 -19q0 -23 37 -22h340v-154h-389q-47 0 -79.5 11.5t-52 30.5t-28 46t-8.5 55q0 63 62 144q51 63 96 122.5t78 126t52 146.5t19 188q0 82 -23.5 167t-74.5 155t-132 114t-193 44q-117 0 -201 -43t-136.5 -115t-77 -165t-24.5 -193q0 -96 18.5 -168t51.5 -134.5t79 -121 t99 -123.5q35 -41 50.5 -76t15.5 -72q0 -53 -41 -96t-138 -43h-383z" />
<glyph unicode="&#x212e;" horiz-adv-x="1325" d="M59 537q0 111 47.5 208t129 169.5t190.5 114.5t231 42q125 0 234.5 -43t189.5 -117.5t126 -175t46 -213.5h-960q-12 0 -12 -16v-264q0 -20 8 -38t20 -32q0 -4 4 -4q137 -135 344 -135q117 0 214.5 47t168.5 129h86q-80 -98 -200.5 -153.5t-268.5 -55.5q-123 0 -231.5 42 t-190 114.5t-129 171t-47.5 209.5zM281 563q0 -14 12 -14h725q14 0 14 14v268q0 39 -24 70q-72 70 -162 105.5t-189 35.5q-205 0 -348 -141q-12 -14 -20 -32.5t-8 -37.5v-268z" />
<glyph unicode="&#x2153;" horiz-adv-x="2048" d="M115 1282l188 145q29 23 58.5 36.5t64.5 13.5q41 0 73 -19.5t32 -79.5v-671h196v-125h-565v125h207v587q0 23 -21 9l-153 -119zM498 0l901 1477h182l-899 -1477h-184zM1313 73l61 109q45 -29 110.5 -51.5t137.5 -22.5q76 0 120 39t44 113q0 78 -49.5 110.5t-153.5 32.5 h-76v94l262 252h-415v127h448q59 0 91 -24.5t32 -79.5q0 -31 -16.5 -57.5t-53.5 -61.5l-166 -150q125 -6 193 -66.5t68 -176.5q0 -55 -19.5 -106.5t-60.5 -89.5t-103.5 -60.5t-148.5 -22.5q-94 0 -173 26.5t-132 65.5z" />
<glyph unicode="&#x2154;" horiz-adv-x="2048" d="M113 692q0 25 12 55.5t49 61.5l211 182q45 39 77 71t51.5 59.5t28.5 55t9 60.5q0 59 -36 86t-93 27q-72 0 -130 -30t-101 -58l-70 102q59 43 139 78t183 35q137 0 204.5 -70t67.5 -170q0 -96 -53.5 -171t-157.5 -161l-211 -172q-10 -8 -8 -15t18 -7h424v-129h-475 q-139 0 -139 110zM517 0l901 1477h182l-899 -1477h-184zM1321 73l61 109q45 -29 110.5 -51.5t137.5 -22.5q76 0 120 39t44 113q0 78 -49.5 110.5t-153.5 32.5h-76v94l262 252h-415v127h448q59 0 91 -24.5t32 -79.5q0 -31 -16.5 -57.5t-53.5 -61.5l-166 -150 q125 -6 193 -66.5t68 -176.5q0 -55 -19.5 -106.5t-60.5 -89.5t-103.5 -60.5t-148.5 -22.5q-94 0 -173 26.5t-132 65.5z" />
<glyph unicode="&#x2155;" horiz-adv-x="2048" d="M115 1282l188 145q29 23 58.5 36.5t64.5 13.5q41 0 73 -19.5t32 -79.5v-671h196v-125h-565v125h207v587q0 23 -21 9l-153 -119zM508 0l901 1477h182l-899 -1477h-184zM1286 63l63 111q49 -29 105.5 -49.5t114.5 -20.5q86 0 126.5 49t40.5 127q0 92 -40.5 129t-112.5 37 q-41 0 -80 -12t-80 -31l-78 53l37 420h479v-127h-354l-18 -209q25 10 58.5 16.5t72.5 6.5q47 0 96 -13.5t89 -45t65.5 -83t25.5 -126.5q0 -63 -18.5 -121t-56 -101t-98 -68.5t-146.5 -25.5q-100 0 -174 26.5t-117 57.5z" />
<glyph unicode="&#x2156;" horiz-adv-x="2048" d="M137 692q0 25 12 55.5t49 61.5l211 182q45 39 77 71t51.5 59.5t28.5 55t9 60.5q0 59 -36 86t-93 27q-72 0 -130 -30t-101 -58l-70 102q59 43 139 78t183 35q137 0 204.5 -70t67.5 -170q0 -96 -53.5 -171t-157.5 -161l-211 -172q-10 -8 -8 -15t18 -7h424v-129h-475 q-139 0 -139 110zM529 0l901 1477h182l-899 -1477h-184zM1299 63l63 111q49 -29 105.5 -49.5t114.5 -20.5q86 0 126.5 49t40.5 127q0 92 -40.5 129t-112.5 37q-41 0 -80 -12t-80 -31l-78 53l37 420h479v-127h-354l-18 -209q25 10 58.5 16.5t72.5 6.5q47 0 96 -13.5t89 -45 t65.5 -83t25.5 -126.5q0 -63 -18.5 -121t-56 -101t-98 -68.5t-146.5 -25.5q-100 0 -174 26.5t-117 57.5z" />
<glyph unicode="&#x2157;" horiz-adv-x="2048" d="M123 655l61 109q45 -29 110.5 -51.5t137.5 -22.5q76 0 120 39t44 113q0 78 -49.5 110.5t-153.5 32.5h-76v94l262 252h-415v127h448q59 0 91 -24.5t32 -79.5q0 -31 -16.5 -57.5t-53.5 -61.5l-166 -150q125 -6 193 -66.5t68 -176.5q0 -55 -19.5 -106.5t-60.5 -89.5 t-103.5 -60.5t-148.5 -22.5q-94 0 -173 26.5t-132 65.5zM488 0l901 1477h182l-899 -1477h-184zM1274 63l63 111q49 -29 105.5 -49.5t114.5 -20.5q86 0 126.5 49t40.5 127q0 92 -40.5 129t-112.5 37q-41 0 -80 -12t-80 -31l-78 53l37 420h479v-127h-354l-18 -209 q25 10 58.5 16.5t72.5 6.5q47 0 96 -13.5t89 -45t65.5 -83t25.5 -126.5q0 -63 -18.5 -121t-56 -101t-98 -68.5t-146.5 -25.5q-100 0 -174 26.5t-117 57.5z" />
<glyph unicode="&#x2158;" horiz-adv-x="2048" d="M125 907q0 33 13.5 60.5t41.5 62.5l359 428h135v-538h131v-117h-131v-221h-154v221h-260q-72 0 -103.5 25.5t-31.5 78.5zM260 944q-20 -25 4 -24h256v331zM519 0l901 1477h182l-899 -1477h-184zM1305 63l63 111q49 -29 105.5 -49.5t114.5 -20.5q86 0 126.5 49t40.5 127 q0 92 -40.5 129t-112.5 37q-41 0 -80 -12t-80 -31l-78 53l37 420h479v-127h-354l-18 -209q25 10 58.5 16.5t72.5 6.5q47 0 96 -13.5t89 -45t65.5 -83t25.5 -126.5q0 -63 -18.5 -121t-56 -101t-98 -68.5t-146.5 -25.5q-100 0 -174 26.5t-117 57.5z" />
<glyph unicode="&#x2159;" horiz-adv-x="2048" d="M111 1282l188 145q29 23 58.5 36.5t64.5 13.5q41 0 73 -19.5t32 -79.5v-671h196v-125h-565v125h207v587q0 23 -21 9l-153 -119zM514 0l901 1477h182l-899 -1477h-184zM1293 401q0 90 17.5 179t58 159t111.5 113t177 43q72 0 131.5 -18.5t100.5 -43.5l-58 -106 q-47 25 -86 36t-84 11q-102 0 -155.5 -71t-61.5 -187q102 59 205 59q129 0 199.5 -83t70.5 -206q0 -137 -82.5 -220t-222.5 -83q-166 0 -243.5 113t-77.5 305zM1444 405q2 -61 8.5 -116.5t24.5 -96.5t52 -64.5t87 -23.5q72 0 110 45t38 129q0 184 -156 184q-41 0 -86 -17 t-78 -40z" />
<glyph unicode="&#x215a;" horiz-adv-x="2048" d="M145 645l63 111q49 -29 105.5 -49.5t114.5 -20.5q86 0 126.5 49t40.5 127q0 92 -40.5 129t-112.5 37q-41 0 -80 -12t-80 -31l-78 53l37 420h479v-127h-354l-18 -209q25 10 58.5 16.5t72.5 6.5q47 0 96 -13.5t89 -45t65.5 -83t25.5 -126.5q0 -63 -18.5 -121t-56 -101 t-98 -68.5t-146.5 -25.5q-100 0 -174 26.5t-117 57.5zM488 0l901 1477h182l-899 -1477h-184zM1284 401q0 90 17.5 179t58 159t111.5 113t177 43q72 0 131.5 -18.5t100.5 -43.5l-58 -106q-47 25 -86 36t-84 11q-102 0 -155.5 -71t-61.5 -187q102 59 205 59q129 0 199.5 -83 t70.5 -206q0 -137 -82.5 -220t-222.5 -83q-166 0 -243.5 113t-77.5 305zM1435 405q2 -61 8.5 -116.5t24.5 -96.5t52 -64.5t87 -23.5q72 0 110 45t38 129q0 184 -156 184q-41 0 -86 -17t-78 -40z" />
<glyph unicode="&#x215b;" horiz-adv-x="2048" d="M109 1282l188 145q29 23 58.5 36.5t64.5 13.5q41 0 73 -19.5t32 -79.5v-671h196v-125h-565v125h207v587q0 23 -21 9l-153 -119zM512 0l901 1477h182l-899 -1477h-184zM1280 235q0 78 40.5 133t89.5 86q-43 35 -68 81t-25 110q0 111 80 180.5t215 69.5q141 0 211 -65.5 t70 -160.5q0 -74 -33 -128t-68 -81q59 -33 96.5 -82t37.5 -126q0 -119 -90.5 -194t-239.5 -75q-84 0 -143.5 19.5t-98.5 53.5t-56.5 80t-17.5 99zM1426 241q0 -63 42 -104t136 -41q72 0 113 42t43 109q0 53 -28 82t-89 45l-121 29q-35 -23 -65.5 -62.5t-30.5 -99.5z M1467 653q0 -94 110 -125l99 -27q31 27 54.5 67t23.5 93q0 55 -38 87t-108 32t-105.5 -36t-35.5 -91z" />
<glyph unicode="&#x215c;" horiz-adv-x="2048" d="M125 655l61 109q45 -29 110.5 -51.5t137.5 -22.5q76 0 120 39t44 113q0 78 -49.5 110.5t-153.5 32.5h-76v94l262 252h-415v127h448q59 0 91 -24.5t32 -79.5q0 -31 -16.5 -57.5t-53.5 -61.5l-166 -150q125 -6 193 -66.5t68 -176.5q0 -55 -19.5 -106.5t-60.5 -89.5 t-103.5 -60.5t-148.5 -22.5q-94 0 -173 26.5t-132 65.5zM488 0l901 1477h182l-899 -1477h-184zM1267 235q0 78 40.5 133t89.5 86q-43 35 -68 81t-25 110q0 111 80 180.5t215 69.5q141 0 211 -65.5t70 -160.5q0 -74 -33 -128t-68 -81q59 -33 96.5 -82t37.5 -126 q0 -119 -90.5 -194t-239.5 -75q-84 0 -143.5 19.5t-98.5 53.5t-56.5 80t-17.5 99zM1413 241q0 -63 42 -104t136 -41q72 0 113 42t43 109q0 53 -28 82t-89 45l-121 29q-35 -23 -65.5 -62.5t-30.5 -99.5zM1454 653q0 -94 110 -125l99 -27q31 27 54.5 67t23.5 93q0 55 -38 87 t-108 32t-105.5 -36t-35.5 -91z" />
<glyph unicode="&#x215d;" horiz-adv-x="2048" d="M150 645l63 111q49 -29 105.5 -49.5t114.5 -20.5q86 0 126.5 49t40.5 127q0 92 -40.5 129t-112.5 37q-41 0 -80 -12t-80 -31l-78 53l37 420h479v-127h-354l-18 -209q25 10 58.5 16.5t72.5 6.5q47 0 96 -13.5t89 -45t65.5 -83t25.5 -126.5q0 -63 -18.5 -121t-56 -101 t-98 -68.5t-146.5 -25.5q-100 0 -174 26.5t-117 57.5zM488 0l901 1477h182l-899 -1477h-184zM1267 235q0 78 40.5 133t89.5 86q-43 35 -68 81t-25 110q0 111 80 180.5t215 69.5q141 0 211 -65.5t70 -160.5q0 -74 -33 -128t-68 -81q59 -33 96.5 -82t37.5 -126 q0 -119 -90.5 -194t-239.5 -75q-84 0 -143.5 19.5t-98.5 53.5t-56.5 80t-17.5 99zM1413 241q0 -63 42 -104t136 -41q72 0 113 42t43 109q0 53 -28 82t-89 45l-121 29q-35 -23 -65.5 -62.5t-30.5 -99.5zM1454 653q0 -94 110 -125l99 -27q31 27 54.5 67t23.5 93q0 55 -38 87 t-108 32t-105.5 -36t-35.5 -91z" />
<glyph unicode="&#x215e;" horiz-adv-x="2048" d="M178 1331v127h496q61 0 84.5 -24.5t23.5 -67.5q0 -23 -6 -43t-16 -45l-316 -700h-172l328 737q8 16 -8 16h-414zM408 0l901 1477h182l-899 -1477h-184zM1253 235q0 78 40.5 133t89.5 86q-43 35 -68 81t-25 110q0 111 80 180.5t215 69.5q141 0 211 -65.5t70 -160.5 q0 -74 -33 -128t-68 -81q59 -33 96.5 -82t37.5 -126q0 -119 -90.5 -194t-239.5 -75q-84 0 -143.5 19.5t-98.5 53.5t-56.5 80t-17.5 99zM1399 241q0 -63 42 -104t136 -41q72 0 113 42t43 109q0 53 -28 82t-89 45l-121 29q-35 -23 -65.5 -62.5t-30.5 -99.5zM1440 653 q0 -94 110 -125l99 -27q31 27 54.5 67t23.5 93q0 55 -38 87t-108 32t-105.5 -36t-35.5 -91z" />
<glyph unicode="&#x2202;" horiz-adv-x="1185" d="M63 418q0 109 34 207t99.5 171.5t159 116.5t213.5 43q94 0 182.5 -32.5t147.5 -85.5v8q0 100 -12.5 188t-46 153.5t-95 103.5t-159.5 38q-86 0 -160 -17.5t-152 -47.5l-43 129q55 29 155.5 56.5t217.5 27.5q139 0 232.5 -51.5t148.5 -139.5t78.5 -206.5t23.5 -256.5 q0 -145 -27.5 -296.5t-96 -274.5t-184 -201t-290.5 -78q-205 0 -315.5 115t-110.5 330zM258 420q0 -160 66.5 -231.5t179.5 -71.5q92 0 158.5 41t112.5 114.5t74 177t42 226.5q-20 23 -51 46t-70 42.5t-85 32t-95 12.5q-172 0 -252 -102.5t-80 -286.5z" />
<glyph unicode="&#x2206;" horiz-adv-x="1376" d="M55 150q0 43 9.5 79.5t19.5 71.5l313 944q18 57 42 105.5t57.5 82t81 52t112.5 18.5q66 0 113 -18.5t79.5 -52t55.5 -80.5t41 -105l313 -964q10 -33 19.5 -66t9.5 -74q0 -27 -8 -52t-29.5 -45.5t-56.5 -33t-86 -12.5h-905q-51 0 -86 13.5t-55.5 35t-30 48t-9.5 53.5z M252 215q0 -16 10 -26.5t41 -10.5h744q31 0 40 10.5t9 26.5q0 10 -2 22.5t-7 22.5l-303 952q-25 72 -44 97.5t-60 25.5q-45 0 -66.5 -25.5t-44.5 -97.5l-307 -952q-4 -10 -7 -22.5t-3 -22.5z" />
<glyph unicode="&#x220f;" horiz-adv-x="1386" d="M18 1305v153h1350v-153h-174v-1715h-201v1713h-600v-1713h-200v1715h-175z" />
<glyph unicode="&#x2211;" horiz-adv-x="1087" d="M37 -293l491 696q39 51 50.5 74t11.5 45q0 25 -11.5 45.5t-50.5 73.5l-491 700v117h1014v-155h-779l435 -607q43 -61 61 -97t18 -77t-18 -76.5t-61 -97.5l-435 -602h779v-156h-1014v117z" />
<glyph unicode="&#x2212;" horiz-adv-x="1208" d="M145 614v164h916v-164h-916z" />
<glyph unicode="&#x2215;" horiz-adv-x="174" d="M-444 0l901 1477h182l-899 -1477h-184z" />
<glyph unicode="&#x2219;" horiz-adv-x="645" d="M213 759q0 61 30.5 101.5t98.5 40.5q66 0 96.5 -40t30.5 -102q0 -61 -30.5 -101t-96.5 -40q-68 0 -98.5 40t-30.5 101z" />
<glyph unicode="&#x221a;" horiz-adv-x="1128" d="M37 584v139h313l139 -487q16 -63 35 -85t51 -22q29 0 45.5 21.5t30.5 82.5l279 1244l182 -25l-278 -1251q-27 -117 -87.5 -177.5t-166.5 -60.5q-59 0 -99.5 14.5t-69 44t-48 72.5t-35.5 101l-113 389h-178z" />
<glyph unicode="&#x221e;" horiz-adv-x="1466" d="M72 719q0 90 26.5 157.5t70.5 113.5t101.5 69.5t118.5 23.5q63 0 112.5 -17t91.5 -48t77 -73t71 -89q31 45 66 86t77 73t91 50t110 18q68 0 124.5 -23.5t97.5 -69.5t64.5 -113.5t23.5 -157.5t-24.5 -157.5t-69 -114t-103.5 -70t-129 -23.5q-61 0 -113.5 19.5t-95.5 50.5 t-77.5 68.5t-63.5 74.5q-25 -37 -55.5 -74.5t-69.5 -68.5t-90 -50.5t-115 -19.5q-137 0 -227 92.5t-90 272.5zM223 719q0 -92 44 -155.5t128 -63.5q43 0 76 13t60.5 37.5t53 60.5t54.5 79q-20 31 -48 69t-61.5 72.5t-71.5 58t-79 23.5q-76 0 -116 -53t-40 -141zM823 733 q20 -35 50 -72.5t65 -69.5t74 -52.5t82 -20.5q78 0 113.5 54.5t35.5 146.5t-43 155.5t-129 63.5q-45 0 -82 -19.5t-67.5 -50t-54.5 -66.5t-44 -69z" />
<glyph unicode="&#x222b;" horiz-adv-x="886" d="M-18 -381l41 125q41 -16 86 -26.5t98 -10.5q47 0 75.5 14.5t44 41t20.5 64.5t3 87l-33 1221q-2 74 15.5 136t59.5 108t108.5 72t163.5 26q53 0 107 -10.5t103 -32.5l-45 -123q-45 16 -80.5 23t-78.5 7q-51 0 -84 -17t-51.5 -47t-24.5 -68t-4 -81l35 -1214 q2 -74 -15.5 -136.5t-57.5 -108.5t-100.5 -71.5t-144.5 -25.5q-70 0 -136.5 14.5t-104.5 32.5z" />
<glyph unicode="&#x2248;" horiz-adv-x="1234" d="M180 848q18 27 48 56.5t67.5 54t83 40t96.5 15.5q49 0 89 -16.5t79 -35t80 -35t92 -16.5q63 0 111 34t83 75l101 -111q-18 -27 -48 -56.5t-68 -54t-83 -40t-96 -15.5q-49 0 -90 16.5t-79 35t-79 35t-92 16.5q-63 0 -111.5 -34t-83.5 -75zM219 531q18 27 48 56.5t67.5 54 t83 40t96.5 15.5q49 0 89 -16.5t79 -35t80 -35t92 -16.5q63 0 111 34t83 75l101 -111q-18 -27 -48 -56.5t-68 -54t-83 -40t-96 -15.5q-49 0 -90 16.5t-79 35t-79 35t-92 16.5q-63 0 -111.5 -34t-83.5 -75z" />
<glyph unicode="&#x2260;" horiz-adv-x="1208" d="M145 410v163h297l119 205h-416v164h512l144 246l141 -55l-113 -191h232v-164h-326l-121 -205h447v-163h-543l-121 -209l-139 55l88 154h-201z" />
<glyph unicode="&#x2264;" horiz-adv-x="1208" d="M119 743q0 174 207 242l682 223l79 -141l-720 -242q-39 -14 -54.5 -32.5t-15.5 -40.5q0 -31 19.5 -46.5t54.5 -27.5l716 -244l-96 -143l-669 223q-106 35 -154.5 88t-48.5 141zM166 0v164h915v-164h-915z" />
<glyph unicode="&#x2265;" horiz-adv-x="1208" d="M119 432l721 248q39 14 54 32.5t15 41.5q0 31 -19.5 46t-53.5 27l-717 238l92 143l674 -223q106 -35 154 -88t48 -141q0 -174 -206 -242l-686 -225zM125 0v164h915v-164h-915z" />
<glyph unicode="&#x25ca;" horiz-adv-x="1234" d="M115 723l241 518q25 53 49.5 97t53 75t66.5 48.5t91 17.5t91 -17.5t68 -48.5t54.5 -75t49.5 -97l241 -518l-241 -518q-25 -53 -49.5 -97.5t-54.5 -75t-68.5 -48t-90.5 -17.5q-53 0 -90 16.5t-66.5 47t-54 75t-49.5 99.5zM305 723l221 -471q29 -59 46.5 -82t43.5 -23 q27 0 45.5 24t47.5 81l221 471l-221 471q-29 57 -47.5 80.5t-45.5 23.5t-44 -22.5t-46 -81.5z" />
<glyph unicode="&#xe000;" horiz-adv-x="1044" d="M0 0v1044h1044v-1044h-1044z" />
<glyph unicode="&#xf506;" horiz-adv-x="2048" d="M113 1282l188 145q29 23 58.5 36.5t64.5 13.5q41 0 73 -19.5t32 -79.5v-671h196v-125h-565v125h207v587q0 23 -21 9l-153 -119zM474 0l901 1477h182l-899 -1477h-184zM1313 749v127h496q61 0 84.5 -24.5t23.5 -67.5q0 -23 -6 -43t-16 -45l-316 -700h-172l328 737 q8 16 -8 16h-414z" />
<glyph unicode="&#xf507;" horiz-adv-x="2048" d="M111 692q0 25 12 55.5t49 61.5l211 182q45 39 77 71t51.5 59.5t28.5 55t9 60.5q0 59 -36 86t-93 27q-72 0 -130 -30t-101 -58l-70 102q59 43 139 78t183 35q137 0 204.5 -70t67.5 -170q0 -96 -53.5 -171t-157.5 -161l-211 -172q-10 -8 -8 -15t18 -7h424v-129h-475 q-139 0 -139 110zM482 0l901 1477h182l-899 -1477h-184zM1321 749v127h496q61 0 84.5 -24.5t23.5 -67.5q0 -23 -6 -43t-16 -45l-316 -700h-172l328 737q8 16 -8 16h-414z" />
<glyph unicode="&#xf508;" horiz-adv-x="2048" d="M101 655l61 109q45 -29 110.5 -51.5t137.5 -22.5q76 0 120 39t44 113q0 78 -49.5 110.5t-153.5 32.5h-76v94l262 252h-415v127h448q59 0 91 -24.5t32 -79.5q0 -31 -16.5 -57.5t-53.5 -61.5l-166 -150q125 -6 193 -66.5t68 -176.5q0 -55 -19.5 -106.5t-60.5 -89.5 t-103.5 -60.5t-148.5 -22.5q-94 0 -173 26.5t-132 65.5zM441 0l901 1477h182l-899 -1477h-184zM1286 756v127h496q61 0 84.5 -24.5t23.5 -67.5q0 -23 -6 -43t-16 -45l-316 -700h-172l328 737q8 16 -8 16h-414z" />
<glyph unicode="&#xf509;" horiz-adv-x="2048" d="M102 907q0 33 13.5 60.5t41.5 62.5l359 428h135v-538h131v-117h-131v-221h-154v221h-260q-72 0 -103.5 25.5t-31.5 78.5zM237 944q-20 -25 4 -24h256v331zM476 0l901 1477h182l-899 -1477h-184zM1319 756v127h496q61 0 84.5 -24.5t23.5 -67.5q0 -23 -6 -43t-16 -45 l-316 -700h-172l328 737q8 16 -8 16h-414z" />
<glyph unicode="&#xf50a;" horiz-adv-x="2048" d="M102 645l63 111q49 -29 105.5 -49.5t114.5 -20.5q86 0 126.5 49t40.5 127q0 92 -40.5 129t-112.5 37q-41 0 -80 -12t-80 -31l-78 53l37 420h479v-127h-354l-18 -209q25 10 58.5 16.5t72.5 6.5q47 0 96 -13.5t89 -45t65.5 -83t25.5 -126.5q0 -63 -18.5 -121t-56 -101 t-98 -68.5t-146.5 -25.5q-100 0 -174 26.5t-117 57.5zM449 0l901 1477h182l-899 -1477h-184zM1319 756v127h496q61 0 84.5 -24.5t23.5 -67.5q0 -23 -6 -43t-16 -45l-316 -700h-172l328 737q8 16 -8 16h-414z" />
<glyph unicode="&#xf50b;" horiz-adv-x="2048" d="M121 983q0 90 17.5 179t58 159t111.5 113t177 43q72 0 131.5 -18.5t100.5 -43.5l-58 -106q-47 25 -86 36t-84 11q-102 0 -155.5 -71t-61.5 -187q102 59 205 59q129 0 199.5 -83t70.5 -206q0 -137 -82.5 -220t-222.5 -83q-166 0 -243.5 113t-77.5 305zM272 987 q2 -61 8.5 -116.5t24.5 -96.5t52 -64.5t87 -23.5q72 0 110 45t38 129q0 184 -156 184q-41 0 -86 -17t-78 -40zM455 0l901 1477h182l-899 -1477h-184zM1325 756v127h496q61 0 84.5 -24.5t23.5 -67.5q0 -23 -6 -43t-16 -45l-316 -700h-172l328 737q8 16 -8 16h-414z" />
<glyph unicode="&#xf50c;" horiz-adv-x="2048" d="M111 1282l188 145q29 23 58.5 36.5t64.5 13.5q41 0 73 -19.5t32 -79.5v-671h196v-125h-565v125h207v587q0 23 -21 9l-153 -119zM500 0l901 1477h182l-899 -1477h-184zM1289 581q0 152 88 233t229 81q166 0 240.5 -111t74.5 -301q0 -109 -13 -201t-51 -158.5 t-103.5 -103.5t-169.5 -37q-86 0 -159 25.5t-108 52.5l56 100q45 -25 96 -42t110 -17q98 0 137.5 68.5t43.5 181.5q-29 -20 -76 -35.5t-107 -15.5q-145 0 -216.5 80.5t-71.5 199.5zM1448 600q0 -88 44 -135.5t122 -47.5q41 0 84 14.5t66 30.5q0 66 -5 123.5t-21.5 99.5 t-50.5 65.5t-89 23.5q-66 0 -108 -41t-42 -133z" />
<glyph unicode="&#xf50d;" horiz-adv-x="2048" d="M109 692q0 25 12 55.5t49 61.5l211 182q45 39 77 71t51.5 59.5t28.5 55t9 60.5q0 59 -36 86t-93 27q-72 0 -130 -30t-101 -58l-70 102q59 43 139 78t183 35q137 0 204.5 -70t67.5 -170q0 -96 -53.5 -171t-157.5 -161l-211 -172q-10 -8 -8 -15t18 -7h424v-129h-475 q-139 0 -139 110zM514 0l901 1477h182l-899 -1477h-184zM1297 581q0 152 88 233t229 81q166 0 240.5 -111t74.5 -301q0 -109 -13 -201t-51 -158.5t-103.5 -103.5t-169.5 -37q-86 0 -159 25.5t-108 52.5l56 100q45 -25 96 -42t110 -17q98 0 137.5 68.5t43.5 181.5 q-29 -20 -76 -35.5t-107 -15.5q-145 0 -216.5 80.5t-71.5 199.5zM1456 600q0 -88 44 -135.5t122 -47.5q41 0 84 14.5t66 30.5q0 66 -5 123.5t-21.5 99.5t-50.5 65.5t-89 23.5q-66 0 -108 -41t-42 -133z" />
<glyph unicode="&#xf50e;" horiz-adv-x="2048" d="M100 907q0 33 13.5 60.5t41.5 62.5l359 428h135v-538h131v-117h-131v-221h-154v221h-260q-72 0 -103.5 25.5t-31.5 78.5zM235 944q-20 -25 4 -24h256v331zM514 0l901 1477h182l-899 -1477h-184zM1315 581q0 152 88 233t229 81q166 0 240.5 -111t74.5 -301 q0 -109 -13 -201t-51 -158.5t-103.5 -103.5t-169.5 -37q-86 0 -159 25.5t-108 52.5l56 100q45 -25 96 -42t110 -17q98 0 137.5 68.5t43.5 181.5q-29 -20 -76 -35.5t-107 -15.5q-145 0 -216.5 80.5t-71.5 199.5zM1474 600q0 -88 44 -135.5t122 -47.5q41 0 84 14.5t66 30.5 q0 66 -5 123.5t-21.5 99.5t-50.5 65.5t-89 23.5q-66 0 -108 -41t-42 -133z" />
<glyph unicode="&#xf50f;" horiz-adv-x="2048" d="M145 645l63 111q49 -29 105.5 -49.5t114.5 -20.5q86 0 126.5 49t40.5 127q0 92 -40.5 129t-112.5 37q-41 0 -80 -12t-80 -31l-78 53l37 420h479v-127h-354l-18 -209q25 10 58.5 16.5t72.5 6.5q47 0 96 -13.5t89 -45t65.5 -83t25.5 -126.5q0 -63 -18.5 -121t-56 -101 t-98 -68.5t-146.5 -25.5q-100 0 -174 26.5t-117 57.5zM490 0l901 1477h182l-899 -1477h-184zM1295 581q0 152 88 233t229 81q166 0 240.5 -111t74.5 -301q0 -109 -13 -201t-51 -158.5t-103.5 -103.5t-169.5 -37q-86 0 -159 25.5t-108 52.5l56 100q45 -25 96 -42t110 -17 q98 0 137.5 68.5t43.5 181.5q-29 -20 -76 -35.5t-107 -15.5q-145 0 -216.5 80.5t-71.5 199.5zM1454 600q0 -88 44 -135.5t122 -47.5q41 0 84 14.5t66 30.5q0 66 -5 123.5t-21.5 99.5t-50.5 65.5t-89 23.5q-66 0 -108 -41t-42 -133z" />
<glyph unicode="&#xf510;" horiz-adv-x="2048" d="M152 1331v127h496q61 0 84.5 -24.5t23.5 -67.5q0 -23 -6 -43t-16 -45l-316 -700h-172l328 737q8 16 -8 16h-414zM396 0l901 1477h182l-899 -1477h-184zM1270 581q0 152 88 233t229 81q166 0 240.5 -111t74.5 -301q0 -109 -13 -201t-51 -158.5t-103.5 -103.5t-169.5 -37 q-86 0 -159 25.5t-108 52.5l56 100q45 -25 96 -42t110 -17q98 0 137.5 68.5t43.5 181.5q-29 -20 -76 -35.5t-107 -15.5q-145 0 -216.5 80.5t-71.5 199.5zM1429 600q0 -88 44 -135.5t122 -47.5q41 0 84 14.5t66 30.5q0 66 -5 123.5t-21.5 99.5t-50.5 65.5t-89 23.5 q-66 0 -108 -41t-42 -133z" />
<glyph unicode="&#xf511;" horiz-adv-x="2048" d="M114 817q0 78 40.5 133t89.5 86q-43 35 -68 81t-25 110q0 111 80 180.5t215 69.5q141 0 211 -65.5t70 -160.5q0 -74 -33 -128t-68 -81q59 -33 96.5 -82t37.5 -126q0 -119 -90.5 -194t-239.5 -75q-84 0 -143.5 19.5t-98.5 53.5t-56.5 80t-17.5 99zM260 823q0 -63 42 -104 t136 -41q72 0 113 42t43 109q0 53 -28 82t-89 45l-121 29q-35 -23 -65.5 -62.5t-30.5 -99.5zM301 1235q0 -94 110 -125l99 -27q31 27 54.5 67t23.5 93q0 55 -38 87t-108 32t-105.5 -36t-35.5 -91zM492 0l901 1477h182l-899 -1477h-184zM1293 581q0 152 88 233t229 81 q166 0 240.5 -111t74.5 -301q0 -109 -13 -201t-51 -158.5t-103.5 -103.5t-169.5 -37q-86 0 -159 25.5t-108 52.5l56 100q45 -25 96 -42t110 -17q98 0 137.5 68.5t43.5 181.5q-29 -20 -76 -35.5t-107 -15.5q-145 0 -216.5 80.5t-71.5 199.5zM1452 600q0 -88 44 -135.5 t122 -47.5q41 0 84 14.5t66 30.5q0 66 -5 123.5t-21.5 99.5t-50.5 65.5t-89 23.5q-66 0 -108 -41t-42 -133z" />
<glyph unicode="&#xf6c3;" horiz-adv-x="1024" d="M395 -530l58 391l192 -43l-133 -375z" />
<glyph unicode="&#xf800;" horiz-adv-x="1208" d="M88 719q0 162 28.5 300t90 239.5t160 160t239.5 58.5q143 0 241.5 -57.5t160 -159t89 -239.5t27.5 -302q0 -162 -28.5 -298t-90 -235.5t-160 -156t-239.5 -56.5q-143 0 -241.5 55.5t-160 154t-89 235.5t-27.5 301zM295 723q0 -139 15.5 -251t51 -189.5t95 -119.5 t149.5 -42q92 0 151.5 41t95.5 118.5t50.5 189.5t14.5 253q0 139 -15.5 250.5t-51.5 190.5t-96.5 122t-148.5 43q-92 0 -152.5 -42t-95 -119.5t-49 -190.5t-14.5 -254z" />
<glyph unicode="&#xf801;" horiz-adv-x="1064" d="M105 1171l293 240q35 31 70.5 48.5t86.5 17.5q27 0 53.5 -5.5t48 -20.5t34 -42t12.5 -68v-1196h324v-145h-854v145h342v1106q0 20 -2.5 29.5t-16.5 9.5q-10 0 -17 -5t-22 -15l-266 -209z" />
<glyph unicode="&#xf802;" horiz-adv-x="1185" d="M104 154q0 41 15.5 81.5t72.5 94.5l348 329q78 74 132.5 129.5t88 104.5t49 98t15.5 109q0 121 -69.5 174t-178.5 53q-63 0 -116.5 -13.5t-98.5 -33.5t-83 -45t-68 -47l-82 123q84 66 198.5 116t263.5 50q109 0 190 -30t134 -80t80 -118.5t27 -146.5q0 -76 -22.5 -142.5 t-65.5 -131t-105.5 -130t-142.5 -141.5l-377 -350q-8 -8 -13.5 -15.5t-5.5 -17.5q0 -23 33 -22h719v-152h-750q-98 0 -143 40t-45 114z" />
<glyph unicode="&#xf803;" horiz-adv-x="1183" d="M64 102l74 138q63 -45 163.5 -81t225.5 -36q141 0 225 78t84 219q0 150 -82 219.5t-278 69.5h-101v118l426 428q16 18 17 33q0 23 -33 23h-662v147h680q90 0 136.5 -33.5t46.5 -111.5q0 -45 -15.5 -82t-70.5 -90l-312 -303q209 -6 327 -106.5t118 -301.5q0 -90 -29 -173 t-91.5 -145.5t-159.5 -100.5t-234 -38q-139 0 -261 37t-194 92z" />
<glyph unicode="&#xf804;" horiz-adv-x="1239" d="M96 520q0 49 20.5 90t65.5 101l580 747h174v-932h215v-149h-215v-377h-185v377h-466q-98 0 -143.5 37t-45.5 106zM287 569q0 -43 53 -43h411v670l-444 -575q-8 -10 -14 -22.5t-6 -29.5z" />
<glyph unicode="&#xf805;" horiz-adv-x="1193" d="M94 90l72 135q78 -49 167 -75.5t181 -26.5q162 0 234.5 92t72.5 240q0 82 -20.5 139t-58.5 93t-90 52.5t-116 16.5q-59 0 -126.5 -12.5t-133.5 -43.5l-92 64l57 694h719v-147h-571l-37 -445q94 39 231 39q76 0 154 -22.5t140.5 -72.5t101.5 -133t39 -202 q0 -102 -28 -193.5t-89.5 -160t-158.5 -108.5t-236 -40q-141 0 -247 38t-165 79z" />
</font>
</defs>
</svg>
