<?xml version="1.0" standalone="no"?>
<!DOCTYPE svg PUBLIC "-//W3C//DTD SVG 1.1//EN" "http://www.w3.org/Graphics/SVG/1.1/DTD/svg11.dtd" >
<svg xmlns="http://www.w3.org/2000/svg">
<metadata></metadata>
<defs>
<font id="toyota_textbold" horiz-adv-x="860" >
<font-face units-per-em="2048" ascent="1638" descent="-410" />
<missing-glyph horiz-adv-x="419" />
<glyph unicode="ff" horiz-adv-x="1443" d="M23 825v222h141v81q0 176 96 277.5t305 101.5q82 0 139.5 -13t104.5 -36l-96 -196q-53 20 -115 20q-78 0 -99.5 -49t-21.5 -137v-49h350v81q0 176 96.5 277.5t305.5 101.5q45 0 83 -4t72.5 -13t68.5 -23.5t73 -34.5l-96 -195q-43 23 -82 34t-86 11q-78 0 -99.5 -49 t-21.5 -137v-49h268v-222h-268v-825h-314v825h-350v-825h-313v825h-141z" />
<glyph unicode="fi" horiz-adv-x="1273" d="M23 825v222h141v81q0 176 126 277.5t357 101.5q111 0 208 -24.5t206 -87.5l-96 -197q-68 39 -135.5 61.5t-149.5 22.5q-111 0 -157 -42t-46 -144v-49h664v-1047h-314v825h-350v-825h-313v825h-141z" />
<glyph unicode="fl" horiz-adv-x="1273" d="M23 825v222h141v81q0 176 126 277.5t357 101.5q92 0 225.5 -23.5t268.5 -88.5v-1395h-314v1260q-29 10 -64.5 16t-82.5 6q-111 0 -157 -42t-46 -144v-49h268v-222h-268v-825h-313v825h-141z" />
<glyph unicode="ffi" horiz-adv-x="1937" d="M23 825v222h141v81q0 176 96 277.5t305 101.5q82 0 139.5 -13t104.5 -36l-96 -196q-53 20 -115 20q-78 0 -99.5 -49t-21.5 -137v-49h350v81q0 176 126 277.5t358 101.5q111 0 208 -24.5t205 -87.5l-96 -197q-68 39 -135.5 61.5t-149.5 22.5q-111 0 -156.5 -42t-45.5 -144 v-49h663v-1047h-313v825h-350v-825h-314v825h-350v-825h-313v825h-141z" />
<glyph unicode="ffl" horiz-adv-x="1937" d="M23 825v222h141v81q0 176 96 277.5t305 101.5q82 0 139.5 -13t104.5 -36l-96 -196q-53 20 -115 20q-78 0 -99.5 -49t-21.5 -137v-49h350v81q0 176 126 277.5t358 101.5q92 0 225 -23.5t268 -88.5v-1395h-313v1260q-29 10 -64.5 16t-83.5 6q-111 0 -156.5 -42t-45.5 -144 v-49h268v-222h-268v-825h-314v825h-350v-825h-313v825h-141z" />
<glyph unicode="&#xd;" horiz-adv-x="0" />
<glyph unicode=" "  horiz-adv-x="419" />
<glyph unicode="&#x09;" horiz-adv-x="419" />
<glyph unicode="&#xa0;" horiz-adv-x="419" />
<glyph unicode="!" horiz-adv-x="645" d="M135 156q0 84 47 140t140 56q94 0 141 -56t47 -140t-47 -138.5t-141 -54.5q-92 0 -139.5 54.5t-47.5 138.5zM143 1477h363l-51 -1000h-260z" />
<glyph unicode="&#x22;" horiz-adv-x="880" d="M104 1477h263l-17 -592h-229zM520 1477h263l-17 -592h-229z" />
<glyph unicode="#" horiz-adv-x="1480" d="M70 387v219h256l55 277h-205v219h250l53 270h269l-54 -270h244l53 270h269l-54 -270h207v-219h-252l-55 -277h201v-219h-244l-62 -307h-268l62 307h-244l-62 -307h-268l62 307h-213zM594 606h244l55 277h-244z" />
<glyph unicode="$" horiz-adv-x="1216" d="M94 129l107 213q98 -61 187 -87t175 -26q106 0 165.5 42t59.5 141q0 39 -12 68.5t-41.5 52t-78 42t-121.5 35.5q-90 23 -165 52.5t-128.5 79t-82 121t-28.5 175.5q0 168 96.5 278.5t264.5 147.5v209h249v-203q88 -10 169 -39.5t155 -72.5l-109 -207q-18 12 -52 28.5 t-75 30t-87 23.5t-89 10q-213 0 -213 -166q0 -41 13.5 -70.5t45 -52t85 -43t135.5 -43.5q70 -18 138.5 -46.5t120.5 -76t85 -117t33 -171.5q0 -188 -96.5 -300t-262.5 -149v-217h-250v207q-117 10 -219 45t-174 86z" />
<glyph unicode="%" horiz-adv-x="1939" d="M98 1059q0 197 92.5 306.5t264.5 109.5q176 0 265 -109t89 -307q0 -193 -90 -300.5t-264 -107.5t-265.5 106.5t-91.5 301.5zM332 1065q0 -72 9 -117t25.5 -69.5t39 -33.5t49.5 -9q29 0 51 9t37.5 33.5t23.5 69.5t8 117q0 68 -8 112t-23.5 69.5t-38 34.5t-50.5 9 q-25 0 -47.5 -8t-39 -32.5t-26.5 -68.5t-10 -116zM354 0l944 1458h275l-940 -1458h-279zM1130 381q0 197 92.5 306.5t264.5 109.5q176 0 265 -108.5t89 -307.5q0 -193 -90 -300.5t-264 -107.5t-265.5 106.5t-91.5 301.5zM1364 387q0 -72 9 -117t25.5 -69.5t39 -33.5t49.5 -9 q29 0 51.5 9t37.5 33.5t23.5 69.5t8.5 117q0 68 -8.5 112t-23.5 69.5t-37.5 34.5t-51.5 9q-25 0 -47.5 -8t-39 -32.5t-26.5 -68.5t-10 -116z" />
<glyph unicode="&#x26;" horiz-adv-x="1517" d="M102 369q0 90 26 160.5t70 130t103 111.5t129 106q-41 63 -65.5 124.5t-24.5 118.5q0 80 23.5 149.5t77 122t139.5 82t208 29.5q117 0 210.5 -38t160.5 -79l-125 -200q-18 12 -44.5 27.5t-57.5 28.5t-62.5 22.5t-62.5 9.5q-53 0 -86 -11.5t-51.5 -31t-25.5 -46t-7 -55.5 q0 -35 19.5 -72.5t48 -74.5t58.5 -70.5t52 -60.5l227 -281l156 242l223 -63l-233 -361l268 -328l-287 -98l-163 199q-35 -37 -78 -73t-95.5 -63.5t-114 -45t-134.5 -17.5q-113 0 -202 21.5t-151.5 70.5t-95.5 126t-33 188zM391 424q0 -121 58.5 -176t160.5 -55 q86 0 145.5 39.5t110.5 99.5l-303 368q-53 -43 -87 -78.5t-52 -69.5t-25.5 -65.5t-7.5 -62.5z" />
<glyph unicode="'" horiz-adv-x="471" d="M104 1477h263l-17 -592h-229z" />
<glyph unicode="(" horiz-adv-x="790" d="M117 608q0 162 35.5 301.5t97 258t145.5 217t180 180.5l191 -174q-102 -96 -166.5 -194.5t-100.5 -198t-49.5 -198t-13.5 -192.5t12.5 -191.5t48 -194.5t100.5 -194.5t167 -191.5l-197 -184q-96 82 -178 180t-142.5 217t-95 257t-34.5 302z" />
<glyph unicode=")" horiz-adv-x="790" d="M25 1391l190 174q96 -82 180 -180.5t145.5 -217t97.5 -258t36 -301.5q0 -164 -35 -302t-95.5 -257t-142.5 -217t-178 -180l-196 184q102 94 166.5 191.5t100.5 194.5t48 194.5t12 191.5t-13 192.5t-49 198t-100.5 197.5t-166.5 195z" />
<glyph unicode="*" horiz-adv-x="1032" d="M74 1065l82 252l258 -127l-35 287h266l-35 -289l262 129l84 -252l-282 -64l192 -208l-211 -156l-141 256l-145 -256l-211 156l196 208z" />
<glyph unicode="+" horiz-adv-x="1216" d="M137 573v246h348v355h246v-355h348v-246h-348v-354h-246v354h-348z" />
<glyph unicode="," horiz-adv-x="530" d="M72 -260l94 571l299 -55l-195 -571z" />
<glyph unicode="-" horiz-adv-x="921" d="M133 516v254h655v-254h-655z" />
<glyph unicode="." horiz-adv-x="563" d="M96 156q0 84 46 140t139 56q94 0 140 -56t46 -140t-46 -138.5t-140 -54.5q-92 0 -138.5 54.5t-46.5 138.5z" />
<glyph unicode="/" horiz-adv-x="968" d="M10 -160l682 1725h287l-682 -1725h-287z" />
<glyph unicode="0" horiz-adv-x="1216" d="M70 719q0 178 31.5 318.5t98 237.5t169 149.5t243.5 52.5q143 0 244.5 -51.5t166 -148.5t94.5 -237.5t30 -320.5q0 -174 -31 -312.5t-96.5 -234.5t-166 -147.5t-241.5 -51.5q-143 0 -245.5 50.5t-169 145.5t-97 234.5t-30.5 315.5zM414 729q0 -168 14 -272.5t40 -161.5 t61.5 -76.5t80.5 -19.5q47 0 83 19.5t60.5 76.5t37 161.5t12.5 272.5q0 160 -12.5 261.5t-36 159.5t-59.5 79.5t-85 21.5q-41 0 -76.5 -18.5t-62.5 -73.5t-42 -158.5t-15 -271.5z" />
<glyph unicode="1" horiz-adv-x="1216" d="M98 1143l326 248q63 49 113.5 67.5t117.5 18.5q172 0 172 -168v-1069h308v-240h-945v240h326v862q0 20 -4 24t-14 4t-31 -14l-227 -162z" />
<glyph unicode="2" horiz-adv-x="1216" d="M98 1303q100 72 231.5 123t291.5 51q137 0 228 -35t143 -92.5t73.5 -131t21.5 -151.5q0 -143 -76.5 -260t-207.5 -238l-275 -258q-18 -16 -25 -25.5t-7 -19.5q0 -8 4 -14t20 -6h590v-246h-805q-94 0 -148.5 37t-54.5 139q0 63 32 117.5t104 120.5l372 354q51 49 84 89 t51.5 77t25.5 70.5t7 68.5q0 82 -49 124t-135 42q-72 0 -172 -35t-191 -98z" />
<glyph unicode="3" horiz-adv-x="1216" d="M45 102l111 209q86 -47 169 -73.5t201 -26.5q70 0 119 18.5t80 50t44 72.5t13 84q0 111 -74.5 161t-211.5 50h-162v176l358 334q12 10 15.5 17.5t3.5 17.5q0 12 -10.5 16t-26.5 4h-557v246h745q92 0 140.5 -42t48.5 -118q0 -53 -21.5 -98t-81.5 -98l-278 -254 q205 -14 312.5 -118.5t107.5 -291.5q0 -211 -140.5 -338t-412.5 -127q-160 0 -276 34t-216 95z" />
<glyph unicode="4" horiz-adv-x="1216" d="M61 526q0 70 36 125.5t83 114.5l561 692h269v-899h170v-225h-170v-334h-318v334h-436q-98 0 -146.5 51t-48.5 141zM352 602q0 -31 15.5 -37t54.5 -6h270v483l-311 -378q-16 -18 -22.5 -32t-6.5 -30z" />
<glyph unicode="5" horiz-adv-x="1216" d="M90 96l111 203q162 -92 334 -92q70 0 116.5 20.5t76.5 54t42 78t12 91.5q0 229 -227 229q-78 0 -145.5 -20.5t-114.5 -43.5l-123 82l70 760h798v-246h-542l-31 -327q104 27 192 26q86 0 164 -25.5t137.5 -77.5t94.5 -134t35 -193q0 -115 -35 -208t-103.5 -159.5 t-171 -103.5t-237.5 -37q-166 0 -277.5 40t-175.5 83z" />
<glyph unicode="6" horiz-adv-x="1216" d="M98 649q0 166 31 316.5t102.5 264t189.5 180.5t290 67q49 0 94 -4.5t91 -14.5t95 -29.5t105 -50.5l-113 -202q-84 45 -143.5 60t-124.5 15q-68 0 -117 -29.5t-82 -79.5t-50 -119t-22 -149q53 29 123 48.5t148 19.5q102 0 180 -34t130 -96t78.5 -149.5t26.5 -193.5 q0 -109 -32.5 -199t-97 -156.5t-161 -103.5t-221.5 -37q-143 0 -242.5 47.5t-160.5 134.5t-89 212t-28 282zM442 553q0 -66 6.5 -128.5t25 -113.5t53 -81.5t94.5 -30.5q102 0 138 73.5t36 196.5q0 139 -50.5 193.5t-126.5 54.5q-66 0 -108.5 -23t-65.5 -39q-2 -29 -2 -50 v-52z" />
<glyph unicode="7" horiz-adv-x="1216" d="M90 1212v246h862q84 0 118 -33.5t34 -87.5q0 -29 -13.5 -66.5t-27.5 -70.5l-510 -1200h-326l498 1151q14 29 14 43q0 10 -6 14t-26 4h-617z" />
<glyph unicode="8" horiz-adv-x="1216" d="M92 369q0 66 19.5 122t52.5 102t77 81.5t91 60.5q-76 41 -133.5 120t-57.5 204q0 90 32 167t94.5 132t154.5 87t215 32q225 0 344 -100.5t119 -276.5q0 -106 -56.5 -193.5t-146.5 -136.5q117 -57 179.5 -139t62.5 -221q0 -113 -45 -195t-119 -136t-169 -80t-196 -26 q-150 0 -249 35t-159.5 90.5t-85 126t-24.5 144.5zM395 381q0 -53 18.5 -90t49.5 -60.5t70.5 -35t82.5 -11.5q37 0 72 11.5t62.5 36t44 65.5t16.5 102q0 76 -42 124t-136 77l-121 33q-55 -47 -86 -106.5t-31 -145.5zM436 1083q0 -27 7.5 -56.5t26.5 -57t53 -52t85 -38.5 l97 -29q53 41 80.5 105.5t27.5 136.5q0 76 -45 128t-143 52q-55 0 -92 -17.5t-58.5 -45t-30 -61.5t-8.5 -65z" />
<glyph unicode="9" horiz-adv-x="1216" d="M98 981q0 106 34 197.5t100.5 158t165 103.5t227.5 37q135 0 231 -47.5t156.5 -134.5t89 -213t28.5 -281q0 -166 -25.5 -316.5t-92 -264.5t-182 -180.5t-295.5 -66.5q-98 0 -203 22.5t-199 76.5l113 202q84 -47 151.5 -61t132.5 -14q68 0 115 26.5t76 75.5t44 118.5 t19 155.5q-53 -29 -119.5 -48t-142.5 -19q-111 0 -190.5 36t-132 99.5t-77 149.5t-24.5 188zM434 981q0 -139 50.5 -193.5t125.5 -54.5q66 0 108.5 23t65.5 39q2 29 2 50v52q0 63 -6 126.5t-24.5 115t-54 82t-93.5 30.5q-102 0 -138 -73.5t-36 -196.5z" />
<glyph unicode=":" horiz-adv-x="563" d="M96 156q0 84 46 140t139 56q94 0 140 -56t46 -140t-46 -138.5t-140 -54.5q-92 0 -138.5 54.5t-46.5 138.5zM96 869q0 84 46 140t139 56q94 0 140 -56t46 -140t-46 -138.5t-140 -54.5q-92 0 -138.5 54.5t-46.5 138.5z" />
<glyph unicode=";" horiz-adv-x="598" d="M72 -260l94 571l299 -55l-195 -571zM131 869q0 84 46 140t139 56q94 0 140 -56t46 -140t-46 -138.5t-140 -54.5q-92 0 -138.5 54.5t-46.5 138.5z" />
<glyph unicode="&#x3c;" horiz-adv-x="1216" d="M111 688q0 59 16 102.5t48 76t77 57t104 49.5l615 252l135 -199l-672 -272q-25 -10 -39 -23.5t-14 -42.5t14.5 -42t38.5 -23l672 -256l-135 -199l-615 235q-59 23 -105 47.5t-77 58.5t-47 77t-16 102z" />
<glyph unicode="=" horiz-adv-x="1216" d="M135 362v248h946v-248h-946zM135 782v248h946v-248h-946z" />
<glyph unicode="&#x3e;" horiz-adv-x="1216" d="M111 367l671 256q25 10 39.5 23t14.5 42t-14.5 42t-39.5 24l-671 272l135 199l614 -252q57 -25 103.5 -49.5t78 -57t48 -76t16.5 -102.5t-16.5 -102t-47 -77t-76.5 -58.5t-106 -47.5l-614 -235z" />
<glyph unicode="?" horiz-adv-x="1165" d="M82 1350q100 76 219 116.5t258 40.5q256 0 372 -103.5t116 -277.5q0 -111 -49.5 -190.5t-118.5 -136.5l-88 -76q-27 -23 -48.5 -43.5t-36 -44t-22.5 -51t-8 -64.5v-43h-295v78q0 45 6 78t18.5 59.5t33 50t48.5 50.5l121 108q51 45 90 91t39 116q0 72 -50 113t-152 41 q-86 0 -161 -27t-163 -90zM342 156q0 84 47 140t139 56q94 0 141.5 -56t47.5 -140t-47.5 -138.5t-141.5 -54.5q-92 0 -139 54.5t-47 138.5z" />
<glyph unicode="@" horiz-adv-x="2136" d="M92 465q0 242 85 427t226.5 311t326.5 191.5t388 65.5q248 0 424 -64.5t288 -173t163 -255t51 -308.5q0 -154 -46 -270.5t-127 -201.5t-191.5 -139t-237.5 -81l-107 94q-53 -41 -123.5 -69.5t-156.5 -28.5q-123 0 -209 35t-140.5 100.5t-80 157.5t-25.5 209q0 123 38 220 t106.5 165t166 102.5t217.5 34.5q47 0 102.5 -7t108 -18.5t95.5 -23.5t67 -23v-679l43 -58q74 43 119 96.5t69.5 114t34 129t9.5 141.5q0 127 -36 232.5t-115 182.5t-204 119t-303 42q-139 0 -274 -43t-241.5 -135t-171 -238.5t-64.5 -353.5q0 -377 193.5 -550t576.5 -173 q86 0 157.5 12.5t132 29.5t108.5 37.5t85 39.5l82 -168q-47 -27 -110.5 -55.5t-141.5 -53t-171 -40t-202 -15.5q-213 0 -394 51t-312 164t-205 291t-74 430zM920 471q0 -84 9 -138t29.5 -87t51 -46.5t71.5 -13.5t77 11.5t59 40.5v510q-16 4 -41 9t-70 5q-96 0 -141 -70.5 t-45 -220.5z" />
<glyph unicode="A" horiz-adv-x="1380" d="M20 14l322 1145q23 78 50.5 141.5t68.5 107.5t98 68.5t137 24.5q82 0 141.5 -16.5t101.5 -55t71.5 -103t54.5 -161.5l295 -1161l-330 -33l-104 424h-480l-112 -428zM514 662h350l-110 468q-10 41 -21.5 61.5t-36.5 20.5q-29 0 -42 -19t-23 -60z" />
<glyph unicode="B" horiz-adv-x="1275" d="M143 0v1477h543q109 0 196 -22.5t147.5 -71t93 -122t32.5 -178.5q0 -92 -41 -168.5t-133 -132.5q133 -59 183 -150t50 -208q0 -211 -125.5 -317.5t-381.5 -106.5h-564zM469 236h168q57 0 104 7t80 28.5t50.5 60.5t17.5 102t-15.5 101t-46 59.5t-75.5 29t-105 7.5h-178 v-395zM469 885h162q111 0 158 41t47 143t-52.5 142t-162.5 40h-152v-366z" />
<glyph unicode="C" horiz-adv-x="1247" d="M102 729q0 377 172 577.5t494 200.5q72 0 130 -9t109.5 -25.5t96.5 -40t90 -50.5l-121 -213q-76 51 -148.5 71t-144.5 20q-82 0 -144.5 -29t-104.5 -91.5t-63.5 -164t-21.5 -246.5q0 -268 86 -389t248 -121q82 0 163 24.5t167 78.5l117 -216q-115 -76 -234 -109.5 t-239 -33.5q-340 0 -496 187.5t-156 578.5z" />
<glyph unicode="D" horiz-adv-x="1441" d="M143 0v1477h559q332 0 484.5 -182.5t152.5 -567.5q0 -373 -159.5 -550t-493.5 -177h-543zM473 250h195q82 0 143 21.5t102 76.5t61.5 148.5t20.5 236.5q0 137 -18.5 232.5t-57 153t-99 83t-142.5 25.5h-205v-977z" />
<glyph unicode="E" horiz-adv-x="1161" d="M143 0v1477h957v-256h-627v-338h465v-262h-465v-365h647v-256h-977z" />
<glyph unicode="F" horiz-adv-x="1140" d="M143 0v1477h957v-256h-627v-353h465v-262h-465v-606h-330z" />
<glyph unicode="G" horiz-adv-x="1388" d="M102 729q0 377 177.5 577.5t498.5 200.5q154 0 260.5 -37.5t186.5 -93.5l-121 -213q-66 51 -150 74t-163 23q-82 0 -146.5 -29t-110 -91.5t-69 -164t-23.5 -246.5q0 -274 79 -396t229 -122q61 0 123.5 9t111.5 32v311h-248v244h539v-705q-45 -27 -97.5 -52t-117 -44.5 t-144 -31t-180.5 -11.5q-172 0 -292.5 50t-196.5 146.5t-111 240t-35 329.5z" />
<glyph unicode="H" horiz-adv-x="1413" d="M143 0v1477h330v-592h467v592h330v-1477h-330v618h-467v-618h-330z" />
<glyph unicode="I" horiz-adv-x="616" d="M143 0v1477h330v-1477h-330z" />
<glyph unicode="J" horiz-adv-x="1060" d="M12 76l103 215q47 -27 118.5 -52.5t163.5 -25.5q102 0 146.5 58.5t44.5 181.5v1024h330v-1004q0 -131 -27 -227t-86.5 -158.5t-154.5 -93.5t-230 -31t-242.5 36t-165.5 77z" />
<glyph unicode="K" horiz-adv-x="1372" d="M143 0v1477h330v-592h76q51 0 79.5 24.5t57.5 69.5l305 524l312 -90l-388 -635l416 -735l-348 -70l-313 570q-12 20 -24.5 34.5t-28 23.5t-37 13t-54.5 4h-53v-618h-330z" />
<glyph unicode="L" horiz-adv-x="1150" d="M143 0v1477h330v-1221h647v-256h-977z" />
<glyph unicode="M" horiz-adv-x="1660" d="M102 0l74 1477h311l297 -680q10 -23 17.5 -35t25.5 -12t25.5 12t17.5 35l324 680h291l74 -1477h-316l-26 934l-187 -395q-35 -70 -82 -107t-127 -37q-86 0 -130 36t-79 108l-174 379l-26 -918h-310z" />
<glyph unicode="N" horiz-adv-x="1462" d="M143 0v1477h371l471 -1067q6 -14 12.5 -25.5t16.5 -11.5q14 0 17 9t3 26v1069h285v-1225q0 -119 -61.5 -193.5t-208.5 -74.5q-68 0 -114 14t-79 42t-55.5 64.5t-42.5 83.5l-330 740v-928h-285z" />
<glyph unicode="O" horiz-adv-x="1478" d="M102 729q0 377 162 577.5t479 200.5q305 0 469 -195.5t164 -582.5q0 -371 -158.5 -568.5t-490.5 -197.5q-168 0 -286.5 50t-193.5 146.5t-110 240t-35 329.5zM446 729q0 -274 69.5 -396t219.5 -122q74 0 129.5 27.5t93 89t56 161t18.5 242.5q0 276 -68.5 402.5 t-218.5 126.5q-70 0 -125 -29t-94 -91.5t-59.5 -164t-20.5 -246.5z" />
<glyph unicode="P" horiz-adv-x="1241" d="M143 0v1477h469q127 0 230.5 -18.5t176.5 -70t111.5 -141.5t38.5 -231q0 -131 -42 -221t-115.5 -145.5t-176 -80t-223.5 -24.5h-139v-545h-330zM473 791h131q111 0 164 58t53 167q0 115 -46 170t-171 55h-131v-450z" />
<glyph unicode="Q" horiz-adv-x="1478" d="M102 729q0 377 162 577.5t479 200.5q305 0 469 -195.5t164 -582.5q0 -219 -54 -377.5t-167 -255.5l221 -268l-229 -172l-238 326q-84 -18 -182 -19q-168 0 -286.5 50t-193.5 146.5t-110 240t-35 329.5zM446 729q0 -274 69.5 -396t219.5 -122q74 0 129.5 27.5t93 89 t56 161t18.5 242.5q0 276 -68.5 402.5t-218.5 126.5q-70 0 -125 -29t-94 -91.5t-59.5 -164t-20.5 -246.5z" />
<glyph unicode="R" horiz-adv-x="1316" d="M143 0v1477h502q109 0 203 -21.5t164.5 -71t110.5 -129t40 -196.5q0 -154 -75.5 -251t-186.5 -149q35 -25 68 -81l317 -564l-346 -45l-276 504q-29 47 -60 76t-102 29h-31v-578h-328zM473 823h121q115 0 163 54.5t48 154.5q0 106 -50 157.5t-167 51.5h-115v-418z" />
<glyph unicode="S" horiz-adv-x="1224" d="M51 100l115 222q111 -63 203 -87t184 -24q135 0 192.5 49t57.5 135q0 41 -11.5 72t-42 54.5t-85 44t-140.5 40.5q-96 23 -176 54.5t-137 82t-89 124t-32 182.5q0 213 144.5 335.5t408.5 122.5q139 0 247.5 -29.5t221.5 -93.5l-121 -215q-20 12 -56 30t-80 32t-93 24.5 t-98 10.5q-131 0 -186.5 -45t-55.5 -117q0 -47 16.5 -79t53 -56.5t97 -45t148.5 -44.5q70 -20 141.5 -49t130 -77t96.5 -121t38 -183q0 -238 -146.5 -362t-427.5 -124q-168 0 -295 36t-223 101z" />
<glyph unicode="T" horiz-adv-x="1169" d="M20 1221v256h1129v-256h-399v-1221h-330v1221h-400z" />
<glyph unicode="U" horiz-adv-x="1456" d="M143 610v867h330v-844q0 -115 13.5 -195t44 -131t79.5 -73.5t121 -22.5q150 0 207 103.5t57 301.5v861h318v-854q0 -145 -29 -266t-96.5 -208.5t-181 -136.5t-283.5 -49q-168 0 -279.5 41t-178 122t-94.5 203t-28 281z" />
<glyph unicode="V" horiz-adv-x="1392" d="M20 1464l347 33l284 -1165q10 -41 20.5 -61.5t35.5 -20.5q29 0 38 19.5t19 60.5l276 1171l322 -47l-295 -1151q-41 -160 -123.5 -251t-234.5 -91q-88 0 -150.5 16.5t-107.5 55.5t-77 103.5t-57 160.5z" />
<glyph unicode="W" horiz-adv-x="2011" d="M20 1464l353 33l186 -1161q12 -82 47 -82q25 0 35 19.5t18 60.5l228 1143h278l224 -1141q8 -41 14 -61.5t31 -20.5q29 0 37 18.5t14 61.5l174 1167l321 -47l-192 -1151q-27 -160 -101.5 -251t-226.5 -91q-88 0 -146.5 16.5t-96 55.5t-62.5 103.5t-45 160.5l-102 506 l-88 -500q-14 -80 -39 -142.5t-64 -107.5t-94 -68.5t-131 -23.5q-88 0 -151.5 16.5t-107.5 54.5t-72 102.5t-44 162.5z" />
<glyph unicode="X" horiz-adv-x="1343" d="M10 33l410 700l-354 697l333 67l226 -493q16 -29 26.5 -40.5t30.5 -11.5t30.5 11.5t24.5 35.5l271 498l309 -61l-375 -682l381 -713l-344 -70l-258 514q-16 31 -25.5 41.5t-29.5 10.5t-29.5 -11.5t-24.5 -36.5l-288 -518z" />
<glyph unicode="Y" horiz-adv-x="1206" d="M20 1452l326 45l215 -647q10 -31 21.5 -46.5t31.5 -15.5q16 0 27.5 10.5t28.5 51.5l233 647l293 -41l-287 -731q-20 -53 -55 -103.5t-88 -72.5v-549h-330v549q-66 16 -99.5 64.5t-62.5 125.5z" />
<glyph unicode="Z" horiz-adv-x="1196" d="M33 170q0 70 26.5 122t73.5 116l580 813h-629v256h1042v-211l-688 -955q-10 -12 -12 -18t-2 -17q0 -20 33 -20h678v-256h-920q-106 0 -144 45t-38 125z" />
<glyph unicode="[" horiz-adv-x="737" d="M113 -297v1815h594v-226h-279v-1384h279v-205h-594z" />
<glyph unicode="\" horiz-adv-x="968" d="M-10 1565h286l682 -1725h-286z" />
<glyph unicode="]" horiz-adv-x="737" d="M31 -92h278v1384h-278v226h594v-1815h-594v205z" />
<glyph unicode="^" horiz-adv-x="1196" d="M82 774l242 533q20 47 44.5 83.5t56.5 61.5t74 38t99 13t99 -13t74 -38t55.5 -61.5t45.5 -83.5l242 -533l-246 -92l-213 524q-12 29 -22 46.5t-37 17.5t-39 -17.5t-25 -46.5l-213 -524z" />
<glyph unicode="_" horiz-adv-x="1099" d="M102 0h895v-250h-895v250z" />
<glyph unicode="`" horiz-adv-x="1024" d="M289 1530l213 151l243 -393l-141 -102z" />
<glyph unicode="a" horiz-adv-x="1062" d="M72 297q0 188 113.5 267t342.5 79h131v39q0 84 -34.5 130t-122.5 46q-92 0 -165 -16.5t-138 -44.5l-80 198q86 41 201.5 64.5t218.5 23.5q117 0 195.5 -23.5t126.5 -76.5t68.5 -137t20.5 -207v-416l68 -143l-240 -117l-92 135q-78 -68 -146.5 -101.5t-148.5 -33.5 q-152 0 -235.5 88t-83.5 246zM365 326q0 -78 34 -108t97 -30q41 0 88 22.5t75 51.5v205h-131q-78 0 -120.5 -26.5t-42.5 -114.5z" />
<glyph unicode="b" horiz-adv-x="1185" d="M133 14v1493h313v-487q53 29 108.5 46t125.5 17q197 0 310.5 -141t113.5 -422q0 -104 -30 -203.5t-95.5 -178.5t-173 -127t-262.5 -48q-109 0 -216.5 13.5t-193.5 37.5zM446 201q23 -10 57 -13.5t50 -3.5q68 0 114 24.5t72.5 70t37.5 109t11 140.5q0 104 -14 169 t-38.5 101t-58.5 48t-73 12q-41 0 -75.5 -7t-82.5 -38v-612z" />
<glyph unicode="c" horiz-adv-x="978" d="M82 520q0 268 136 415.5t388 147.5q100 0 173 -18t145 -59l-93 -201q-41 23 -88 38t-125 15q-104 0 -163.5 -79t-59.5 -259q0 -174 56.5 -253t162.5 -79q72 0 125.5 14.5t106.5 41.5l92 -195q-80 -47 -170 -66.5t-195 -19.5q-135 0 -228 36t-151.5 106.5t-85 175 t-26.5 239.5z" />
<glyph unicode="d" horiz-adv-x="1202" d="M82 526q0 127 32.5 229.5t97 175.5t159 112.5t217.5 39.5q41 0 84 -8t84 -22v454h313v-1302l59 -131l-243 -115l-94 139q-68 -61 -142 -98t-166 -37q-205 0 -303 146.5t-98 416.5zM397 524q0 -188 47.5 -262t128.5 -74q63 0 107.5 36t75.5 75v530q-33 14 -63.5 21.5 t-69.5 7.5q-113 0 -169.5 -75.5t-56.5 -258.5z" />
<glyph unicode="e" horiz-adv-x="1110" d="M82 520q0 125 31.5 228.5t93 178t155 115.5t216.5 41q119 0 203.5 -38.5t140 -112.5t81 -180.5t25.5 -239.5l-80 -88h-553q14 -127 72 -181.5t156 -54.5q86 0 152.5 13.5t133.5 48.5l92 -195q-96 -55 -197.5 -73.5t-221.5 -18.5q-268 0 -384 143.5t-116 413.5zM395 627 h340q0 231 -157 231q-82 0 -127 -48t-56 -183z" />
<glyph unicode="f" horiz-adv-x="780" d="M23 825v222h141v81q0 176 96 277.5t305 101.5q45 0 83 -4t73 -13t68.5 -23.5t72.5 -34.5l-96 -195q-43 23 -82 34t-86 11q-78 0 -99.5 -49t-21.5 -137v-49h268v-222h-268v-825h-313v825h-141z" />
<glyph unicode="g" horiz-adv-x="1193" d="M82 526q0 270 104.5 413.5t309.5 143.5q86 0 150.5 -29.5t129.5 -95.5l107 129l239 -114l-61 -156v-784q0 -244 -125 -369t-399 -125q-70 0 -123.5 3t-101.5 12.5t-95 27t-104 43.5l94 211q127 -72 295 -72q61 0 107 9.5t77 35t46.5 72.5t15.5 123v49q-53 -29 -120 -45 t-136 -16q-92 0 -168 30.5t-130.5 95t-83 166t-28.5 242.5zM397 522q0 -90 12.5 -149.5t36 -94t54 -48t67.5 -13.5q41 0 87 6t94 37v506q-27 41 -69 66.5t-91 25.5q-57 0 -94 -23.5t-58.5 -67.5t-30 -106.5t-8.5 -138.5z" />
<glyph unicode="h" horiz-adv-x="1212" d="M133 0v1507h313v-551q76 61 139.5 94t155.5 33q109 0 176.5 -31.5t106.5 -90t52.5 -138.5t13.5 -174v-649h-314v604q0 121 -28.5 174t-120.5 53q-106 0 -181 -98v-733h-313z" />
<glyph unicode="i" horiz-adv-x="600" d="M25 838v209h442v-1047h-313v838h-129zM111 1374q0 82 46 137.5t138 55.5t139 -55.5t47 -137.5t-47 -135t-139 -53t-138 53t-46 135z" />
<glyph unicode="j" horiz-adv-x="602" d="M-242 -393l80 196q39 -14 76 -26.5t86 -12.5q94 0 124 59.5t30 174.5v1049h315v-1086q0 -92 -20.5 -170t-68.5 -134t-128 -87t-201 -31q-88 0 -160.5 18.5t-132.5 49.5zM125 1374q0 82 46 137.5t138 55.5t139.5 -55.5t47.5 -137.5t-47.5 -135t-139.5 -53t-138 53t-46 135 z" />
<glyph unicode="k" horiz-adv-x="1130" d="M133 0v1505h313v-819h21q31 0 49.5 16.5t34.5 38.5l254 342l280 -67l-315 -422l336 -545l-315 -74l-248 420q-23 39 -37 51.5t-43 12.5h-17v-459h-313z" />
<glyph unicode="l" horiz-adv-x="579" d="M4 1298v209h442v-1507h-313v1298h-129z" />
<glyph unicode="m" horiz-adv-x="1771" d="M72 973l239 114l107 -149q84 76 158.5 110.5t144.5 34.5q115 0 180.5 -38.5t97.5 -108.5q78 70 159 108.5t163 38.5q104 0 167.5 -31.5t99.5 -90t48.5 -138.5t12.5 -174v-649h-314v604q0 59 -4 102.5t-17.5 71t-39 40.5t-68.5 13q-41 0 -85 -28.5t-77 -69.5 q2 -20 3.5 -40.5t1.5 -43.5v-649h-314v604q0 59 -4 102.5t-17.5 71t-39 40.5t-68.5 13q-37 0 -81 -25.5t-79 -72.5v-733h-313v817z" />
<glyph unicode="n" horiz-adv-x="1212" d="M72 973l239 114l107 -149q84 76 157.5 110.5t165.5 34.5q109 0 176.5 -31.5t106.5 -90t52.5 -138.5t13.5 -174v-649h-314v604q0 121 -28.5 174t-120.5 53q-106 0 -181 -98v-733h-313v817z" />
<glyph unicode="o" horiz-adv-x="1165" d="M82 520q0 129 32.5 233.5t96 178.5t159 112.5t220.5 38.5q254 0 373.5 -143t119.5 -412q0 -131 -30.5 -235.5t-94 -178t-160 -112.5t-225.5 -39q-137 0 -230 40t-151.5 113.5t-84 176t-25.5 227.5zM395 520q0 -174 45.5 -253t143.5 -79q94 0 139 76t45 258q0 176 -40 256 t-138 80q-96 0 -145.5 -76.5t-49.5 -261.5z" />
<glyph unicode="p" horiz-adv-x="1210" d="M72 973l239 114l107 -149q57 66 135 105.5t170 39.5q205 0 305 -146t100 -417q0 -129 -34.5 -232.5t-100 -175t-160 -110.5t-215.5 -39q-41 0 -87 7t-85 18v-434h-313v1263zM446 217q29 -12 63 -20.5t75 -8.5q111 0 170 84t59 250q0 76 -7 138.5t-27.5 106.5t-55.5 67.5 t-92 23.5q-53 0 -101.5 -32.5t-83.5 -80.5v-528z" />
<glyph unicode="q" horiz-adv-x="1189" d="M82 526q0 104 29.5 203.5t97 178.5t175.5 127t263 48q109 0 216.5 -13t193.5 -38v-1478h-314v473q-53 -29 -113.5 -46.5t-129.5 -17.5q-100 0 -178 32t-131.5 100.5t-81 175t-27.5 255.5zM397 518q0 -102 12.5 -165.5t35 -99.5t56.5 -49.5t74 -13.5q41 0 81 6.5t87 36.5 v617q-23 10 -56.5 13t-49.5 3q-129 0 -184.5 -91t-55.5 -257z" />
<glyph unicode="r" horiz-adv-x="880" d="M14 838v209h392l30 -136q72 82 137.5 115t151.5 33q35 0 70.5 -3t68.5 -12l-80 -276q-20 10 -52 20.5t-85 10.5q-47 0 -99 -24.5t-91 -78.5v-696h-314v838h-129z" />
<glyph unicode="s" horiz-adv-x="993" d="M41 68l98 194q66 -35 146 -60.5t176 -25.5q70 0 116 19.5t46 78.5q0 33 -16.5 53.5t-45.5 35t-72 25.5t-94 26q-53 14 -106 34.5t-95 55.5t-69 89t-27 136q0 174 118 264t321 90q96 0 191 -25.5t167 -62.5l-92 -192q-59 31 -129 51t-135 20q-86 0 -119 -27.5t-33 -66.5 q0 -31 15.5 -50t43 -34.5t63.5 -27t77 -23.5q55 -16 112.5 -37.5t105.5 -57.5t77.5 -89t29.5 -133q0 -78 -22.5 -144.5t-74.5 -116t-138 -77t-211 -27.5t-237.5 30t-186.5 75z" />
<glyph unicode="t" horiz-adv-x="862" d="M23 825v222h182v299h303v-299h297v-222h-297v-424q0 -55 3 -95t14.5 -64.5t35 -36.5t66.5 -12q45 0 88 13t78 30l69 -195q-61 -29 -134 -53.5t-159 -24.5q-109 0 -181.5 21.5t-115.5 71.5t-60 132t-17 203v434h-172z" />
<glyph unicode="u" horiz-adv-x="1196" d="M123 360v687h313v-629q0 -117 31 -162t115 -45q49 0 93 18.5t68 46.5v771h314v-822l67 -145l-252 -123l-94 129q-76 -68 -149.5 -95.5t-147.5 -27.5q-195 0 -276.5 100.5t-81.5 296.5z" />
<glyph unicode="v" horiz-adv-x="1144" d="M20 1022l326 55l209 -833q8 -35 29 -35q10 0 18 5t14 28l207 835l301 -59l-241 -832q-33 -111 -103.5 -167t-193.5 -56q-84 0 -138.5 14.5t-89 42t-55 69.5t-37.5 97z" />
<glyph unicode="w" horiz-adv-x="1685" d="M43 1022l322 55l151 -823q6 -35 25 -35q10 0 17 5t11 28l168 795h236l162 -793q8 -35 24 -35q10 0 17.5 5t11.5 28l158 825l296 -59l-192 -832q-25 -109 -91 -166t-183 -57q-72 0 -118 13.5t-76 41t-46 69.5t-27 99l-67 361l-78 -381q-8 -43 -24.5 -80t-46 -64.5t-75 -43 t-108.5 -15.5q-76 0 -125 17.5t-80 47t-47 70.5t-27 88z" />
<glyph unicode="x" horiz-adv-x="1054" d="M25 33l254 479l-224 504l295 59l146 -350q10 -25 20 -35t29 -10q16 0 27.5 11t23.5 34l160 348l268 -61l-221 -471l227 -506l-299 -64l-145 367q-12 27 -21.5 36t-27.5 9q-16 0 -27.5 -11.5t-24.5 -33.5l-182 -367z" />
<glyph unicode="y" horiz-adv-x="1114" d="M20 1022l326 55l170 -760q8 -35 19.5 -56t44.5 -21h34l179 837l301 -59l-285 -1114q-18 -72 -46 -137.5t-75 -116.5t-123 -81t-188 -30q-92 0 -171 14.5t-169 59.5l94 211q125 -59 221 -60q88 0 132 47.5t67 145.5l12 55h-49q-70 0 -117 14.5t-78.5 43t-51 68.5t-34.5 93 z" />
<glyph unicode="z" horiz-adv-x="997" d="M59 133q0 39 12.5 73t47.5 79l418 542h-455v220h823v-199l-426 -557q-10 -14 -16 -23.5t-6 -21.5q0 -16 8 -21.5t24 -5.5h435v-219h-711q-86 0 -120 37t-34 96z" />
<glyph unicode="{" horiz-adv-x="927" d="M76 483v254h117q53 0 70.5 27t17.5 78v297q0 109 28.5 183.5t81.5 120.5t127 65.5t166 19.5q82 0 203 -35l-51 -209q-29 8 -49.5 14.5t-65.5 6.5q-47 0 -76 -16.5t-44 -42t-19 -59.5t-4 -71v-272q0 -90 -41 -147.5t-103 -86.5q61 -29 102.5 -86t41.5 -147v-273 q0 -37 3 -70.5t17 -59t42 -42t75 -16.5q45 0 68.5 6t52.5 15l51 -209q-121 -35 -203 -35q-92 0 -166 19.5t-127 65.5t-81.5 120.5t-28.5 183.5v297q0 51 -17.5 77.5t-70.5 26.5h-117z" />
<glyph unicode="|" horiz-adv-x="552" d="M123 -465v2085h307v-2085h-307z" />
<glyph unicode="}" horiz-adv-x="927" d="M41 -272l51 209q29 -8 49.5 -14.5t65.5 -6.5q47 0 75.5 16.5t44 42t19.5 59.5t4 70v273q0 90 44 147.5t106 85.5q-61 29 -105.5 86.5t-44.5 147.5v272q0 37 -4 71t-19.5 59.5t-44 42t-75.5 16.5q-45 0 -65.5 -6.5t-49.5 -14.5l-51 209q121 35 203 35q92 0 165.5 -19.5 t127 -65.5t82 -121t28.5 -183v-297q0 -51 17.5 -78t70.5 -27h117v-254h-117q-53 0 -70.5 -26.5t-17.5 -77.5v-297q0 -109 -28.5 -183.5t-82 -120.5t-127 -65.5t-165.5 -19.5q-82 0 -203 35z" />
<glyph unicode="~" horiz-adv-x="1298" d="M106 735q57 76 140.5 132.5t210.5 56.5q70 0 115.5 -15.5t84.5 -35t78 -36t94 -18.5q53 0 100.5 22.5t96.5 82.5l160 -176q-29 -37 -64 -72t-76.5 -60.5t-94 -41t-115.5 -15.5q-66 0 -110 16.5t-83 36t-81 36t-99 16.5q-53 0 -100.5 -23t-96.5 -82z" />
<glyph unicode="&#xa1;" horiz-adv-x="649" d="M135 858q0 84 48.5 138.5t142.5 54.5q92 0 140 -54.5t48 -138.5t-48 -140t-140 -56q-94 0 -142.5 56t-48.5 140zM141 -463l52 1000h260l51 -1000h-363z" />
<glyph unicode="&#xa2;" horiz-adv-x="1216" d="M199 653q0 225 96 365.5t278 181.5v244h242v-234q66 -6 118 -24.5t107 -46.5l-92 -201q-41 23 -88 38t-125 15q-104 0 -163.5 -78.5t-59.5 -259.5q0 -174 56.5 -252.5t162.5 -78.5q72 0 125 14t107 41l92 -195q-57 -33 -117.5 -51t-128.5 -29v-241h-242v243 q-201 33 -284.5 172.5t-83.5 376.5z" />
<glyph unicode="&#xa3;" horiz-adv-x="1216" d="M90 608v240h238l57 242q23 96 59.5 168.5t95 120.5t141.5 73t198 25q92 0 175 -25t152 -59l-90 -205q-55 29 -110.5 47t-126.5 18q-76 0 -124 -37.5t-71 -134.5l-53 -233h350v-240h-403l-54 -237q-4 -16 -8 -34t-4 -34q0 -57 70 -57h528v-246h-793q-84 0 -115.5 38 t-31.5 85q0 31 6 61.5t14 65.5l82 358h-182z" />
<glyph unicode="&#xa4;" horiz-adv-x="1216" d="M70 362l141 150q-31 51 -48.5 109.5t-17.5 123.5q0 66 17.5 123.5t48.5 108.5l-141 149l168 164l143 -151q104 57 229 57q121 0 226 -57l143 151l168 -164l-141 -149q31 -51 48 -108.5t17 -123.5t-17.5 -124t-47.5 -111l141 -148l-168 -163l-143 149q-104 -57 -226 -57 q-125 0 -229 57l-143 -149zM395 745q0 -47 16.5 -89t46 -72.5t68.5 -49t84 -18.5q92 0 152.5 66.5t60.5 162.5t-60.5 162t-152.5 66q-45 0 -84 -17.5t-68.5 -48t-46 -73t-16.5 -89.5z" />
<glyph unicode="&#xa5;" horiz-adv-x="1216" d="M80 1456l311 41l205 -631q10 -27 15 -39t24 -12q16 0 21.5 12.5t15.5 38.5l198 627l281 -37l-229 -647h192v-211h-342v-115h342v-211h-342v-272h-313v272h-357v211h357v115h-357v211h205z" />
<glyph unicode="&#xa6;" horiz-adv-x="552" d="M123 401h307v-866h-307v866zM123 877v743h307v-743h-307z" />
<glyph unicode="&#xa7;" horiz-adv-x="1173" d="M98 567q0 76 36 154t122 151q-45 39 -70.5 93.5t-25.5 134.5q0 92 35.5 162.5t97 117.5t146.5 72t184 25q57 0 115.5 -9.5t109.5 -21.5t92 -26.5t66 -26.5l-86 -203q-51 23 -123 43t-164 20q-86 0 -128 -23.5t-42 -78.5q0 -39 14.5 -61.5t46 -40t80.5 -30.5t119 -34 q98 -29 164.5 -57.5t106.5 -67.5t57.5 -91t17.5 -126q0 -76 -36 -153.5t-122 -153.5q45 -37 71 -91.5t26 -133.5q0 -92 -36 -163t-97.5 -118t-146.5 -71.5t-183 -24.5q-59 0 -116.5 9t-109 21.5t-92.5 26.5t-65 27l86 202q51 -23 122.5 -43t164.5 -20q86 0 128 23.5t42 78.5 q0 39 -14.5 61.5t-46.5 40t-81 31t-119 33.5q-98 29 -164.5 57.5t-106.5 67.5t-57.5 91.5t-17.5 125.5zM377 643q0 -29 7 -51.5t28.5 -43t58.5 -37.5t98 -36l156 -47q31 33 48.5 65.5t17.5 73.5q0 29 -7.5 51.5t-29 43t-58.5 38t-98 35.5l-156 45q-31 -31 -48 -63.5 t-17 -73.5z" />
<glyph unicode="&#xa8;" horiz-adv-x="1024" d="M143 1384q0 72 40 119t118 47t119 -47t41 -119t-41 -116.5t-119 -44.5t-118 45t-40 116zM616 1384q0 72 40 119t118 47q80 0 120 -47t40 -119t-40 -116.5t-120 -44.5q-78 0 -118 45t-40 116z" />
<glyph unicode="&#xa9;" horiz-adv-x="1705" d="M143 737q0 154 53.5 288t150.5 233.5t234.5 158t305.5 58.5t305 -58.5t232.5 -158t147.5 -233.5t52 -288t-53 -288t-150.5 -233t-234.5 -157.5t-305 -58.5q-172 0 -309.5 58.5t-232.5 157.5t-145.5 233t-50.5 288zM334 737q0 -117 38 -220t109.5 -180t174 -122t231.5 -45 t231.5 45t173 122t108.5 180.5t38 219.5q0 117 -38 220.5t-108.5 180t-173 121t-231.5 44.5t-231.5 -44.5t-174 -121t-109.5 -180t-38 -220.5zM522 737q0 182 100.5 287.5t280.5 105.5q57 0 114.5 -13t129.5 -50l-66 -141q-55 27 -90 34t-80 7q-74 0 -113.5 -55.5 t-39.5 -174.5q0 -63 13 -105t35.5 -66.5t52.5 -35t63 -10.5q39 0 85 8.5t89 30.5l59 -149q-59 -31 -123.5 -47.5t-138.5 -16.5q-190 0 -280.5 105.5t-90.5 285.5z" />
<glyph unicode="&#xaa;" horiz-adv-x="1036" d="M170 797q0 135 86 193.5t258 58.5h82v20q0 57 -24.5 87t-86.5 30q-68 0 -119 -13.5t-98 -31.5l-65 151q70 29 155.5 46.5t157.5 17.5q86 0 144.5 -16.5t95.5 -54.5t52 -98.5t15 -146.5v-295l49 -102l-180 -82l-67 94q-57 -47 -104.5 -70.5t-106.5 -23.5 q-115 0 -179.5 62.5t-64.5 173.5zM401 819q0 -55 24.5 -71.5t63.5 -16.5q29 0 56.5 13.5t50.5 35.5v133h-82q-49 0 -81 -16t-32 -78z" />
<glyph unicode="&#xab;" horiz-adv-x="1236" d="M113 561q0 61 28.5 105.5t71.5 78.5l264 216l180 -87l-223 -221q-27 -27 -41 -43t-14 -39t15.5 -39t56.5 -53l213 -198l-172 -93l-252 179q-66 47 -96.5 88t-30.5 106zM615 561q0 61 28.5 105.5t71.5 78.5l264 216l180 -87l-223 -221q-27 -27 -41 -43t-14 -39t15.5 -39 t56.5 -53l213 -198l-172 -93l-252 179q-66 47 -96.5 88t-30.5 106z" />
<glyph unicode="&#xac;" horiz-adv-x="1443" d="M225 573v246h994v-506h-252v260h-742z" />
<glyph unicode="&#xad;" horiz-adv-x="921" d="M133 516v254h655v-254h-655z" />
<glyph unicode="&#xae;" horiz-adv-x="1269" d="M94 948q0 109 37 206t106.5 170t169 115t222.5 42q129 0 228 -41t167 -113t103.5 -168t35.5 -205t-40 -205t-110.5 -166.5t-169 -111.5t-214.5 -41q-119 0 -217.5 40t-169 109.5t-109.5 164.5t-39 204zM254 948q0 -76 23.5 -143.5t70.5 -118.5t117 -81t164 -30 q100 0 170.5 31t117 82t68 120t21.5 146q0 78 -21.5 146.5t-68 121t-117 83t-170.5 30.5t-172 -31.5t-117 -85t-65.5 -123t-20.5 -147.5zM449 715v497h219q68 0 118 -38.5t50 -114.5q0 -96 -84 -137q4 -4 10 -12.5t14 -22.5l88 -150l-145 -26l-74 139q-8 16 -16 22.5 t-27 6.5h-16v-164h-137zM586 987h43q37 0 52 18.5t15 47.5q0 53 -59 53h-51v-119z" />
<glyph unicode="&#xaf;" horiz-adv-x="1024" d="M156 1260v223h712v-223h-712z" />
<glyph unicode="&#xb0;" horiz-adv-x="753" d="M92 1198q0 57 21.5 108.5t60.5 89.5t90 59.5t113 21.5q61 0 112.5 -21.5t90 -59.5t60.5 -89.5t22 -108.5t-22 -108.5t-60.5 -89t-90 -59t-112.5 -21.5q-63 0 -115.5 21.5t-90.5 59t-58.5 89t-20.5 108.5zM256 1198q0 -57 34 -92t87 -35t87 35t34 92t-34 92t-87 35 t-87 -35t-34 -92z" />
<glyph unicode="&#xb1;" horiz-adv-x="1216" d="M137 0v246h942v-246h-942zM137 686v246h348v321h246v-321h348v-246h-348v-321h-246v321h-348z" />
<glyph unicode="&#xb2;" d="M94 707q0 43 21.5 77.5t68.5 73.5l205 178q45 41 79 77t34 83q0 29 -21.5 56.5t-85.5 27.5q-43 0 -94 -17.5t-98 -45.5l-101 155q57 39 145.5 72t192.5 33q86 0 145.5 -19.5t96.5 -53.5t54.5 -80t17.5 -97q0 -49 -13.5 -90t-38 -78t-60.5 -74t-83 -76l-151 -131h360v-196 h-522q-72 0 -112 26.5t-40 98.5z" />
<glyph unicode="&#xb3;" d="M61 647l93 172q33 -16 61.5 -28.5t57 -20.5t60.5 -11t75 -3q72 0 95 29.5t23 74.5q0 53 -40 75.5t-119 22.5h-109v121l213 191h-358v188h501q133 0 134 -115q0 -35 -17.5 -62.5t-56.5 -61.5l-135 -117q117 -23 175 -87.5t58 -164.5q0 -131 -93 -209t-278 -78 q-59 0 -107 5t-88 16.5t-75 27t-70 35.5z" />
<glyph unicode="&#xb4;" horiz-adv-x="1024" d="M289 1288l243 393l213 -151l-315 -344z" />
<glyph unicode="&#xb5;" horiz-adv-x="1179" d="M113 -446v1493h313v-629q0 -117 36 -162t120 -45q49 0 93 18.5t68 46.5v771h314v-822l67 -145l-252 -123l-94 129q-51 -55 -116.5 -89t-131.5 -34q-27 0 -58.5 4t-51.5 15v-428h-307z" />
<glyph unicode="&#xb6;" horiz-adv-x="1368" d="M113 963q0 154 56 253t140 157.5t180.5 81t176.5 22.5h620v-246h-164v-1057q0 -139 -30.5 -243.5t-96 -174t-171 -103.5t-253.5 -34q-53 0 -107 9.5t-101.5 21.5t-82 24.5t-49.5 20.5l88 237q45 -20 110 -40.5t138 -20.5q59 0 103.5 16.5t74 55.5t44 102.5t14.5 157.5 v1028h-170v-756q-248 0 -384 117t-136 371z" />
<glyph unicode="&#xb7;" horiz-adv-x="563" d="M96 752q0 84 46 140t139 56q94 0 140 -56t46 -140t-46 -138.5t-140 -54.5q-92 0 -138.5 54.5t-46.5 138.5z" />
<glyph unicode="&#xb8;" horiz-adv-x="1024" d="M242 -430l67 135q39 -23 75 -37t83 -14q92 0 92 63q0 49 -44 61.5t-122 12.5l62 229h153l-30 -124q37 -4 71.5 -15.5t62 -32t45 -52.5t17.5 -77q0 -92 -62.5 -155.5t-209.5 -63.5q-29 0 -64 5.5t-69.5 14.5t-68.5 22.5t-58 27.5z" />
<glyph unicode="&#xb9;" d="M92 1262l203 143q25 16 45 29.5t40.5 22.5t44.5 14.5t56 5.5q72 0 99.5 -36t27.5 -98v-565h178v-196h-606v196h191v453l-164 -115z" />
<glyph unicode="&#xba;" horiz-adv-x="1030" d="M147 958q0 190 95.5 294t273.5 104q180 0 273.5 -103.5t93.5 -294.5q0 -195 -93.5 -296t-281.5 -101q-197 0 -279 102t-82 295zM385 958q0 -125 35 -178t94 -53q61 0 95 51t34 180q0 123 -29.5 177.5t-93.5 54.5q-61 0 -98 -51.5t-37 -180.5z" />
<glyph unicode="&#xbb;" horiz-adv-x="1236" d="M72 281l213 198q41 37 56 53.5t15 38.5q0 23 -14 39.5t-41 42.5l-223 221l180 87l264 -216q43 -35 72 -76.5t29 -103.5q0 -66 -31 -108.5t-96 -89.5l-252 -179zM574 281l213 198q41 37 56 53.5t15 38.5q0 23 -14 39.5t-41 42.5l-223 221l180 87l264 -216q43 -35 72 -76.5 t29 -103.5q0 -66 -31 -108.5t-96 -89.5l-252 -179z" />
<glyph unicode="&#xbc;" horiz-adv-x="2048" d="M57 1262l203 143q25 16 45 29.5t40.5 22.5t44.5 14.5t56 5.5q72 0 99.5 -36t27.5 -98v-565h178v-196h-606v196h191v453l-164 -115zM580 0l794 1477h256l-792 -1477h-258zM1228 316q0 41 18.5 68.5t45.5 60.5l373 440h204v-526h131v-168h-131v-182h-225v182h-264 q-152 0 -152 125zM1450 367q0 -8 8 -8h192v252l-190 -226q-10 -12 -10 -18z" />
<glyph unicode="&#xbd;" horiz-adv-x="2048" d="M88 1262l203 143q25 16 45 29.5t40.5 22.5t44.5 14.5t56 5.5q72 0 99.5 -36t27.5 -98v-565h178v-196h-606v196h191v453l-164 -115zM541 0l794 1477h256l-792 -1477h-258zM1294 134q0 43 21.5 77.5t68.5 73.5l205 178q45 41 79 77t34 83q0 29 -21.5 56.5t-85.5 27.5 q-43 0 -94 -17.5t-98 -45.5l-101 155q57 39 145.5 72t192.5 33q86 0 145.5 -19.5t96.5 -53.5t54.5 -80t17.5 -97q0 -49 -13.5 -90t-38 -78t-60.5 -74t-83 -76l-151 -131h360v-196h-522q-72 0 -112 26.5t-40 98.5z" />
<glyph unicode="&#xbe;" horiz-adv-x="2048" d="M38 647l93 172q33 -16 61.5 -28.5t57 -20.5t60.5 -11t75 -3q72 0 95 29.5t23 74.5q0 53 -40 75.5t-119 22.5h-109v121l213 191h-358v188h501q133 0 134 -115q0 -35 -17.5 -62.5t-56.5 -61.5l-135 -117q117 -23 175 -87.5t58 -164.5q0 -131 -93 -209t-278 -78 q-59 0 -107 5t-88 16.5t-75 27t-70 35.5zM543 0l794 1477h256l-792 -1477h-258zM1241 316q0 41 18.5 68.5t45.5 60.5l373 440h204v-526h131v-168h-131v-182h-225v182h-264q-152 0 -152 125zM1463 367q0 -8 8 -8h192v252l-190 -226q-10 -12 -10 -18z" />
<glyph unicode="&#xbf;" horiz-adv-x="1169" d="M147 -113q0 111 49.5 191t118.5 137l88 76q27 23 48.5 43t36 43.5t22.5 51.5t8 65v43h295v-78q0 -45 -6 -78t-18.5 -59.5t-33 -50t-48.5 -50.5l-121 -108q-51 -45 -90 -91.5t-39 -115.5q0 -72 50 -113t152 -41q86 0 161 26.5t163 90.5l129 -205q-100 -76 -219 -117 t-258 -41q-256 0 -372 103.5t-116 277.5zM475 858q0 84 48.5 138.5t142.5 54.5q92 0 140 -54.5t48 -138.5t-48 -140t-140 -56q-94 0 -142.5 56t-48.5 140z" />
<glyph unicode="&#xc0;" horiz-adv-x="1380" d="M20 14l322 1145q23 78 50.5 141.5t68.5 107.5t98 68.5t137 24.5q82 0 141.5 -16.5t101.5 -55t71.5 -103t54.5 -161.5l295 -1161l-330 -33l-104 424h-480l-112 -428zM426 1835l176 201l354 -346l-114 -140zM514 662h350l-110 468q-10 41 -21.5 61.5t-36.5 20.5 q-29 0 -42 -19t-23 -60z" />
<glyph unicode="&#xc1;" horiz-adv-x="1380" d="M20 14l322 1145q23 78 50.5 141.5t68.5 107.5t98 68.5t137 24.5q82 0 141.5 -16.5t101.5 -55t71.5 -103t54.5 -161.5l295 -1161l-330 -33l-104 424h-480l-112 -428zM465 1690l354 346l176 -201l-416 -285zM514 662h350l-110 468q-10 41 -21.5 61.5t-36.5 20.5 q-29 0 -42 -19t-23 -60z" />
<glyph unicode="&#xc2;" horiz-adv-x="1380" d="M20 14l322 1145q23 78 50.5 141.5t68.5 107.5t98 68.5t137 24.5q82 0 141.5 -16.5t101.5 -55t71.5 -103t54.5 -161.5l295 -1161l-330 -33l-104 424h-480l-112 -428zM358 1669l219 281h244l219 -281l-133 -110l-209 192l-207 -192zM514 662h350l-110 468 q-10 41 -21.5 61.5t-36.5 20.5q-29 0 -42 -19t-23 -60z" />
<glyph unicode="&#xc3;" horiz-adv-x="1380" d="M20 14l322 1145q23 78 50.5 141.5t68.5 107.5t98 68.5t137 24.5q82 0 141.5 -16.5t101.5 -55t71.5 -103t54.5 -161.5l295 -1161l-330 -33l-104 424h-480l-112 -428zM291 1596q0 143 57 233t162 90q47 0 94 -15t92 -38q35 -16 72 -30.5t65 -14.5q41 0 57.5 24.5t20.5 79.5 h174q0 -143 -57.5 -233t-161.5 -90q-47 0 -94 15.5t-92 37.5q-35 16 -72 30.5t-65 14.5q-41 0 -57.5 -24.5t-20.5 -79.5h-174zM514 662h350l-110 468q-10 41 -21.5 61.5t-36.5 20.5q-29 0 -42 -19t-23 -60z" />
<glyph unicode="&#xc4;" horiz-adv-x="1380" d="M20 14l322 1145q23 78 50.5 141.5t68.5 107.5t98 68.5t137 24.5q82 0 141.5 -16.5t101.5 -55t71.5 -103t54.5 -161.5l295 -1161l-330 -33l-104 424h-480l-112 -428zM299 1751q0 72 40 119t118 47t119 -47t41 -119t-41 -117t-119 -45t-118 45t-40 117zM514 662h350 l-110 468q-10 41 -21.5 61.5t-36.5 20.5q-29 0 -42 -19t-23 -60zM772 1751q0 72 40 119t118 47q80 0 120 -47t40 -119t-40 -117t-120 -45q-78 0 -118 45t-40 117z" />
<glyph unicode="&#xc5;" horiz-adv-x="1380" d="M20 14l322 1145q23 78 50.5 141.5t68.5 107.5t98 68.5t137 24.5q82 0 141.5 -16.5t101.5 -55t71.5 -103t54.5 -161.5l295 -1161l-330 -33l-104 424h-480l-112 -428zM424 1827q0 55 21.5 104t58 86t86 58.5t104.5 21.5t104.5 -21.5t86 -58.5t58 -86t21.5 -104 t-21.5 -104.5t-58 -86.5t-86 -58.5t-104.5 -21.5t-104.5 21.5t-86 58.5t-58 86.5t-21.5 104.5zM514 662h350l-110 468q-10 41 -21.5 61.5t-36.5 20.5q-29 0 -42 -19t-23 -60zM579 1827q0 -47 33 -82t82 -35t82 35t33 82t-34 82t-81 35t-81 -35t-34 -82z" />
<glyph unicode="&#xc6;" horiz-adv-x="2066" d="M10 10l568 1125q47 94 87 159.5t89 105.5t115.5 58.5t168.5 18.5h967v-256h-627v-369h465v-262h-465v-334h647v-256h-976v590h-414l-301 -627zM760 852h289v369h-48q-43 0 -62 -19.5t-40 -60.5z" />
<glyph unicode="&#xc7;" horiz-adv-x="1247" d="M102 729q0 377 172 577.5t494 200.5q72 0 130 -9t109.5 -25.5t96.5 -40t90 -50.5l-121 -213q-76 51 -148.5 71t-144.5 20q-82 0 -144.5 -29t-104.5 -91.5t-63.5 -164t-21.5 -246.5q0 -268 86 -389t248 -121q82 0 163 24.5t167 78.5l117 -216q-98 -66 -199.5 -98.5 t-206.5 -40.5l-16 -71q37 -4 71.5 -15.5t62.5 -32t45 -52.5t17 -77q0 -92 -62 -155.5t-210 -63.5q-29 0 -63.5 5.5t-69.5 14.5t-68.5 22.5t-58.5 27.5l68 135q39 -23 74.5 -37t82.5 -14q92 0 92 63q0 49 -44 61.5t-121 12.5l47 176q-293 23 -429.5 209t-136.5 553z" />
<glyph unicode="&#xc8;" horiz-adv-x="1161" d="M143 0v1477h957v-256h-627v-338h465v-262h-465v-365h647v-256h-977zM340 1835l176 201l354 -346l-114 -140z" />
<glyph unicode="&#xc9;" horiz-adv-x="1161" d="M143 0v1477h957v-256h-627v-338h465v-262h-465v-365h647v-256h-977zM426 1690l354 346l176 -201l-416 -285z" />
<glyph unicode="&#xca;" horiz-adv-x="1161" d="M143 0v1477h957v-256h-627v-338h465v-262h-465v-365h647v-256h-977zM307 1669l219 281h244l219 -281l-133 -110l-209 192l-207 -192z" />
<glyph unicode="&#xcb;" horiz-adv-x="1161" d="M143 0v1477h957v-256h-627v-338h465v-262h-465v-365h647v-256h-977zM233 1751q0 72 40 119t118 47t119 -47t41 -119t-41 -117t-119 -45t-118 45t-40 117zM706 1751q0 72 40 119t118 47q80 0 120 -47t40 -119t-40 -117t-120 -45q-78 0 -118 45t-40 117z" />
<glyph unicode="&#xcc;" horiz-adv-x="616" d="M23 1835l176 201l354 -346l-114 -140zM143 0v1477h330v-1477h-330z" />
<glyph unicode="&#xcd;" horiz-adv-x="616" d="M70 1690l354 346l176 -201l-416 -285zM143 0v1477h330v-1477h-330z" />
<glyph unicode="&#xce;" horiz-adv-x="616" d="M-33 1669l219 281h244l219 -281l-133 -110l-209 192l-207 -192zM143 0v1477h330v-1477h-330z" />
<glyph unicode="&#xcf;" horiz-adv-x="616" d="M-60 1751q0 72 40 119t118 47t119 -47t41 -119t-41 -117t-119 -45t-118 45t-40 117zM143 0v1477h330v-1477h-330zM413 1751q0 72 40 119t118 47q80 0 120 -47t40 -119t-40 -117t-120 -45q-78 0 -118 45t-40 117z" />
<glyph unicode="&#xd0;" horiz-adv-x="1486" d="M10 618v246h178v613h560q332 0 484 -182.5t152 -567.5q0 -373 -159.5 -550t-493.5 -177h-543v618h-178zM518 250h195q82 0 143.5 21.5t102 76.5t61 148.5t20.5 236.5q0 137 -18 232.5t-57 153t-99.5 83t-142.5 25.5h-205v-363h307v-246h-307v-368z" />
<glyph unicode="&#xd1;" horiz-adv-x="1462" d="M143 0v1477h371l471 -1067q6 -14 12.5 -25.5t16.5 -11.5q14 0 17 9t3 26v1069h285v-1225q0 -119 -61.5 -193.5t-208.5 -74.5q-68 0 -114 14t-79 42t-55.5 64.5t-42.5 83.5l-330 740v-928h-285zM359 1595q0 143 57 233.5t162 90.5q47 0 94 -15.5t92 -37.5q35 -16 72 -30.5 t65 -14.5q41 0 57.5 24.5t20.5 79.5h174q0 -143 -57.5 -233t-161.5 -90q-47 0 -94 15t-92 38q-35 16 -72 30.5t-65 14.5q-41 0 -57.5 -24.5t-20.5 -80.5h-174z" />
<glyph unicode="&#xd2;" horiz-adv-x="1478" d="M102 729q0 377 162 577.5t479 200.5q305 0 469 -195.5t164 -582.5q0 -371 -158.5 -568.5t-490.5 -197.5q-168 0 -286.5 50t-193.5 146.5t-110 240t-35 329.5zM446 729q0 -274 69.5 -396t219.5 -122q74 0 129.5 27.5t93 89t56 161t18.5 242.5q0 276 -68.5 402.5 t-218.5 126.5q-70 0 -125 -29t-94 -91.5t-59.5 -164t-20.5 -246.5zM473 1835l176 201l354 -346l-114 -140z" />
<glyph unicode="&#xd3;" horiz-adv-x="1478" d="M102 729q0 377 162 577.5t479 200.5q305 0 469 -195.5t164 -582.5q0 -371 -158.5 -568.5t-490.5 -197.5q-168 0 -286.5 50t-193.5 146.5t-110 240t-35 329.5zM446 729q0 -274 69.5 -396t219.5 -122q74 0 129.5 27.5t93 89t56 161t18.5 242.5q0 276 -68.5 402.5 t-218.5 126.5q-70 0 -125 -29t-94 -91.5t-59.5 -164t-20.5 -246.5zM535 1690l354 346l176 -201l-416 -285z" />
<glyph unicode="&#xd4;" horiz-adv-x="1478" d="M102 729q0 377 162 577.5t479 200.5q305 0 469 -195.5t164 -582.5q0 -371 -158.5 -568.5t-490.5 -197.5q-168 0 -286.5 50t-193.5 146.5t-110 240t-35 329.5zM397 1669l219 281h244l219 -281l-133 -110l-209 192l-207 -192zM446 729q0 -274 69.5 -396t219.5 -122 q74 0 129.5 27.5t93 89t56 161t18.5 242.5q0 276 -68.5 402.5t-218.5 126.5q-70 0 -125 -29t-94 -91.5t-59.5 -164t-20.5 -246.5z" />
<glyph unicode="&#xd5;" horiz-adv-x="1478" d="M102 729q0 377 162 577.5t479 200.5q305 0 469 -195.5t164 -582.5q0 -371 -158.5 -568.5t-490.5 -197.5q-168 0 -286.5 50t-193.5 146.5t-110 240t-35 329.5zM355 1595q0 143 57 233.5t162 90.5q47 0 94 -15.5t92 -37.5q35 -16 72 -30.5t65 -14.5q41 0 57.5 24.5 t20.5 79.5h174q0 -143 -57.5 -233t-161.5 -90q-47 0 -94 15t-92 38q-35 16 -72 30.5t-65 14.5q-41 0 -57.5 -24.5t-20.5 -80.5h-174zM446 729q0 -274 69.5 -396t219.5 -122q74 0 129.5 27.5t93 89t56 161t18.5 242.5q0 276 -68.5 402.5t-218.5 126.5q-70 0 -125 -29 t-94 -91.5t-59.5 -164t-20.5 -246.5z" />
<glyph unicode="&#xd6;" horiz-adv-x="1478" d="M102 729q0 377 162 577.5t479 200.5q305 0 469 -195.5t164 -582.5q0 -371 -158.5 -568.5t-490.5 -197.5q-168 0 -286.5 50t-193.5 146.5t-110 240t-35 329.5zM370 1751q0 72 40 119t118 47t119 -47t41 -119t-41 -117t-119 -45t-118 45t-40 117zM446 729q0 -274 69.5 -396 t219.5 -122q74 0 129.5 27.5t93 89t56 161t18.5 242.5q0 276 -68.5 402.5t-218.5 126.5q-70 0 -125 -29t-94 -91.5t-59.5 -164t-20.5 -246.5zM843 1751q0 72 40 119t118 47q80 0 120 -47t40 -119t-40 -117t-120 -45q-78 0 -118 45t-40 117z" />
<glyph unicode="&#xd7;" horiz-adv-x="1216" d="M180 440l258 256l-258 256l172 172l256 -258l256 258l172 -172l-258 -256l258 -256l-172 -172l-256 258l-256 -258z" />
<glyph unicode="&#xd8;" horiz-adv-x="1478" d="M102 729q0 377 162 577.5t479 200.5q147 0 258 -45l80 152h262l-149 -283q90 -98 136 -247.5t46 -354.5q0 -371 -158.5 -568.5t-490.5 -197.5q-70 0 -129 8.5t-113 24.5l-86 -164h-262l150 283q-98 96 -141.5 249.5t-43.5 364.5zM446 729q0 -82 5.5 -148.5t17.5 -119.5 l408 766q-53 33 -132 33q-70 0 -125 -29t-94 -91.5t-59.5 -164t-20.5 -246.5zM612 236q51 -25 123 -25q74 0 129.5 27.5t93 89t56 161t18.5 242.5q0 76 -5 140.5t-15 117.5z" />
<glyph unicode="&#xd9;" horiz-adv-x="1456" d="M143 610v867h330v-844q0 -115 13.5 -195t44 -131t79.5 -73.5t121 -22.5q150 0 207 103.5t57 301.5v861h318v-854q0 -145 -29 -266t-96.5 -208.5t-181 -136.5t-283.5 -49q-168 0 -279.5 41t-178 122t-94.5 203t-28 281zM420 1835l176 201l354 -346l-114 -140z" />
<glyph unicode="&#xda;" horiz-adv-x="1456" d="M143 610v867h330v-844q0 -115 13.5 -195t44 -131t79.5 -73.5t121 -22.5q150 0 207 103.5t57 301.5v861h318v-854q0 -145 -29 -266t-96.5 -208.5t-181 -136.5t-283.5 -49q-168 0 -279.5 41t-178 122t-94.5 203t-28 281zM572 1690l354 346l176 -201l-416 -285z" />
<glyph unicode="&#xdb;" horiz-adv-x="1456" d="M143 610v867h330v-844q0 -115 13.5 -195t44 -131t79.5 -73.5t121 -22.5q150 0 207 103.5t57 301.5v861h318v-854q0 -145 -29 -266t-96.5 -208.5t-181 -136.5t-283.5 -49q-168 0 -279.5 41t-178 122t-94.5 203t-28 281zM385 1669l219 281h244l219 -281l-133 -110l-209 192 l-207 -192z" />
<glyph unicode="&#xdc;" horiz-adv-x="1456" d="M143 610v867h330v-844q0 -115 13.5 -195t44 -131t79.5 -73.5t121 -22.5q150 0 207 103.5t57 301.5v861h318v-854q0 -145 -29 -266t-96.5 -208.5t-181 -136.5t-283.5 -49q-168 0 -279.5 41t-178 122t-94.5 203t-28 281zM358 1751q0 72 40 119t118 47t119 -47t41 -119 t-41 -117t-119 -45t-118 45t-40 117zM831 1751q0 72 40 119t118 47q80 0 120 -47t40 -119t-40 -117t-120 -45q-78 0 -118 45t-40 117z" />
<glyph unicode="&#xdd;" horiz-adv-x="1206" d="M20 1452l326 45l215 -647q10 -31 21.5 -46.5t31.5 -15.5q16 0 27.5 10.5t28.5 51.5l233 647l293 -41l-287 -731q-20 -53 -55 -103.5t-88 -72.5v-549h-330v549q-66 16 -99.5 64.5t-62.5 125.5zM434 1690l354 346l176 -201l-416 -285z" />
<glyph unicode="&#xde;" horiz-adv-x="1230" d="M133 0v1477h330v-199h139q127 0 230.5 -18.5t176 -69.5t111.5 -141.5t39 -231.5q0 -131 -42 -221t-115.5 -145.5t-176 -80t-223.5 -24.5h-139v-346h-330zM463 592h131q111 0 164 58.5t53 166.5q0 115 -46 170t-171 55h-131v-450z" />
<glyph unicode="&#xdf;" horiz-adv-x="1318" d="M133 0v1028q0 109 27.5 197t88 149.5t156 95t232.5 33.5q240 0 346.5 -77.5t106.5 -200.5q0 -82 -31 -136.5t-69 -96.5t-68.5 -81t-30.5 -90q0 -37 25.5 -62.5t64.5 -51t83 -55t83 -72.5t64.5 -105.5t25.5 -152.5q0 -74 -23.5 -139.5t-75 -115t-130 -77t-191.5 -27.5 q-39 0 -78 7t-74.5 17.5t-64.5 21.5t-47 22l74 188q41 -18 76.5 -32.5t82.5 -14.5q51 0 83 11.5t50.5 30.5t24.5 46t6 55q0 51 -24.5 83t-62.5 58.5t-81 51t-80.5 59.5t-62.5 84t-25 125q0 68 29 112t63.5 82t63.5 79t29 104q0 137 -162 137q-61 0 -98 -17.5t-57.5 -53 t-28 -90t-7.5 -125.5v-1004h-313z" />
<glyph unicode="&#xe0;" horiz-adv-x="1062" d="M72 297q0 188 113.5 267t342.5 79h131v39q0 84 -34.5 130t-122.5 46q-92 0 -165 -16.5t-138 -44.5l-80 198q86 41 201.5 64.5t218.5 23.5q117 0 195.5 -23.5t126.5 -76.5t68.5 -137t20.5 -207v-416l68 -143l-240 -117l-92 135q-78 -68 -146.5 -101.5t-148.5 -33.5 q-152 0 -235.5 88t-83.5 246zM254 1530l213 151l243 -393l-141 -102zM365 326q0 -78 34 -108t97 -30q41 0 88 22.5t75 51.5v205h-131q-78 0 -120.5 -26.5t-42.5 -114.5z" />
<glyph unicode="&#xe1;" horiz-adv-x="1062" d="M72 297q0 188 113.5 267t342.5 79h131v39q0 84 -34.5 130t-122.5 46q-92 0 -165 -16.5t-138 -44.5l-80 198q86 41 201.5 64.5t218.5 23.5q117 0 195.5 -23.5t126.5 -76.5t68.5 -137t20.5 -207v-416l68 -143l-240 -117l-92 135q-78 -68 -146.5 -101.5t-148.5 -33.5 q-152 0 -235.5 88t-83.5 246zM365 326q0 -78 34 -108t97 -30q41 0 88 22.5t75 51.5v205h-131q-78 0 -120.5 -26.5t-42.5 -114.5zM367 1288l243 393l213 -151l-315 -344z" />
<glyph unicode="&#xe2;" horiz-adv-x="1062" d="M72 297q0 188 113.5 267t342.5 79h131v39q0 84 -34.5 130t-122.5 46q-92 0 -165 -16.5t-138 -44.5l-80 198q86 41 201.5 64.5t218.5 23.5q117 0 195.5 -23.5t126.5 -76.5t68.5 -137t20.5 -207v-416l68 -143l-240 -117l-92 135q-78 -68 -146.5 -101.5t-148.5 -33.5 q-152 0 -235.5 88t-83.5 246zM182 1268l241 362h215l242 -362l-141 -90l-209 235l-207 -235zM365 326q0 -78 34 -108t97 -30q41 0 88 22.5t75 51.5v205h-131q-78 0 -120.5 -26.5t-42.5 -114.5z" />
<glyph unicode="&#xe3;" horiz-adv-x="1062" d="M72 297q0 188 113.5 267t342.5 79h131v39q0 84 -34.5 130t-122.5 46q-92 0 -165 -16.5t-138 -44.5l-80 198q86 41 201.5 64.5t218.5 23.5q117 0 195.5 -23.5t126.5 -76.5t68.5 -137t20.5 -207v-416l68 -143l-240 -117l-92 135q-78 -68 -146.5 -101.5t-148.5 -33.5 q-152 0 -235.5 88t-83.5 246zM140 1227q0 143 57 233t162 90q47 0 94 -15t92 -38q35 -16 72 -30.5t65 -14.5q41 0 57.5 24.5t20.5 79.5h174q0 -143 -57.5 -233t-161.5 -90q-47 0 -94 15.5t-92 37.5q-35 16 -72 30.5t-65 14.5q-41 0 -57.5 -24.5t-20.5 -79.5h-174zM365 326 q0 -78 34 -108t97 -30q41 0 88 22.5t75 51.5v205h-131q-78 0 -120.5 -26.5t-42.5 -114.5z" />
<glyph unicode="&#xe4;" horiz-adv-x="1062" d="M72 297q0 188 113.5 267t342.5 79h131v39q0 84 -34.5 130t-122.5 46q-92 0 -165 -16.5t-138 -44.5l-80 198q86 41 201.5 64.5t218.5 23.5q117 0 195.5 -23.5t126.5 -76.5t68.5 -137t20.5 -207v-416l68 -143l-240 -117l-92 135q-78 -68 -146.5 -101.5t-148.5 -33.5 q-152 0 -235.5 88t-83.5 246zM143 1384q0 72 40 119t118 47t119 -47t41 -119t-41 -116.5t-119 -44.5t-118 45t-40 116zM365 326q0 -78 34 -108t97 -30q41 0 88 22.5t75 51.5v205h-131q-78 0 -120.5 -26.5t-42.5 -114.5zM616 1384q0 72 40 119t118 47q80 0 120 -47t40 -119 t-40 -116.5t-120 -44.5q-78 0 -118 45t-40 116z" />
<glyph unicode="&#xe5;" horiz-adv-x="1062" d="M72 297q0 188 113.5 267t342.5 79h131v39q0 84 -34.5 130t-122.5 46q-92 0 -165 -16.5t-138 -44.5l-80 198q86 41 201.5 64.5t218.5 23.5q117 0 195.5 -23.5t126.5 -76.5t68.5 -137t20.5 -207v-416l68 -143l-240 -117l-92 135q-78 -68 -146.5 -101.5t-148.5 -33.5 q-152 0 -235.5 88t-83.5 246zM267 1460q0 55 21.5 104.5t58 86.5t86 58.5t104.5 21.5t104.5 -21.5t86 -58.5t58 -86t21.5 -105q0 -55 -21.5 -104t-58 -86t-86 -58.5t-104.5 -21.5t-104.5 21.5t-86 58.5t-58 86t-21.5 104zM365 326q0 -78 34 -108t97 -30q41 0 88 22.5 t75 51.5v205h-131q-78 0 -120.5 -26.5t-42.5 -114.5zM422 1460q0 -47 33 -82t82 -35t82 35t33 82t-34 82t-81 35t-81 -35t-34 -82z" />
<glyph unicode="&#xe6;" horiz-adv-x="1673" d="M72 297q0 188 113.5 264t342.5 76h131v45q0 84 -34.5 130t-122.5 46q-92 0 -165 -16.5t-138 -44.5l-80 198q86 41 201.5 64.5t218.5 23.5q131 0 204.5 -30.5t110.5 -83.5q63 55 130 84.5t157 29.5q119 0 204 -37.5t140 -109.5t80.5 -176.5t25.5 -237.5l-59 -71h-574 q4 -135 67 -199t161 -64q86 0 152.5 13.5t134.5 48.5l92 -195q-96 -55 -197.5 -73.5t-222.5 -18.5q-76 0 -133.5 10.5t-102.5 30t-79.5 51t-65.5 74.5q-33 -31 -71 -61.5t-83 -53t-99 -37t-120 -14.5q-152 0 -235.5 88t-83.5 246zM365 326q0 -78 34 -108t97 -30q53 0 105 31 t81 60q-20 82 -23 172h-114q-35 0 -68 -3.5t-57.5 -15.5t-39.5 -37.5t-15 -68.5zM950 637h340q0 117 -40 169t-117 52q-41 0 -73 -9t-54.5 -33.5t-36 -67.5t-19.5 -111z" />
<glyph unicode="&#xe7;" horiz-adv-x="978" d="M82 520q0 268 136 415.5t388 147.5q100 0 173 -18t145 -59l-93 -201q-41 23 -88 38t-125 15q-104 0 -163.5 -79t-59.5 -259q0 -174 56.5 -253t162.5 -79q72 0 125.5 14.5t106.5 41.5l92 -195q-70 -41 -146.5 -60.5t-164.5 -23.5l-17 -69q37 -4 72 -15.5t62.5 -32 t45 -52.5t17.5 -77q0 -92 -62.5 -155.5t-209.5 -63.5q-29 0 -64 5.5t-69.5 14.5t-68.5 22.5t-59 27.5l68 135q39 -23 75 -37t83 -14q92 0 92 63q0 49 -44 61.5t-122 12.5l47 178q-213 27 -302 166t-89 385z" />
<glyph unicode="&#xe8;" horiz-adv-x="1110" d="M82 520q0 125 31.5 228.5t93 178t155 115.5t216.5 41q119 0 203.5 -38.5t140 -112.5t81 -180.5t25.5 -239.5l-80 -88h-553q14 -127 72 -181.5t156 -54.5q86 0 152.5 13.5t133.5 48.5l92 -195q-96 -55 -197.5 -73.5t-221.5 -18.5q-268 0 -384 143.5t-116 413.5zM314 1530 l213 151l243 -393l-141 -102zM395 627h340q0 231 -157 231q-82 0 -127 -48t-56 -183z" />
<glyph unicode="&#xe9;" horiz-adv-x="1110" d="M82 520q0 125 31.5 228.5t93 178t155 115.5t216.5 41q119 0 203.5 -38.5t140 -112.5t81 -180.5t25.5 -239.5l-80 -88h-553q14 -127 72 -181.5t156 -54.5q86 0 152.5 13.5t133.5 48.5l92 -195q-96 -55 -197.5 -73.5t-221.5 -18.5q-268 0 -384 143.5t-116 413.5zM395 627 h340q0 231 -157 231q-82 0 -127 -48t-56 -183zM404 1288l243 393l213 -151l-315 -344z" />
<glyph unicode="&#xea;" horiz-adv-x="1110" d="M82 520q0 125 31.5 228.5t93 178t155 115.5t216.5 41q119 0 203.5 -38.5t140 -112.5t81 -180.5t25.5 -239.5l-80 -88h-553q14 -127 72 -181.5t156 -54.5q86 0 152.5 13.5t133.5 48.5l92 -195q-96 -55 -197.5 -73.5t-221.5 -18.5q-268 0 -384 143.5t-116 413.5zM221 1268 l241 362h215l242 -362l-141 -90l-209 235l-207 -235zM395 627h340q0 231 -157 231q-82 0 -127 -48t-56 -183z" />
<glyph unicode="&#xeb;" horiz-adv-x="1110" d="M82 520q0 125 31.5 228.5t93 178t155 115.5t216.5 41q119 0 203.5 -38.5t140 -112.5t81 -180.5t25.5 -239.5l-80 -88h-553q14 -127 72 -181.5t156 -54.5q86 0 152.5 13.5t133.5 48.5l92 -195q-96 -55 -197.5 -73.5t-221.5 -18.5q-268 0 -384 143.5t-116 413.5zM180 1384 q0 72 40 119t118 47t119 -47t41 -119t-41 -116.5t-119 -44.5t-118 45t-40 116zM395 627h340q0 231 -157 231q-82 0 -127 -48t-56 -183zM653 1384q0 72 40 119t118 47q80 0 120 -47t40 -119t-40 -116.5t-120 -44.5q-78 0 -118 45t-40 116z" />
<glyph unicode="&#xec;" horiz-adv-x="600" d="M2 1530l213 151l243 -393l-141 -102zM25 838v209h442v-1047h-313v838h-129z" />
<glyph unicode="&#xed;" horiz-adv-x="600" d="M25 838v209h442v-1047h-313v838h-129zM107 1288l243 393l213 -151l-315 -344z" />
<glyph unicode="&#xee;" horiz-adv-x="600" d="M-90 1268l241 362h215l242 -362l-141 -90l-209 235l-207 -235zM25 838v209h442v-1047h-313v838h-129z" />
<glyph unicode="&#xef;" horiz-adv-x="600" d="M-115 1384q0 72 40 119t118 47t119 -47t41 -119t-41 -116.5t-119 -44.5t-118 45t-40 116zM25 838v209h442v-1047h-313v838h-129zM358 1384q0 72 40 119t118 47q80 0 120 -47t40 -119t-40 -116.5t-120 -44.5q-78 0 -118 45t-40 116z" />
<glyph unicode="&#xf0;" horiz-adv-x="1216" d="M109 459q0 106 29.5 193t85 149.5t133 96.5t175.5 34q74 0 132.5 -19.5t109.5 -48.5q-16 96 -50 166t-85 121l-160 -119l-110 137l114 86q-84 37 -190 60l84 211q182 -39 317 -115l180 135l113 -135l-139 -104q145 -125 208.5 -296t63.5 -372q0 -324 -118.5 -500 t-380.5 -176q-256 0 -384 126t-128 370zM444 459q0 -61 6.5 -111.5t24 -85.5t49 -54.5t80.5 -19.5q57 0 91 31t52.5 82t23.5 113.5t5 128.5v52t-2 50q-23 16 -60.5 39t-103.5 23q-74 0 -120 -54.5t-46 -193.5z" />
<glyph unicode="&#xf1;" horiz-adv-x="1212" d="M72 973l239 114l107 -149q84 76 157.5 110.5t165.5 34.5q109 0 176.5 -31.5t106.5 -90t52.5 -138.5t13.5 -174v-649h-314v604q0 121 -28.5 174t-120.5 53q-106 0 -181 -98v-733h-313v817zM232 1227q0 143 57 233t162 90q47 0 94 -15t92 -38q35 -16 72 -30.5t65 -14.5 q41 0 57.5 24.5t20.5 79.5h174q0 -143 -57.5 -233t-161.5 -90q-47 0 -94 15.5t-92 37.5q-35 16 -72 30.5t-65 14.5q-41 0 -57.5 -24.5t-20.5 -79.5h-174z" />
<glyph unicode="&#xf2;" horiz-adv-x="1165" d="M82 520q0 129 32.5 233.5t96 178.5t159 112.5t220.5 38.5q254 0 373.5 -143t119.5 -412q0 -131 -30.5 -235.5t-94 -178t-160 -112.5t-225.5 -39q-137 0 -230 40t-151.5 113.5t-84 176t-25.5 227.5zM334 1530l213 151l243 -393l-141 -102zM395 520q0 -174 45.5 -253 t143.5 -79q94 0 139 76t45 258q0 176 -40 256t-138 80q-96 0 -145.5 -76.5t-49.5 -261.5z" />
<glyph unicode="&#xf3;" horiz-adv-x="1165" d="M82 520q0 129 32.5 233.5t96 178.5t159 112.5t220.5 38.5q254 0 373.5 -143t119.5 -412q0 -131 -30.5 -235.5t-94 -178t-160 -112.5t-225.5 -39q-137 0 -230 40t-151.5 113.5t-84 176t-25.5 227.5zM395 520q0 -174 45.5 -253t143.5 -79q94 0 139 76t45 258q0 176 -40 256 t-138 80q-96 0 -145.5 -76.5t-49.5 -261.5zM416 1288l243 393l213 -151l-315 -344z" />
<glyph unicode="&#xf4;" horiz-adv-x="1165" d="M82 520q0 129 32.5 233.5t96 178.5t159 112.5t220.5 38.5q254 0 373.5 -143t119.5 -412q0 -131 -30.5 -235.5t-94 -178t-160 -112.5t-225.5 -39q-137 0 -230 40t-151.5 113.5t-84 176t-25.5 227.5zM242 1268l241 362h215l242 -362l-141 -90l-209 235l-207 -235zM395 520 q0 -174 45.5 -253t143.5 -79q94 0 139 76t45 258q0 176 -40 256t-138 80q-96 0 -145.5 -76.5t-49.5 -261.5z" />
<glyph unicode="&#xf5;" horiz-adv-x="1165" d="M82 520q0 129 32.5 233.5t96 178.5t159 112.5t220.5 38.5q254 0 373.5 -143t119.5 -412q0 -131 -30.5 -235.5t-94 -178t-160 -112.5t-225.5 -39q-137 0 -230 40t-151.5 113.5t-84 176t-25.5 227.5zM193 1227q0 143 57 233t162 90q47 0 94 -15t92 -38q35 -16 72 -30.5 t65 -14.5q41 0 57.5 24.5t20.5 79.5h174q0 -143 -57.5 -233t-161.5 -90q-47 0 -94 15.5t-92 37.5q-35 16 -72 30.5t-65 14.5q-41 0 -57.5 -24.5t-20.5 -79.5h-174zM395 520q0 -174 45.5 -253t143.5 -79q94 0 139 76t45 258q0 176 -40 256t-138 80q-96 0 -145.5 -76.5 t-49.5 -261.5z" />
<glyph unicode="&#xf6;" horiz-adv-x="1165" d="M82 520q0 129 32.5 233.5t96 178.5t159 112.5t220.5 38.5q254 0 373.5 -143t119.5 -412q0 -131 -30.5 -235.5t-94 -178t-160 -112.5t-225.5 -39q-137 0 -230 40t-151.5 113.5t-84 176t-25.5 227.5zM192 1384q0 72 40 119t118 47t119 -47t41 -119t-41 -116.5t-119 -44.5 t-118 45t-40 116zM395 520q0 -174 45.5 -253t143.5 -79q94 0 139 76t45 258q0 176 -40 256t-138 80q-96 0 -145.5 -76.5t-49.5 -261.5zM665 1384q0 72 40 119t118 47q80 0 120 -47t40 -119t-40 -116.5t-120 -44.5q-78 0 -118 45t-40 116z" />
<glyph unicode="&#xf7;" horiz-adv-x="1216" d="M137 573v246h942v-246h-942zM455 319q0 66 38.5 112t112.5 46q76 0 115 -46t39 -112q0 -68 -39 -111.5t-115 -43.5q-74 0 -112.5 44t-38.5 111zM455 1071q0 66 38.5 112t112.5 46q76 0 115 -46t39 -112q0 -68 -39 -112t-115 -44q-74 0 -112.5 44.5t-38.5 111.5z" />
<glyph unicode="&#xf8;" horiz-adv-x="1165" d="M82 -213l154 281q-84 74 -119 189.5t-35 262.5q0 129 32.5 233.5t96 178.5t159 112.5t220.5 38.5q109 0 188 -26l86 155h203l-133 -243q150 -137 149 -441q0 -131 -30.5 -235.5t-94 -178t-160 -112.5t-225.5 -39q-100 0 -180 23l-108 -199h-203zM395 520q0 -41 2 -76.5 t9 -66.5l256 467q-16 6 -34 10t-38 4q-96 0 -145.5 -77t-49.5 -261zM512 201q31 -13 72 -13q94 0 139 76t45 258q0 74 -6 133z" />
<glyph unicode="&#xf9;" horiz-adv-x="1196" d="M123 360v687h313v-629q0 -117 31 -162t115 -45q49 0 93 18.5t68 46.5v771h314v-822l67 -145l-252 -123l-94 129q-76 -68 -149.5 -95.5t-147.5 -27.5q-195 0 -276.5 100.5t-81.5 296.5zM322 1530l213 151l243 -393l-141 -102z" />
<glyph unicode="&#xfa;" horiz-adv-x="1196" d="M123 360v687h313v-629q0 -117 31 -162t115 -45q49 0 93 18.5t68 46.5v771h314v-822l67 -145l-252 -123l-94 129q-76 -68 -149.5 -95.5t-147.5 -27.5q-195 0 -276.5 100.5t-81.5 296.5zM441 1288l243 393l213 -151l-315 -344z" />
<glyph unicode="&#xfb;" horiz-adv-x="1196" d="M123 360v687h313v-629q0 -117 31 -162t115 -45q49 0 93 18.5t68 46.5v771h314v-822l67 -145l-252 -123l-94 129q-76 -68 -149.5 -95.5t-147.5 -27.5q-195 0 -276.5 100.5t-81.5 296.5zM240 1268l241 362h215l242 -362l-141 -90l-209 235l-207 -235z" />
<glyph unicode="&#xfc;" horiz-adv-x="1196" d="M123 360v687h313v-629q0 -117 31 -162t115 -45q49 0 93 18.5t68 46.5v771h314v-822l67 -145l-252 -123l-94 129q-76 -68 -149.5 -95.5t-147.5 -27.5q-195 0 -276.5 100.5t-81.5 296.5zM202 1384q0 72 40 119t118 47t119 -47t41 -119t-41 -116.5t-119 -44.5t-118 45 t-40 116zM675 1384q0 72 40 119t118 47q80 0 120 -47t40 -119t-40 -116.5t-120 -44.5q-78 0 -118 45t-40 116z" />
<glyph unicode="&#xfd;" horiz-adv-x="1114" d="M20 1022l326 55l170 -760q8 -35 19.5 -56t44.5 -21h34l179 837l301 -59l-285 -1114q-18 -72 -46 -137.5t-75 -116.5t-123 -81t-188 -30q-92 0 -171 14.5t-169 59.5l94 211q125 -59 221 -60q88 0 132 47.5t67 145.5l12 55h-49q-70 0 -117 14.5t-78.5 43t-51 68.5t-34.5 93 zM465 1288l243 393l213 -151l-315 -344z" />
<glyph unicode="&#xfe;" horiz-adv-x="1210" d="M123 -446v1953h313v-542q53 51 124 84.5t153 33.5q205 0 305 -146t100 -417q0 -129 -34.5 -232.5t-100 -175t-160 -110.5t-215.5 -39q-41 0 -87 7t-85 18v-434h-313zM436 217q29 -12 62.5 -20.5t74.5 -8.5q111 0 170.5 84t59.5 250q0 76 -7.5 138.5t-27.5 106.5t-55 67.5 t-92 23.5q-53 0 -101.5 -32.5t-83.5 -80.5v-528z" />
<glyph unicode="&#xff;" horiz-adv-x="1114" d="M20 1022l326 55l170 -760q8 -35 19.5 -56t44.5 -21h34l179 837l301 -59l-285 -1114q-18 -72 -46 -137.5t-75 -116.5t-123 -81t-188 -30q-92 0 -171 14.5t-169 59.5l94 211q125 -59 221 -60q88 0 132 47.5t67 145.5l12 55h-49q-70 0 -117 14.5t-78.5 43t-51 68.5t-34.5 93 zM178 1384q0 72 40 119t118 47t119 -47t41 -119t-41 -116.5t-119 -44.5t-118 45t-40 116zM651 1384q0 72 40 119t118 47q80 0 120 -47t40 -119t-40 -116.5t-120 -44.5q-78 0 -118 45t-40 116z" />
<glyph unicode="&#x100;" horiz-adv-x="1380" d="M20 14l322 1145q23 78 50.5 141.5t68.5 107.5t98 68.5t137 24.5q82 0 141.5 -16.5t101.5 -55t71.5 -103t54.5 -161.5l295 -1161l-330 -33l-104 424h-480l-112 -428zM342 1628v223h712v-223h-712zM514 662h350l-110 468q-10 41 -21.5 61.5t-36.5 20.5q-29 0 -42 -19 t-23 -60z" />
<glyph unicode="&#x101;" horiz-adv-x="1062" d="M72 297q0 188 113.5 267t342.5 79h131v39q0 84 -34.5 130t-122.5 46q-92 0 -165 -16.5t-138 -44.5l-80 198q86 41 201.5 64.5t218.5 23.5q117 0 195.5 -23.5t126.5 -76.5t68.5 -137t20.5 -207v-416l68 -143l-240 -117l-92 135q-78 -68 -146.5 -101.5t-148.5 -33.5 q-152 0 -235.5 88t-83.5 246zM160 1260v223h712v-223h-712zM365 326q0 -78 34 -108t97 -30q41 0 88 22.5t75 51.5v205h-131q-78 0 -120.5 -26.5t-42.5 -114.5z" />
<glyph unicode="&#x102;" horiz-adv-x="1380" d="M20 14l322 1145q23 78 50.5 141.5t68.5 107.5t98 68.5t137 24.5q82 0 141.5 -16.5t101.5 -55t71.5 -103t54.5 -161.5l295 -1161l-330 -33l-104 424h-480l-112 -428zM334 1864l172 59q29 -59 67.5 -88t112.5 -29t113 29t67 88l172 -59q-23 -76 -60.5 -125t-83.5 -79 t-99.5 -42t-108.5 -12t-108.5 12t-99.5 42t-84 79t-60 125zM514 662h350l-110 468q-10 41 -21.5 61.5t-36.5 20.5q-29 0 -42 -19t-23 -60z" />
<glyph unicode="&#x103;" horiz-adv-x="1062" d="M72 297q0 188 113.5 267t342.5 79h131v39q0 84 -34.5 130t-122.5 46q-92 0 -165 -16.5t-138 -44.5l-80 198q86 41 201.5 64.5t218.5 23.5q117 0 195.5 -23.5t126.5 -76.5t68.5 -137t20.5 -207v-416l68 -143l-240 -117l-92 135q-78 -68 -146.5 -101.5t-148.5 -33.5 q-152 0 -235.5 88t-83.5 246zM178 1468l172 60q29 -59 67.5 -88t112.5 -29t113 28.5t67 88.5l172 -60q-23 -76 -60.5 -125t-83.5 -78.5t-99.5 -42t-108.5 -12.5t-108.5 12.5t-99.5 42t-84 79t-60 124.5zM365 326q0 -78 34 -108t97 -30q41 0 88 22.5t75 51.5v205h-131 q-78 0 -120.5 -26.5t-42.5 -114.5z" />
<glyph unicode="&#x104;" horiz-adv-x="1380" d="M20 14l322 1145q23 78 50.5 141.5t68.5 107.5t98 68.5t137 24.5q82 0 141.5 -16.5t101.5 -55t71.5 -103t54.5 -161.5l295 -1161q-27 -23 -58.5 -49.5t-59.5 -56t-46 -60.5t-18 -61q0 -49 35.5 -66.5t117.5 -32.5l-49 -149q-190 18 -284.5 63.5t-94.5 137.5 q0 31 10.5 60.5t28.5 62.5q18 31 42 61.5t46 56.5l-104 424h-480l-112 -428zM514 662h350l-110 468q-10 41 -21.5 61.5t-36.5 20.5q-29 0 -42 -19t-23 -60z" />
<glyph unicode="&#x105;" horiz-adv-x="1062" d="M72 297q0 188 113.5 267t342.5 79h131v39q0 84 -34.5 130t-122.5 46q-92 0 -165 -16.5t-138 -44.5l-80 198q86 41 201.5 64.5t218.5 23.5q117 0 195.5 -23.5t126.5 -76.5t68.5 -137t20.5 -207v-416l68 -143q-18 -20 -50 -58t-63 -82t-53.5 -87t-22.5 -76q0 -49 43 -66.5 t125 -32.5l-49 -149q-195 18 -289 65.5t-90 143.5q2 57 39 115q33 51 65 90t66 77l-53 78q-78 -68 -146.5 -101.5t-148.5 -33.5q-152 0 -235.5 88t-83.5 246zM365 326q0 -78 34 -108t97 -30q41 0 88 22.5t75 51.5v205h-131q-78 0 -120.5 -26.5t-42.5 -114.5z" />
<glyph unicode="&#x106;" horiz-adv-x="1247" d="M102 729q0 377 172 577.5t494 200.5q72 0 130 -9t109.5 -25.5t96.5 -40t90 -50.5l-121 -213q-76 51 -148.5 71t-144.5 20q-82 0 -144.5 -29t-104.5 -91.5t-63.5 -164t-21.5 -246.5q0 -268 86 -389t248 -121q82 0 163 24.5t167 78.5l117 -216q-115 -76 -234 -109.5 t-239 -33.5q-340 0 -496 187.5t-156 578.5zM539 1690l354 346l176 -201l-416 -285z" />
<glyph unicode="&#x107;" horiz-adv-x="978" d="M82 520q0 268 136 415.5t388 147.5q100 0 173 -18t145 -59l-93 -201q-41 23 -88 38t-125 15q-104 0 -163.5 -79t-59.5 -259q0 -174 56.5 -253t162.5 -79q72 0 125.5 14.5t106.5 41.5l92 -195q-80 -47 -170 -66.5t-195 -19.5q-135 0 -228 36t-151.5 106.5t-85 175 t-26.5 239.5zM424 1288l243 393l213 -151l-315 -344z" />
<glyph unicode="&#x108;" horiz-adv-x="1247" d="M102 729q0 377 172 577.5t494 200.5q72 0 130 -9t109.5 -25.5t96.5 -40t90 -50.5l-121 -213q-76 51 -148.5 71t-144.5 20q-82 0 -144.5 -29t-104.5 -91.5t-63.5 -164t-21.5 -246.5q0 -268 86 -389t248 -121q82 0 163 24.5t167 78.5l117 -216q-115 -76 -234 -109.5 t-239 -33.5q-340 0 -496 187.5t-156 578.5zM432 1669l219 281h244l219 -281l-133 -110l-209 192l-207 -192z" />
<glyph unicode="&#x109;" horiz-adv-x="978" d="M82 520q0 268 136 415.5t388 147.5q100 0 173 -18t145 -59l-93 -201q-41 23 -88 38t-125 15q-104 0 -163.5 -79t-59.5 -259q0 -174 56.5 -253t162.5 -79q72 0 125.5 14.5t106.5 41.5l92 -195q-80 -47 -170 -66.5t-195 -19.5q-135 0 -228 36t-151.5 106.5t-85 175 t-26.5 239.5zM234 1268l241 362h215l242 -362l-141 -90l-209 235l-207 -235z" />
<glyph unicode="&#x10a;" horiz-adv-x="1247" d="M102 729q0 377 172 577.5t494 200.5q72 0 130 -9t109.5 -25.5t96.5 -40t90 -50.5l-121 -213q-76 51 -148.5 71t-144.5 20q-82 0 -144.5 -29t-104.5 -91.5t-63.5 -164t-21.5 -246.5q0 -268 86 -389t248 -121q82 0 163 24.5t167 78.5l117 -216q-115 -76 -234 -109.5 t-239 -33.5q-340 0 -496 187.5t-156 578.5zM612 1765q0 74 40 124t126 50t127 -50t41 -124t-41 -122t-127 -48t-126 48.5t-40 121.5z" />
<glyph unicode="&#x10b;" horiz-adv-x="978" d="M82 520q0 268 136 415.5t388 147.5q100 0 173 -18t145 -59l-93 -201q-41 23 -88 38t-125 15q-104 0 -163.5 -79t-59.5 -259q0 -174 56.5 -253t162.5 -79q72 0 125.5 14.5t106.5 41.5l92 -195q-80 -47 -170 -66.5t-195 -19.5q-135 0 -228 36t-151.5 106.5t-85 175 t-26.5 239.5zM424 1376q0 72 40 119t118 47q80 0 120 -47t40 -119t-40 -117t-120 -45q-78 0 -118 45.5t-40 116.5z" />
<glyph unicode="&#x10c;" horiz-adv-x="1247" d="M102 729q0 377 172 577.5t494 200.5q72 0 130 -9t109.5 -25.5t96.5 -40t90 -50.5l-121 -213q-76 51 -148.5 71t-144.5 20q-82 0 -144.5 -29t-104.5 -91.5t-63.5 -164t-21.5 -246.5q0 -268 86 -389t248 -121q82 0 163 24.5t167 78.5l117 -216q-115 -76 -234 -109.5 t-239 -33.5q-340 0 -496 187.5t-156 578.5zM436 1860l137 110l209 -192l207 192l129 -110l-219 -281h-244z" />
<glyph unicode="&#x10d;" horiz-adv-x="983" d="M82 520q0 268 136 415.5t388 147.5q100 0 173 -18t145 -59l-93 -201q-41 23 -88 38t-125 15q-104 0 -163.5 -79t-59.5 -259q0 -174 56.5 -253t162.5 -79q72 0 125.5 14.5t106.5 41.5l92 -195q-80 -47 -170 -66.5t-195 -19.5q-135 0 -228 36t-151.5 106.5t-85 175 t-26.5 239.5zM244 1561l147 90l209 -236l207 236l135 -90l-242 -363h-215z" />
<glyph unicode="&#x10e;" horiz-adv-x="1441" d="M143 0v1477h559q332 0 484.5 -182.5t152.5 -567.5q0 -373 -159.5 -550t-493.5 -177h-543zM283 1860l137 110l209 -192l207 192l129 -110l-219 -281h-244zM473 250h195q82 0 143 21.5t102 76.5t61.5 148.5t20.5 236.5q0 137 -18.5 232.5t-57 153t-99 83t-142.5 25.5h-205 v-977z" />
<glyph unicode="&#x10f;" horiz-adv-x="1449" d="M82 526q0 127 32.5 229.5t97 175.5t159 112.5t217.5 39.5q41 0 84 -8t84 -22v454h313v-1302l59 -131l-243 -115l-94 139q-68 -61 -142 -98t-166 -37q-205 0 -303 146.5t-98 416.5zM397 524q0 -188 47.5 -262t128.5 -74q63 0 107.5 36t75.5 75v530q-33 14 -63.5 21.5 t-69.5 7.5q-113 0 -169.5 -75.5t-56.5 -258.5zM1225 1035v473h246l-78 -473h-168z" />
<glyph unicode="&#x110;" horiz-adv-x="1486" d="M10 618v246h178v613h560q332 0 484 -182.5t152 -567.5q0 -373 -159.5 -550t-493.5 -177h-543v618h-178zM518 250h195q82 0 143.5 21.5t102 76.5t61 148.5t20.5 236.5q0 137 -18 232.5t-57 153t-99.5 83t-142.5 25.5h-205v-363h307v-246h-307v-368z" />
<glyph unicode="&#x111;" horiz-adv-x="1241" d="M82 506q0 113 32.5 211t97 169.5t159 113.5t217.5 42q41 0 84 -8t84 -22v145h-310v221h310v129h313v-129h141v-221h-141v-952l59 -131l-243 -115l-94 139q-68 -61 -142 -98t-166 -37q-102 0 -178 38t-125 108.5t-73.5 171t-24.5 225.5zM397 504q0 -170 47.5 -243 t128.5 -73q63 0 107.5 36t75.5 75v489q-33 14 -63.5 21.5t-69.5 7.5q-225 0 -226 -313z" />
<glyph unicode="&#x112;" horiz-adv-x="1161" d="M143 0v1477h957v-256h-627v-338h465v-262h-465v-365h647v-256h-977zM267 1628v223h712v-223h-712z" />
<glyph unicode="&#x113;" horiz-adv-x="1110" d="M82 520q0 125 31.5 228.5t93 178t155 115.5t216.5 41q119 0 203.5 -38.5t140 -112.5t81 -180.5t25.5 -239.5l-80 -88h-553q14 -127 72 -181.5t156 -54.5q86 0 152.5 13.5t133.5 48.5l92 -195q-96 -55 -197.5 -73.5t-221.5 -18.5q-268 0 -384 143.5t-116 413.5zM213 1260 v223h712v-223h-712zM395 627h340q0 231 -157 231q-82 0 -127 -48t-56 -183z" />
<glyph unicode="&#x114;" horiz-adv-x="1161" d="M143 0v1477h957v-256h-627v-338h465v-262h-465v-365h647v-256h-977zM277 1864l172 59q29 -59 67.5 -88t112.5 -29t113 29t67 88l172 -59q-23 -76 -60.5 -125t-83.5 -79t-99.5 -42t-108.5 -12t-108.5 12t-99.5 42t-84 79t-60 125z" />
<glyph unicode="&#x115;" horiz-adv-x="1110" d="M82 520q0 125 31.5 228.5t93 178t155 115.5t216.5 41q119 0 203.5 -38.5t140 -112.5t81 -180.5t25.5 -239.5l-80 -88h-553q14 -127 72 -181.5t156 -54.5q86 0 152.5 13.5t133.5 48.5l92 -195q-96 -55 -197.5 -73.5t-221.5 -18.5q-268 0 -384 143.5t-116 413.5zM221 1468 l172 60q29 -59 67.5 -88t112.5 -29t113 28.5t67 88.5l172 -60q-23 -76 -60.5 -125t-83.5 -78.5t-99.5 -42t-108.5 -12.5t-108.5 12.5t-99.5 42t-84 79t-60 124.5zM395 627h340q0 231 -157 231q-82 0 -127 -48t-56 -183z" />
<glyph unicode="&#x116;" horiz-adv-x="1161" d="M143 0v1477h957v-256h-627v-338h465v-262h-465v-365h647v-256h-977zM477 1765q0 74 40 124t126 50t127 -50t41 -124t-41 -122t-127 -48t-126 48.5t-40 121.5z" />
<glyph unicode="&#x117;" horiz-adv-x="1110" d="M82 520q0 125 31.5 228.5t93 178t155 115.5t216.5 41q119 0 203.5 -38.5t140 -112.5t81 -180.5t25.5 -239.5l-80 -88h-553q14 -127 72 -181.5t156 -54.5q86 0 152.5 13.5t133.5 48.5l92 -195q-96 -55 -197.5 -73.5t-221.5 -18.5q-268 0 -384 143.5t-116 413.5zM395 627 h340q0 231 -157 231q-82 0 -127 -48t-56 -183zM399 1376q0 72 40 119t118 47q80 0 120 -47t40 -119t-40 -117t-120 -45q-78 0 -118 45.5t-40 116.5z" />
<glyph unicode="&#x118;" horiz-adv-x="1161" d="M143 0v1477h957v-256h-627v-338h465v-262h-465v-365h647v-256h-129q-43 -53 -83 -115.5t-40 -107.5q0 -49 43 -66.5t125 -32.5l-49 -149q-195 18 -289 65.5t-90 143.5q2 57 39 115q29 45 56.5 79.5t56.5 67.5h-617z" />
<glyph unicode="&#x119;" horiz-adv-x="1120" d="M82 520q0 125 31.5 228.5t93 178t155 115.5t216.5 41q119 0 203.5 -38.5t140 -112.5t81 -180.5t25.5 -239.5l-80 -88h-553q14 -127 71.5 -181.5t156.5 -54.5q86 0 152.5 13.5t133.5 48.5l92 -195q-23 -25 -51 -61.5t-54 -74.5t-44 -76t-18 -66q0 -49 43 -66.5t124 -32.5 l-49 -149q-195 18 -289 65.5t-90 143.5q2 57 39 115q43 70 84 114q-29 -2 -57.5 -3t-56.5 -1q-268 0 -384 143.5t-116 413.5zM395 627h340q0 231 -157 231q-82 0 -127 -48t-56 -183z" />
<glyph unicode="&#x11a;" horiz-adv-x="1161" d="M143 0v1477h957v-256h-627v-338h465v-262h-465v-365h647v-256h-977zM299 1860l137 110l209 -192l207 192l129 -110l-219 -281h-244z" />
<glyph unicode="&#x11b;" horiz-adv-x="1110" d="M82 520q0 125 31.5 228.5t93 178t155 115.5t216.5 41q119 0 203.5 -38.5t140 -112.5t81 -180.5t25.5 -239.5l-80 -88h-553q14 -127 72 -181.5t156 -54.5q86 0 152.5 13.5t133.5 48.5l92 -195q-96 -55 -197.5 -73.5t-221.5 -18.5q-268 0 -384 143.5t-116 413.5zM217 1561 l147 90l209 -236l207 236l135 -90l-242 -363h-215zM395 627h340q0 231 -157 231q-82 0 -127 -48t-56 -183z" />
<glyph unicode="&#x11c;" horiz-adv-x="1388" d="M102 729q0 377 177.5 577.5t498.5 200.5q154 0 260.5 -37.5t186.5 -93.5l-121 -213q-66 51 -150 74t-163 23q-82 0 -146.5 -29t-110 -91.5t-69 -164t-23.5 -246.5q0 -274 79 -396t229 -122q61 0 123.5 9t111.5 32v311h-248v244h539v-705q-45 -27 -97.5 -52t-117 -44.5 t-144 -31t-180.5 -11.5q-172 0 -292.5 50t-196.5 146.5t-111 240t-35 329.5zM436 1669l219 281h244l219 -281l-133 -110l-209 192l-207 -192z" />
<glyph unicode="&#x11d;" horiz-adv-x="1193" d="M82 526q0 270 104.5 413.5t309.5 143.5q86 0 150.5 -29.5t129.5 -95.5l107 129l239 -114l-61 -156v-784q0 -244 -125 -369t-399 -125q-70 0 -123.5 3t-101.5 12.5t-95 27t-104 43.5l94 211q127 -72 295 -72q61 0 107 9.5t77 35t46.5 72.5t15.5 123v49q-53 -29 -120 -45 t-136 -16q-92 0 -168 30.5t-130.5 95t-83 166t-28.5 242.5zM234 1268l241 362h215l242 -362l-141 -90l-209 235l-207 -235zM397 522q0 -90 12.5 -149.5t36 -94t54 -48t67.5 -13.5q41 0 87 6t94 37v506q-27 41 -69 66.5t-91 25.5q-57 0 -94 -23.5t-58.5 -67.5t-30 -106.5 t-8.5 -138.5z" />
<glyph unicode="&#x11e;" horiz-adv-x="1388" d="M102 729q0 377 177.5 577.5t498.5 200.5q154 0 260.5 -37.5t186.5 -93.5l-121 -213q-66 51 -150 74t-163 23q-82 0 -146.5 -29t-110 -91.5t-69 -164t-23.5 -246.5q0 -274 79 -396t229 -122q61 0 123.5 9t111.5 32v311h-248v244h539v-705q-45 -27 -97.5 -52t-117 -44.5 t-144 -31t-180.5 -11.5q-172 0 -292.5 50t-196.5 146.5t-111 240t-35 329.5zM410 1864l172 59q29 -59 67.5 -88t112.5 -29t113 29t67 88l172 -59q-23 -76 -60.5 -125t-83.5 -79t-99.5 -42t-108.5 -12t-108.5 12t-99.5 42t-84 79t-60 125z" />
<glyph unicode="&#x11f;" horiz-adv-x="1193" d="M82 526q0 270 104.5 413.5t309.5 143.5q86 0 150.5 -29.5t129.5 -95.5l107 129l239 -114l-61 -156v-784q0 -244 -125 -369t-399 -125q-70 0 -123.5 3t-101.5 12.5t-95 27t-104 43.5l94 211q127 -72 295 -72q61 0 107 9.5t77 35t46.5 72.5t15.5 123v49q-53 -29 -120 -45 t-136 -16q-92 0 -168 30.5t-130.5 95t-83 166t-28.5 242.5zM250 1468l172 60q29 -59 67.5 -88t112.5 -29t113 28.5t67 88.5l172 -60q-23 -76 -60.5 -125t-83.5 -78.5t-99.5 -42t-108.5 -12.5t-108.5 12.5t-99.5 42t-84 79t-60 124.5zM397 522q0 -90 12.5 -149.5t36 -94 t54 -48t67.5 -13.5q41 0 87 6t94 37v506q-27 41 -69 66.5t-91 25.5q-57 0 -94 -23.5t-58.5 -67.5t-30 -106.5t-8.5 -138.5z" />
<glyph unicode="&#x120;" horiz-adv-x="1388" d="M102 729q0 377 177.5 577.5t498.5 200.5q154 0 260.5 -37.5t186.5 -93.5l-121 -213q-66 51 -150 74t-163 23q-82 0 -146.5 -29t-110 -91.5t-69 -164t-23.5 -246.5q0 -274 79 -396t229 -122q61 0 123.5 9t111.5 32v311h-248v244h539v-705q-45 -27 -97.5 -52t-117 -44.5 t-144 -31t-180.5 -11.5q-172 0 -292.5 50t-196.5 146.5t-111 240t-35 329.5zM610 1765q0 74 40 124t126 50t127 -50t41 -124t-41 -122t-127 -48t-126 48.5t-40 121.5z" />
<glyph unicode="&#x121;" horiz-adv-x="1193" d="M82 526q0 270 104.5 413.5t309.5 143.5q86 0 150.5 -29.5t129.5 -95.5l107 129l239 -114l-61 -156v-784q0 -244 -125 -369t-399 -125q-70 0 -123.5 3t-101.5 12.5t-95 27t-104 43.5l94 211q127 -72 295 -72q61 0 107 9.5t77 35t46.5 72.5t15.5 123v49q-53 -29 -120 -45 t-136 -16q-92 0 -168 30.5t-130.5 95t-83 166t-28.5 242.5zM397 522q0 -90 12.5 -149.5t36 -94t54 -48t67.5 -13.5q41 0 87 6t94 37v506q-27 41 -69 66.5t-91 25.5q-57 0 -94 -23.5t-58.5 -67.5t-30 -106.5t-8.5 -138.5zM444 1376q0 72 40 119t118 47q80 0 120 -47t40 -119 t-40 -117t-120 -45q-78 0 -118 45.5t-40 116.5z" />
<glyph unicode="&#x122;" horiz-adv-x="1388" d="M102 729q0 377 177.5 577.5t498.5 200.5q154 0 260.5 -37.5t186.5 -93.5l-121 -213q-66 51 -150 74t-163 23q-82 0 -146.5 -29t-110 -91.5t-69 -164t-23.5 -246.5q0 -274 79 -396t229 -122q61 0 123.5 9t111.5 32v311h-248v244h539v-705q-45 -27 -97.5 -52t-117 -44.5 t-144 -31t-180.5 -11.5q-172 0 -292.5 50t-196.5 146.5t-111 240t-35 329.5zM553 -598l76 457l282 -58l-174 -454z" />
<glyph unicode="&#x123;" horiz-adv-x="1193" d="M82 526q0 270 104.5 413.5t309.5 143.5q86 0 150.5 -29.5t129.5 -95.5l107 129l239 -114l-61 -156v-784q0 -244 -125 -369t-399 -125q-70 0 -123.5 3t-101.5 12.5t-95 27t-104 43.5l94 211q127 -72 295 -72q61 0 107 9.5t77 35t46.5 72.5t15.5 123v49q-53 -29 -120 -45 t-136 -16q-92 0 -168 30.5t-130.5 95t-83 166t-28.5 242.5zM397 522q0 -90 12.5 -149.5t36 -94t54 -48t67.5 -13.5q41 0 87 6t94 37v506q-27 41 -69 66.5t-91 25.5q-57 0 -94 -23.5t-58.5 -67.5t-30 -106.5t-8.5 -138.5zM432 1233l174 455l184 -56l-76 -456z" />
<glyph unicode="&#x124;" horiz-adv-x="1413" d="M143 0v1477h330v-592h467v592h330v-1477h-330v618h-467v-618h-330zM365 1669l219 281h244l219 -281l-133 -110l-209 192l-207 -192z" />
<glyph unicode="&#x125;" horiz-adv-x="1212" d="M133 0v1507h313v-551q76 61 139.5 94t155.5 33q109 0 176.5 -31.5t106.5 -90t52.5 -138.5t13.5 -174v-649h-314v604q0 121 -28.5 174t-120.5 53q-106 0 -181 -98v-733h-313zM168 1669l219 281h244l219 -281l-133 -110l-209 192l-207 -192z" />
<glyph unicode="&#x126;" horiz-adv-x="1515" d="M31 1059v246h164v172h329v-172h467v172h330v-172h164v-246h-164v-1059h-330v618h-467v-618h-329v1059h-164zM524 885h467v174h-467v-174z" />
<glyph unicode="&#x127;" horiz-adv-x="1230" d="M31 1157v221h121v129h313v-129h409v-221h-409v-242q76 61 139.5 94t155.5 33q109 0 176.5 -31.5t106 -90t52 -138.5t13.5 -174v-608h-313v563q0 121 -29 174.5t-121 53.5q-106 0 -180 -99v-692h-313v1157h-121z" />
<glyph unicode="&#x128;" horiz-adv-x="616" d="M-80 1596q0 143 57 233t162 90q47 0 94 -15t92 -38q35 -16 72 -30.5t65 -14.5q41 0 57.5 24.5t20.5 79.5h174q0 -143 -57.5 -233t-161.5 -90q-47 0 -94 15.5t-92 37.5q-35 16 -72 30.5t-65 14.5q-41 0 -57.5 -24.5t-20.5 -79.5h-174zM143 0v1477h330v-1477h-330z" />
<glyph unicode="&#x129;" horiz-adv-x="600" d="M-127 1227q0 143 57 233t162 90q47 0 94 -15t92 -38q35 -16 72 -30.5t65 -14.5q41 0 57.5 24.5t20.5 79.5h174q0 -143 -57.5 -233t-161.5 -90q-47 0 -94 15.5t-92 37.5q-35 16 -72 30.5t-65 14.5q-41 0 -57.5 -24.5t-20.5 -79.5h-174zM25 838v209h442v-1047h-313v838 h-129z" />
<glyph unicode="&#x12a;" horiz-adv-x="616" d="M-47 1628v223h712v-223h-712zM143 0v1477h330v-1477h-330z" />
<glyph unicode="&#x12b;" horiz-adv-x="600" d="M-86 1260v223h712v-223h-712zM25 838v209h442v-1047h-313v838h-129z" />
<glyph unicode="&#x12c;" horiz-adv-x="616" d="M-43 1864l172 59q29 -59 67.5 -88t112.5 -29t113 29t67 88l172 -59q-23 -76 -60.5 -125t-83.5 -79t-99.5 -42t-108.5 -12t-108.5 12t-99.5 42t-84 79t-60 125zM143 0v1477h330v-1477h-330z" />
<glyph unicode="&#x12d;" horiz-adv-x="600" d="M-61 1468l172 60q29 -59 67.5 -88t112.5 -29t113 28.5t67 88.5l172 -60q-23 -76 -60.5 -125t-83.5 -78.5t-99.5 -42t-108.5 -12.5t-108.5 12.5t-99.5 42t-84 79t-60 124.5zM25 838v209h442v-1047h-313v838h-129z" />
<glyph unicode="&#x12e;" horiz-adv-x="616" d="M-8 -262q0 31 10 58.5t29 56.5q29 45 56.5 79.5t55.5 67.5v1477h330v-1477q-102 -57 -161.5 -121.5t-59.5 -101.5q0 -49 43 -66.5t125 -32.5l-49 -149q-195 18 -287 65.5t-92 143.5z" />
<glyph unicode="&#x12f;" horiz-adv-x="600" d="M2 -262q0 31 10.5 58.5t28.5 56.5q29 45 56.5 79.5t56.5 67.5v838h-129v209h442v-1047q-41 -25 -78 -52.5t-65.5 -57t-45 -59.5t-16.5 -54q0 -49 43 -66.5t125 -32.5l-49 -149q-195 18 -287 65.5t-92 143.5zM111 1374q0 82 46 137.5t138 55.5t139 -55.5t47 -137.5 t-47 -135t-139 -53t-138 53t-46 135z" />
<glyph unicode="&#x130;" horiz-adv-x="616" d="M143 0v1477h330v-1477h-330zM143 1765q0 74 40 124t126 50t127 -50t41 -124t-41 -122t-127 -48t-126 48.5t-40 121.5z" />
<glyph unicode="&#x131;" horiz-adv-x="600" d="M25 838v209h442v-1047h-313v838h-129z" />
<glyph unicode="&#x132;" horiz-adv-x="1667" d="M143 0v1477h330v-1477h-330zM618 76l103 215q47 -27 118.5 -52.5t163.5 -25.5q102 0 146.5 58.5t44.5 181.5v1024h330v-1004q0 -131 -27 -227t-86.5 -158.5t-154.5 -93.5t-230 -31t-242.5 36t-165.5 77z" />
<glyph unicode="&#x133;" horiz-adv-x="1191" d="M25 838v209h442v-1047h-313v838h-129zM111 1374q0 82 46 137.5t138 55.5t139 -55.5t47 -137.5t-47 -135t-139 -53t-138 53t-46 135zM348 -393l80 196q39 -14 76 -26.5t86 -12.5q94 0 124 59.5t30 174.5v1049h315v-1086q0 -92 -20.5 -170t-68.5 -134t-128 -87t-201 -31 q-88 0 -160.5 18.5t-132.5 49.5zM715 1374q0 82 46 137.5t138 55.5t139.5 -55.5t47.5 -137.5t-47.5 -135t-139.5 -53t-138 53t-46 135z" />
<glyph unicode="&#x134;" horiz-adv-x="1060" d="M12 76l103 215q47 -27 118.5 -52.5t163.5 -25.5q102 0 146.5 58.5t44.5 181.5v1024h330v-1004q0 -131 -27 -227t-86.5 -158.5t-154.5 -93.5t-230 -31t-242.5 36t-165.5 77zM406 1669l219 281h244l219 -281l-133 -110l-209 192l-207 -192z" />
<glyph unicode="&#x135;" horiz-adv-x="602" d="M-242 -393l80 196q39 -14 76 -26.5t86 -12.5q94 0 123.5 59.5t29.5 174.5v1049h316v-1086q0 -92 -20.5 -170t-68.5 -134t-128 -87t-201 -31q-88 0 -161 18.5t-132 49.5zM-43 1268l241 362h215l242 -362l-141 -90l-209 235l-207 -235z" />
<glyph unicode="&#x136;" horiz-adv-x="1372" d="M143 0v1477h330v-592h76q51 0 79.5 24.5t57.5 69.5l305 524l312 -90l-388 -635l416 -735l-348 -70l-313 570q-12 20 -24.5 34.5t-28 23.5t-37 13t-54.5 4h-53v-618h-330zM494 -598l76 457l282 -58l-174 -454z" />
<glyph unicode="&#x137;" horiz-adv-x="1130" d="M133 0v1505h313v-819h21q31 0 49.5 16.5t34.5 38.5l254 342l280 -67l-315 -422l336 -545l-315 -74l-248 420q-23 39 -37 51.5t-43 12.5h-17v-459h-313zM422 -598l76 457l282 -58l-174 -454z" />
<glyph unicode="&#x138;" horiz-adv-x="1144" d="M133 0v1047h313v-406h21q31 0 49.5 16.5t34.5 38.5l254 387l280 -67l-311 -463l346 -504l-311 -74l-262 375q-23 33 -36 48.5t-42 15.5h-23v-414h-313z" />
<glyph unicode="&#x139;" horiz-adv-x="1150" d="M103 1690l354 346l176 -201l-416 -285zM143 0v1477h330v-1221h647v-256h-977z" />
<glyph unicode="&#x13a;" horiz-adv-x="579" d="M4 1298v209h442v-1507h-313v1298h-129zM31 1690l354 346l176 -201l-416 -285z" />
<glyph unicode="&#x13b;" horiz-adv-x="1150" d="M143 0v1477h330v-1221h647v-256h-977zM459 -598l76 457l282 -58l-174 -454z" />
<glyph unicode="&#x13c;" horiz-adv-x="579" d="M4 1298v209h442v-1507h-313v1298h-129zM78 -598l76 457l282 -58l-174 -454z" />
<glyph unicode="&#x13d;" horiz-adv-x="1150" d="M143 0v1477h330v-1221h647v-256h-977zM694 1004v473h246l-78 -473h-168z" />
<glyph unicode="&#x13e;" horiz-adv-x="833" d="M4 1298v209h442v-1507h-313v1298h-129zM577 1035v473h246l-78 -473h-168z" />
<glyph unicode="&#x13f;" horiz-adv-x="1150" d="M143 0v1477h330v-1221h647v-256h-977zM712 815q0 72 40 119t118 47q80 0 120 -47t40 -119t-40 -117t-120 -45q-78 0 -118 45.5t-40 116.5z" />
<glyph unicode="&#x140;" horiz-adv-x="970" d="M4 1298v209h442v-1507h-313v1298h-129zM637 733q0 72 40 119t118 47q80 0 120 -47t40 -119t-40 -117t-120 -45q-78 0 -118 45.5t-40 116.5z" />
<glyph unicode="&#x141;" horiz-adv-x="1196" d="M10 479v252l178 70v676h330v-537l373 145v-251l-373 -146v-432h647v-256h-977v549z" />
<glyph unicode="&#x142;" horiz-adv-x="677" d="M61 518v242l129 61v477h-129v209h443v-563l137 68v-240l-137 -65v-707h-314v582z" />
<glyph unicode="&#x143;" horiz-adv-x="1462" d="M143 0v1477h371l471 -1067q6 -14 12.5 -25.5t16.5 -11.5q14 0 17 9t3 26v1069h285v-1225q0 -119 -61.5 -193.5t-208.5 -74.5q-68 0 -114 14t-79 42t-55.5 64.5t-42.5 83.5l-330 740v-928h-285zM584 1690l354 346l176 -201l-416 -285z" />
<glyph unicode="&#x144;" horiz-adv-x="1212" d="M72 973l239 114l107 -149q84 76 157.5 110.5t165.5 34.5q109 0 176.5 -31.5t106.5 -90t52.5 -138.5t13.5 -174v-649h-314v604q0 121 -28.5 174t-120.5 53q-106 0 -181 -98v-733h-313v817zM467 1288l243 393l213 -151l-315 -344z" />
<glyph unicode="&#x145;" horiz-adv-x="1462" d="M143 0v1477h371l471 -1067q6 -14 12.5 -25.5t16.5 -11.5q14 0 17 9t3 26v1069h285v-1225q0 -119 -61.5 -193.5t-208.5 -74.5q-68 0 -114 14t-79 42t-55.5 64.5t-42.5 83.5l-330 740v-928h-285zM518 -598l76 457l282 -58l-174 -454z" />
<glyph unicode="&#x146;" horiz-adv-x="1212" d="M72 973l239 114l107 -149q84 76 157.5 110.5t165.5 34.5q109 0 176.5 -31.5t106.5 -90t52.5 -138.5t13.5 -174v-649h-314v604q0 121 -28.5 174t-120.5 53q-106 0 -181 -98v-733h-313v817zM412 -598l76 457l282 -58l-174 -454z" />
<glyph unicode="&#x147;" horiz-adv-x="1462" d="M143 0v1477h371l471 -1067q6 -14 12.5 -25.5t16.5 -11.5q14 0 17 9t3 26v1069h285v-1225q0 -119 -61.5 -193.5t-208.5 -74.5q-68 0 -114 14t-79 42t-55.5 64.5t-42.5 83.5l-330 740v-928h-285zM428 1860l137 110l209 -192l207 192l129 -110l-219 -281h-244z" />
<glyph unicode="&#x148;" horiz-adv-x="1212" d="M72 973l239 114l107 -149q84 76 157.5 110.5t165.5 34.5q109 0 176.5 -31.5t106.5 -90t52.5 -138.5t13.5 -174v-649h-314v604q0 121 -28.5 174t-120.5 53q-106 0 -181 -98v-733h-313v817zM268 1561l147 90l209 -236l207 236l135 -90l-242 -363h-215z" />
<glyph unicode="&#x149;" horiz-adv-x="1212" d="M-55 1157l92 485l269 -53l-181 -485zM72 973l239 114l107 -149q84 76 157.5 110.5t165.5 34.5q109 0 176.5 -31.5t106.5 -90t52.5 -138.5t13.5 -174v-649h-314v604q0 121 -28.5 174t-120.5 53q-106 0 -181 -98v-733h-313v817z" />
<glyph unicode="&#x14a;" horiz-adv-x="1462" d="M143 0v1477h371l471 -1067q6 -14 12.5 -25.5t16.5 -11.5q14 0 17 9t3 26v1069h285v-1385q0 -168 -28.5 -276.5t-90 -171t-158 -86t-231.5 -23.5q-131 0 -224 32t-136 56l100 217q51 -27 100 -43t131 -16q98 0 144.5 45t56.5 162q-96 14 -143 67.5t-82 132.5l-330 740 v-928h-285z" />
<glyph unicode="&#x14b;" horiz-adv-x="1212" d="M72 973l239 114l107 -149q84 76 157.5 110.5t165.5 34.5q109 0 176.5 -31.5t106.5 -90t52.5 -138.5t13.5 -174v-688q0 -92 -19.5 -170t-68 -134t-128 -87t-200.5 -31q-88 0 -161 18.5t-132 49.5l80 196q39 -14 75.5 -26.5t86.5 -12.5q94 0 123.5 59.5t29.5 174.5v606 q0 121 -28.5 174t-120.5 53q-106 0 -181 -98v-733h-313v817z" />
<glyph unicode="&#x14c;" horiz-adv-x="1478" d="M102 729q0 377 162 577.5t479 200.5q305 0 469 -195.5t164 -582.5q0 -371 -158.5 -568.5t-490.5 -197.5q-168 0 -286.5 50t-193.5 146.5t-110 240t-35 329.5zM383 1628v223h712v-223h-712zM446 729q0 -274 69.5 -396t219.5 -122q74 0 129.5 27.5t93 89t56 161t18.5 242.5 q0 276 -68.5 402.5t-218.5 126.5q-70 0 -125 -29t-94 -91.5t-59.5 -164t-20.5 -246.5z" />
<glyph unicode="&#x14d;" horiz-adv-x="1165" d="M82 520q0 129 32.5 233.5t96 178.5t159 112.5t220.5 38.5q254 0 373.5 -143t119.5 -412q0 -131 -30.5 -235.5t-94 -178t-160 -112.5t-225.5 -39q-137 0 -230 40t-151.5 113.5t-84 176t-25.5 227.5zM226 1260v223h712v-223h-712zM395 520q0 -174 45.5 -253t143.5 -79 q94 0 139 76t45 258q0 176 -40 256t-138 80q-96 0 -145.5 -76.5t-49.5 -261.5z" />
<glyph unicode="&#x14e;" horiz-adv-x="1478" d="M102 729q0 377 162 577.5t479 200.5q305 0 469 -195.5t164 -582.5q0 -371 -158.5 -568.5t-490.5 -197.5q-168 0 -286.5 50t-193.5 146.5t-110 240t-35 329.5zM398 1864l172 59q29 -59 67.5 -88t112.5 -29t113 29t67 88l172 -59q-23 -76 -60.5 -125t-83.5 -79t-99.5 -42 t-108.5 -12t-108.5 12t-99.5 42t-84 79t-60 125zM446 729q0 -274 69.5 -396t219.5 -122q74 0 129.5 27.5t93 89t56 161t18.5 242.5q0 276 -68.5 402.5t-218.5 126.5q-70 0 -125 -29t-94 -91.5t-59.5 -164t-20.5 -246.5z" />
<glyph unicode="&#x14f;" horiz-adv-x="1165" d="M82 520q0 129 32.5 233.5t96 178.5t159 112.5t220.5 38.5q254 0 373.5 -143t119.5 -412q0 -131 -30.5 -235.5t-94 -178t-160 -112.5t-225.5 -39q-137 0 -230 40t-151.5 113.5t-84 176t-25.5 227.5zM230 1468l172 60q29 -59 67.5 -88t112.5 -29t113 28.5t67 88.5l172 -60 q-23 -76 -60.5 -125t-83.5 -78.5t-99.5 -42t-108.5 -12.5t-108.5 12.5t-99.5 42t-84 79t-60 124.5zM395 520q0 -174 45.5 -253t143.5 -79q94 0 139 76t45 258q0 176 -40 256t-138 80q-96 0 -145.5 -76.5t-49.5 -261.5z" />
<glyph unicode="&#x150;" horiz-adv-x="1478" d="M102 729q0 377 162 577.5t479 200.5q305 0 469 -195.5t164 -582.5q0 -371 -158.5 -568.5t-490.5 -197.5q-168 0 -286.5 50t-193.5 146.5t-110 240t-35 329.5zM398 1692l272 354l195 -176l-336 -303zM446 729q0 -274 69.5 -396t219.5 -122q74 0 129.5 27.5t93 89t56 161 t18.5 242.5q0 276 -68.5 402.5t-218.5 126.5q-70 0 -125 -29t-94 -91.5t-59.5 -164t-20.5 -246.5zM834 1692l272 354l195 -176l-336 -303z" />
<glyph unicode="&#x151;" horiz-adv-x="1165" d="M82 520q0 129 32.5 233.5t96 178.5t159 112.5t220.5 38.5q254 0 373.5 -143t119.5 -412q0 -131 -30.5 -235.5t-94 -178t-160 -112.5t-225.5 -39q-137 0 -230 40t-151.5 113.5t-84 176t-25.5 227.5zM293 1272l221 405l209 -131l-295 -360zM395 520q0 -174 45.5 -253 t143.5 -79q94 0 139 76t45 258q0 176 -40 256t-138 80q-96 0 -145.5 -76.5t-49.5 -261.5zM693 1272l221 405l209 -131l-295 -360z" />
<glyph unicode="&#x152;" horiz-adv-x="2050" d="M102 729q0 377 162 577.5t479 200.5q86 0 159 -28.5t130 -77.5v76h957v-256h-627v-338h465v-262h-465v-365h647v-256h-977v86q-72 -61 -153.5 -92t-159.5 -31q-326 0 -471.5 196.5t-145.5 569.5zM446 729q0 -274 69.5 -396t219.5 -122q100 0 175 28.5t122 104.5v764 q-41 80 -115.5 116t-171.5 36q-70 0 -125 -29t-94 -91.5t-59.5 -164t-20.5 -246.5z" />
<glyph unicode="&#x153;" horiz-adv-x="1777" d="M80 520q0 268 126 415.5t378 147.5q131 0 213 -43t123 -96q45 53 122.5 96t202.5 43q119 0 204 -38.5t140.5 -112.5t81 -180.5t25.5 -239.5l-80 -88h-553q14 -127 71.5 -181.5t155.5 -54.5q86 0 152.5 13.5t134.5 48.5l92 -195q-96 -55 -197.5 -73.5t-222.5 -18.5 q-70 0 -123 11.5t-93 30t-69.5 41t-52.5 46.5q-25 -25 -53.5 -47t-66 -40.5t-91 -30t-129.5 -11.5q-133 0 -226 38t-151.5 109.5t-86 175t-27.5 234.5zM393 520q0 -174 45.5 -253t143.5 -79q94 0 139 76t45 258q0 176 -40 256t-138 80q-96 0 -145.5 -76.5t-49.5 -261.5z M1063 627h340q0 231 -158 231q-82 0 -127 -48t-55 -183z" />
<glyph unicode="&#x154;" horiz-adv-x="1316" d="M143 0v1477h502q109 0 203 -21.5t164.5 -71t110.5 -129t40 -196.5q0 -154 -75.5 -251t-186.5 -149q35 -25 68 -81l317 -564l-346 -45l-276 504q-29 47 -60 76t-102 29h-31v-578h-328zM418 1690l354 346l176 -201l-416 -285zM473 823h121q115 0 163 54.5t48 154.5 q0 106 -50 157.5t-167 51.5h-115v-418z" />
<glyph unicode="&#x155;" horiz-adv-x="880" d="M14 838v209h392l30 -136q72 82 137.5 115t151.5 33q35 0 70.5 -3t68.5 -12l-80 -276q-20 10 -52 20.5t-85 10.5q-47 0 -99 -24.5t-91 -78.5v-696h-314v838h-129zM352 1288l243 393l213 -151l-315 -344z" />
<glyph unicode="&#x156;" horiz-adv-x="1316" d="M143 0v1477h502q109 0 203 -21.5t164.5 -71t110.5 -129t40 -196.5q0 -154 -75.5 -251t-186.5 -149q35 -25 68 -81l317 -564l-346 -45l-276 504q-29 47 -60 76t-102 29h-31v-578h-328zM473 823h121q115 0 163 54.5t48 154.5q0 106 -50 157.5t-167 51.5h-115v-418z M482 -598l76 457l282 -58l-174 -454z" />
<glyph unicode="&#x157;" horiz-adv-x="880" d="M14 838v209h392l30 -136q72 82 137.5 115t151.5 33q35 0 70.5 -3t68.5 -12l-80 -276q-20 10 -52 20.5t-85 10.5q-47 0 -99 -24.5t-91 -78.5v-696h-314v838h-129zM94 -598l76 457l282 -58l-174 -454z" />
<glyph unicode="&#x158;" horiz-adv-x="1316" d="M143 0v1477h502q109 0 203 -21.5t164.5 -71t110.5 -129t40 -196.5q0 -154 -75.5 -251t-186.5 -149q35 -25 68 -81l317 -564l-346 -45l-276 504q-29 47 -60 76t-102 29h-31v-578h-328zM238 1860l137 110l209 -192l207 192l129 -110l-219 -281h-244zM473 823h121 q115 0 163 54.5t48 154.5q0 106 -50 157.5t-167 51.5h-115v-418z" />
<glyph unicode="&#x159;" horiz-adv-x="880" d="M14 838v209h392l30 -136q72 82 137.5 115t151.5 33q35 0 70.5 -3t68.5 -12l-80 -276q-20 10 -52 20.5t-85 10.5q-47 0 -99 -24.5t-91 -78.5v-696h-314v838h-129zM68 1561l147 90l209 -236l207 236l135 -90l-242 -363h-215z" />
<glyph unicode="&#x15a;" horiz-adv-x="1224" d="M51 100l115 222q111 -63 203 -87t184 -24q135 0 192.5 49t57.5 135q0 41 -11.5 72t-42 54.5t-85 44t-140.5 40.5q-96 23 -176 54.5t-137 82t-89 124t-32 182.5q0 213 144.5 335.5t408.5 122.5q139 0 247.5 -29.5t221.5 -93.5l-121 -215q-20 12 -56 30t-80 32t-93 24.5 t-98 10.5q-131 0 -186.5 -45t-55.5 -117q0 -47 16.5 -79t53 -56.5t97 -45t148.5 -44.5q70 -20 141.5 -49t130 -77t96.5 -121t38 -183q0 -238 -146.5 -362t-427.5 -124q-168 0 -295 36t-223 101zM457 1690l354 346l176 -201l-416 -285z" />
<glyph unicode="&#x15b;" horiz-adv-x="993" d="M41 68l98 194q66 -35 146 -60.5t176 -25.5q70 0 116 19.5t46 78.5q0 33 -16.5 53.5t-45.5 35t-72 25.5t-94 26q-53 14 -106 34.5t-95 55.5t-69 89t-27 136q0 174 118 264t321 90q96 0 191 -25.5t167 -62.5l-92 -192q-59 31 -129 51t-135 20q-86 0 -119 -27.5t-33 -66.5 q0 -31 15.5 -50t43 -34.5t63.5 -27t77 -23.5q55 -16 112.5 -37.5t105.5 -57.5t77.5 -89t29.5 -133q0 -78 -22.5 -144.5t-74.5 -116t-138 -77t-211 -27.5t-237.5 30t-186.5 75zM400 1288l243 393l213 -151l-315 -344z" />
<glyph unicode="&#x15c;" horiz-adv-x="1224" d="M51 100l115 222q111 -63 203 -87t184 -24q135 0 192.5 49t57.5 135q0 41 -11.5 72t-42 54.5t-85 44t-140.5 40.5q-96 23 -176 54.5t-137 82t-89 124t-32 182.5q0 213 144.5 335.5t408.5 122.5q139 0 247.5 -29.5t221.5 -93.5l-121 -215q-20 12 -56 30t-80 32t-93 24.5 t-98 10.5q-131 0 -186.5 -45t-55.5 -117q0 -47 16.5 -79t53 -56.5t97 -45t148.5 -44.5q70 -20 141.5 -49t130 -77t96.5 -121t38 -183q0 -238 -146.5 -362t-427.5 -124q-168 0 -295 36t-223 101zM309 1669l219 281h244l219 -281l-133 -110l-209 192l-207 -192z" />
<glyph unicode="&#x15d;" horiz-adv-x="993" d="M41 68l98 194q66 -35 146 -60.5t176 -25.5q70 0 116 19.5t46 78.5q0 33 -16.5 53.5t-45.5 35t-72 25.5t-94 26q-53 14 -106 34.5t-95 55.5t-69 89t-27 136q0 174 118 264t321 90q96 0 191 -25.5t167 -62.5l-92 -192q-59 31 -129 51t-135 20q-86 0 -119 -27.5t-33 -66.5 q0 -31 15.5 -50t43 -34.5t63.5 -27t77 -23.5q55 -16 112.5 -37.5t105.5 -57.5t77.5 -89t29.5 -133q0 -78 -22.5 -144.5t-74.5 -116t-138 -77t-211 -27.5t-237.5 30t-186.5 75zM176 1268l241 362h215l242 -362l-141 -90l-209 235l-207 -235z" />
<glyph unicode="&#x15e;" horiz-adv-x="1224" d="M51 100l115 222q111 -63 203 -87t184 -24q135 0 192.5 49t57.5 135q0 41 -11.5 72t-42 54.5t-85 44t-140.5 40.5q-96 23 -176 54.5t-137 82t-89 124t-32 182.5q0 213 144.5 335.5t408.5 122.5q139 0 247.5 -29.5t221.5 -93.5l-121 -215q-20 12 -56 30t-80 32t-93 24.5 t-98 10.5q-131 0 -186.5 -45t-55.5 -117q0 -47 16.5 -79t53 -56.5t97 -45t148.5 -44.5q70 -20 141.5 -49t130 -77t96.5 -121t38 -183q0 -213 -119 -335t-344 -145l-18 -73q37 -4 71.5 -15.5t62 -32t45 -52.5t17.5 -77q0 -92 -62.5 -155.5t-209.5 -63.5q-29 0 -64 5.5 t-69.5 14.5t-68.5 22.5t-58 27.5l67 135q39 -23 75 -37t83 -14q92 0 92 63q0 49 -44 61.5t-122 12.5l45 172q-152 4 -267.5 41t-203.5 96z" />
<glyph unicode="&#x15f;" horiz-adv-x="993" d="M41 68l98 194q66 -35 146 -60.5t176 -25.5q70 0 116 19.5t46 78.5q0 33 -16.5 53.5t-45.5 35t-72 25.5t-94 26q-53 14 -106 34.5t-95 55.5t-69 89t-27 136q0 174 118 264t321 90q96 0 191 -25.5t167 -62.5l-92 -192q-59 31 -129 51t-135 20q-86 0 -119 -27.5t-33 -66.5 q0 -31 15.5 -50t43 -34.5t63.5 -27t77 -23.5q55 -16 112.5 -37.5t105.5 -57.5t77.5 -89t29.5 -133q0 -72 -19.5 -133.5t-62.5 -109.5t-113.5 -79t-172.5 -39l-17 -71q37 -4 72 -15.5t62.5 -32t45 -52.5t17.5 -77q0 -92 -62.5 -155.5t-209.5 -63.5q-29 0 -64 5.5t-69.5 14.5 t-68.5 22.5t-59 27.5l68 135q39 -23 75 -37t83 -14q92 0 92 63q0 49 -44 61.5t-122 12.5l47 176q-104 8 -195.5 35t-152.5 66z" />
<glyph unicode="&#x160;" horiz-adv-x="1224" d="M51 100l115 222q111 -63 203 -87t184 -24q135 0 192.5 49t57.5 135q0 41 -11.5 72t-42 54.5t-85 44t-140.5 40.5q-96 23 -176 54.5t-137 82t-89 124t-32 182.5q0 213 144.5 335.5t408.5 122.5q139 0 247.5 -29.5t221.5 -93.5l-121 -215q-20 12 -56 30t-80 32t-93 24.5 t-98 10.5q-131 0 -186.5 -45t-55.5 -117q0 -47 16.5 -79t53 -56.5t97 -45t148.5 -44.5q70 -20 141.5 -49t130 -77t96.5 -121t38 -183q0 -238 -146.5 -362t-427.5 -124q-168 0 -295 36t-223 101zM301 1860l137 110l209 -192l207 192l129 -110l-219 -281h-244z" />
<glyph unicode="&#x161;" horiz-adv-x="993" d="M41 68l98 194q66 -35 146 -60.5t176 -25.5q70 0 116 19.5t46 78.5q0 33 -16.5 53.5t-45.5 35t-72 25.5t-94 26q-53 14 -106 34.5t-95 55.5t-69 89t-27 136q0 174 118 264t321 90q96 0 191 -25.5t167 -62.5l-92 -192q-59 31 -129 51t-135 20q-86 0 -119 -27.5t-33 -66.5 q0 -31 15.5 -50t43 -34.5t63.5 -27t77 -23.5q55 -16 112.5 -37.5t105.5 -57.5t77.5 -89t29.5 -133q0 -78 -22.5 -144.5t-74.5 -116t-138 -77t-211 -27.5t-237.5 30t-186.5 75zM180 1561l147 90l209 -236l207 236l135 -90l-242 -363h-215z" />
<glyph unicode="&#x162;" horiz-adv-x="1169" d="M20 1221v256h1129v-256h-399v-1221h-330v1221h-400zM375 -598l76 457l282 -58l-174 -454z" />
<glyph unicode="&#x163;" horiz-adv-x="862" d="M23 825v222h182v299h303v-299h297v-222h-297v-424q0 -55 3 -95t14.5 -64.5t35 -36.5t66.5 -12q45 0 88 13t78 30l69 -195q-61 -29 -134 -53.5t-159 -24.5q-109 0 -181.5 21.5t-115.5 71.5t-60 132t-17 203v434h-172zM309 -598l76 457l282 -58l-174 -454z" />
<glyph unicode="&#x164;" horiz-adv-x="1169" d="M20 1221v256h1129v-256h-399v-1221h-330v1221h-400zM246 1860l137 110l209 -192l207 192l129 -110l-219 -281h-244z" />
<glyph unicode="&#x165;" horiz-adv-x="862" d="M23 825v222h182v299h303v-299h297v-222h-297v-424q0 -55 3 -95t14.5 -64.5t35 -36.5t66.5 -12q45 0 88 13t78 30l69 -195q-61 -29 -134 -53.5t-159 -24.5q-109 0 -181.5 21.5t-115.5 71.5t-60 132t-17 203v434h-172zM635 1186v432h246l-78 -432h-168z" />
<glyph unicode="&#x166;" horiz-adv-x="1169" d="M20 1221v256h1129v-256h-399v-377h276v-246h-276v-598h-330v598h-277v246h277v377h-400z" />
<glyph unicode="&#x167;" horiz-adv-x="862" d="M20 451v221h175v153h-172v222h182v299h303v-299h297v-222h-297v-153h297v-221h-297v-50q0 -55 3 -95t14.5 -64.5t35 -36.5t66.5 -12q45 0 88 13t78 30l69 -195q-61 -29 -134 -53.5t-159 -24.5q-109 0 -181.5 21.5t-115.5 71.5t-60 132t-17 203v60h-175z" />
<glyph unicode="&#x168;" horiz-adv-x="1456" d="M143 610v867h330v-844q0 -115 13.5 -195t44 -131t79.5 -73.5t121 -22.5q150 0 207 103.5t57 301.5v861h318v-854q0 -145 -29 -266t-96.5 -208.5t-181 -136.5t-283.5 -49q-168 0 -279.5 41t-178 122t-94.5 203t-28 281zM330 1595q0 143 57 233.5t162 90.5q47 0 94 -15.5 t92 -37.5q35 -16 72 -30.5t65 -14.5q41 0 57.5 24.5t20.5 79.5h174q0 -143 -57.5 -233t-161.5 -90q-47 0 -94 15t-92 38q-35 16 -72 30.5t-65 14.5q-41 0 -57.5 -24.5t-20.5 -80.5h-174z" />
<glyph unicode="&#x169;" horiz-adv-x="1196" d="M123 360v687h313v-629q0 -117 31 -162t115 -45q49 0 93 18.5t68 46.5v771h314v-822l67 -145l-252 -123l-94 129q-76 -68 -149.5 -95.5t-147.5 -27.5q-195 0 -276.5 100.5t-81.5 296.5zM199 1227q0 143 57 233t162 90q47 0 94 -15t92 -38q35 -16 72 -30.5t65 -14.5 q41 0 57.5 24.5t20.5 79.5h174q0 -143 -57.5 -233t-161.5 -90q-47 0 -94 15.5t-92 37.5q-35 16 -72 30.5t-65 14.5q-41 0 -57.5 -24.5t-20.5 -79.5h-174z" />
<glyph unicode="&#x16a;" horiz-adv-x="1456" d="M143 610v867h330v-844q0 -115 13.5 -195t44 -131t79.5 -73.5t121 -22.5q150 0 207 103.5t57 301.5v861h318v-854q0 -145 -29 -266t-96.5 -208.5t-181 -136.5t-283.5 -49q-168 0 -279.5 41t-178 122t-94.5 203t-28 281zM371 1628v223h712v-223h-712z" />
<glyph unicode="&#x16b;" horiz-adv-x="1196" d="M123 360v687h313v-629q0 -117 31 -162t115 -45q49 0 93 18.5t68 46.5v771h314v-822l67 -145l-252 -123l-94 129q-76 -68 -149.5 -95.5t-147.5 -27.5q-195 0 -276.5 100.5t-81.5 296.5zM238 1260v223h712v-223h-712z" />
<glyph unicode="&#x16c;" horiz-adv-x="1456" d="M143 610v867h330v-844q0 -115 13.5 -195t44 -131t79.5 -73.5t121 -22.5q150 0 207 103.5t57 301.5v861h318v-854q0 -145 -29 -266t-96.5 -208.5t-181 -136.5t-283.5 -49q-168 0 -279.5 41t-178 122t-94.5 203t-28 281zM383 1864l172 59q29 -59 67.5 -88t112.5 -29t113 29 t67 88l172 -59q-23 -76 -60.5 -125t-83.5 -79t-99.5 -42t-108.5 -12t-108.5 12t-99.5 42t-84 79t-60 125z" />
<glyph unicode="&#x16d;" horiz-adv-x="1196" d="M123 360v687h313v-629q0 -117 31 -162t115 -45q49 0 93 18.5t68 46.5v771h314v-822l67 -145l-252 -123l-94 129q-76 -68 -149.5 -95.5t-147.5 -27.5q-195 0 -276.5 100.5t-81.5 296.5zM242 1468l172 60q29 -59 67.5 -88t112.5 -29t113 28.5t67 88.5l172 -60 q-23 -76 -60.5 -125t-83.5 -78.5t-99.5 -42t-108.5 -12.5t-108.5 12.5t-99.5 42t-84 79t-60 124.5z" />
<glyph unicode="&#x16e;" horiz-adv-x="1456" d="M143 610v867h330v-844q0 -115 13.5 -195t44 -131t79.5 -73.5t121 -22.5q150 0 207 103.5t57 301.5v861h318v-854q0 -145 -29 -266t-96.5 -208.5t-181 -136.5t-283.5 -49q-168 0 -279.5 41t-178 122t-94.5 203t-28 281zM463 1827q0 55 21.5 104t58 86t86 58.5t104.5 21.5 t104.5 -21.5t86 -58.5t58 -86t21.5 -104t-21.5 -104.5t-58 -86.5t-86 -58.5t-104.5 -21.5t-104.5 21.5t-86 58.5t-58 86.5t-21.5 104.5zM618 1827q0 -47 33 -82t82 -35t82 35t33 82t-34 82t-81 35t-81 -35t-34 -82z" />
<glyph unicode="&#x16f;" horiz-adv-x="1196" d="M123 360v687h313v-629q0 -117 31 -162t115 -45q49 0 93 18.5t68 46.5v771h314v-822l67 -145l-252 -123l-94 129q-76 -68 -149.5 -95.5t-147.5 -27.5q-195 0 -276.5 100.5t-81.5 296.5zM324 1460q0 55 21.5 104.5t58 86.5t86 58.5t104.5 21.5t104.5 -21.5t86 -58.5t58 -86 t21.5 -105q0 -55 -21.5 -104t-58 -86t-86 -58.5t-104.5 -21.5t-104.5 21.5t-86 58.5t-58 86t-21.5 104zM479 1460q0 -47 33 -82t82 -35t82 35t33 82t-34 82t-81 35t-81 -35t-34 -82z" />
<glyph unicode="&#x170;" horiz-adv-x="1456" d="M143 610v867h330v-844q0 -115 13.5 -195t44 -131t79.5 -73.5t121 -22.5q150 0 207 103.5t57 301.5v861h318v-854q0 -145 -29 -266t-96.5 -208.5t-181 -136.5t-283.5 -49q-168 0 -279.5 41t-178 122t-94.5 203t-28 281zM392 1692l272 354l195 -176l-336 -303zM828 1692 l272 354l195 -176l-336 -303z" />
<glyph unicode="&#x171;" horiz-adv-x="1196" d="M123 360v687h313v-629q0 -117 31 -162t115 -45q49 0 93 18.5t68 46.5v771h314v-822l67 -145l-252 -123l-94 129q-76 -68 -149.5 -95.5t-147.5 -27.5q-195 0 -276.5 100.5t-81.5 296.5zM282 1272l221 405l209 -131l-295 -360zM682 1272l221 405l209 -131l-295 -360z" />
<glyph unicode="&#x172;" horiz-adv-x="1456" d="M143 610v867h330v-844q0 -115 13.5 -195t44 -131t79.5 -73.5t121 -22.5q150 0 207 103.5t57 301.5v861h318v-854q0 -102 -11.5 -182.5t-35 -145t-60.5 -116.5t-88 -101q-31 -29 -64.5 -66t-61 -76.5t-45 -80.5t-17.5 -78q0 -49 43 -66.5t125 -32.5l-49 -149 q-195 18 -289 65.5t-90 143.5q2 57 39 115q43 66 82 112q-16 0 -34 -1t-34 -1q-168 0 -279.5 41t-178 122t-94.5 203t-28 281z" />
<glyph unicode="&#x173;" horiz-adv-x="1196" d="M123 360v687h313v-629q0 -117 31 -162t115 -45q49 0 93 18.5t68 46.5v771h314v-822l67 -145q-18 -20 -49 -58t-61.5 -82t-53 -87t-22.5 -76q0 -49 43 -66.5t125 -32.5l-49 -149q-195 18 -289 65.5t-90 143.5q2 57 39 115q29 47 58.5 82.5t60.5 70.5l-58 80 q-76 -68 -149.5 -95.5t-147.5 -27.5q-195 0 -276.5 100.5t-81.5 296.5z" />
<glyph unicode="&#x174;" horiz-adv-x="2011" d="M20 1464l353 33l186 -1161q12 -82 47 -82q25 0 35 19.5t18 60.5l228 1143h278l224 -1141q8 -41 14 -61.5t31 -20.5q29 0 37 18.5t14 61.5l174 1167l321 -47l-192 -1151q-27 -160 -101.5 -251t-226.5 -91q-88 0 -146.5 16.5t-96 55.5t-62.5 103.5t-45 160.5l-102 506 l-88 -500q-14 -80 -39 -142.5t-64 -107.5t-94 -68.5t-131 -23.5q-88 0 -151.5 16.5t-107.5 54.5t-72 102.5t-44 162.5zM696 1669l219 281h244l219 -281l-133 -110l-209 192l-207 -192z" />
<glyph unicode="&#x175;" horiz-adv-x="1685" d="M43 1022l322 55l151 -823q6 -35 25 -35q10 0 17 5t11 28l168 795h236l162 -793q8 -35 24 -35q10 0 17.5 5t11.5 28l158 825l296 -59l-192 -832q-25 -109 -91 -166t-183 -57q-72 0 -118 13.5t-76 41t-46 69.5t-27 99l-67 361l-78 -381q-8 -43 -24.5 -80t-46 -64.5t-75 -43 t-108.5 -15.5q-76 0 -125 17.5t-80 47t-47 70.5t-27 88zM506 1268l241 362h215l242 -362l-141 -90l-209 235l-207 -235z" />
<glyph unicode="&#x176;" horiz-adv-x="1206" d="M20 1452l326 45l215 -647q10 -31 21.5 -46.5t31.5 -15.5q16 0 27.5 10.5t28.5 51.5l233 647l293 -41l-287 -731q-20 -53 -55 -103.5t-88 -72.5v-549h-330v549q-66 16 -99.5 64.5t-62.5 125.5zM276 1669l219 281h244l219 -281l-133 -110l-209 192l-207 -192z" />
<glyph unicode="&#x177;" horiz-adv-x="1114" d="M20 1022l326 55l170 -760q8 -35 19.5 -56t44.5 -21h34l179 837l301 -59l-285 -1114q-18 -72 -46 -137.5t-75 -116.5t-123 -81t-188 -30q-92 0 -171 14.5t-169 59.5l94 211q125 -59 221 -60q88 0 132 47.5t67 145.5l12 55h-49q-70 0 -117 14.5t-78.5 43t-51 68.5t-34.5 93 zM207 1268l241 362h215l242 -362l-141 -90l-209 235l-207 -235z" />
<glyph unicode="&#x178;" horiz-adv-x="1206" d="M20 1452l326 45l215 -647q10 -31 21.5 -46.5t31.5 -15.5q16 0 27.5 10.5t28.5 51.5l233 647l293 -41l-287 -731q-20 -53 -55 -103.5t-88 -72.5v-549h-330v549q-66 16 -99.5 64.5t-62.5 125.5zM221 1751q0 72 40 119t118 47t119 -47t41 -119t-41 -117t-119 -45t-118 45 t-40 117zM694 1751q0 72 40 119t118 47q80 0 120 -47t40 -119t-40 -117t-120 -45q-78 0 -118 45t-40 117z" />
<glyph unicode="&#x179;" horiz-adv-x="1196" d="M33 170q0 70 26.5 122t73.5 116l580 813h-629v256h1042v-211l-688 -955q-10 -12 -12 -18t-2 -17q0 -20 33 -20h678v-256h-920q-106 0 -144 45t-38 125zM439 1690l354 346l176 -201l-416 -285z" />
<glyph unicode="&#x17a;" horiz-adv-x="997" d="M59 133q0 39 12.5 73t47.5 79l418 542h-455v220h823v-199l-426 -557q-10 -14 -16 -23.5t-6 -21.5q0 -16 8 -21.5t24 -5.5h435v-219h-711q-86 0 -120 37t-34 96zM365 1288l243 393l213 -151l-315 -344z" />
<glyph unicode="&#x17b;" horiz-adv-x="1196" d="M33 170q0 70 26.5 122t73.5 116l580 813h-629v256h1042v-211l-688 -955q-10 -12 -12 -18t-2 -17q0 -20 33 -20h678v-256h-920q-106 0 -144 45t-38 125zM448 1765q0 74 40 124t126 50t127 -50t41 -124t-41 -122t-127 -48t-126 48.5t-40 121.5z" />
<glyph unicode="&#x17c;" horiz-adv-x="997" d="M59 133q0 39 12.5 73t47.5 79l418 542h-455v220h823v-199l-426 -557q-10 -14 -16 -23.5t-6 -21.5q0 -16 8 -21.5t24 -5.5h435v-219h-711q-86 0 -120 37t-34 96zM348 1376q0 72 40 119t118 47q80 0 120 -47t40 -119t-40 -117t-120 -45q-78 0 -118 45.5t-40 116.5z" />
<glyph unicode="&#x17d;" horiz-adv-x="1196" d="M33 170q0 70 26.5 122t73.5 116l580 813h-629v256h1042v-211l-688 -955q-10 -12 -12 -18t-2 -17q0 -20 33 -20h678v-256h-920q-106 0 -144 45t-38 125zM256 1860l137 110l209 -192l207 192l129 -110l-219 -281h-244z" />
<glyph unicode="&#x17e;" horiz-adv-x="997" d="M59 133q0 39 12.5 73t47.5 79l418 542h-455v220h823v-199l-426 -557q-10 -14 -16 -23.5t-6 -21.5q0 -16 8 -21.5t24 -5.5h435v-219h-711q-86 0 -120 37t-34 96zM156 1561l147 90l209 -236l207 236l135 -90l-242 -363h-215z" />
<glyph unicode="&#x17f;" horiz-adv-x="780" d="M164 0v1128q0 176 96 277.5t305 101.5q45 0 83 -4t73 -13t68.5 -23.5t72.5 -34.5l-96 -195q-43 23 -82 34t-86 11q-78 0 -99.5 -49t-21.5 -137v-1096h-313z" />
<glyph unicode="&#x192;" horiz-adv-x="1216" d="M-166 -408l72 215q102 -45 188 -45q47 0 79 17.5t52.5 47.5t31.5 70t19 83l115 671h-205l41 240h205l35 194q33 188 140.5 290t322.5 102q92 0 158.5 -15.5t121.5 -38.5l-90 -211q-53 23 -93 32t-85 9q-47 0 -77.5 -17t-49 -47t-28 -70t-17.5 -83l-27 -145h273l-41 -240 h-273l-124 -721q-33 -188 -140.5 -289.5t-322.5 -101.5q-92 0 -159 15.5t-122 37.5z" />
<glyph unicode="&#x218;" horiz-adv-x="1224" d="M51 100l115 222q111 -63 203 -87t184 -24q135 0 192.5 49t57.5 135q0 41 -11.5 72t-42 54.5t-85 44t-140.5 40.5q-96 23 -176 54.5t-137 82t-89 124t-32 182.5q0 213 144.5 335.5t408.5 122.5q139 0 247.5 -29.5t221.5 -93.5l-121 -215q-20 12 -56 30t-80 32t-93 24.5 t-98 10.5q-131 0 -186.5 -45t-55.5 -117q0 -47 16.5 -79t53 -56.5t97 -45t148.5 -44.5q70 -20 141.5 -49t130 -77t96.5 -121t38 -183q0 -238 -146.5 -362t-427.5 -124q-168 0 -295 36t-223 101zM383 -598l76 457l282 -58l-174 -454z" />
<glyph unicode="&#x219;" horiz-adv-x="993" d="M41 68l98 194q66 -35 146 -60.5t176 -25.5q70 0 116 19.5t46 78.5q0 33 -16.5 53.5t-45.5 35t-72 25.5t-94 26q-53 14 -106 34.5t-95 55.5t-69 89t-27 136q0 174 118 264t321 90q96 0 191 -25.5t167 -62.5l-92 -192q-59 31 -129 51t-135 20q-86 0 -119 -27.5t-33 -66.5 q0 -31 15.5 -50t43 -34.5t63.5 -27t77 -23.5q55 -16 112.5 -37.5t105.5 -57.5t77.5 -89t29.5 -133q0 -78 -22.5 -144.5t-74.5 -116t-138 -77t-211 -27.5t-237.5 30t-186.5 75zM291 -598l76 457l282 -58l-174 -454z" />
<glyph unicode="&#x21a;" horiz-adv-x="1169" d="M20 1221v256h1129v-256h-399v-1221h-330v1221h-400zM379 -598l76 457l282 -58l-174 -454z" />
<glyph unicode="&#x21b;" horiz-adv-x="862" d="M23 825v222h182v299h303v-299h297v-222h-297v-424q0 -55 3 -95t14.5 -64.5t35 -36.5t66.5 -12q45 0 88 13t78 30l69 -195q-61 -29 -134 -53.5t-159 -24.5q-109 0 -181.5 21.5t-115.5 71.5t-60 132t-17 203v434h-172zM252 -598l76 457l282 -58l-174 -454z" />
<glyph unicode="&#x237;" horiz-adv-x="591" d="M-252 -393l80 196q39 -14 76 -26.5t86 -12.5q94 0 123.5 59.5t29.5 174.5v1049h316v-1086q0 -92 -20.5 -170t-68.5 -134t-128 -87t-201 -31q-88 0 -161 18.5t-132 49.5z" />
<glyph unicode="&#x2bc;" horiz-adv-x="1024" d="M346 1157l92 485l269 -53l-181 -485z" />
<glyph unicode="&#x2c6;" horiz-adv-x="1024" d="M162 1268l241 362h215l242 -362l-141 -90l-209 235l-207 -235z" />
<glyph unicode="&#x2c7;" horiz-adv-x="1024" d="M162 1561l147 90l209 -236l207 236l135 -90l-242 -363h-215z" />
<glyph unicode="&#x2c9;" horiz-adv-x="1024" d="M156 1260v223h712v-223h-712z" />
<glyph unicode="&#x2d8;" horiz-adv-x="1024" d="M160 1468l172 60q29 -59 67.5 -88t112.5 -29t113 28.5t67 88.5l172 -60q-23 -76 -60.5 -125t-83.5 -78.5t-99.5 -42t-108.5 -12.5t-108.5 12.5t-99.5 42t-84 79t-60 124.5z" />
<glyph unicode="&#x2d9;" horiz-adv-x="1024" d="M356 1376q0 72 40 119t118 47q80 0 120 -47t40 -119t-40 -117t-120 -45q-78 0 -118 45.5t-40 116.5z" />
<glyph unicode="&#x2da;" horiz-adv-x="1024" d="M242 1460q0 55 21.5 104.5t58 86.5t86 58.5t104.5 21.5t104.5 -21.5t86 -58.5t58 -86t21.5 -105q0 -55 -21.5 -104t-58 -86t-86 -58.5t-104.5 -21.5t-104.5 21.5t-86 58.5t-58 86t-21.5 104zM397 1460q0 -47 33 -82t82 -35t82 35t33 82t-34 82t-81 35t-81 -35t-34 -82z " />
<glyph unicode="&#x2db;" horiz-adv-x="1024" d="M289 -262q0 31 10 58.5t29 56.5q41 61 78.5 106t80.5 94l250 25q-18 -20 -50 -58t-62.5 -81t-53 -86t-22.5 -76q0 -49 43 -66.5t125 -32.5l-49 -149q-195 18 -287 65.5t-92 143.5z" />
<glyph unicode="&#x2dc;" horiz-adv-x="1024" d="M117 1227q0 143 57 233t162 90q47 0 94 -15t92 -38q35 -16 72 -30.5t65 -14.5q41 0 57.5 24.5t20.5 79.5h174q0 -143 -57.5 -233t-161.5 -90q-47 0 -94 15.5t-92 37.5q-35 16 -72 30.5t-65 14.5q-41 0 -57.5 -24.5t-20.5 -79.5h-174z" />
<glyph unicode="&#x2dd;" horiz-adv-x="1024" d="M98 1272l221 405l209 -131l-295 -360zM498 1272l221 405l209 -131l-295 -360z" />
<glyph unicode="&#x384;" horiz-adv-x="1024" d="M326 1231l120 446l248 -80l-205 -426z" />
<glyph unicode="&#x385;" horiz-adv-x="1024" d="M0 1384q0 72 40 119t118 47t118.5 -47t40.5 -119t-40.5 -116.5t-118.5 -44.5t-118 45t-40 116zM356 1231l121 446l248 -80l-205 -426zM719 1384q0 72 40 119t118 47q80 0 119.5 -47t39.5 -119t-39.5 -116.5t-119.5 -44.5q-78 0 -118 45t-40 116z" />
<glyph unicode="&#x386;" horiz-adv-x="1380" d="M-63 999l125 459l254 -82l-211 -438zM12 14l322 1145q23 78 50.5 141.5t68.5 107.5t98 68.5t137 24.5q82 0 141.5 -16.5t101.5 -55t71.5 -103t54.5 -161.5l295 -1161l-330 -33l-104 424h-480l-112 -428zM506 662h350l-110 468q-10 41 -21.5 61.5t-36.5 20.5 q-29 0 -42 -19t-23 -60z" />
<glyph unicode="&#x388;" horiz-adv-x="1288" d="M-203 999l125 459l254 -82l-211 -438zM249 0v1477h957v-256h-627v-338h465v-262h-465v-365h647v-256h-977z" />
<glyph unicode="&#x389;" horiz-adv-x="1603" d="M-119 999l125 459l254 -82l-211 -438zM333 0v1477h330v-592h467v592h330v-1477h-330v618h-467v-618h-330z" />
<glyph unicode="&#x38a;" horiz-adv-x="806" d="M-119 999l125 459l254 -82l-211 -438zM333 0v1477h330v-1477h-330z" />
<glyph unicode="&#x38c;" horiz-adv-x="1609" d="M-57 999l125 459l254 -82l-211 -438zM233 729q0 377 162 577.5t479 200.5q305 0 469 -195.5t164 -582.5q0 -371 -158.5 -568.5t-490.5 -197.5q-168 0 -286.5 50t-193.5 146.5t-110 240t-35 329.5zM577 729q0 -274 69.5 -396t219.5 -122q74 0 129.5 27.5t93 89t56 161 t18.5 242.5q0 276 -68.5 402.5t-218.5 126.5q-70 0 -125 -29t-94 -91.5t-59.5 -164t-20.5 -246.5z" />
<glyph unicode="&#x38e;" horiz-adv-x="1527" d="M-119 999l125 459l254 -82l-211 -438zM342 1452l326 45l215 -647q10 -31 21.5 -46.5t31.5 -15.5q16 0 27.5 10.5t28.5 51.5l233 647l293 -41l-287 -731q-20 -53 -55 -103.5t-88 -72.5v-549h-330v549q-66 16 -99.5 64.5t-62.5 125.5z" />
<glyph unicode="&#x38f;" horiz-adv-x="1648" d="M-119 999l125 459l254 -82l-211 -438zM110 0v246h285q23 0 27 6t4 16t-7.5 20.5t-33.5 37.5q-49 51 -89 106t-68 116.5t-43 133.5t-15 160q0 133 44 252.5t131 211t215 144.5t294 53q184 0 314 -52t213 -140t122 -206t39 -249q0 -176 -64.5 -301t-167.5 -229 q-27 -27 -34 -37t-7 -21q0 -12 6.5 -17t24.5 -5h297v-246h-440q-68 0 -108 17.5t-59.5 45t-24.5 60.5t-5 61q0 51 27.5 95.5t60.5 89.5q27 37 54.5 82t48 102t34 130t13.5 165q0 94 -20.5 172t-62.5 133t-106.5 86t-154.5 31q-88 0 -154 -32t-109 -90t-64.5 -138t-21.5 -176 q0 -86 15.5 -157t39 -127t52.5 -101.5t55 -79.5q33 -41 59.5 -85t26.5 -91q0 -31 -6 -66t-26.5 -62.5t-61.5 -46t-108 -18.5h-441z" />
<glyph unicode="&#x390;" horiz-adv-x="716" d="M-166 1384q0 72 40 119t118 47t118.5 -47t40.5 -119t-40.5 -116.5t-118.5 -44.5t-118 45t-40 116zM133 350v697h313v-693q0 -80 19.5 -120.5t83.5 -40.5q27 0 56.5 4t51.5 12l60 -203q-35 -18 -91.5 -30.5t-133.5 -12.5q-104 0 -173 20.5t-111 66.5t-58.5 120t-16.5 180z M190 1231l121 446l248 -80l-205 -426zM553 1384q0 72 40 119t118 47q80 0 119.5 -47t39.5 -119t-39.5 -116.5t-119.5 -44.5q-78 0 -118 45t-40 116z" />
<glyph unicode="&#x391;" horiz-adv-x="1380" d="M20 14l322 1145q23 78 50.5 141.5t68.5 107.5t98 68.5t137 24.5q82 0 141.5 -16.5t101.5 -55t71.5 -103t54.5 -161.5l295 -1161l-330 -33l-104 424h-480l-112 -428zM514 662h350l-110 468q-10 41 -21.5 61.5t-36.5 20.5q-29 0 -42 -19t-23 -60z" />
<glyph unicode="&#x392;" horiz-adv-x="1275" d="M143 0v1477h543q109 0 196 -22.5t147.5 -71t93 -122t32.5 -178.5q0 -92 -41 -168.5t-133 -132.5q133 -59 183 -150t50 -208q0 -211 -125.5 -317.5t-381.5 -106.5h-564zM469 236h168q57 0 104 7t80 28.5t50.5 60.5t17.5 102t-15.5 101t-46 59.5t-75.5 29t-105 7.5h-178 v-395zM469 885h162q111 0 158 41t47 143t-52.5 142t-162.5 40h-152v-366z" />
<glyph unicode="&#x393;" horiz-adv-x="1062" d="M143 0v1477h879v-256h-549v-1221h-330z" />
<glyph unicode="&#x394;" horiz-adv-x="1378" d="M31 150q0 43 8 79.5t20 71.5l318 956q39 117 121 181.5t215 64.5t206.5 -64.5t108.5 -181.5l291 -974q10 -33 19.5 -66t9.5 -74q0 -27 -8.5 -52t-30 -45.5t-56 -33t-86.5 -12.5h-956q-51 0 -86 13.5t-55.5 35t-29.5 48t-9 53.5zM360 283q0 -29 29 -29h555q27 0 27 27 q0 10 -2 19t-4 17l-209 818q-12 51 -24.5 69.5t-39.5 18.5q-25 0 -40 -20.5t-31 -67.5l-254 -818q-2 -8 -4.5 -16t-2.5 -18z" />
<glyph unicode="&#x395;" horiz-adv-x="1161" d="M143 0v1477h957v-256h-627v-338h465v-262h-465v-365h647v-256h-977z" />
<glyph unicode="&#x396;" horiz-adv-x="1196" d="M33 170q0 70 26.5 122t73.5 116l580 813h-629v256h1042v-211l-688 -955q-10 -12 -12 -18t-2 -17q0 -20 33 -20h678v-256h-920q-106 0 -144 45t-38 125z" />
<glyph unicode="&#x397;" horiz-adv-x="1413" d="M143 0v1477h330v-592h467v592h330v-1477h-330v618h-467v-618h-330z" />
<glyph unicode="&#x398;" horiz-adv-x="1478" d="M102 729q0 377 162 577.5t479 200.5q305 0 469 -195.5t164 -582.5q0 -371 -158.5 -568.5t-490.5 -197.5q-168 0 -286.5 50t-193.5 146.5t-110 240t-35 329.5zM446 729q0 -274 69.5 -396t219.5 -122q74 0 129.5 27.5t93 89t56 161t18.5 242.5q0 276 -68.5 402.5 t-218.5 126.5q-70 0 -125 -29t-94 -91.5t-59.5 -164t-20.5 -246.5zM537 598v254h409v-254h-409z" />
<glyph unicode="&#x399;" horiz-adv-x="616" d="M143 0v1477h330v-1477h-330z" />
<glyph unicode="&#x39a;" horiz-adv-x="1372" d="M143 0v1477h330v-592h76q51 0 79.5 24.5t57.5 69.5l305 524l312 -90l-388 -635l416 -735l-348 -70l-313 570q-12 20 -24.5 34.5t-28 23.5t-37 13t-54.5 4h-53v-618h-330z" />
<glyph unicode="&#x39b;" horiz-adv-x="1396" d="M20 14l332 1145q23 78 51.5 141.5t71.5 107.5t102.5 68.5t143.5 24.5q80 0 138.5 -16.5t101.5 -55t72.5 -103t53.5 -161.5l289 -1161l-334 -33l-272 1159q-10 41 -21.5 61.5t-39.5 20.5q-27 0 -40.5 -19t-23.5 -60l-311 -1166z" />
<glyph unicode="&#x39c;" horiz-adv-x="1652" d="M102 0l74 1477h311l297 -680q10 -23 17.5 -35t25.5 -12t25.5 12t17.5 35l324 680h291l74 -1477h-316l-26 934l-187 -395q-35 -70 -82 -107t-127 -37q-86 0 -130 36t-79 108l-174 379l-26 -918h-310z" />
<glyph unicode="&#x39d;" horiz-adv-x="1462" d="M143 0v1477h371l471 -1067q6 -14 12.5 -25.5t16.5 -11.5q14 0 17 9t3 26v1069h285v-1225q0 -119 -61.5 -193.5t-208.5 -74.5q-68 0 -114 14t-79 42t-55.5 64.5t-42.5 83.5l-330 740v-928h-285z" />
<glyph unicode="&#x39e;" horiz-adv-x="1200" d="M72 1221v256h1056v-256h-1056zM92 0v256h1034v-256h-1034zM205 616v263h788v-263h-788z" />
<glyph unicode="&#x39f;" horiz-adv-x="1478" d="M102 729q0 377 162 577.5t479 200.5q305 0 469 -195.5t164 -582.5q0 -371 -158.5 -568.5t-490.5 -197.5q-168 0 -286.5 50t-193.5 146.5t-110 240t-35 329.5zM446 729q0 -274 69.5 -396t219.5 -122q74 0 129.5 27.5t93 89t56 161t18.5 242.5q0 276 -68.5 402.5 t-218.5 126.5q-70 0 -125 -29t-94 -91.5t-59.5 -164t-20.5 -246.5z" />
<glyph unicode="&#x3a0;" horiz-adv-x="1400" d="M143 0v1477h1114v-1477h-329v1210h-455v-1210h-330z" />
<glyph unicode="&#x3a1;" horiz-adv-x="1230" d="M143 0v1477h469q127 0 230.5 -18.5t176.5 -70t111.5 -141.5t38.5 -231q0 -131 -42 -221t-115.5 -145.5t-176 -80t-223.5 -24.5h-139v-545h-330zM473 791h131q111 0 164 58t53 167q0 115 -46 170t-171 55h-131v-450z" />
<glyph unicode="&#x3a3;" horiz-adv-x="1204" d="M61 0v174l410 455q43 51 55.5 72.5t12.5 46.5t-11.5 47t-56.5 71l-410 437v174h1072v-267h-607l260 -288q47 -51 59.5 -94.5t12.5 -79.5q0 -37 -12 -80t-60 -95l-280 -307h627v-266h-1072z" />
<glyph unicode="&#x3a4;" horiz-adv-x="1169" d="M20 1221v256h1129v-256h-399v-1221h-330v1221h-400z" />
<glyph unicode="&#x3a5;" horiz-adv-x="1206" d="M20 1452l326 45l215 -647q10 -31 21.5 -46.5t31.5 -15.5q16 0 27.5 10.5t28.5 51.5l233 647l293 -41l-287 -731q-20 -53 -55 -103.5t-88 -72.5v-549h-330v549q-66 16 -99.5 64.5t-62.5 125.5z" />
<glyph unicode="&#x3a6;" horiz-adv-x="1617" d="M61 745q0 143 46.5 247t126 173.5t187 107.5t230.5 50v174h310v-174q117 -12 225 -50t190 -107.5t131 -176t49 -256.5q0 -145 -47 -247.5t-128 -172t-189.5 -107.5t-230.5 -50v-179h-310v179q-117 12 -224.5 50t-188 107.5t-129 175t-48.5 256.5zM408 743 q0 -98 20.5 -162.5t54 -105.5t77.5 -61.5t91 -30.5v715q-47 -8 -91 -27.5t-77.5 -58.5t-54 -104t-20.5 -165zM961 381q49 8 94 27.5t79.5 58.5t55 103.5t20.5 164.5q0 98 -20.5 164t-54 105.5t-79.5 60t-95 31.5v-715z" />
<glyph unicode="&#x3a7;" horiz-adv-x="1343" d="M10 33l410 700l-354 697l333 67l226 -493q16 -29 26.5 -40.5t30.5 -11.5t30.5 11.5t24.5 35.5l271 498l309 -61l-375 -682l381 -713l-344 -70l-258 514q-16 31 -25.5 41.5t-29.5 10.5t-29.5 -11.5t-24.5 -36.5l-288 -518z" />
<glyph unicode="&#x3a8;" horiz-adv-x="1638" d="M113 956v521h317v-476q0 -96 14.5 -160.5t43 -104.5t70.5 -61.5t97 -31.5v834h322v-836q55 6 99 26.5t73 60.5t44 104.5t15 160.5v484h318v-529q0 -145 -39 -244.5t-111.5 -164t-174 -99t-224.5 -47.5v-416h-322v414q-125 12 -225 45t-171 98.5t-108.5 168t-37.5 253.5z " />
<glyph unicode="&#x3a9;" horiz-adv-x="1589" d="M51 0v246h285q23 0 27 6t4 16t-7.5 20.5t-33.5 37.5q-49 51 -89 106t-68 116.5t-43 133.5t-15 160q0 133 44 252.5t131 211t215 144.5t294 53q184 0 314 -52t213 -140t122 -206t39 -249q0 -176 -64.5 -301t-167.5 -229q-27 -27 -34 -37t-7 -21q0 -12 6.5 -17t24.5 -5h297 v-246h-440q-68 0 -108 17.5t-59.5 45t-24.5 60.5t-5 61q0 51 27.5 95.5t60.5 89.5q27 37 54.5 82t48 102t34 130t13.5 165q0 94 -20.5 172t-62.5 133t-106.5 86t-154.5 31q-88 0 -154 -32t-109 -90t-64.5 -138t-21.5 -176q0 -86 15.5 -157t39 -127t52.5 -101.5t55 -79.5 q33 -41 59.5 -85t26.5 -91q0 -31 -6 -66t-26.5 -62.5t-61.5 -46t-108 -18.5h-441z" />
<glyph unicode="&#x3aa;" horiz-adv-x="606" d="M-70 1751q0 72 40 119t118 47t119 -47t41 -119t-41 -117t-119 -45t-118 45t-40 117zM135 0v1477h330v-1477h-330zM403 1751q0 72 40 119t118 47q80 0 120 -47t40 -119t-40 -117t-120 -45q-78 0 -118 45t-40 117z" />
<glyph unicode="&#x3ab;" horiz-adv-x="1206" d="M20 1452l326 45l215 -647q10 -31 21.5 -46.5t31.5 -15.5q16 0 27.5 10.5t28.5 51.5l233 647l293 -41l-287 -731q-20 -53 -55 -103.5t-88 -72.5v-549h-330v549q-66 16 -99.5 64.5t-62.5 125.5zM221 1751q0 72 40 119t118 47t119 -47t41 -119t-41 -117t-119 -45t-118 45 t-40 117zM694 1751q0 72 40 119t118 47q80 0 120 -47t40 -119t-40 -117t-120 -45q-78 0 -118 45t-40 117z" />
<glyph unicode="&#x3ac;" horiz-adv-x="1273" d="M102 526q0 270 111 413.5t311 143.5q82 0 144.5 -29.5t128.5 -95.5l106 129l240 -114l-62 -156v-541q0 -80 52 -79q25 0 37 3t34 11l45 -201q-47 -18 -87 -32.5t-103 -14.5q-84 0 -133 24.5t-86 102.5q-72 -66 -149 -96.5t-179 -30.5q-410 0 -410 563zM418 522 q0 -90 12 -153.5t35.5 -103.5t54.5 -57.5t68 -17.5q53 0 93 17.5t87 52.5v506q-27 41 -66.5 66.5t-85.5 25.5q-109 0 -153.5 -92t-44.5 -244zM510 1231l120 446l248 -80l-205 -426z" />
<glyph unicode="&#x3ad;" horiz-adv-x="985" d="M90 268q0 98 54 172t132 101q-41 16 -68.5 43.5t-44 60.5t-24.5 68t-8 65q0 43 16.5 96.5t65.5 99.5t139 77.5t238 31.5q121 0 213 -30.5t145 -59.5l-88 -188q-61 35 -131 52t-129 17q-104 0 -140 -34.5t-36 -91.5q0 -66 42 -87.5t130 -21.5h203v-215h-220 q-100 0 -137 -31t-37 -98q0 -61 47.5 -91t151.5 -30q76 0 132 16.5t132 49.5l86 -189q-100 -47 -195.5 -67.5t-207.5 -20.5q-127 0 -215 20.5t-142.5 59.5t-79 96.5t-24.5 128.5zM432 1231l120 446l248 -80l-205 -426z" />
<glyph unicode="&#x3ae;" horiz-adv-x="1191" d="M61 973l240 114l107 -149q84 76 157.5 110.5t165.5 34.5q109 0 176.5 -31.5t106.5 -90t52 -138.5t13 -174v-1093h-313v1048q0 121 -28.5 174t-121.5 53q-106 0 -180 -98v-733h-313v817zM543 1231l120 446l248 -80l-205 -426z" />
<glyph unicode="&#x3af;" horiz-adv-x="716" d="M133 350v697h313v-693q0 -80 19.5 -120.5t83.5 -40.5q27 0 56.5 4t51.5 12l60 -203q-35 -18 -91.5 -30.5t-133.5 -12.5q-104 0 -173 20.5t-111 66.5t-58.5 120t-16.5 180zM191 1231l120 446l248 -80l-205 -426z" />
<glyph unicode="&#x3b0;" horiz-adv-x="1232" d="M23 1024q51 23 107 37t128 14q106 0 172 -64.5t66 -199.5q0 -59 -1 -104t-3.5 -84t-3.5 -78t-1 -88q0 -147 41 -208t119 -61q43 0 80 15.5t62.5 55.5t41 110.5t15.5 179.5q0 125 -23.5 245.5t-66.5 247.5l280 33q57 -127 81 -258t24 -262q0 -303 -121 -447.5t-395 -144.5 q-96 0 -175 21.5t-137.5 71.5t-90.5 134t-32 209q0 98 3.5 173t3.5 141q0 59 -11.5 94t-52.5 35q-10 0 -25.5 -2t-31.5 -9zM57 1384q0 72 40 119t118 47t118.5 -47t40.5 -119t-40.5 -116.5t-118.5 -44.5t-118 45t-40 116zM413 1231l121 446l248 -80l-205 -426zM776 1384 q0 72 40 119t118 47q80 0 119.5 -47t39.5 -119t-39.5 -116.5t-119.5 -44.5q-78 0 -118 45t-40 116z" />
<glyph unicode="&#x3b1;" horiz-adv-x="1273" d="M102 526q0 270 111 413.5t311 143.5q82 0 144.5 -29.5t128.5 -95.5l106 129l240 -114l-62 -156v-541q0 -80 52 -79q25 0 37 3t34 11l45 -201q-47 -18 -87 -32.5t-103 -14.5q-84 0 -133 24.5t-86 102.5q-72 -66 -149 -96.5t-179 -30.5q-410 0 -410 563zM418 522 q0 -90 12 -153.5t35.5 -103.5t54.5 -57.5t68 -17.5q53 0 93 17.5t87 52.5v506q-27 41 -66.5 66.5t-85.5 25.5q-109 0 -153.5 -92t-44.5 -244z" />
<glyph unicode="&#x3b2;" horiz-adv-x="1284" d="M133 -446v1439q0 119 30 214.5t92 162t158.5 102t231.5 35.5q231 0 347 -101.5t116 -275.5q0 -113 -47 -196.5t-133 -130.5q49 -14 96 -42t86 -74t62.5 -110.5t23.5 -150.5q0 -211 -127 -332t-399 -121q-59 0 -115.5 9.5t-108.5 25.5v-454h-313zM446 238 q47 -18 95.5 -28.5t128.5 -10.5q57 0 97 19.5t65.5 51t38 73.5t12.5 85q0 121 -73 184.5t-235 63.5v219q111 0 170.5 44t59.5 161q0 104 -45 147t-127 43q-109 0 -148 -75.5t-39 -210.5v-766z" />
<glyph unicode="&#x3b3;" horiz-adv-x="1288" d="M10 1032q53 23 118 39t124 16q61 0 105 -11t77 -35.5t58.5 -62.5t48.5 -91q18 -45 37.5 -108.5t37 -135.5t33 -144.5t27.5 -136.5q4 -20 10 -57t12 -96q10 0 20.5 5t16.5 28l221 835l301 -59l-256 -832q-33 -106 -94 -160.5t-188 -62.5q10 -100 14 -184t4 -144v-79h-303 v79q0 76 -7 172.5t-16.5 189.5t-20.5 169t-17 113q-8 45 -21.5 113.5t-31 140t-36 135t-36.5 98.5q-18 37 -35.5 53.5t-56.5 16.5q-25 0 -50.5 -6.5t-35.5 -10.5z" />
<glyph unicode="&#x3b4;" horiz-adv-x="1173" d="M82 438q0 109 28.5 192t74.5 146.5t105.5 108.5t121.5 76l-111 100q-53 49 -85 95t-32 128q0 92 59.5 142.5t155.5 50.5h588v-232h-405q-37 0 -37 -26q0 -14 7 -23.5t23 -21.5l162 -130q57 -45 120 -101t115 -125.5t86 -154.5t34 -188q0 -109 -31 -203t-95.5 -162.5 t-161.5 -107.5t-229 -39q-139 0 -233 40t-152.5 106.5t-83 151.5t-24.5 177zM395 461q0 -123 47 -198t146 -75q94 0 141 71t47 206q0 66 -16.5 118t-41 92t-54 70.5t-58.5 53.5l-31 24q-39 -29 -71.5 -60.5t-57 -74.5t-38 -98t-13.5 -129z" />
<glyph unicode="&#x3b5;" horiz-adv-x="976" d="M82 268q0 98 54 172t132 101q-41 16 -68.5 43.5t-44 60.5t-24.5 68t-8 65q0 43 16.5 96.5t65.5 99.5t139 77.5t238 31.5q121 0 213 -30.5t145 -59.5l-88 -188q-61 35 -131 52t-129 17q-104 0 -140 -34.5t-36 -91.5q0 -66 42 -87.5t130 -21.5h203v-215h-220 q-100 0 -137 -31t-37 -98q0 -61 47.5 -91t151.5 -30q76 0 132 16.5t132 49.5l86 -189q-100 -47 -195.5 -67.5t-207.5 -20.5q-127 0 -215 20.5t-142.5 59.5t-79 96.5t-24.5 128.5z" />
<glyph unicode="&#x3b6;" horiz-adv-x="1019" d="M102 385q0 104 28 200.5t83 190.5t137 191.5t193 206.5q14 14 24.5 22t10.5 23q0 27 -37 26h-387v232h583q84 0 130 -34t46 -114q0 -66 -43 -127t-106 -129q-55 -59 -116.5 -123.5t-114 -139.5t-86 -161t-33.5 -190q0 -57 12 -95t34.5 -61.5t57.5 -38t82 -26.5t78 -17.5 t65 -13.5q78 -18 126.5 -46t75 -63t35.5 -73.5t9 -75.5q0 -109 -56 -204t-134 -177l-189 94q35 47 62.5 96t27.5 109q0 43 -25.5 65.5t-101.5 36.5q-37 6 -82 16.5t-88 20.5q-59 14 -113 41t-96 71t-67 108.5t-25 158.5z" />
<glyph unicode="&#x3b7;" horiz-adv-x="1191" d="M61 973l240 114l107 -149q84 76 157.5 110.5t165.5 34.5q109 0 176.5 -31.5t106.5 -90t52 -138.5t13 -174v-1093h-313v1048q0 121 -28.5 174t-121.5 53q-106 0 -180 -98v-733h-313v817z" />
<glyph unicode="&#x3b8;" horiz-adv-x="1179" d="M82 731q0 389 124 582.5t388 193.5q268 0 386 -191.5t118 -584.5q0 -383 -120 -575.5t-384 -192.5q-268 0 -390 190.5t-122 577.5zM397 627q4 -133 18.5 -218t39 -134.5t59.5 -69t78 -19.5q45 0 79 19.5t57.5 69t36.5 134.5t17 218h-385zM397 858h385q-4 127 -17 211 t-36.5 134t-57.5 70.5t-79 20.5q-41 0 -74 -17t-58.5 -65.5t-42 -133.5t-20.5 -220z" />
<glyph unicode="&#x3b9;" horiz-adv-x="716" d="M133 350v697h313v-693q0 -80 19.5 -120.5t83.5 -40.5q27 0 56.5 4t51.5 12l60 -203q-35 -18 -91.5 -30.5t-133.5 -12.5q-104 0 -173 20.5t-111 66.5t-58.5 120t-16.5 180z" />
<glyph unicode="&#x3ba;" horiz-adv-x="1128" d="M133 0v1047h313v-418h56q31 0 50 15t34 40l209 379l274 -66l-272 -467l311 -483l-309 -72l-228 363q-23 35 -36 49t-41 14h-48v-401h-313z" />
<glyph unicode="&#x3bb;" horiz-adv-x="1259" d="M33 20l428 1014l-43 142q-14 47 -38 66.5t-67 19.5q-25 0 -52.5 -6.5t-37.5 -10.5l-55 207q53 23 116.5 39t135.5 16q213 0 278 -219l303 -985q12 -39 38 -63.5t65 -24.5q25 0 50.5 6t35.5 10l59 -213q-53 -23 -114.5 -39t-120.5 -16q-123 0 -191.5 53.5t-99.5 165.5 l-135 477l-266 -692z" />
<glyph unicode="&#x3bc;" horiz-adv-x="1189" d="M123 -446v1493h313v-629q0 -117 36 -162t120 -45q49 0 93 18.5t68 46.5v771h314v-822l67 -145l-252 -123l-94 129q-51 -55 -116.5 -89t-131.5 -34q-27 0 -58.5 4t-51.5 15v-428h-307z" />
<glyph unicode="&#x3bd;" horiz-adv-x="1216" d="M10 1034q47 23 105.5 38t124.5 15q119 0 179 -54t83 -179l114 -610q6 -35 29 -35q10 0 18.5 5t14.5 28l196 835l302 -59l-232 -832q-31 -111 -102.5 -167t-194.5 -56q-84 0 -140 14.5t-92 42t-55.5 69.5t-31.5 97l-119 564q-10 53 -25.5 76.5t-50.5 23.5q-23 0 -39 -4 t-26 -8z" />
<glyph unicode="&#x3be;" horiz-adv-x="1093" d="M92 403q0 51 13.5 106.5t42 107t71.5 95.5t103 72q-59 35 -96.5 76t-59 83t-28.5 83t-7 76q0 74 22.5 145.5t80 130t152.5 94t241 35.5q111 0 221 -24.5t205 -79.5l-117 -215q-70 39 -142.5 52t-140.5 13q-115 0 -158.5 -48t-43.5 -124q0 -104 65.5 -144t183.5 -40h228 v-246h-266q-70 0 -117 -17.5t-76 -46t-41 -66.5t-12 -81q0 -63 25.5 -102t68.5 -61.5t98.5 -36t114.5 -23.5q63 -12 123.5 -26.5t109 -42t78 -75.5t29.5 -128q0 -59 -16.5 -109.5t-43 -96.5t-60.5 -88t-69 -83l-184 98q29 41 58.5 91t29.5 102q0 53 -35 70.5t-92 27.5 q-109 20 -209 40.5t-178 64.5t-125 124t-47 217z" />
<glyph unicode="&#x3bf;" horiz-adv-x="1165" d="M82 520q0 129 32.5 233.5t96 178.5t159 112.5t220.5 38.5q254 0 373.5 -143t119.5 -412q0 -131 -30.5 -235.5t-94 -178t-160 -112.5t-225.5 -39q-137 0 -230 40t-151.5 113.5t-84 176t-25.5 227.5zM395 520q0 -174 45.5 -253t143.5 -79q94 0 139 76t45 258q0 176 -40 256 t-138 80q-96 0 -145.5 -76.5t-49.5 -261.5z" />
<glyph unicode="&#x3c0;" horiz-adv-x="1470" d="M20 825v222h1385v-222h-256l2 -473q0 -78 18.5 -118.5t83.5 -40.5q47 0 97 16l59 -203q-33 -12 -87 -27.5t-132 -15.5q-104 0 -172 20.5t-108 65.5t-55 116t-15 171v489h-297v-825h-314v825h-209z" />
<glyph unicode="&#x3c1;" horiz-adv-x="1210" d="M123 -446v1009q0 109 27.5 204t89 166t158 110.5t235.5 39.5q238 0 366.5 -135t128.5 -428q0 -129 -35.5 -232.5t-97 -175t-143.5 -110.5t-174 -39q-66 0 -123 11.5t-119 45.5v-466h-313zM436 240q29 -23 74 -37.5t86 -14.5q217 0 217 334q0 76 -7 138.5t-27.5 106.5 t-56.5 67.5t-93 23.5q-94 0 -143.5 -62.5t-49.5 -224.5v-331z" />
<glyph unicode="&#x3c2;" horiz-adv-x="991" d="M92 502q0 276 141.5 428.5t393.5 152.5q92 0 167.5 -18t166.5 -64l-93 -200q-57 29 -109 43t-120 14q-104 0 -172 -82t-68 -262q0 -59 14.5 -104t45 -79t76 -59.5t106.5 -50.5t120.5 -46t105.5 -52t75 -78t29 -121q0 -98 -51.5 -191t-139.5 -188l-192 101q31 41 57.5 87 t26.5 101t-45 81t-127 52q-63 20 -135 52t-132.5 90.5t-100.5 153t-40 239.5z" />
<glyph unicode="&#x3c3;" horiz-adv-x="1216" d="M92 492q0 268 146.5 411.5t414.5 143.5h553v-222h-268q84 -76 115.5 -166t31.5 -206q0 -104 -28.5 -193.5t-90 -155t-156.5 -103.5t-226 -38q-135 0 -228.5 35t-152 102.5t-85 166t-26.5 225.5zM406 492q0 -304 188 -304q94 0 139 74t45 240q0 117 -20.5 198.5 t-69.5 122.5h-20q-123 0 -192.5 -73.5t-69.5 -257.5z" />
<glyph unicode="&#x3c4;" horiz-adv-x="995" d="M10 825v222h922v-222h-326v-424q0 -117 25.5 -162.5t91.5 -45.5q35 0 74 8t69 18l68 -199q-43 -20 -117 -38.5t-151 -18.5q-109 0 -180.5 21.5t-114.5 71.5t-60.5 132t-17.5 203v434h-283z" />
<glyph unicode="&#x3c5;" horiz-adv-x="1232" d="M23 1024q51 23 107 37t128 14q106 0 172 -64.5t66 -199.5q0 -59 -1 -104t-3.5 -84t-3.5 -78t-1 -88q0 -147 41 -208t119 -61q43 0 80 15.5t62.5 55.5t41 110.5t15.5 179.5q0 125 -23.5 245.5t-66.5 247.5l280 33q57 -127 81 -258t24 -262q0 -303 -121 -447.5t-395 -144.5 q-96 0 -175 21.5t-137.5 71.5t-90.5 134t-32 209q0 98 3.5 173t3.5 141q0 59 -11.5 94t-52.5 35q-10 0 -25.5 -2t-31.5 -9z" />
<glyph unicode="&#x3c6;" horiz-adv-x="1591" d="M82 520q0 123 42 222.5t116.5 170t178 113.5t226.5 53v398h305v-398q129 -10 232.5 -52t176.5 -112.5t111.5 -170t38.5 -224.5q0 -252 -147.5 -391t-411.5 -162v-413h-305v413q-133 8 -237.5 44t-176 102.5t-110.5 167t-39 239.5zM397 522q0 -78 20.5 -136t55.5 -98 t79 -63.5t93 -29.5v661q-47 -6 -91 -28.5t-79 -63.5t-56.5 -100.5t-21.5 -141.5zM950 190q43 6 86 29t79 63t57.5 99t21.5 141q0 80 -21.5 139.5t-55.5 100.5t-78 63.5t-89 28.5v-664z" />
<glyph unicode="&#x3c7;" horiz-adv-x="1185" d="M10 1036q51 23 106.5 37t112.5 14q66 0 111 -14t75.5 -43t50 -72t34.5 -98l88 -334q10 -45 35 -45q16 0 22 10.5t17 34.5l202 553l295 -61l-268 -666l143 -465q18 -57 42 -79.5t65 -22.5q45 0 65 10l51 -203q-88 -47 -219 -47q-121 0 -183 58.5t-95 169.5l-105 360 q-8 29 -16 37t-23 8q-25 0 -41 -45l-241 -590l-279 76l303 705l-125 424q-16 59 -36.5 80.5t-61.5 21.5q-18 0 -37.5 -4t-29.5 -8z" />
<glyph unicode="&#x3c8;" horiz-adv-x="1593" d="M82 1012l309 39l41 -506q14 -174 62.5 -256t144.5 -103v1291h309v-1293q98 18 148.5 96t64.5 257l41 514l309 -39l-41 -520q-12 -143 -48 -244t-100.5 -165.5t-157.5 -99t-216 -46.5v-381h-309v381q-123 12 -214 45.5t-153.5 100.5t-99.5 169t-49 252z" />
<glyph unicode="&#x3c9;" horiz-adv-x="1675" d="M82 483q0 68 14.5 148t39 161.5t59 159.5t77.5 142l254 -105q-68 -117 -106.5 -242.5t-38.5 -248.5q0 -166 38 -238t109 -72q88 0 122 64.5t34 204.5v319h309v-319q0 -139 34 -204t122 -65q37 0 64.5 14.5t46 50.5t27.5 95.5t9 149.5q0 123 -38.5 248.5t-106.5 242.5 l254 105q43 -63 78 -138t59.5 -154t37.5 -156t13 -144q0 -272 -96 -405.5t-328 -133.5q-102 0 -188 42t-143 122q-123 -164 -344 -164t-316.5 124t-95.5 396z" />
<glyph unicode="&#x3ca;" horiz-adv-x="716" d="M-105 1384q0 72 40 119t118 47t119 -47t41 -119t-41 -116.5t-119 -44.5t-118 45t-40 116zM133 350v697h313v-693q0 -80 19.5 -120.5t83.5 -40.5q27 0 56.5 4t51.5 12l60 -203q-35 -18 -91.5 -30.5t-133.5 -12.5q-104 0 -173 20.5t-111 66.5t-58.5 120t-16.5 180z M368 1384q0 72 40 119t118 47q80 0 120 -47t40 -119t-40 -116.5t-120 -44.5q-78 0 -118 45t-40 116z" />
<glyph unicode="&#x3cb;" horiz-adv-x="1232" d="M23 1024q51 23 107 37t128 14q106 0 172 -64.5t66 -199.5q0 -59 -1 -104t-3.5 -84t-3.5 -78t-1 -88q0 -147 41 -208t119 -61q43 0 80 15.5t62.5 55.5t41 110.5t15.5 179.5q0 125 -23.5 245.5t-66.5 247.5l280 33q57 -127 81 -258t24 -262q0 -303 -121 -447.5t-395 -144.5 q-96 0 -175 21.5t-137.5 71.5t-90.5 134t-32 209q0 98 3.5 173t3.5 141q0 59 -11.5 94t-52.5 35q-10 0 -25.5 -2t-31.5 -9zM211 1384q0 72 40 119t118 47t119 -47t41 -119t-41 -116.5t-119 -44.5t-118 45t-40 116zM684 1384q0 72 40 119t118 47q80 0 120 -47t40 -119 t-40 -116.5t-120 -44.5q-78 0 -118 45t-40 116z" />
<glyph unicode="&#x3cc;" horiz-adv-x="1185" d="M82 520q0 129 32.5 233.5t96 178.5t159 112.5t220.5 38.5q254 0 373.5 -143t119.5 -412q0 -131 -30.5 -235.5t-94 -178t-160 -112.5t-225.5 -39q-137 0 -230 40t-151.5 113.5t-84 176t-25.5 227.5zM395 520q0 -174 45.5 -253t143.5 -79q94 0 139 76t45 258q0 176 -40 256 t-138 80q-96 0 -145.5 -76.5t-49.5 -261.5zM469 1231l120 446l248 -80l-205 -426z" />
<glyph unicode="&#x3cd;" horiz-adv-x="1232" d="M23 1024q51 23 107 37t128 14q106 0 172 -64.5t66 -199.5q0 -59 -1 -104t-3.5 -84t-3.5 -78t-1 -88q0 -147 41 -208t119 -61q43 0 80 15.5t62.5 55.5t41 110.5t15.5 179.5q0 125 -23.5 245.5t-66.5 247.5l280 33q57 -127 81 -258t24 -262q0 -303 -121 -447.5t-395 -144.5 q-96 0 -175 21.5t-137.5 71.5t-90.5 134t-32 209q0 98 3.5 173t3.5 141q0 59 -11.5 94t-52.5 35q-10 0 -25.5 -2t-31.5 -9zM506 1231l120 446l248 -80l-205 -426z" />
<glyph unicode="&#x3ce;" horiz-adv-x="1675" d="M82 483q0 68 14.5 148t39 161.5t59 159.5t77.5 142l254 -105q-68 -117 -106.5 -242.5t-38.5 -248.5q0 -166 38 -238t109 -72q88 0 122 64.5t34 204.5v319h309v-319q0 -139 34 -204t122 -65q37 0 64.5 14.5t46 50.5t27.5 95.5t9 149.5q0 123 -38.5 248.5t-106.5 242.5 l254 105q43 -63 78 -138t59.5 -154t37.5 -156t13 -144q0 -272 -96 -405.5t-328 -133.5q-102 0 -188 42t-143 122q-123 -164 -344 -164t-316.5 124t-95.5 396zM715 1231l120 446l248 -80l-205 -426z" />
<glyph unicode="&#x401;" horiz-adv-x="1161" d="M143 0v1477h957v-256h-627v-338h465v-262h-465v-365h647v-256h-977zM233 1751q0 72 40 119t118 47t119 -47t41 -119t-41 -117t-119 -45t-118 45t-40 117zM706 1751q0 72 40 119t118 47q80 0 120 -47t40 -119t-40 -117t-120 -45q-78 0 -118 45t-40 117z" />
<glyph unicode="&#x402;" horiz-adv-x="1536" d="M41 1221v256h1022v-256h-354v-308q53 29 129.5 46.5t146.5 17.5q229 0 348 -128t119 -364q0 -98 -23.5 -189t-80 -160.5t-149.5 -111.5t-232 -42q-41 0 -82 7t-72 17l37 201q37 -10 86 -10q104 0 147 74.5t43 211.5q0 84 -15 136.5t-42 82t-65.5 40t-83.5 10.5 q-18 0 -45 -2t-57 -7.5t-58.5 -14.5t-50.5 -23v-705h-330v1221h-338z" />
<glyph unicode="&#x403;" horiz-adv-x="1071" d="M143 0v1477h887v-258h-557v-1219h-330zM348 1690l354 346l176 -201l-416 -285z" />
<glyph unicode="&#x404;" horiz-adv-x="1247" d="M102 729q0 377 172 577.5t494 200.5q72 0 130 -9t109.5 -25.5t96.5 -40t90 -50.5l-121 -213q-76 51 -148.5 71t-144.5 20q-141 0 -224 -89.5t-103 -298.5h456v-245h-460q14 -217 89.5 -310.5t211.5 -93.5q119 0 200.5 24.5t159.5 74.5l117 -220q-59 -41 -115.5 -67.5 t-115 -42t-122 -22.5t-137.5 -7q-172 0 -292.5 50t-196.5 146.5t-111 240t-35 329.5z" />
<glyph unicode="&#x405;" horiz-adv-x="1224" d="M51 100l115 222q111 -63 203 -87t184 -24q135 0 192.5 49t57.5 135q0 41 -11.5 72t-42 54.5t-85 44t-140.5 40.5q-96 23 -176 54.5t-137 82t-89 124t-32 182.5q0 213 144.5 335.5t408.5 122.5q139 0 247.5 -29.5t221.5 -93.5l-121 -215q-20 12 -56 30t-80 32t-93 24.5 t-98 10.5q-131 0 -186.5 -45t-55.5 -117q0 -47 16.5 -79t53 -56.5t97 -45t148.5 -44.5q70 -20 141.5 -49t130 -77t96.5 -121t38 -183q0 -238 -146.5 -362t-427.5 -124q-168 0 -295 36t-223 101z" />
<glyph unicode="&#x406;" horiz-adv-x="616" d="M143 0v1477h330v-1477h-330z" />
<glyph unicode="&#x407;" horiz-adv-x="616" d="M-86 1751q0 72 40 119t118 47t119 -47t41 -119t-41 -117t-119 -45t-118 45t-40 117zM143 0v1477h330v-1477h-330zM387 1751q0 72 40 119t118 47q80 0 120 -47t40 -119t-40 -117t-120 -45q-78 0 -118 45t-40 117z" />
<glyph unicode="&#x408;" horiz-adv-x="1050" d="M12 76l103 215q47 -27 118.5 -52.5t163.5 -25.5q102 0 146.5 58.5t44.5 181.5v1024h330v-1004q0 -131 -27 -227t-86.5 -158.5t-154.5 -93.5t-230 -31t-242.5 36t-165.5 77z" />
<glyph unicode="&#x409;" horiz-adv-x="2107" d="M10 115q53 47 96.5 97t77.5 120q29 57 42.5 121.5t21.5 140.5l94 883h891v-557h235q127 0 230.5 -23t176.5 -75t111.5 -139t38.5 -218q0 -119 -41.5 -207t-115.5 -145.5t-176.5 -85t-223.5 -27.5h-565v1210h-278l-68 -616q-6 -47 -15.5 -102.5t-23.5 -109.5t-32.5 -103.5 t-41.5 -85.5q-41 -68 -91 -122.5t-122 -107.5zM1233 233h227q111 0 167 58.5t56 157.5q0 115 -49 164t-174 49h-227v-429z" />
<glyph unicode="&#x40a;" horiz-adv-x="2144" d="M143 0v1477h330v-592h467v592h330v-596h235q127 0 230.5 -18.5t176.5 -66.5t111.5 -132t38.5 -215q0 -119 -42 -204t-115.5 -139.5t-176 -80t-223.5 -25.5h-565v618h-467v-618h-330zM1270 233h227q121 0 172 50.5t51 148.5q0 51 -10 88t-34.5 59.5t-67.5 33t-111 10.5 h-227v-390z" />
<glyph unicode="&#x40b;" horiz-adv-x="1499" d="M20 1221v256h1022v-256h-354v-349q86 61 168 83t162 22q109 0 179.5 -32t112.5 -90t59 -138t17 -174v-543h-329v498q0 121 -31 174t-123 53q-45 0 -97 -15.5t-118 -68.5v-641h-330v1221h-338z" />
<glyph unicode="&#x40c;" horiz-adv-x="1333" d="M143 0v1477h330v-592h53q51 0 78 22.5t49 71.5l148 317q51 109 117.5 150t162.5 41q66 0 124.5 -12.5t92.5 -26.5l-53 -219q-39 14 -76 14q-41 0 -63.5 -26.5t-44.5 -79.5l-100 -234q-14 -35 -30 -57.5t-44 -42.5l416 -760l-347 -70l-346 645h-137v-618h-330zM559 1690 l354 346l176 -201l-416 -285z" />
<glyph unicode="&#x40e;" horiz-adv-x="1259" d="M20 1440l349 55l198 -758q18 -68 51 -80t72 -12l217 850l322 -59l-320 -1114q-20 -72 -52 -137.5t-84 -116t-131 -81t-191 -30.5q-72 0 -134.5 9t-128.5 32l52 227q100 -43 186 -43q88 0 137 41t68 139l6 33q-88 0 -152.5 13.5t-110.5 43t-77 79t-51 122.5zM258 1876 l172 59q29 -59 82 -94t127 -35t127 35t82 94l172 -59q-23 -76 -65 -127t-94 -83t-109.5 -46.5t-112.5 -14.5t-112.5 14.5t-109.5 46.5t-94 83t-65 127z" />
<glyph unicode="&#x40f;" horiz-adv-x="1454" d="M143 0v1477h330v-1211h508v1211h330v-1477h-418v-291h-330v291h-420z" />
<glyph unicode="&#x410;" horiz-adv-x="1380" d="M20 14l322 1145q23 78 50.5 141.5t68.5 107.5t98 68.5t137 24.5q82 0 141.5 -16.5t101.5 -55t71.5 -103t54.5 -161.5l295 -1161l-330 -33l-104 424h-480l-112 -428zM514 662h350l-110 468q-10 41 -21.5 61.5t-36.5 20.5q-29 0 -42 -19t-23 -60z" />
<glyph unicode="&#x411;" horiz-adv-x="1363" d="M143 0v1477h987v-267h-657v-311h234q127 0 229 -20.5t175 -71.5t112 -136t39 -216q0 -119 -42 -205t-116 -141.5t-175.5 -82t-221.5 -26.5h-564zM473 233h232q111 0 169 53.5t58 151.5q0 115 -51.5 159t-175.5 44h-232v-408z" />
<glyph unicode="&#x412;" horiz-adv-x="1265" d="M143 0v1477h543q109 0 196 -22.5t147.5 -71t93 -122t32.5 -178.5q0 -92 -41 -168.5t-133 -132.5q133 -59 183 -150t50 -208q0 -211 -125.5 -317.5t-381.5 -106.5h-564zM469 236h168q57 0 104 7t80 28.5t50.5 60.5t17.5 102t-15.5 101t-46 59.5t-75.5 29t-105 7.5h-178 v-395zM469 885h162q111 0 158 41t47 143t-52.5 142t-162.5 40h-152v-366z" />
<glyph unicode="&#x413;" horiz-adv-x="1071" d="M143 0v1477h887v-258h-557v-1219h-330z" />
<glyph unicode="&#x414;" horiz-adv-x="1400" d="M10 266h133q59 92 98.5 237.5t59.5 323.5l74 650h872v-1211h111v-557h-330v291h-688v-291h-330v557zM475 266h445v944h-271l-55 -473q-18 -158 -48 -271.5t-71 -199.5z" />
<glyph unicode="&#x415;" horiz-adv-x="1161" d="M143 0v1477h957v-256h-627v-338h465v-262h-465v-365h647v-256h-977z" />
<glyph unicode="&#x416;" horiz-adv-x="1986" d="M31 43l401 748q-29 20 -44 42.5t-30 57.5l-84 246q-20 59 -40.5 82.5t-61.5 23.5q-39 0 -78 -14l-53 219q35 14 96.5 26.5t126.5 12.5q96 0 160.5 -39t110.5 -152l127 -317q20 -49 43.5 -71.5t80.5 -22.5h45v592h322v-592h43q51 0 76.5 22.5t48.5 71.5l133 317 q47 111 115.5 151t165.5 40q66 0 124 -12.5t93 -26.5l-54 -219q-39 14 -75 14q-41 0 -64.5 -26.5t-44.5 -79.5l-86 -234q-23 -63 -74 -100l402 -760l-346 -70l-332 645h-125v-618h-322v618h-122l-332 -645z" />
<glyph unicode="&#x417;" horiz-adv-x="1206" d="M20 127l123 217q47 -27 89 -49.5t90.5 -38.5t107.5 -25.5t139 -9.5q125 0 178.5 52.5t53.5 144.5q0 111 -61.5 161t-211.5 50h-239v245h200q139 0 208 41t69 156q0 80 -46 131t-173 51q-111 0 -199 -34.5t-158 -73.5l-116 215q100 59 223 103t293 44q147 0 243.5 -33.5 t151.5 -91t77.5 -130t22.5 -150.5q0 -35 -7 -78t-27.5 -87t-58.5 -86t-97 -75q66 -25 110 -60.5t70.5 -82.5t37.5 -103.5t11 -117.5q0 -211 -144 -330t-419 -119q-94 0 -172 13.5t-143.5 36t-120.5 52t-105 62.5z" />
<glyph unicode="&#x418;" horiz-adv-x="1454" d="M143 0v1477h330v-859l508 609v250h330v-1477h-330v829l-508 -606v-223h-330z" />
<glyph unicode="&#x419;" horiz-adv-x="1454" d="M143 0v1477h330v-859l508 609v250h330v-1477h-330v829l-508 -606v-223h-330zM346 1876l172 59q29 -59 82 -94t127 -35t127 35t82 94l172 -59q-23 -76 -65 -127t-94 -83t-109.5 -46.5t-112.5 -14.5t-112.5 14.5t-109.5 46.5t-94 83t-65 127z" />
<glyph unicode="&#x41a;" horiz-adv-x="1333" d="M143 0v1477h330v-592h53q51 0 78 22.5t49 71.5l148 317q51 109 117.5 150t162.5 41q66 0 124.5 -12.5t92.5 -26.5l-53 -219q-39 14 -76 14q-41 0 -63.5 -26.5t-44.5 -79.5l-100 -234q-14 -35 -30 -57.5t-44 -42.5l416 -760l-347 -70l-346 645h-137v-618h-330z" />
<glyph unicode="&#x41b;" horiz-adv-x="1384" d="M10 115q53 47 96.5 97t77.5 120q29 57 42.5 121.5t21.5 140.5l94 883h899v-1477h-330v1210h-286l-68 -616q-6 -47 -15.5 -102.5t-23.5 -109.5t-32.5 -103.5t-41.5 -85.5q-41 -68 -91 -122.5t-122 -107.5z" />
<glyph unicode="&#x41c;" horiz-adv-x="1652" d="M102 0l74 1477h311l297 -680q10 -23 17.5 -35t25.5 -12t25.5 12t17.5 35l324 680h291l74 -1477h-316l-26 934l-187 -395q-35 -70 -82 -107t-127 -37q-86 0 -130 36t-79 108l-174 379l-26 -918h-310z" />
<glyph unicode="&#x41d;" horiz-adv-x="1413" d="M143 0v1477h330v-592h467v592h330v-1477h-330v618h-467v-618h-330z" />
<glyph unicode="&#x41e;" horiz-adv-x="1478" d="M102 729q0 377 162 577.5t479 200.5q305 0 469 -195.5t164 -582.5q0 -371 -158.5 -568.5t-490.5 -197.5q-168 0 -286.5 50t-193.5 146.5t-110 240t-35 329.5zM446 729q0 -274 69.5 -396t219.5 -122q74 0 129.5 27.5t93 89t56 161t18.5 242.5q0 276 -68.5 402.5 t-218.5 126.5q-70 0 -125 -29t-94 -91.5t-59.5 -164t-20.5 -246.5z" />
<glyph unicode="&#x41f;" horiz-adv-x="1400" d="M143 0v1477h1114v-1477h-329v1210h-455v-1210h-330z" />
<glyph unicode="&#x420;" horiz-adv-x="1230" d="M143 0v1477h469q127 0 230.5 -18.5t176.5 -70t111.5 -141.5t38.5 -231q0 -131 -42 -221t-115.5 -145.5t-176 -80t-223.5 -24.5h-139v-545h-330zM473 791h131q111 0 164 58t53 167q0 115 -46 170t-171 55h-131v-450z" />
<glyph unicode="&#x421;" horiz-adv-x="1247" d="M102 729q0 377 172 577.5t494 200.5q72 0 130 -9t109.5 -25.5t96.5 -40t90 -50.5l-121 -213q-76 51 -148.5 71t-144.5 20q-82 0 -144.5 -29t-104.5 -91.5t-63.5 -164t-21.5 -246.5q0 -268 86 -389t248 -121q82 0 163 24.5t167 78.5l117 -216q-115 -76 -234 -109.5 t-239 -33.5q-340 0 -496 187.5t-156 578.5z" />
<glyph unicode="&#x422;" horiz-adv-x="1169" d="M20 1221v256h1129v-256h-399v-1221h-330v1221h-400z" />
<glyph unicode="&#x423;" horiz-adv-x="1259" d="M20 1440l349 55l198 -758q18 -68 51 -80t72 -12l217 850l322 -59l-320 -1114q-20 -72 -52 -137.5t-84 -116t-131 -81t-191 -30.5q-72 0 -134.5 9t-128.5 32l52 227q100 -43 186 -43q88 0 137 41t68 139l6 33q-88 0 -152.5 13.5t-110.5 43t-77 79t-51 122.5z" />
<glyph unicode="&#x424;" horiz-adv-x="1660" d="M82 727q0 137 41 242.5t117.5 177.5t186.5 111.5t247 50.5v188h313v-182q289 -16 440.5 -158.5t151.5 -406.5q0 -279 -152.5 -422.5t-439.5 -161.5v-186h-313v184q-299 12 -445.5 156.5t-146.5 406.5zM418 733q0 -156 59.5 -233.5t196.5 -87.5v649q-63 -4 -111.5 -23.5 t-80 -57.5t-48 -98.5t-16.5 -148.5zM987 412q127 10 191.5 84.5t64.5 244.5q0 164 -59.5 239t-196.5 85v-653z" />
<glyph unicode="&#x425;" horiz-adv-x="1343" d="M10 33l410 700l-354 697l333 67l226 -493q16 -29 26.5 -40.5t30.5 -11.5t30.5 11.5t24.5 35.5l271 498l309 -61l-375 -682l381 -713l-344 -70l-258 514q-16 31 -25.5 41.5t-29.5 10.5t-29.5 -11.5t-24.5 -36.5l-288 -518z" />
<glyph unicode="&#x426;" horiz-adv-x="1454" d="M143 0v1477h330v-1211h455v1211h329v-1211h166v-557h-329v291h-951z" />
<glyph unicode="&#x427;" horiz-adv-x="1357" d="M92 920v557h330v-496q0 -66 10 -106.5t35 -65.5t64.5 -34t99.5 -9q70 0 130 11t124 40v660h329v-1477h-329v561q-111 -41 -206 -56.5t-173 -15.5q-225 0 -319.5 109t-94.5 322z" />
<glyph unicode="&#x428;" horiz-adv-x="1943" d="M143 0v1477h330v-1211h336v1211h326v-1211h335v1211h330v-1477h-1657z" />
<glyph unicode="&#x429;" horiz-adv-x="1996" d="M143 0v1477h330v-1211h336v1211h326v-1211h335v1211h330v-1211h166v-557h-330v291h-1493z" />
<glyph unicode="&#x42a;" horiz-adv-x="1507" d="M20 1210v267h627v-557h221q127 0 230.5 -23t176.5 -75t111.5 -139t38.5 -218q0 -119 -42 -207t-115.5 -145.5t-176 -85t-223.5 -27.5h-551v1210h-297zM647 233h213q111 0 167 58.5t56 157.5q0 115 -49 164t-174 49h-213v-429z" />
<glyph unicode="&#x42b;" horiz-adv-x="1902" d="M143 0v1477h330v-557h221q127 0 230.5 -23t176.5 -75t111.5 -139t38.5 -218q0 -119 -42 -207t-115.5 -145.5t-176 -85t-223.5 -27.5h-551zM473 233h213q111 0 167 58.5t56 157.5q0 115 -49 164t-174 49h-213v-429zM1430 0v1477h329v-1477h-329z" />
<glyph unicode="&#x42c;" horiz-adv-x="1333" d="M143 0v1477h330v-557h221q127 0 230.5 -23t176.5 -75t111.5 -139t38.5 -218q0 -119 -42 -207t-115.5 -145.5t-176 -85t-223.5 -27.5h-551zM473 233h213q111 0 167 58.5t56 157.5q0 115 -49 164t-174 49h-213v-429z" />
<glyph unicode="&#x42d;" horiz-adv-x="1247" d="M20 102l117 220q78 -49 159 -74t191 -25q72 0 126.5 19.5t93 65.5t60 120t30.5 184h-459v246h459q-4 113 -23.5 189.5t-57.5 124t-95.5 68t-135.5 20.5q-72 0 -157.5 -25t-153.5 -66l-121 213q84 51 207 88t256 37q166 0 286 -49t195.5 -145t111.5 -236.5t36 -324.5 q0 -377 -153.5 -583t-479.5 -206q-147 0 -270 34t-222 105z" />
<glyph unicode="&#x42e;" horiz-adv-x="2017" d="M143 0v1477h330v-582h217q31 297 182.5 454.5t430.5 157.5q305 0 458.5 -195.5t153.5 -582.5q0 -371 -148.5 -568.5t-480.5 -197.5q-156 0 -265.5 42t-182 125t-109.5 206t-45 282h-211v-618h-330zM1026 729q0 -137 14.5 -235.5t46 -161t82.5 -92t125 -29.5t126.5 27.5 t86 89t49 161t15.5 242.5q0 276 -58.5 402.5t-207.5 126.5q-70 0 -122.5 -29t-87 -91.5t-52 -164t-17.5 -246.5z" />
<glyph unicode="&#x42f;" horiz-adv-x="1296" d="M18 125q41 35 83 77t81 99t73.5 132t59.5 175q-39 23 -78.5 53.5t-71.5 75.5t-52.5 108.5t-20.5 153.5q0 129 45 220.5t119 148.5t167 83t189 26h541v-1477h-328v541h-211q-23 -84 -52.5 -162t-70 -148.5t-99 -136t-140.5 -125.5zM442 1018q0 -231 215 -232h166v455h-168 q-121 0 -167 -60.5t-46 -162.5z" />
<glyph unicode="&#x430;" horiz-adv-x="1062" d="M72 297q0 188 113.5 267t342.5 79h131v39q0 84 -34.5 138t-122.5 54q-92 0 -165 -16t-138 -45l-80 199q86 41 201.5 64.5t218.5 23.5q117 0 195.5 -26.5t126.5 -82t68.5 -142.5t20.5 -210v-416l68 -143l-240 -117l-92 135q-78 -68 -146.5 -101.5t-148.5 -33.5 q-152 0 -235.5 88t-83.5 246zM365 326q0 -78 34 -108t97 -30q41 0 88 22.5t75 51.5v205h-131q-78 0 -120.5 -26.5t-42.5 -114.5z" />
<glyph unicode="&#x431;" horiz-adv-x="1196" d="M102 664q0 121 18.5 239.5t67 217t131 168t213.5 93.5l148 27q20 4 41.5 9t40 16.5t34 32t27.5 55.5l193 -54q-12 -127 -67.5 -199.5t-188.5 -97.5l-172 -32q-61 -12 -99 -36t-57.5 -58.5t-27 -83t-7.5 -109.5q20 18 51 38.5t72 39t91.5 31t105.5 12.5q86 0 157.5 -26.5 t122 -83t79 -144.5t28.5 -213q0 -121 -32 -220.5t-96.5 -171t-160.5 -111.5t-225 -40q-160 0 -256 60.5t-147.5 159t-68 224t-16.5 257.5zM410 643q0 -127 10 -214t32.5 -140t59.5 -77t90 -24q94 0 140 80t46 213q0 88 -16 140.5t-40.5 80t-54.5 37t-59 9.5 q-59 0 -116.5 -32t-91.5 -73z" />
<glyph unicode="&#x432;" horiz-adv-x="1110" d="M123 0v1073h543q158 0 249 -67.5t91 -219.5q0 -66 -30 -121t-97 -96q98 -43 134 -109.5t36 -152.5q0 -152 -91.5 -229.5t-277.5 -77.5h-557zM430 205h131q43 0 77 2t57.5 12t36.5 32.5t13 63.5q0 82 -45 104.5t-131 22.5h-139v-237zM430 651h127q80 0 115 25.5t35 91.5 t-38 83t-120 17h-119v-217z" />
<glyph unicode="&#x433;" horiz-adv-x="882" d="M123 0v1073h739v-225h-426v-848h-313z" />
<glyph unicode="&#x434;" horiz-adv-x="1214" d="M31 221h123q53 96 93 307t50 545h770v-852h94v-465h-313v244h-504v-244h-313v465zM457 221h303v627h-191q-8 -203 -34.5 -356.5t-77.5 -270.5z" />
<glyph unicode="&#x435;" horiz-adv-x="1110" d="M82 530q0 125 31.5 229.5t93 180.5t155 118t216.5 42q119 0 203.5 -40t140 -115t81 -182.5t25.5 -240.5l-80 -88h-553q14 -127 72 -186.5t156 -59.5q86 0 152.5 13.5t133.5 48.5l92 -195q-96 -55 -197.5 -73.5t-221.5 -18.5q-135 0 -229.5 38t-155 110.5t-88 178 t-27.5 240.5zM395 637h340q0 238 -157 237q-82 0 -127 -51t-56 -186z" />
<glyph unicode="&#x436;" horiz-adv-x="1558" d="M31 1049q35 16 81 25t83 9q53 0 87.5 -12t58.5 -31.5t39 -46t28 -57.5l92 -223q14 -33 31.5 -44.5t48.5 -11.5h49v416h293v-416h49q31 0 48 11.5t32 44.5l100 223q12 31 29.5 57.5t42 46t61.5 31.5t90 12q37 0 78 -9t76 -25l-31 -168q-29 12 -55 12q-33 0 -47.5 -14.5 t-24.5 -40.5l-76 -187q-10 -29 -26.5 -50t-42.5 -40l272 -524l-276 -51l-224 444h-75v-430h-293v430h-76l-231 -444l-277 51l281 524q-27 18 -43.5 40t-26.5 50l-68 187q-10 27 -24 41t-47 14q-29 0 -56 -12z" />
<glyph unicode="&#x437;" horiz-adv-x="993" d="M41 94l109 185q57 -35 125.5 -70t170.5 -35q96 0 132 36t36 89q0 72 -43 100.5t-153 28.5h-176v215h159q92 0 143.5 23.5t51.5 95.5q0 29 -5 52.5t-21.5 40.5t-48.5 26.5t-83 9.5q-29 0 -65.5 -7t-74.5 -18.5t-75 -27t-67 -31.5l-86 176q78 43 177 80t228 37 q119 0 197 -23.5t125 -65.5t66.5 -96.5t19.5 -115.5q0 -25 -6.5 -56.5t-23.5 -63.5t-46 -61.5t-74 -54.5q100 -37 139 -108.5t39 -145.5q0 -166 -108.5 -256t-343.5 -90q-145 0 -246.5 42t-171.5 89z" />
<glyph unicode="&#x438;" horiz-adv-x="1196" d="M123 0v1073h313v-538l324 360v178h313v-1073h-313v561l-324 -366v-195h-313z" />
<glyph unicode="&#x439;" horiz-adv-x="1196" d="M123 0v1073h313v-538l324 360v178h313v-1073h-313v561l-324 -366v-195h-313zM233 1481l172 59q29 -59 82 -94t127 -35t127 35t82 94l172 -59q-23 -76 -65 -127t-94 -83t-109.5 -46.5t-112.5 -14.5t-112.5 14.5t-109.5 46.5t-94 83t-65 127z" />
<glyph unicode="&#x43a;" horiz-adv-x="1079" d="M123 0v1073h307v-416h66q31 0 48 11.5t31 44.5l93 223q12 31 28.5 57.5t42 46t62.5 31.5t90 12q37 0 78 -9t75 -25l-30 -166q-27 10 -56 10q-33 0 -47 -14.5t-24 -40.5l-70 -185q-10 -29 -25.5 -51t-37.5 -41l295 -524l-295 -51l-240 444h-84v-430h-307z" />
<glyph unicode="&#x43b;" horiz-adv-x="1134" d="M10 84q68 63 114 150.5t58 197.5l70 641h760v-1073h-314v848h-184l-43 -416q-16 -145 -67.5 -253.5t-159.5 -205.5z" />
<glyph unicode="&#x43c;" horiz-adv-x="1353" d="M123 0v1073h311l211 -452q8 -16 14.5 -24.5t16.5 -8.5q12 0 18 8t15 25l229 452h293v-1073h-270v672l-136 -269q-27 -51 -58.5 -77.5t-94.5 -26.5q-66 0 -95.5 25.5t-56.5 78.5l-127 256v-659h-270z" />
<glyph unicode="&#x43d;" horiz-adv-x="1196" d="M123 0v1073h313v-414h324v414h313v-1073h-313v434h-324v-434h-313z" />
<glyph unicode="&#x43e;" horiz-adv-x="1165" d="M82 528q0 129 32.5 234.5t96 180.5t159 116t220.5 41q254 0 373.5 -147.5t119.5 -415.5q0 -131 -30.5 -237.5t-94 -181.5t-160 -115t-225.5 -40q-137 0 -230 42t-151.5 117t-84 178t-25.5 228zM395 528q0 -174 45.5 -257t143.5 -83q94 0 139 79t45 263q0 176 -40 260 t-138 84q-96 0 -145.5 -80.5t-49.5 -265.5z" />
<glyph unicode="&#x43f;" horiz-adv-x="1177" d="M123 0v1073h932v-1073h-314v848h-305v-848h-313z" />
<glyph unicode="&#x440;" horiz-adv-x="1210" d="M72 989l239 115l107 -150q57 66 135 106t170 40q205 0 305 -150.5t100 -421.5q0 -129 -34.5 -233.5t-100 -178t-160 -113.5t-215.5 -40q-41 0 -87 7t-85 18v-434h-313v1280zM446 217q29 -12 63 -20.5t75 -8.5q111 0 170 88.5t59 253.5q0 76 -7 139.5t-27.5 108.5 t-55.5 70.5t-92 25.5q-53 0 -101.5 -32.5t-83.5 -79.5v-545z" />
<glyph unicode="&#x441;" horiz-adv-x="978" d="M82 528q0 268 136 420t388 152q100 0 173 -18.5t145 -59.5l-93 -201q-41 23 -88 38t-125 15q-104 0 -163.5 -82.5t-59.5 -263.5q0 -174 56.5 -257t162.5 -83q72 0 125.5 14.5t106.5 41.5l92 -195q-80 -47 -170 -66.5t-195 -19.5q-135 0 -228 38t-151.5 109.5t-85 177 t-26.5 240.5z" />
<glyph unicode="&#x442;" horiz-adv-x="1026" d="M31 848v225h964v-225h-325v-848h-314v848h-325z" />
<glyph unicode="&#x443;" horiz-adv-x="1118" d="M20 1030l326 55l172 -768q8 -35 19.5 -56t44.5 -21h34l181 845l301 -59l-287 -1122q-18 -72 -46 -137.5t-75 -116.5t-122.5 -81t-188.5 -30q-92 0 -171 14.5t-169 59.5l94 211q125 -59 221 -60q88 0 132 47.5t67 145.5l12 55h-49q-70 0 -116 15.5t-77.5 43t-52 68.5 t-34.5 92z" />
<glyph unicode="&#x444;" horiz-adv-x="1591" d="M82 520q0 123 42 222.5t116.5 170t178 113.5t226.5 53v398h305v-398q129 -10 232.5 -52t176.5 -112.5t111.5 -170t38.5 -224.5q0 -252 -147.5 -391t-411.5 -162v-413h-305v413q-133 8 -237.5 44t-176 102.5t-110.5 167t-39 239.5zM397 522q0 -78 20.5 -136t55.5 -98 t79 -63.5t93 -29.5v661q-47 -6 -91 -28.5t-79 -63.5t-56.5 -100.5t-21.5 -141.5zM950 190q43 6 86 29t79 63t57.5 99t21.5 141q0 80 -21.5 139.5t-55.5 100.5t-78 63.5t-89 28.5v-664z" />
<glyph unicode="&#x445;" horiz-adv-x="1054" d="M25 33l254 487l-224 512l295 60l146 -351q10 -25 20 -35t29 -10q16 0 27.5 11.5t23.5 33.5l160 349l268 -62l-221 -479l227 -514l-299 -64l-145 375q-12 27 -21.5 36t-27.5 9q-16 0 -27.5 -11t-24.5 -34l-182 -375z" />
<glyph unicode="&#x446;" horiz-adv-x="1189" d="M123 0v1073h313v-848h305v848h314v-848h94v-469h-313v244h-713z" />
<glyph unicode="&#x447;" horiz-adv-x="1173" d="M102 672v401h314v-350q0 -94 33.5 -128t103.5 -34q47 0 97 8.5t87 20.5v483h314v-1073h-314v362q-59 -23 -130.5 -34t-149.5 -11q-92 0 -159 17.5t-111 59.5t-64.5 109.5t-20.5 168.5z" />
<glyph unicode="&#x448;" horiz-adv-x="1615" d="M123 0v1073h313v-848h217v848h310v-848h217v848h313v-1073h-1370z" />
<glyph unicode="&#x449;" horiz-adv-x="1628" d="M123 0v1073h313v-848h217v848h310v-848h217v848h313v-848h94v-469h-313v244h-1151z" />
<glyph unicode="&#x44a;" horiz-adv-x="1239" d="M10 848v225h529v-377h249q102 0 173 -26.5t114 -73.5t62.5 -111.5t19.5 -142.5q0 -72 -23.5 -133.5t-69.5 -108.5t-115.5 -73.5t-160.5 -26.5h-557l-2 848h-219zM539 209h141q86 0 130 30.5t44 108.5t-49 106.5t-135 28.5h-131v-274z" />
<glyph unicode="&#x44b;" horiz-adv-x="1624" d="M123 0v1073h309v-377h240q102 0 172.5 -26.5t113.5 -73.5t62.5 -111.5t19.5 -142.5q0 -72 -23.5 -133.5t-69.5 -108.5t-115.5 -73.5t-159.5 -26.5h-549zM432 209h131q86 0 130 30.5t44 108.5t-49 106.5t-135 28.5h-121v-274zM1188 0v1073h313v-1073h-313z" />
<glyph unicode="&#x44c;" horiz-adv-x="1132" d="M133 0v1073h309v-377h240q102 0 173 -26.5t114 -73.5t62.5 -111.5t19.5 -142.5q0 -72 -23.5 -133.5t-70 -108.5t-116 -73.5t-159.5 -26.5h-549zM442 209h131q86 0 130.5 30.5t44.5 108.5t-49.5 106.5t-135.5 28.5h-121v-274z" />
<glyph unicode="&#x44d;" horiz-adv-x="1024" d="M51 55l86 197q53 -27 115.5 -45.5t134.5 -18.5q195 0 225 240h-348v215h348q-14 104 -61 167.5t-150 63.5q-78 0 -138 -15t-101 -38l-90 197q147 82 352 82q137 0 233.5 -38t158 -109.5t89 -178t27.5 -242.5q0 -131 -31 -236.5t-93.5 -179t-157.5 -113.5t-222 -40 q-104 0 -200.5 22.5t-176.5 69.5z" />
<glyph unicode="&#x44e;" horiz-adv-x="1656" d="M123 0v1073h313v-407h170q29 205 148.5 319.5t335.5 114.5q248 0 366.5 -151.5t118.5 -420.5q0 -272 -119 -418.5t-379 -146.5q-123 0 -210 31t-143 90t-86 145t-38 199h-164v-428h-313zM911 528q0 -174 39 -257t137 -83q94 0 133.5 79t39.5 263q0 176 -34 260t-132 84 q-96 0 -139.5 -80.5t-43.5 -265.5z" />
<glyph unicode="&#x44f;" horiz-adv-x="1067" d="M51 70q98 92 141.5 175t55.5 169q-94 45 -135 123.5t-41 171.5q0 166 98 265t299 99h475v-1073h-307v377h-125q-23 -109 -70 -213.5t-149 -190.5zM367 721q0 -78 43 -107.5t108 -29.5h119v280h-127q-66 0 -104.5 -32.5t-38.5 -110.5z" />
<glyph unicode="&#x451;" horiz-adv-x="1130" d="M92 530q0 125 31.5 229.5t93 180.5t155 118t216.5 42q119 0 203.5 -40t140 -115t81 -182.5t25.5 -240.5l-80 -88h-553q14 -127 72 -186.5t156 -59.5q86 0 152.5 13.5t133.5 48.5l92 -195q-96 -55 -197.5 -73.5t-221.5 -18.5q-135 0 -229.5 38t-155 110.5t-88 178 t-27.5 240.5zM198 1384q0 72 40 119t118 47t119 -47t41 -119t-41 -116.5t-119 -44.5t-118 45t-40 116zM405 637h340q0 238 -157 237q-82 0 -127 -51t-56 -186zM671 1384q0 72 40 119t118 47q80 0 120 -47t40 -119t-40 -116.5t-120 -44.5q-78 0 -118 45t-40 116z" />
<glyph unicode="&#x452;" horiz-adv-x="1202" d="M14 1145v225h109v137h313v-137h334v-225h-334v-271q76 61 139.5 94t155.5 33q109 0 176.5 -31.5t106.5 -90t52 -138t13 -174.5v-606q0 -92 -19.5 -170t-67.5 -134t-128 -87t-200 -31q-88 0 -161 18.5t-132 49.5l80 196q39 -14 75.5 -26.5t85.5 -12.5q94 0 124 59.5 t30 174.5v524q0 121 -28.5 174.5t-121.5 53.5q-106 0 -180 -99v-651h-313v1145h-109z" />
<glyph unicode="&#x453;" horiz-adv-x="882" d="M123 0v1073h739v-225h-426v-848h-313zM307 1288l243 393l213 -151l-315 -344z" />
<glyph unicode="&#x454;" horiz-adv-x="989" d="M82 528q0 133 37 239.5t105.5 180.5t168 113t223.5 39q100 0 173 -18.5t145 -59.5l-92 -201q-41 23 -88 38t-125 15q-86 0 -145.5 -56t-80.5 -175h355v-215h-357q16 -123 75 -181.5t149 -58.5q72 0 125 14.5t106 41.5l92 -195q-80 -47 -170 -66.5t-194 -19.5 q-268 0 -385 147.5t-117 417.5z" />
<glyph unicode="&#x455;" horiz-adv-x="993" d="M41 68l98 194q66 -35 146 -60.5t176 -25.5q70 0 116 21.5t46 81.5q0 33 -16.5 53t-45.5 35.5t-72 28t-94 26.5q-53 14 -106 34.5t-95 57.5t-69 91t-27 136q0 174 118 266.5t321 92.5q96 0 191 -25.5t167 -62.5l-92 -193q-59 31 -129 51.5t-135 20.5q-86 0 -119 -30 t-33 -68q0 -59 58.5 -87t140.5 -53q55 -16 112.5 -38.5t105.5 -58.5t77.5 -90t29.5 -134q0 -78 -22.5 -145.5t-74.5 -117t-138 -78t-211 -28.5t-237.5 30t-186.5 75z" />
<glyph unicode="&#x456;" horiz-adv-x="600" d="M25 864v209h442v-1073h-313v864h-129zM111 1374q0 82 46 137.5t138 55.5t139 -55.5t47 -137.5t-47 -135t-139 -53t-138 53t-46 135z" />
<glyph unicode="&#x457;" horiz-adv-x="600" d="M-90 1384q0 72 40 119t118 47t118.5 -47t40.5 -119t-40.5 -116.5t-118.5 -44.5t-118 45t-40 116zM25 864v209h442v-1073h-313v864h-129zM383 1384q0 72 40 119t118 47q80 0 119.5 -47t39.5 -119t-39.5 -116.5t-119.5 -44.5q-78 0 -118 45t-40 116z" />
<glyph unicode="&#x458;" horiz-adv-x="602" d="M-242 -393l80 196q39 -14 76 -26.5t86 -12.5q94 0 124 59.5t30 174.5v1075h315v-1112q0 -92 -20.5 -170t-68.5 -134t-128 -87t-201 -31q-88 0 -160.5 18.5t-132.5 49.5zM125 1374q0 82 46 137.5t138 55.5t139.5 -55.5t47.5 -137.5t-47.5 -135t-139.5 -53t-138 53t-46 135 z" />
<glyph unicode="&#x459;" horiz-adv-x="1710" d="M4 84q41 35 70.5 70.5t54.5 87.5q20 41 30.5 88t16.5 102l70 641h774v-377h240q102 0 172.5 -26.5t113.5 -73.5t62.5 -111.5t19.5 -142.5q0 -72 -23.5 -133.5t-69.5 -108.5t-115.5 -73.5t-159.5 -26.5h-549v848h-203l-43 -416q-4 -35 -10 -75t-15.5 -79.5t-21.5 -75.5 t-29 -63q-29 -47 -66.5 -87t-91.5 -79zM1020 209h131q86 0 130 30.5t44 108.5t-49 106.5t-135 28.5h-121v-274z" />
<glyph unicode="&#x45a;" horiz-adv-x="1759" d="M123 0v1073h313v-393h320v393h313v-393h240q100 0 169.5 -26.5t113.5 -74t64.5 -112t20.5 -139.5q0 -152 -91 -240t-277 -88h-553v455h-320v-455h-313zM1069 209h143q86 0 124 23.5t38 101.5t-43 101.5t-129 23.5h-133v-250z" />
<glyph unicode="&#x45b;" horiz-adv-x="1212" d="M25 1145v225h108v137h313v-137h334v-225h-334v-271q76 61 139.5 94t155.5 33q109 0 176.5 -31.5t106.5 -90t52.5 -138t13.5 -174.5v-567h-314v522q0 121 -28.5 174.5t-120.5 53.5q-106 0 -181 -99v-651h-313v1145h-108z" />
<glyph unicode="&#x45c;" horiz-adv-x="1079" d="M123 0v1073h307v-416h66q31 0 48 11.5t31 44.5l93 223q12 31 28.5 57.5t42 46t62.5 31.5t90 12q37 0 78 -9t75 -25l-30 -166q-27 10 -56 10q-33 0 -47 -14.5t-24 -40.5l-70 -185q-10 -29 -25.5 -51t-37.5 -41l295 -524l-295 -51l-240 444h-84v-430h-307zM455 1288 l243 393l213 -151l-315 -344z" />
<glyph unicode="&#x45e;" horiz-adv-x="1118" d="M20 1030l326 55l172 -768q8 -35 19.5 -56t44.5 -21h34l181 845l301 -59l-287 -1122q-18 -72 -46 -137.5t-75 -116.5t-122.5 -81t-188.5 -30q-92 0 -171 14.5t-169 59.5l94 211q125 -59 221 -60q88 0 132 47.5t67 145.5l12 55h-49q-70 0 -116 15.5t-77.5 43t-52 68.5 t-34.5 92zM207 1481l172 59q29 -59 82 -94t127 -35t127 35t82 94l172 -59q-23 -76 -65 -127t-94 -83t-109.5 -46.5t-112.5 -14.5t-112.5 14.5t-109.5 46.5t-94 83t-65 127z" />
<glyph unicode="&#x45f;" horiz-adv-x="1161" d="M123 0v1073h313v-848h289v848h313v-1073h-299v-244h-313v244h-303z" />
<glyph unicode="&#x490;" horiz-adv-x="1165" d="M143 0v1477h672v239h309v-506h-651v-1210h-330z" />
<glyph unicode="&#x491;" horiz-adv-x="913" d="M123 0v1073h483v240h287v-465h-457v-848h-313z" />
<glyph unicode="&#x1e80;" horiz-adv-x="2011" d="M20 1464l353 33l186 -1161q12 -82 47 -82q25 0 35 19.5t18 60.5l228 1143h278l224 -1141q8 -41 14 -61.5t31 -20.5q29 0 37 18.5t14 61.5l174 1167l321 -47l-192 -1151q-27 -160 -101.5 -251t-226.5 -91q-88 0 -146.5 16.5t-96 55.5t-62.5 103.5t-45 160.5l-102 506 l-88 -500q-14 -80 -39 -142.5t-64 -107.5t-94 -68.5t-131 -23.5q-88 0 -151.5 16.5t-107.5 54.5t-72 102.5t-44 162.5zM740 1835l176 201l354 -346l-114 -140z" />
<glyph unicode="&#x1e81;" horiz-adv-x="1685" d="M43 1022l322 55l151 -823q6 -35 25 -35q10 0 17 5t11 28l168 795h236l162 -793q8 -35 24 -35q10 0 17.5 5t11.5 28l158 825l296 -59l-192 -832q-25 -109 -91 -166t-183 -57q-72 0 -118 13.5t-76 41t-46 69.5t-27 99l-67 361l-78 -381q-8 -43 -24.5 -80t-46 -64.5t-75 -43 t-108.5 -15.5q-76 0 -125 17.5t-80 47t-47 70.5t-27 88zM617 1530l213 151l243 -393l-141 -102z" />
<glyph unicode="&#x1e82;" horiz-adv-x="2011" d="M20 1464l353 33l186 -1161q12 -82 47 -82q25 0 35 19.5t18 60.5l228 1143h278l224 -1141q8 -41 14 -61.5t31 -20.5q29 0 37 18.5t14 61.5l174 1167l321 -47l-192 -1151q-27 -160 -101.5 -251t-226.5 -91q-88 0 -146.5 16.5t-96 55.5t-62.5 103.5t-45 160.5l-102 506 l-88 -500q-14 -80 -39 -142.5t-64 -107.5t-94 -68.5t-131 -23.5q-88 0 -151.5 16.5t-107.5 54.5t-72 102.5t-44 162.5zM785 1690l354 346l176 -201l-416 -285z" />
<glyph unicode="&#x1e83;" horiz-adv-x="1685" d="M43 1022l322 55l151 -823q6 -35 25 -35q10 0 17 5t11 28l168 795h236l162 -793q8 -35 24 -35q10 0 17.5 5t11.5 28l158 825l296 -59l-192 -832q-25 -109 -91 -166t-183 -57q-72 0 -118 13.5t-76 41t-46 69.5t-27 99l-67 361l-78 -381q-8 -43 -24.5 -80t-46 -64.5t-75 -43 t-108.5 -15.5q-76 0 -125 17.5t-80 47t-47 70.5t-27 88zM674 1288l243 393l213 -151l-315 -344z" />
<glyph unicode="&#x1e84;" horiz-adv-x="2011" d="M20 1464l353 33l186 -1161q12 -82 47 -82q25 0 35 19.5t18 60.5l228 1143h278l224 -1141q8 -41 14 -61.5t31 -20.5q29 0 37 18.5t14 61.5l174 1167l321 -47l-192 -1151q-27 -160 -101.5 -251t-226.5 -91q-88 0 -146.5 16.5t-96 55.5t-62.5 103.5t-45 160.5l-102 506 l-88 -500q-14 -80 -39 -142.5t-64 -107.5t-94 -68.5t-131 -23.5q-88 0 -151.5 16.5t-107.5 54.5t-72 102.5t-44 162.5zM628 1751q0 72 40 119t118 47t119 -47t41 -119t-41 -117t-119 -45t-118 45t-40 117zM1101 1751q0 72 40 119t118 47q80 0 120 -47t40 -119t-40 -117 t-120 -45q-78 0 -118 45t-40 117z" />
<glyph unicode="&#x1e85;" horiz-adv-x="1685" d="M43 1022l322 55l151 -823q6 -35 25 -35q10 0 17 5t11 28l168 795h236l162 -793q8 -35 24 -35q10 0 17.5 5t11.5 28l158 825l296 -59l-192 -832q-25 -109 -91 -166t-183 -57q-72 0 -118 13.5t-76 41t-46 69.5t-27 99l-67 361l-78 -381q-8 -43 -24.5 -80t-46 -64.5t-75 -43 t-108.5 -15.5q-76 0 -125 17.5t-80 47t-47 70.5t-27 88zM456 1384q0 72 40 119t118 47t119 -47t41 -119t-41 -116.5t-119 -44.5t-118 45t-40 116zM929 1384q0 72 40 119t118 47q80 0 120 -47t40 -119t-40 -116.5t-120 -44.5q-78 0 -118 45t-40 116z" />
<glyph unicode="&#x1ef2;" horiz-adv-x="1206" d="M20 1452l326 45l215 -647q10 -31 21.5 -46.5t31.5 -15.5q16 0 27.5 10.5t28.5 51.5l233 647l293 -41l-287 -731q-20 -53 -55 -103.5t-88 -72.5v-549h-330v549q-66 16 -99.5 64.5t-62.5 125.5zM266 1835l176 201l354 -346l-114 -140z" />
<glyph unicode="&#x1ef3;" horiz-adv-x="1114" d="M20 1022l326 55l170 -760q8 -35 19.5 -56t44.5 -21h34l179 837l301 -59l-285 -1114q-18 -72 -46 -137.5t-75 -116.5t-123 -81t-188 -30q-92 0 -171 14.5t-169 59.5l94 211q125 -59 221 -60q88 0 132 47.5t67 145.5l12 55h-49q-70 0 -117 14.5t-78.5 43t-51 68.5t-34.5 93 zM293 1530l213 151l243 -393l-141 -102z" />
<glyph unicode="&#x2000;" horiz-adv-x="1048" />
<glyph unicode="&#x2001;" horiz-adv-x="2097" />
<glyph unicode="&#x2002;" horiz-adv-x="1048" />
<glyph unicode="&#x2003;" horiz-adv-x="2097" />
<glyph unicode="&#x2004;" horiz-adv-x="699" />
<glyph unicode="&#x2005;" horiz-adv-x="524" />
<glyph unicode="&#x2006;" horiz-adv-x="349" />
<glyph unicode="&#x2007;" horiz-adv-x="349" />
<glyph unicode="&#x2008;" horiz-adv-x="262" />
<glyph unicode="&#x2009;" horiz-adv-x="419" />
<glyph unicode="&#x200a;" horiz-adv-x="116" />
<glyph unicode="&#x2010;" horiz-adv-x="921" d="M133 516v254h655v-254h-655z" />
<glyph unicode="&#x2011;" horiz-adv-x="921" d="M133 516v254h655v-254h-655z" />
<glyph unicode="&#x2012;" horiz-adv-x="921" d="M133 516v254h655v-254h-655z" />
<glyph unicode="&#x2013;" horiz-adv-x="1024" d="M0 487v263h1024v-263h-1024z" />
<glyph unicode="&#x2014;" horiz-adv-x="2048" d="M0 487v263h2048v-263h-2048z" />
<glyph unicode="&#x2015;" horiz-adv-x="2048" d="M0 487v263h2048v-263h-2048z" />
<glyph unicode="&#x2018;" horiz-adv-x="520" d="M100 1116q0 23 3 43.5t12.5 48t27 66.5t47.5 100l70 144l146 -45l-72 -216q41 -12 71.5 -44.5t30.5 -88.5q0 -72 -43 -120t-129 -48q-82 0 -123 47.5t-41 112.5z" />
<glyph unicode="&#x2019;" horiz-adv-x="520" d="M100 1350q0 72 43 120t129 48q82 0 123 -47.5t41 -112.5q0 -23 -3 -43.5t-12 -48t-26.5 -66.5t-48.5 -100l-70 -144l-145 45l72 216q-41 12 -72 44.5t-31 88.5z" />
<glyph unicode="&#x201a;" horiz-adv-x="585" d="M127 103q0 72 43 120t129 48q82 0 123 -47.5t41 -112.5q0 -23 -3 -43.5t-12 -48t-26.5 -66.5t-48.5 -100l-70 -144l-145 45l72 216q-41 12 -72 44.5t-31 88.5z" />
<glyph unicode="&#x201c;" horiz-adv-x="950" d="M100 1116q0 23 3 43.5t12.5 48t27 66.5t47.5 100l70 144l146 -45l-72 -216q41 -12 71.5 -44.5t30.5 -88.5q0 -72 -43 -120t-129 -48q-82 0 -123 47.5t-41 112.5zM530 1116q0 23 3 43.5t12.5 48t27 66.5t47.5 100l70 144l146 -45l-72 -216q41 -12 71.5 -44.5t30.5 -88.5 q0 -72 -43 -120t-129 -48q-82 0 -123 47.5t-41 112.5z" />
<glyph unicode="&#x201d;" horiz-adv-x="950" d="M100 1350q0 72 43 120t129 48q82 0 123 -47.5t41 -112.5q0 -23 -3 -43.5t-12 -48t-26.5 -66.5t-48.5 -100l-70 -144l-145 45l72 216q-41 12 -72 44.5t-31 88.5zM530 1350q0 72 43 120t129 48q82 0 123 -47.5t41 -112.5q0 -23 -3 -43.5t-12 -48t-26.5 -66.5t-48.5 -100 l-70 -144l-145 45l72 216q-41 12 -72 44.5t-31 88.5z" />
<glyph unicode="&#x201e;" horiz-adv-x="1015" d="M127 103q0 72 43 120t129 48q82 0 123 -47.5t41 -112.5q0 -23 -3 -43.5t-12 -48t-26.5 -66.5t-48.5 -100l-70 -144l-145 45l72 216q-41 12 -72 44.5t-31 88.5zM557 103q0 72 43 120t129 48q82 0 123 -47.5t41 -112.5q0 -23 -3 -43.5t-12 -48t-26.5 -66.5t-48.5 -100 l-70 -144l-145 45l72 216q-41 12 -72 44.5t-31 88.5z" />
<glyph unicode="&#x2020;" horiz-adv-x="1069" d="M82 829v273h338l-55 375h340l-54 -375h336v-273l-338 66l60 -1196h-349l60 1196z" />
<glyph unicode="&#x2021;" horiz-adv-x="1069" d="M82 74v272l338 -65l-35 307l35 307l-338 -66v273h338l-55 375h340l-54 -375h336v-273l-338 66l35 -307l-35 -307l338 65v-272h-336l54 -375h-340l55 375h-338z" />
<glyph unicode="&#x2022;" horiz-adv-x="1024" d="M240 678q0 127 66.5 205t207.5 78q139 0 203.5 -78t64.5 -205t-64.5 -205t-203.5 -78q-141 0 -207.5 78t-66.5 205z" />
<glyph unicode="&#x2026;" horiz-adv-x="1832" d="M96 156q0 84 46 140t139 56q94 0 140 -56t46 -140t-46 -138.5t-140 -54.5q-92 0 -138.5 54.5t-46.5 138.5zM731 156q0 84 46 140t139 56q94 0 140 -56t46 -140t-46 -138.5t-140 -54.5q-92 0 -138.5 54.5t-46.5 138.5zM1366 156q0 84 46 140t139 56q94 0 140 -56t46 -140 t-46 -138.5t-140 -54.5q-92 0 -138.5 54.5t-46.5 138.5z" />
<glyph unicode="&#x202f;" horiz-adv-x="419" />
<glyph unicode="&#x2030;" horiz-adv-x="2445" d="M98 1106q0 174 86 271.5t238 97.5q156 0 239.5 -96.5t83.5 -272.5q0 -168 -84.5 -264.5t-238.5 -96.5t-239 94.5t-85 266.5zM242 0l944 1458h274l-940 -1458h-278zM315 1112q0 -121 29 -162t78 -41q51 0 77.5 41t26.5 162q0 113 -25.5 156t-78.5 43q-23 0 -42.5 -8.5 t-33.5 -31t-22.5 -60t-8.5 -99.5zM952 334q0 174 86 271t238 97q156 0 239.5 -96t83.5 -272q0 -168 -84.5 -264.5t-238.5 -96.5t-239 94.5t-85 266.5zM1169 340q0 -121 29 -162t78 -41q51 0 77.5 41t26.5 162q0 113 -25.5 156t-78.5 43q-23 0 -42.5 -8.5t-33.5 -31 t-22.5 -60.5t-8.5 -99zM1700 334q0 174 86 271t237 97q156 0 240 -96t84 -272q0 -168 -85 -264.5t-239 -96.5t-238.5 94.5t-84.5 266.5zM1917 340q0 -121 28.5 -162t77.5 -41q51 0 78 41t27 162q0 113 -25.5 156t-79.5 43q-23 0 -42 -8.5t-33.5 -31t-22.5 -60.5t-8 -99z" />
<glyph unicode="&#x2039;" horiz-adv-x="735" d="M113 561q0 61 28.5 105.5t71.5 78.5l264 216l180 -87l-223 -221q-27 -27 -41 -43t-14 -39t15.5 -39t56.5 -53l213 -198l-172 -93l-252 179q-66 47 -96.5 88t-30.5 106z" />
<glyph unicode="&#x203a;" horiz-adv-x="735" d="M72 281l213 198q41 37 56 53.5t15 38.5q0 23 -14 39.5t-41 42.5l-223 221l180 87l264 -216q43 -35 72 -76.5t29 -103.5q0 -66 -31 -108.5t-96 -89.5l-252 -179z" />
<glyph unicode="&#x2044;" horiz-adv-x="346" d="M-352 0l794 1477h256l-792 -1477h-258z" />
<glyph unicode="&#x205f;" horiz-adv-x="524" />
<glyph unicode="&#x2070;" d="M66 1016q0 217 92 339t286 122q199 0 287 -120t88 -341q0 -209 -91 -331t-284 -122q-197 0 -287.5 120t-90.5 333zM322 1022q0 -90 10 -142.5t26.5 -79t38.5 -34.5t47 -8q23 0 44.5 8t37 34.5t24.5 79t9 142.5q0 86 -9 137t-24.5 79t-36 37t-45.5 9q-23 0 -44 -7 t-38.5 -33.5t-28.5 -79t-11 -142.5z" />
<glyph unicode="&#x2074;" d="M59 889q0 41 18.5 68.5t45.5 60.5l373 440h204v-526h131v-168h-131v-182h-225v182h-264q-152 0 -152 125zM281 940q0 -8 8 -8h192v252l-190 -226q-10 -12 -10 -18z" />
<glyph unicode="&#x2075;" d="M94 647l92 158q61 -33 106.5 -47.5t113.5 -14.5q55 0 96 28t39 93q-2 100 -138 101q-47 0 -85.5 -10.5t-79.5 -30.5l-76 61l47 473h528v-192h-334l-14 -150q23 6 51.5 9t44.5 3q63 0 117.5 -13t94.5 -43t61.5 -79t21.5 -119q0 -141 -95 -226t-279 -85q-115 0 -188 25.5 t-124 58.5z" />
<glyph unicode="&#x2076;" d="M104 975q0 106 21.5 198.5t71 160t128 105.5t193.5 38q86 0 147.5 -13.5t122.5 -52.5l-90 -160q-39 23 -72.5 33t-76.5 10q-90 0 -135 -43t-60 -127q41 10 84 19.5t72 9.5q141 0 216 -79t75 -204q0 -63 -20.5 -119.5t-63.5 -97.5t-108.5 -65.5t-153.5 -24.5 q-96 0 -164 29t-109 82t-59.5 129t-18.5 172zM340 956q0 -70 9 -112.5t25.5 -66t40 -32t54.5 -8.5q49 0 73.5 38t24.5 97q0 68 -31.5 89.5t-68.5 21.5q-35 0 -66.5 -8t-60.5 -19z" />
<glyph unicode="&#x2077;" d="M96 1270v188h566q72 0 93 -25.5t21 -66.5q0 -16 -9 -42t-17 -42l-320 -700h-264l321 688h-391z" />
<glyph unicode="&#x2078;" d="M80 809q0 80 42 131t95 84q-43 33 -72.5 79t-29.5 118q0 113 78.5 184.5t255.5 71.5q164 0 247.5 -63.5t83.5 -184.5q0 -61 -33.5 -103.5t-78.5 -76.5q135 -78 135 -226q0 -66 -27.5 -115t-77 -81.5t-116 -48t-142.5 -15.5q-106 0 -175.5 20.5t-110.5 54.5t-57.5 78 t-16.5 93zM317 823q0 -49 32 -69.5t91 -20.5q51 0 84 21.5t33 83.5q0 43 -28.5 65.5t-82.5 30.5l-65 10q-35 -18 -49.5 -49t-14.5 -72zM334 1223q0 -27 18.5 -56.5t83.5 -44.5l58 -12q29 14 45 42t16 65q0 39 -24.5 63.5t-84.5 24.5q-68 0 -90 -27t-22 -55z" />
<glyph unicode="&#x2079;" d="M82 633l88 160q53 -29 93 -38.5t83 -9.5q47 0 79 10.5t52.5 32t31.5 53t17 74.5q-35 -16 -77.5 -24t-77.5 -8q-139 0 -212 76.5t-73 199.5q0 63 19.5 121.5t60.5 101.5t104.5 69t153.5 26q96 0 163.5 -29t109.5 -83t61.5 -131t19.5 -171q0 -106 -19.5 -197.5t-66.5 -159 t-123.5 -105.5t-193.5 -38q-66 0 -144.5 13.5t-148.5 56.5zM311 1163q0 -59 32 -83.5t73 -24.5q29 0 61.5 8t61.5 20q-2 70 -11.5 113t-26 66.5t-39 32t-50.5 8.5q-53 0 -77 -39t-24 -101z" />
<glyph unicode="&#x2080;" d="M66 443q0 217 92 339t286 122q199 0 287 -120t88 -341q0 -209 -91 -331t-284 -122q-197 0 -287.5 120t-90.5 333zM322 449q0 -90 10 -142.5t26.5 -79t38.5 -34.5t47 -8q23 0 44.5 8t37 34.5t24.5 79t9 142.5q0 86 -9 137t-24.5 79t-36 37t-45.5 9q-23 0 -44 -7 t-38.5 -33.5t-28.5 -79t-11 -142.5z" />
<glyph unicode="&#x2081;" d="M92 689l203 143q25 16 45 29.5t40.5 22.5t44.5 14.5t56 5.5q72 0 99.5 -36t27.5 -98v-565h178v-196h-606v196h191v453l-164 -115z" />
<glyph unicode="&#x2082;" d="M94 134q0 43 21.5 77.5t68.5 73.5l205 178q45 41 79 77t34 83q0 29 -21.5 56.5t-85.5 27.5q-43 0 -94 -17.5t-98 -45.5l-101 155q57 39 145.5 72t192.5 33q86 0 145.5 -19.5t96.5 -53.5t54.5 -80t17.5 -97q0 -49 -13.5 -90t-38 -78t-60.5 -74t-83 -76l-151 -131h360v-196 h-522q-72 0 -112 26.5t-40 98.5z" />
<glyph unicode="&#x2083;" d="M61 74l93 172q33 -16 61.5 -28.5t57 -20.5t60.5 -11t75 -3q72 0 95 29.5t23 74.5q0 53 -40 75.5t-119 22.5h-109v121l213 191h-358v188h501q133 0 134 -115q0 -35 -17.5 -62.5t-56.5 -61.5l-135 -117q117 -23 175 -87.5t58 -164.5q0 -131 -93 -209t-278 -78q-59 0 -107 5 t-88 16.5t-75 27t-70 35.5z" />
<glyph unicode="&#x2084;" d="M59 316q0 41 18.5 68.5t45.5 60.5l373 440h204v-526h131v-168h-131v-182h-225v182h-264q-152 0 -152 125zM281 367q0 -8 8 -8h192v252l-190 -226q-10 -12 -10 -18z" />
<glyph unicode="&#x2085;" d="M94 74l92 158q61 -33 106.5 -47.5t113.5 -14.5q55 0 96 28t39 93q-2 100 -138 101q-47 0 -85.5 -10.5t-79.5 -30.5l-76 61l47 473h528v-192h-334l-14 -150q23 6 51.5 9t44.5 3q63 0 117.5 -13t94.5 -43t61.5 -79t21.5 -119q0 -141 -95 -226t-279 -85q-115 0 -188 25.5 t-124 58.5z" />
<glyph unicode="&#x2086;" d="M104 402q0 106 21.5 198.5t71 160t128 105.5t193.5 38q86 0 147.5 -13.5t122.5 -52.5l-90 -160q-39 23 -72.5 33t-76.5 10q-90 0 -135 -43t-60 -127q41 10 84 19.5t72 9.5q141 0 216 -79t75 -204q0 -63 -20.5 -119.5t-63.5 -97.5t-108.5 -65.5t-153.5 -24.5 q-96 0 -164 29t-109 82t-59.5 129t-18.5 172zM340 383q0 -70 9 -112.5t25.5 -66t40 -32t54.5 -8.5q49 0 73.5 38t24.5 97q0 68 -31.5 89.5t-68.5 21.5q-35 0 -66.5 -8t-60.5 -19z" />
<glyph unicode="&#x2087;" d="M96 697v188h566q72 0 93 -25.5t21 -66.5q0 -16 -9 -42t-17 -42l-320 -700h-264l321 688h-391z" />
<glyph unicode="&#x2088;" d="M80 236q0 80 42 131t95 84q-43 33 -72.5 79t-29.5 118q0 113 78.5 184.5t255.5 71.5q164 0 247.5 -63.5t83.5 -184.5q0 -61 -33.5 -103.5t-78.5 -76.5q135 -78 135 -226q0 -66 -27.5 -115t-77 -81.5t-116 -48t-142.5 -15.5q-106 0 -175.5 20.5t-110.5 54.5t-57.5 78 t-16.5 93zM317 250q0 -49 32 -69.5t91 -20.5q51 0 84 21.5t33 83.5q0 43 -28.5 65.5t-82.5 30.5l-65 10q-35 -18 -49.5 -49t-14.5 -72zM334 650q0 -27 18.5 -56.5t83.5 -44.5l58 -12q29 14 45 42t16 65q0 39 -24.5 63.5t-84.5 24.5q-68 0 -90 -27t-22 -55z" />
<glyph unicode="&#x2089;" d="M82 60l88 160q53 -29 93 -38.5t83 -9.5q47 0 79 10.5t52.5 32t31.5 53t17 74.5q-35 -16 -77.5 -24t-77.5 -8q-139 0 -212 76.5t-73 199.5q0 63 19.5 121.5t60.5 101.5t104.5 69t153.5 26q96 0 163.5 -29t109.5 -83t61.5 -131t19.5 -171q0 -106 -19.5 -197.5t-66.5 -159 t-123.5 -105.5t-193.5 -38q-66 0 -144.5 13.5t-148.5 56.5zM311 590q0 -59 32 -83.5t73 -24.5q29 0 61.5 8t61.5 20q-2 70 -11.5 113t-26 66.5t-39 32t-50.5 8.5q-53 0 -77 -39t-24 -101z" />
<glyph unicode="&#x20ac;" horiz-adv-x="1216" d="M61 438v213h832v-213h-332q31 -113 89.5 -163t154.5 -50q55 0 98 6.5t80 18.5t72 30.5t71 43.5l115 -213q-55 -39 -106.5 -66t-104.5 -42t-110.5 -22.5t-126.5 -7.5q-250 0 -385.5 121t-178.5 344h-168zM61 762v213h166q51 244 199.5 373t394.5 129q68 0 121 -9.5t99 -26 t86 -39t81 -48.5l-104 -207q-72 51 -138.5 69.5t-134.5 18.5q-111 0 -180 -60.5t-98 -199.5h340v-213h-832z" />
<glyph unicode="&#x2113;" horiz-adv-x="933" d="M25 365l165 106v406q0 152 18.5 255t58.5 165.5t100.5 90t146.5 27.5q61 0 116.5 -14.5t98.5 -53t67.5 -107.5t24.5 -179q0 -70 -12 -147.5t-52 -166t-115 -184.5t-198 -201q0 -23 4.5 -46t15.5 -43.5t29.5 -34t49.5 -13.5q47 0 91 36t89 91l158 -157q-31 -45 -69 -85 t-83 -71t-99.5 -48.5t-117.5 -17.5q-266 0 -311 242l-76 -45zM444 662q25 27 47.5 71.5t38 98t24.5 111.5t9 116q0 80 -12 110.5t-47 30.5q-47 0 -53.5 -83t-6.5 -222v-233z" />
<glyph unicode="&#x2116;" horiz-adv-x="2301" d="M123 0v1477h371l438 -1067q6 -14 12 -25.5t17 -11.5q14 0 17 9t3 26v1069h285v-1225q0 -119 -61.5 -193.5t-209.5 -74.5q-68 0 -114.5 14t-79.5 41t-55.5 64.5t-40.5 84.5l-297 740v-928h-285zM1423 958q0 190 95.5 294t273.5 104q180 0 273.5 -103.5t93.5 -294.5 q0 -195 -93.5 -296t-281.5 -101q-197 0 -279 102t-82 295zM1444 274v197h694v-197h-694zM1661 958q0 -125 35 -178t94 -53q61 0 95 51t34 180q0 123 -29.5 177.5t-93.5 54.5q-61 0 -98 -51.5t-37 -180.5z" />
<glyph unicode="&#x2122;" horiz-adv-x="1918" d="M68 1298v179h700v-179h-231v-661h-238v661h-231zM854 637l49 840h209l170 -387q10 -20 21 -21q6 0 10 3t10 18l168 387h203l51 -840h-219l-23 465l-73 -156q-25 -51 -52 -72.5t-80 -21.5t-82.5 23.5t-52.5 70.5l-76 168l-18 -477h-215z" />
<glyph unicode="&#x2126;" horiz-adv-x="1589" d="M51 0v246h285q23 0 27 6t4 16t-7.5 20.5t-33.5 37.5q-49 51 -89 106t-68 116.5t-43 133.5t-15 160q0 133 44 252.5t131 211t215 144.5t294 53q184 0 314 -52t213 -140t122 -206t39 -249q0 -176 -64.5 -301t-167.5 -229q-27 -27 -34 -37t-7 -21q0 -12 6.5 -17t24.5 -5h297 v-246h-440q-68 0 -108 17.5t-59.5 45t-24.5 60.5t-5 61q0 51 27.5 95.5t60.5 89.5q27 37 54.5 82t48 102t34 130t13.5 165q0 94 -20.5 172t-62.5 133t-106.5 86t-154.5 31q-88 0 -154 -32t-109 -90t-64.5 -138t-21.5 -176q0 -86 15.5 -157t39 -127t52.5 -101.5t55 -79.5 q33 -41 59.5 -85t26.5 -91q0 -31 -6 -66t-26.5 -62.5t-61.5 -46t-108 -18.5h-441z" />
<glyph unicode="&#x212e;" horiz-adv-x="1325" d="M59 537q0 111 47.5 208t129 169.5t190.5 114.5t231 42q125 0 234.5 -43t189.5 -117.5t126 -175t46 -213.5h-960q-12 0 -12 -16v-264q0 -20 8 -38t20 -32q0 -4 4 -4q137 -135 344 -135q117 0 214.5 47t168.5 129h86q-80 -98 -200.5 -153.5t-268.5 -55.5q-123 0 -231.5 42 t-190 114.5t-129 171t-47.5 209.5zM281 563q0 -14 12 -14h725q14 0 14 14v268q0 39 -24 70q-72 70 -162 105.5t-189 35.5q-205 0 -348 -141q-12 -14 -20 -32.5t-8 -37.5v-268z" />
<glyph unicode="&#x2153;" horiz-adv-x="2048" d="M86 1262l203 143q25 16 45 29.5t40.5 22.5t44.5 14.5t56 5.5q72 0 99.5 -36t27.5 -98v-565h178v-196h-606v196h191v453l-164 -115zM522 0l794 1477h256l-792 -1477h-258zM1259 74l93 172q33 -16 61.5 -28.5t57 -20.5t60.5 -11t75 -3q72 0 95 29.5t23 74.5q0 53 -40 75.5 t-119 22.5h-109v121l213 191h-358v188h501q133 0 134 -115q0 -35 -17.5 -62.5t-56.5 -61.5l-135 -117q117 -23 175 -87.5t58 -164.5q0 -131 -93 -209t-278 -78q-59 0 -107 5t-88 16.5t-75 27t-70 35.5z" />
<glyph unicode="&#x2154;" horiz-adv-x="2048" d="M92 707q0 43 21.5 77.5t68.5 73.5l205 178q45 41 79 77t34 83q0 29 -21.5 56.5t-85.5 27.5q-43 0 -94 -17.5t-98 -45.5l-101 155q57 39 145.5 72t192.5 33q86 0 145.5 -19.5t96.5 -53.5t54.5 -80t17.5 -97q0 -49 -13.5 -90t-38 -78t-60.5 -74t-83 -76l-151 -131h360v-196 h-522q-72 0 -112 26.5t-40 98.5zM504 0l794 1477h256l-792 -1477h-258zM1263 74l93 172q33 -16 61.5 -28.5t57 -20.5t60.5 -11t75 -3q72 0 95 29.5t23 74.5q0 53 -40 75.5t-119 22.5h-109v121l213 191h-358v188h501q133 0 134 -115q0 -35 -17.5 -62.5t-56.5 -61.5l-135 -117 q117 -23 175 -87.5t58 -164.5q0 -131 -93 -209t-278 -78q-59 0 -107 5t-88 16.5t-75 27t-70 35.5z" />
<glyph unicode="&#x2155;" horiz-adv-x="2048" d="M82 1262l203 143q25 16 45 29.5t40.5 22.5t44.5 14.5t56 5.5q72 0 99.5 -36t27.5 -98v-565h178v-196h-606v196h191v453l-164 -115zM555 0l794 1477h256l-792 -1477h-258zM1288 74l92 158q61 -33 106.5 -47.5t113.5 -14.5q55 0 96 28t39 93q-2 100 -138 101 q-47 0 -85.5 -10.5t-79.5 -30.5l-76 61l47 473h528v-192h-334l-14 -150q23 6 51.5 9t44.5 3q63 0 117.5 -13t94.5 -43t61.5 -79t21.5 -119q0 -141 -95 -226t-279 -85q-115 0 -188 25.5t-124 58.5z" />
<glyph unicode="&#x2156;" horiz-adv-x="2048" d="M88 707q0 43 21.5 77.5t68.5 73.5l205 178q45 41 79 77t34 83q0 29 -21.5 56.5t-85.5 27.5q-43 0 -94 -17.5t-98 -45.5l-101 155q57 39 145.5 72t192.5 33q86 0 145.5 -19.5t96.5 -53.5t54.5 -80t17.5 -97q0 -49 -13.5 -90t-38 -78t-60.5 -74t-83 -76l-151 -131h360v-196 h-522q-72 0 -112 26.5t-40 98.5zM555 0l794 1477h256l-792 -1477h-258zM1292 74l92 158q61 -33 106.5 -47.5t113.5 -14.5q55 0 96 28t39 93q-2 100 -138 101q-47 0 -85.5 -10.5t-79.5 -30.5l-76 61l47 473h528v-192h-334l-14 -150q23 6 51.5 9t44.5 3q63 0 117.5 -13 t94.5 -43t61.5 -79t21.5 -119q0 -141 -95 -226t-279 -85q-115 0 -188 25.5t-124 58.5z" />
<glyph unicode="&#x2157;" horiz-adv-x="2048" d="M63 647l93 172q33 -16 61.5 -28.5t57 -20.5t60.5 -11t75 -3q72 0 95 29.5t23 74.5q0 53 -40 75.5t-119 22.5h-109v121l213 191h-358v188h501q133 0 134 -115q0 -35 -17.5 -62.5t-56.5 -61.5l-135 -117q117 -23 175 -87.5t58 -164.5q0 -131 -93 -209t-278 -78 q-59 0 -107 5t-88 16.5t-75 27t-70 35.5zM529 0l794 1477h256l-792 -1477h-258zM1302 74l92 158q61 -33 106.5 -47.5t113.5 -14.5q55 0 96 28t39 93q-2 100 -138 101q-47 0 -85.5 -10.5t-79.5 -30.5l-76 61l47 473h528v-192h-334l-14 -150q23 6 51.5 9t44.5 3 q63 0 117.5 -13t94.5 -43t61.5 -79t21.5 -119q0 -141 -95 -226t-279 -85q-115 0 -188 25.5t-124 58.5z" />
<glyph unicode="&#x2158;" horiz-adv-x="2048" d="M61 889q0 41 18.5 68.5t45.5 60.5l373 440h204v-526h131v-168h-131v-182h-225v182h-264q-152 0 -152 125zM283 940q0 -8 8 -8h192v252l-190 -226q-10 -12 -10 -18zM572 0l794 1477h256l-792 -1477h-258zM1302 74l92 158q61 -33 106.5 -47.5t113.5 -14.5q55 0 96 28t39 93 q-2 100 -138 101q-47 0 -85.5 -10.5t-79.5 -30.5l-76 61l47 473h528v-192h-334l-14 -150q23 6 51.5 9t44.5 3q63 0 117.5 -13t94.5 -43t61.5 -79t21.5 -119q0 -141 -95 -226t-279 -85q-115 0 -188 25.5t-124 58.5z" />
<glyph unicode="&#x2159;" horiz-adv-x="2048" d="M72 1262l203 143q25 16 45 29.5t40.5 22.5t44.5 14.5t56 5.5q72 0 99.5 -36t27.5 -98v-565h178v-196h-606v196h191v453l-164 -115zM543 0l794 1477h256l-792 -1477h-258zM1288 402q0 106 21.5 198.5t71 160t128 105.5t193.5 38q86 0 147.5 -13.5t122.5 -52.5l-90 -160 q-39 23 -72.5 33t-76.5 10q-90 0 -135 -43t-60 -127q41 10 84 19.5t72 9.5q141 0 216 -79t75 -204q0 -63 -20.5 -119.5t-63.5 -97.5t-108.5 -65.5t-153.5 -24.5q-96 0 -164 29t-109 82t-59.5 129t-18.5 172zM1524 383q0 -70 9 -112.5t25.5 -66t40 -32t54.5 -8.5 q49 0 73.5 38t24.5 97q0 68 -31.5 89.5t-68.5 21.5q-35 0 -66.5 -8t-60.5 -19z" />
<glyph unicode="&#x215a;" horiz-adv-x="2048" d="M71 647l92 158q61 -33 106.5 -47.5t113.5 -14.5q55 0 96 28t39 93q-2 100 -138 101q-47 0 -85.5 -10.5t-79.5 -30.5l-76 61l47 473h528v-192h-334l-14 -150q23 6 51.5 9t44.5 3q63 0 117.5 -13t94.5 -43t61.5 -79t21.5 -119q0 -141 -95 -226t-279 -85q-115 0 -188 25.5 t-124 58.5zM518 0l794 1477h256l-792 -1477h-258zM1286 402q0 106 21.5 198.5t71 160t128 105.5t193.5 38q86 0 147.5 -13.5t122.5 -52.5l-90 -160q-39 23 -72.5 33t-76.5 10q-90 0 -135 -43t-60 -127q41 10 84 19.5t72 9.5q141 0 216 -79t75 -204q0 -63 -20.5 -119.5 t-63.5 -97.5t-108.5 -65.5t-153.5 -24.5q-96 0 -164 29t-109 82t-59.5 129t-18.5 172zM1522 383q0 -70 9 -112.5t25.5 -66t40 -32t54.5 -8.5q49 0 73.5 38t24.5 97q0 68 -31.5 89.5t-68.5 21.5q-35 0 -66.5 -8t-60.5 -19z" />
<glyph unicode="&#x215b;" horiz-adv-x="2048" d="M72 1262l203 143q25 16 45 29.5t40.5 22.5t44.5 14.5t56 5.5q72 0 99.5 -36t27.5 -98v-565h178v-196h-606v196h191v453l-164 -115zM553 0l794 1477h256l-792 -1477h-258zM1264 236q0 80 42 131t95 84q-43 33 -72.5 79t-29.5 118q0 113 78.5 184.5t255.5 71.5 q164 0 247.5 -63.5t83.5 -184.5q0 -61 -33.5 -103.5t-78.5 -76.5q135 -78 135 -226q0 -66 -27.5 -115t-77 -81.5t-116 -48t-142.5 -15.5q-106 0 -175.5 20.5t-110.5 54.5t-57.5 78t-16.5 93zM1501 250q0 -49 32 -69.5t91 -20.5q51 0 84 21.5t33 83.5q0 43 -28.5 65.5 t-82.5 30.5l-65 10q-35 -18 -49.5 -49t-14.5 -72zM1518 650q0 -27 18.5 -56.5t83.5 -44.5l58 -12q29 14 45 42t16 65q0 39 -24.5 63.5t-84.5 24.5q-68 0 -90 -27t-22 -55z" />
<glyph unicode="&#x215c;" horiz-adv-x="2048" d="M53 647l93 172q33 -16 61.5 -28.5t57 -20.5t60.5 -11t75 -3q72 0 95 29.5t23 74.5q0 53 -40 75.5t-119 22.5h-109v121l213 191h-358v188h501q133 0 134 -115q0 -35 -17.5 -62.5t-56.5 -61.5l-135 -117q117 -23 175 -87.5t58 -164.5q0 -131 -93 -209t-278 -78 q-59 0 -107 5t-88 16.5t-75 27t-70 35.5zM512 0l794 1477h256l-792 -1477h-258zM1276 236q0 80 42 131t95 84q-43 33 -72.5 79t-29.5 118q0 113 78.5 184.5t255.5 71.5q164 0 247.5 -63.5t83.5 -184.5q0 -61 -33.5 -103.5t-78.5 -76.5q135 -78 135 -226q0 -66 -27.5 -115 t-77 -81.5t-116 -48t-142.5 -15.5q-106 0 -175.5 20.5t-110.5 54.5t-57.5 78t-16.5 93zM1513 250q0 -49 32 -69.5t91 -20.5q51 0 84 21.5t33 83.5q0 43 -28.5 65.5t-82.5 30.5l-65 10q-35 -18 -49.5 -49t-14.5 -72zM1530 650q0 -27 18.5 -56.5t83.5 -44.5l58 -12 q29 14 45 42t16 65q0 39 -24.5 63.5t-84.5 24.5q-68 0 -90 -27t-22 -55z" />
<glyph unicode="&#x215d;" horiz-adv-x="2048" d="M71 647l92 158q61 -33 106.5 -47.5t113.5 -14.5q55 0 96 28t39 93q-2 100 -138 101q-47 0 -85.5 -10.5t-79.5 -30.5l-76 61l47 473h528v-192h-334l-14 -150q23 6 51.5 9t44.5 3q63 0 117.5 -13t94.5 -43t61.5 -79t21.5 -119q0 -141 -95 -226t-279 -85q-115 0 -188 25.5 t-124 58.5zM498 0l794 1477h256l-792 -1477h-258zM1262 236q0 80 42 131t95 84q-43 33 -72.5 79t-29.5 118q0 113 78.5 184.5t255.5 71.5q164 0 247.5 -63.5t83.5 -184.5q0 -61 -33.5 -103.5t-78.5 -76.5q135 -78 135 -226q0 -66 -27.5 -115t-77 -81.5t-116 -48 t-142.5 -15.5q-106 0 -175.5 20.5t-110.5 54.5t-57.5 78t-16.5 93zM1499 250q0 -49 32 -69.5t91 -20.5q51 0 84 21.5t33 83.5q0 43 -28.5 65.5t-82.5 30.5l-65 10q-35 -18 -49.5 -49t-14.5 -72zM1516 650q0 -27 18.5 -56.5t83.5 -44.5l58 -12q29 14 45 42t16 65 q0 39 -24.5 63.5t-84.5 24.5q-68 0 -90 -27t-22 -55z" />
<glyph unicode="&#x215e;" horiz-adv-x="2048" d="M71 1270v188h566q72 0 93 -25.5t21 -66.5q0 -16 -9 -42t-17 -42l-320 -700h-264l321 688h-391zM418 0l794 1477h256l-792 -1477h-258zM1260 236q0 80 42 131t95 84q-43 33 -72.5 79t-29.5 118q0 113 78.5 184.5t255.5 71.5q164 0 247.5 -63.5t83.5 -184.5 q0 -61 -33.5 -103.5t-78.5 -76.5q135 -78 135 -226q0 -66 -27.5 -115t-77 -81.5t-116 -48t-142.5 -15.5q-106 0 -175.5 20.5t-110.5 54.5t-57.5 78t-16.5 93zM1497 250q0 -49 32 -69.5t91 -20.5q51 0 84 21.5t33 83.5q0 43 -28.5 65.5t-82.5 30.5l-65 10q-35 -18 -49.5 -49 t-14.5 -72zM1514 650q0 -27 18.5 -56.5t83.5 -44.5l58 -12q29 14 45 42t16 65q0 39 -24.5 63.5t-84.5 24.5q-68 0 -90 -27t-22 -55z" />
<glyph unicode="&#x2202;" horiz-adv-x="1216" d="M53 373q0 137 36 246.5t101.5 186.5t157.5 119t207 42q74 0 136.5 -23.5t119.5 -64.5q2 25 3 45t1 43q0 133 -54 208.5t-171 75.5q-63 0 -135 -12t-162 -59l-80 202q119 61 217 78t195 17q143 0 240.5 -50.5t156.5 -132.5t86 -188.5t27 -216.5q0 -215 -41 -385t-119 -288 t-193.5 -180.5t-263.5 -62.5q-229 0 -347 107.5t-118 292.5zM389 360q0 -76 34 -118.5t109 -42.5q68 0 112 45t71.5 113.5t42 149t22.5 152.5q-25 31 -73 56.5t-105 25.5q-43 0 -82 -20.5t-67.5 -66.5t-46 -117.5t-17.5 -176.5z" />
<glyph unicode="&#x2206;" horiz-adv-x="1378" d="M31 150q0 43 8 79.5t20 71.5l318 956q39 117 121 181.5t215 64.5t206.5 -64.5t108.5 -181.5l291 -974q10 -33 19.5 -66t9.5 -74q0 -27 -8.5 -52t-30 -45.5t-56 -33t-86.5 -12.5h-956q-51 0 -86 13.5t-55.5 35t-29.5 48t-9 53.5zM360 283q0 -29 29 -29h555q27 0 27 27 q0 10 -2 19t-4 17l-209 818q-12 51 -24.5 69.5t-39.5 18.5q-25 0 -40 -20.5t-31 -67.5l-254 -818q-2 -8 -4.5 -16t-2.5 -18z" />
<glyph unicode="&#x220f;" horiz-adv-x="1554" d="M31 1194v264h1493v-264h-195v-1604h-330v1602h-444v-1602h-330v1604h-194z" />
<glyph unicode="&#x2211;" horiz-adv-x="1255" d="M51 -236l484 639q39 51 50 74t11 45q0 25 -11.5 45.5t-49.5 73.5l-484 643v174h1174v-266h-742l377 -496q43 -61 61.5 -97t18.5 -77t-18.5 -76.5t-61.5 -97.5l-377 -491h742v-267h-1174v174z" />
<glyph unicode="&#x2212;" horiz-adv-x="1216" d="M137 573v246h942v-246h-942z" />
<glyph unicode="&#x2215;" horiz-adv-x="346" d="M-352 0l794 1477h256l-792 -1477h-258z" />
<glyph unicode="&#x2219;" horiz-adv-x="563" d="M96 752q0 84 46 140t139 56q94 0 140 -56t46 -140t-46 -138.5t-140 -54.5q-92 0 -138.5 54.5t-46.5 138.5z" />
<glyph unicode="&#x221a;" horiz-adv-x="1370" d="M117 537v249h407l127 -469q16 -59 26.5 -82.5t41.5 -23.5q29 0 39 23.5t22 80.5l267 1162l282 -25l-272 -1216q-31 -135 -110 -204t-230 -69q-82 0 -134.5 17.5t-86 51.5t-54 83t-41.5 114l-94 308h-190z" />
<glyph unicode="&#x221e;" horiz-adv-x="1705" d="M117 711q0 94 29.5 166.5t77.5 122t111.5 74t131.5 24.5q63 0 114.5 -16.5t92.5 -44t76.5 -66.5t70.5 -82q33 43 68 82t77 66.5t91 44t112 16.5q74 0 136.5 -24.5t108.5 -74t71.5 -122t25.5 -166.5t-27.5 -167t-75.5 -122t-113.5 -73.5t-141.5 -24.5q-61 0 -112.5 17 t-94.5 45t-77.5 62.5t-65.5 71.5q-27 -35 -58.5 -70.5t-71.5 -63.5t-91.5 -45t-114.5 -17q-76 0 -139.5 24.5t-110.5 73.5t-73.5 121.5t-26.5 167.5zM317 711q0 -76 39 -128.5t109 -52.5q68 0 112 41t95 113q-20 27 -46 58.5t-54.5 59t-60.5 46t-65 18.5q-59 0 -94 -42 t-35 -113zM950 723q20 -31 47 -61.5t57.5 -56t64.5 -42t69 -16.5q63 0 93 44t30 120t-38 129t-110 53q-37 0 -67.5 -16.5t-57 -41t-48 -54t-40.5 -58.5z" />
<glyph unicode="&#x222b;" horiz-adv-x="1009" d="M-16 -362l77 198q41 -20 72 -29.5t78 -9.5q88 0 119.5 57.5t27.5 149.5l-43 1065q-4 88 19.5 163t74 129t127 85t181.5 31q92 0 157.5 -16.5t129.5 -49.5l-78 -199q-41 20 -72 29.5t-78 9.5q-88 0 -119.5 -57t-27.5 -150l43 -1064q4 -88 -19.5 -163t-74 -129.5t-127 -85 t-181.5 -30.5q-92 0 -157.5 16.5t-128.5 49.5z" />
<glyph unicode="&#x2248;" horiz-adv-x="1320" d="M108 897q57 76 140.5 132.5t210.5 56.5q70 0 115.5 -15.5t84.5 -35t78 -36t94 -18.5q53 0 100.5 22.5t96.5 82.5l160 -176q-29 -37 -64 -72t-76.5 -60.5t-94 -41t-115.5 -15.5q-66 0 -110 16.5t-83 36t-81 36t-99 16.5q-53 0 -100.5 -23t-96.5 -82zM133 448 q57 76 140.5 132.5t210.5 56.5q70 0 115.5 -15.5t84.5 -35t78 -36t94 -18.5q53 0 100.5 22.5t96.5 82.5l160 -176q-29 -37 -64 -72t-76.5 -60.5t-94 -41t-115.5 -15.5q-66 0 -110 16.5t-83 36t-81 36t-99 16.5q-53 0 -100.5 -23t-96.5 -82z" />
<glyph unicode="&#x2260;" horiz-adv-x="1216" d="M135 362v248h289l98 172h-387v248h529l151 266l215 -82l-104 -184h155v-248h-297l-98 -172h395v-248h-534l-152 -266l-215 82l105 184h-150z" />
<glyph unicode="&#x2264;" horiz-adv-x="1216" d="M111 803q0 111 61 176t184 100l656 189l114 -199l-692 -209q-27 -8 -40 -18.5t-13 -38.5q0 -29 14.5 -39t38.5 -19l692 -196l-114 -199l-656 176q-123 33 -184 95.5t-61 181.5zM150 0v246h942v-246h-942z" />
<glyph unicode="&#x2265;" horiz-adv-x="1216" d="M90 549l692 196q25 8 39.5 18.5t14.5 39.5t-13.5 39t-40.5 18l-692 209l115 199l655 -189q123 -35 184.5 -100t61.5 -176q0 -119 -61.5 -181.5t-184.5 -95.5l-655 -176zM125 0v246h942v-246h-942z" />
<glyph unicode="&#x25ca;" horiz-adv-x="1234" d="M78 723l278 518q29 51 53.5 95t52 76t64.5 49.5t90 17.5t90 -17.5t66 -49.5t53.5 -76t53.5 -95l278 -518l-278 -518q-29 -51 -53.5 -95t-53.5 -76t-66.5 -49.5t-89.5 -17.5q-53 0 -88.5 17.5t-64.5 48t-53.5 75t-53.5 97.5zM381 723l172 -342q20 -41 32.5 -55.5 t30.5 -14.5q20 0 33 14.5t33 55.5l172 342l-172 340q-23 41 -34 56.5t-32 15.5q-18 0 -29.5 -15.5t-33.5 -56.5z" />
<glyph unicode="&#xe000;" horiz-adv-x="1075" d="M0 0v1075h1075v-1075h-1075z" />
<glyph unicode="&#xf506;" horiz-adv-x="2048" d="M84 1262l203 143q25 16 45 29.5t40.5 22.5t44.5 14.5t56 5.5q72 0 99.5 -36t27.5 -98v-565h178v-196h-606v196h191v453l-164 -115zM502 0l794 1477h256l-792 -1477h-258zM1292 697v188h566q72 0 93 -25.5t21 -66.5q0 -16 -9 -42t-17 -42l-320 -700h-264l321 688h-391z " />
<glyph unicode="&#xf507;" horiz-adv-x="2048" d="M90 707q0 43 21.5 77.5t68.5 73.5l205 178q45 41 79 77t34 83q0 29 -21.5 56.5t-85.5 27.5q-43 0 -94 -17.5t-98 -45.5l-101 155q57 39 145.5 72t192.5 33q86 0 145.5 -19.5t96.5 -53.5t54.5 -80t17.5 -97q0 -49 -13.5 -90t-38 -78t-60.5 -74t-83 -76l-151 -131h360v-196 h-522q-72 0 -112 26.5t-40 98.5zM504 0l794 1477h256l-792 -1477h-258zM1296 697v188h566q72 0 93 -25.5t21 -66.5q0 -16 -9 -42t-17 -42l-320 -700h-264l321 688h-391z" />
<glyph unicode="&#xf508;" horiz-adv-x="2048" d="M65 647l93 172q33 -16 61.5 -28.5t57 -20.5t60.5 -11t75 -3q72 0 95 29.5t23 74.5q0 53 -40 75.5t-119 22.5h-109v121l213 191h-358v188h501q133 0 134 -115q0 -35 -17.5 -62.5t-56.5 -61.5l-135 -117q117 -23 175 -87.5t58 -164.5q0 -131 -93 -209t-278 -78 q-59 0 -107 5t-88 16.5t-75 27t-70 35.5zM475 0l794 1477h256l-792 -1477h-258zM1306 697v188h566q72 0 93 -25.5t21 -66.5q0 -16 -9 -42t-17 -42l-320 -700h-264l321 688h-391z" />
<glyph unicode="&#xf509;" horiz-adv-x="2048" d="M63 889q0 41 18.5 68.5t45.5 60.5l373 440h204v-526h131v-168h-131v-182h-225v182h-264q-152 0 -152 125zM285 940q0 -8 8 -8h192v252l-190 -226q-10 -12 -10 -18zM508 0l794 1477h256l-792 -1477h-258zM1306 697v188h566q72 0 93 -25.5t21 -66.5q0 -16 -9 -42t-17 -42 l-320 -700h-264l321 688h-391z" />
<glyph unicode="&#xf50a;" horiz-adv-x="2048" d="M84 647l92 158q61 -33 106.5 -47.5t113.5 -14.5q55 0 96 28t39 93q-2 100 -138 101q-47 0 -85.5 -10.5t-79.5 -30.5l-76 61l47 473h528v-192h-334l-14 -150q23 6 51.5 9t44.5 3q63 0 117.5 -13t94.5 -43t61.5 -79t21.5 -119q0 -141 -95 -226t-279 -85q-115 0 -188 25.5 t-124 58.5zM459 0l794 1477h256l-792 -1477h-258zM1290 697v188h566q72 0 93 -25.5t21 -66.5q0 -16 -9 -42t-17 -42l-320 -700h-264l321 688h-391z" />
<glyph unicode="&#xf50b;" horiz-adv-x="2048" d="M88 975q0 106 21.5 198.5t71 160t128 105.5t193.5 38q86 0 147.5 -13.5t122.5 -52.5l-90 -160q-39 23 -72.5 33t-76.5 10q-90 0 -135 -43t-60 -127q41 10 84 19.5t72 9.5q141 0 216 -79t75 -204q0 -63 -20.5 -119.5t-63.5 -97.5t-108.5 -65.5t-153.5 -24.5q-96 0 -164 29 t-109 82t-59.5 129t-18.5 172zM324 956q0 -70 9 -112.5t25.5 -66t40 -32t54.5 -8.5q49 0 73.5 38t24.5 97q0 68 -31.5 89.5t-68.5 21.5q-35 0 -66.5 -8t-60.5 -19zM469 0l794 1477h256l-792 -1477h-258zM1284 697v188h566q72 0 93 -25.5t21 -66.5q0 -16 -9 -42t-17 -42 l-320 -700h-264l321 688h-391z" />
<glyph unicode="&#xf50c;" horiz-adv-x="2048" d="M84 1262l203 143q25 16 45 29.5t40.5 22.5t44.5 14.5t56 5.5q72 0 99.5 -36t27.5 -98v-565h178v-196h-606v196h191v453l-164 -115zM529 0l794 1477h256l-792 -1477h-258zM1278 60l88 160q53 -29 93 -38.5t83 -9.5q47 0 79 10.5t52.5 32t31.5 53t17 74.5 q-35 -16 -77.5 -24t-77.5 -8q-139 0 -212 76.5t-73 199.5q0 63 19.5 121.5t60.5 101.5t104.5 69t153.5 26q96 0 163.5 -29t109.5 -83t61.5 -131t19.5 -171q0 -106 -19.5 -197.5t-66.5 -159t-123.5 -105.5t-193.5 -38q-66 0 -144.5 13.5t-148.5 56.5zM1507 590 q0 -59 32 -83.5t73 -24.5q29 0 61.5 8t61.5 20q-2 70 -11.5 113t-26 66.5t-39 32t-50.5 8.5q-53 0 -77 -39t-24 -101z" />
<glyph unicode="&#xf50d;" horiz-adv-x="2048" d="M88 707q0 43 21.5 77.5t68.5 73.5l205 178q45 41 79 77t34 83q0 29 -21.5 56.5t-85.5 27.5q-43 0 -94 -17.5t-98 -45.5l-101 155q57 39 145.5 72t192.5 33q86 0 145.5 -19.5t96.5 -53.5t54.5 -80t17.5 -97q0 -49 -13.5 -90t-38 -78t-60.5 -74t-83 -76l-151 -131h360v-196 h-522q-72 0 -112 26.5t-40 98.5zM533 0l794 1477h256l-792 -1477h-258zM1280 60l88 160q53 -29 93 -38.5t83 -9.5q47 0 79 10.5t52.5 32t31.5 53t17 74.5q-35 -16 -77.5 -24t-77.5 -8q-139 0 -212 76.5t-73 199.5q0 63 19.5 121.5t60.5 101.5t104.5 69t153.5 26 q96 0 163.5 -29t109.5 -83t61.5 -131t19.5 -171q0 -106 -19.5 -197.5t-66.5 -159t-123.5 -105.5t-193.5 -38q-66 0 -144.5 13.5t-148.5 56.5zM1509 590q0 -59 32 -83.5t73 -24.5q29 0 61.5 8t61.5 20q-2 70 -11.5 113t-26 66.5t-39 32t-50.5 8.5q-53 0 -77 -39t-24 -101z " />
<glyph unicode="&#xf50e;" horiz-adv-x="2048" d="M61 889q0 41 18.5 68.5t45.5 60.5l373 440h204v-526h131v-168h-131v-182h-225v182h-264q-152 0 -152 125zM283 940q0 -8 8 -8h192v252l-190 -226q-10 -12 -10 -18zM541 0l794 1477h256l-792 -1477h-258zM1290 60l88 160q53 -29 93 -38.5t83 -9.5q47 0 79 10.5t52.5 32 t31.5 53t17 74.5q-35 -16 -77.5 -24t-77.5 -8q-139 0 -212 76.5t-73 199.5q0 63 19.5 121.5t60.5 101.5t104.5 69t153.5 26q96 0 163.5 -29t109.5 -83t61.5 -131t19.5 -171q0 -106 -19.5 -197.5t-66.5 -159t-123.5 -105.5t-193.5 -38q-66 0 -144.5 13.5t-148.5 56.5z M1519 590q0 -59 32 -83.5t73 -24.5q29 0 61.5 8t61.5 20q-2 70 -11.5 113t-26 66.5t-39 32t-50.5 8.5q-53 0 -77 -39t-24 -101z" />
<glyph unicode="&#xf50f;" horiz-adv-x="2048" d="M84 647l92 158q61 -33 106.5 -47.5t113.5 -14.5q55 0 96 28t39 93q-2 100 -138 101q-47 0 -85.5 -10.5t-79.5 -30.5l-76 61l47 473h528v-192h-334l-14 -150q23 6 51.5 9t44.5 3q63 0 117.5 -13t94.5 -43t61.5 -79t21.5 -119q0 -141 -95 -226t-279 -85q-115 0 -188 25.5 t-124 58.5zM512 0l794 1477h256l-792 -1477h-258zM1276 60l88 160q53 -29 93 -38.5t83 -9.5q47 0 79 10.5t52.5 32t31.5 53t17 74.5q-35 -16 -77.5 -24t-77.5 -8q-139 0 -212 76.5t-73 199.5q0 63 19.5 121.5t60.5 101.5t104.5 69t153.5 26q96 0 163.5 -29t109.5 -83 t61.5 -131t19.5 -171q0 -106 -19.5 -197.5t-66.5 -159t-123.5 -105.5t-193.5 -38q-66 0 -144.5 13.5t-148.5 56.5zM1505 590q0 -59 32 -83.5t73 -24.5q29 0 61.5 8t61.5 20q-2 70 -11.5 113t-26 66.5t-39 32t-50.5 8.5q-53 0 -77 -39t-24 -101z" />
<glyph unicode="&#xf510;" horiz-adv-x="2048" d="M84 1270v188h566q72 0 93 -25.5t21 -66.5q0 -16 -9 -42t-17 -42l-320 -700h-264l321 688h-391zM414 0l794 1477h256l-792 -1477h-258zM1274 60l88 160q53 -29 93 -38.5t83 -9.5q47 0 79 10.5t52.5 32t31.5 53t17 74.5q-35 -16 -77.5 -24t-77.5 -8q-139 0 -212 76.5 t-73 199.5q0 63 19.5 121.5t60.5 101.5t104.5 69t153.5 26q96 0 163.5 -29t109.5 -83t61.5 -131t19.5 -171q0 -106 -19.5 -197.5t-66.5 -159t-123.5 -105.5t-193.5 -38q-66 0 -144.5 13.5t-148.5 56.5zM1503 590q0 -59 32 -83.5t73 -24.5q29 0 61.5 8t61.5 20 q-2 70 -11.5 113t-26 66.5t-39 32t-50.5 8.5q-53 0 -77 -39t-24 -101z" />
<glyph unicode="&#xf511;" horiz-adv-x="2048" d="M74 809q0 80 42 131t95 84q-43 33 -72.5 79t-29.5 118q0 113 78.5 184.5t255.5 71.5q164 0 247.5 -63.5t83.5 -184.5q0 -61 -33.5 -103.5t-78.5 -76.5q135 -78 135 -226q0 -66 -27.5 -115t-77 -81.5t-116 -48t-142.5 -15.5q-106 0 -175.5 20.5t-110.5 54.5t-57.5 78 t-16.5 93zM311 823q0 -49 32 -69.5t91 -20.5q51 0 84 21.5t33 83.5q0 43 -28.5 65.5t-82.5 30.5l-65 10q-35 -18 -49.5 -49t-14.5 -72zM328 1223q0 -27 18.5 -56.5t83.5 -44.5l58 -12q29 14 45 42t16 65q0 39 -24.5 63.5t-84.5 24.5q-68 0 -90 -27t-22 -55zM518 0l794 1477 h256l-792 -1477h-258zM1280 60l88 160q53 -29 93 -38.5t83 -9.5q47 0 79 10.5t52.5 32t31.5 53t17 74.5q-35 -16 -77.5 -24t-77.5 -8q-139 0 -212 76.5t-73 199.5q0 63 19.5 121.5t60.5 101.5t104.5 69t153.5 26q96 0 163.5 -29t109.5 -83t61.5 -131t19.5 -171 q0 -106 -19.5 -197.5t-66.5 -159t-123.5 -105.5t-193.5 -38q-66 0 -144.5 13.5t-148.5 56.5zM1509 590q0 -59 32 -83.5t73 -24.5q29 0 61.5 8t61.5 20q-2 70 -11.5 113t-26 66.5t-39 32t-50.5 8.5q-53 0 -77 -39t-24 -101z" />
<glyph unicode="&#xf6c3;" horiz-adv-x="1024" d="M332 -598l76 457l282 -58l-174 -454z" />
<glyph unicode="&#xf800;" horiz-adv-x="1216" d="M70 719q0 178 31.5 318.5t98 237.5t169 149.5t243.5 52.5q143 0 244.5 -51.5t166 -148.5t94.5 -237.5t30 -320.5q0 -174 -31 -312.5t-96.5 -234.5t-166 -147.5t-241.5 -51.5q-143 0 -245.5 50.5t-169 145.5t-97 234.5t-30.5 315.5zM414 729q0 -168 14 -272.5t40 -161.5 t61.5 -76.5t80.5 -19.5q47 0 83 19.5t60.5 76.5t37 161.5t12.5 272.5q0 160 -12.5 261.5t-36 159.5t-59.5 79.5t-85 21.5q-41 0 -76.5 -18.5t-62.5 -73.5t-42 -158.5t-15 -271.5z" />
<glyph unicode="&#xf801;" horiz-adv-x="1208" d="M96 1143l326 248q63 49 113.5 67.5t117.5 18.5q172 0 172 -168v-1069h308v-240h-945v240h326v862q0 20 -4 24t-14 4t-31 -14l-227 -162z" />
<glyph unicode="&#xf802;" horiz-adv-x="1185" d="M71 1303q100 72 231.5 123t291.5 51q137 0 228 -35t143 -92.5t73.5 -131t21.5 -151.5q0 -143 -76.5 -260t-207.5 -238l-275 -258q-18 -16 -25 -25.5t-7 -19.5q0 -8 4 -14t20 -6h590v-246h-805q-94 0 -148.5 37t-54.5 139q0 63 32 117.5t104 120.5l372 354q51 49 84 89 t51.5 77t25.5 70.5t7 68.5q0 82 -49 124t-135 42q-72 0 -172 -35t-191 -98z" />
<glyph unicode="&#xf803;" horiz-adv-x="1187" d="M35 102l111 209q86 -47 169 -73.5t201 -26.5q70 0 119 18.5t80 50t44 72.5t13 84q0 111 -74.5 161t-211.5 50h-162v176l358 334q12 10 15.5 17.5t3.5 17.5q0 12 -10.5 16t-26.5 4h-557v246h745q92 0 140.5 -42t48.5 -118q0 -53 -21.5 -98t-81.5 -98l-278 -254 q205 -14 312.5 -118.5t107.5 -291.5q0 -211 -140.5 -338t-412.5 -127q-160 0 -276 34t-216 95z" />
<glyph unicode="&#xf804;" horiz-adv-x="1249" d="M77 526q0 70 36 125.5t83 114.5l561 692h269v-899h170v-225h-170v-334h-318v334h-436q-98 0 -146.5 51t-48.5 141zM368 602q0 -31 15.5 -37t54.5 -6h270v483l-311 -378q-16 -18 -22.5 -32t-6.5 -30z" />
<glyph unicode="&#xf805;" horiz-adv-x="1208" d="M96 96l111 203q162 -92 334 -92q70 0 116.5 20.5t76.5 54t42 78t12 91.5q0 229 -227 229q-78 0 -145.5 -20.5t-114.5 -43.5l-123 82l70 760h798v-246h-542l-31 -327q104 27 192 26q86 0 164 -25.5t137.5 -77.5t94.5 -134t35 -193q0 -115 -35 -208t-103.5 -159.5 t-171 -103.5t-237.5 -37q-166 0 -277.5 40t-175.5 83z" />
<glyph unicode="&#xf806;" horiz-adv-x="1236" d="M108 649q0 166 31 316.5t102.5 264t189.5 180.5t290 67q49 0 94 -4.5t91 -14.5t95 -29.5t105 -50.5l-113 -202q-84 45 -143.5 60t-124.5 15q-68 0 -117 -29.5t-82 -79.5t-50 -119t-22 -149q53 29 123 48.5t148 19.5q102 0 180 -34t130 -96t78.5 -149.5t26.5 -193.5 q0 -109 -32.5 -199t-97 -156.5t-161 -103.5t-221.5 -37q-143 0 -242.5 47.5t-160.5 134.5t-89 212t-28 282zM452 553q0 -66 6.5 -128.5t25 -113.5t53 -81.5t94.5 -30.5q102 0 138 73.5t36 196.5q0 139 -50.5 193.5t-126.5 54.5q-66 0 -108.5 -23t-65.5 -39q-2 -29 -2 -50 v-52z" />
<glyph unicode="&#xf807;" horiz-adv-x="1126" d="M65 1212v246h862q84 0 118 -33.5t34 -87.5q0 -29 -13.5 -66.5t-27.5 -70.5l-510 -1200h-326l498 1151q14 29 14 43q0 10 -6 14t-26 4h-617z" />
<glyph unicode="&#xf808;" horiz-adv-x="1210" d="M92 369q0 66 19.5 122t52.5 102t77 81.5t91 60.5q-76 41 -133.5 120t-57.5 204q0 90 32 167t94.5 132t154.5 87t215 32q225 0 344 -100.5t119 -276.5q0 -106 -56.5 -193.5t-146.5 -136.5q117 -57 179.5 -139t62.5 -221q0 -113 -45 -195t-119 -136t-169 -80t-196 -26 q-150 0 -249 35t-159.5 90.5t-85 126t-24.5 144.5zM395 381q0 -53 18.5 -90t49.5 -60.5t70.5 -35t82.5 -11.5q37 0 72 11.5t62.5 36t44 65.5t16.5 102q0 76 -42 124t-136 77l-121 33q-55 -47 -86 -106.5t-31 -145.5zM436 1083q0 -27 7.5 -56.5t26.5 -57t53 -52t85 -38.5 l97 -29q53 41 80.5 105.5t27.5 136.5q0 76 -45 128t-143 52q-55 0 -92 -17.5t-58.5 -45t-30 -61.5t-8.5 -65z" />
<glyph unicode="&#xf809;" horiz-adv-x="1245" d="M108 981q0 106 34 197.5t100.5 158t165 103.5t227.5 37q135 0 231 -47.5t156.5 -134.5t89 -213t28.5 -281q0 -166 -25.5 -316.5t-92 -264.5t-182 -180.5t-295.5 -66.5q-98 0 -203 22.5t-199 76.5l113 202q84 -47 151.5 -61t132.5 -14q68 0 115 26.5t76 75.5t44 118.5 t19 155.5q-53 -29 -119.5 -48t-142.5 -19q-111 0 -190.5 36t-132 99.5t-77 149.5t-24.5 188zM444 981q0 -139 50.5 -193.5t125.5 -54.5q66 0 108.5 23t65.5 39q2 29 2 50v52q0 63 -6 126.5t-24.5 115t-54 82t-93.5 30.5q-102 0 -138 -73.5t-36 -196.5z" />
<glyph unicode="&#xf80a;" d="M66 1262q0 217 92 339t286 122q199 0 287 -120t88 -341q0 -209 -91 -331t-284 -122q-197 0 -287.5 120t-90.5 333zM322 1268q0 -90 10 -142.5t26.5 -79t38.5 -34.5t47 -8q23 0 44.5 8t37 34.5t24.5 79t9 142.5q0 86 -9 137t-24.5 79t-36 37t-45.5 9q-23 0 -44 -7 t-38.5 -33.5t-28.5 -79t-11 -142.5z" />
<glyph unicode="&#xf80b;" d="M92 1508l203 143q25 16 45 29.5t40.5 22.5t44.5 14.5t56 5.5q72 0 99.5 -36t27.5 -98v-565h178v-196h-606v196h191v453l-164 -115z" />
<glyph unicode="&#xf80c;" d="M94 953q0 43 21.5 77.5t68.5 73.5l205 178q45 41 79 77t34 83q0 29 -21.5 56.5t-85.5 27.5q-43 0 -94 -17.5t-98 -45.5l-101 155q57 39 145.5 72t192.5 33q86 0 145.5 -19.5t96.5 -53.5t54.5 -80t17.5 -97q0 -49 -13.5 -90t-38 -78t-60.5 -74t-83 -76l-151 -131h360v-196 h-522q-72 0 -112 26.5t-40 98.5z" />
<glyph unicode="&#xf80d;" d="M61 893l93 172q33 -16 61.5 -28.5t57 -20.5t60.5 -11t75 -3q72 0 95 29.5t23 74.5q0 53 -40 75.5t-119 22.5h-109v121l213 191h-358v188h501q133 0 134 -115q0 -35 -17.5 -62.5t-56.5 -61.5l-135 -117q117 -23 175 -87.5t58 -164.5q0 -131 -93 -209t-278 -78 q-59 0 -107 5t-88 16.5t-75 27t-70 35.5z" />
<glyph unicode="&#xf80e;" d="M59 1135q0 41 18.5 68.5t45.5 60.5l373 440h204v-526h131v-168h-131v-182h-225v182h-264q-152 0 -152 125zM281 1186q0 -8 8 -8h192v252l-190 -226q-10 -12 -10 -18z" />
<glyph unicode="&#xf80f;" d="M94 893l92 158q61 -33 106.5 -47.5t113.5 -14.5q55 0 96 28t39 93q-2 100 -138 101q-47 0 -85.5 -10.5t-79.5 -30.5l-76 61l47 473h528v-192h-334l-14 -150q23 6 51.5 9t44.5 3q63 0 117.5 -13t94.5 -43t61.5 -79t21.5 -119q0 -141 -95 -226t-279 -85q-115 0 -188 25.5 t-124 58.5z" />
<glyph unicode="&#xf810;" d="M104 1221q0 106 21.5 198.5t71 160t128 105.5t193.5 38q86 0 147.5 -13.5t122.5 -52.5l-90 -160q-39 23 -72.5 33t-76.5 10q-90 0 -135 -43t-60 -127q41 10 84 19.5t72 9.5q141 0 216 -79t75 -204q0 -63 -20.5 -119.5t-63.5 -97.5t-108.5 -65.5t-153.5 -24.5 q-96 0 -164 29t-109 82t-59.5 129t-18.5 172zM340 1202q0 -70 9 -112.5t25.5 -66t40 -32t54.5 -8.5q49 0 73.5 38t24.5 97q0 68 -31.5 89.5t-68.5 21.5q-35 0 -66.5 -8t-60.5 -19z" />
<glyph unicode="&#xf811;" d="M96 1516v188h566q72 0 93 -25.5t21 -66.5q0 -16 -9 -42t-17 -42l-320 -700h-264l321 688h-391z" />
<glyph unicode="&#xf812;" d="M80 1055q0 80 42 131t95 84q-43 33 -72.5 79t-29.5 118q0 113 78.5 184.5t255.5 71.5q164 0 247.5 -63.5t83.5 -184.5q0 -61 -33.5 -103.5t-78.5 -76.5q135 -78 135 -226q0 -66 -27.5 -115t-77 -81.5t-116 -48t-142.5 -15.5q-106 0 -175.5 20.5t-110.5 54.5t-57.5 78 t-16.5 93zM317 1069q0 -49 32 -69.5t91 -20.5q51 0 84 21.5t33 83.5q0 43 -28.5 65.5t-82.5 30.5l-65 10q-35 -18 -49.5 -49t-14.5 -72zM334 1469q0 -27 18.5 -56.5t83.5 -44.5l58 -12q29 14 45 42t16 65q0 39 -24.5 63.5t-84.5 24.5q-68 0 -90 -27t-22 -55z" />
<glyph unicode="&#xf813;" d="M82 879l88 160q53 -29 93 -38.5t83 -9.5q47 0 79 10.5t52.5 32t31.5 53t17 74.5q-35 -16 -77.5 -24t-77.5 -8q-139 0 -212 76.5t-73 199.5q0 63 19.5 121.5t60.5 101.5t104.5 69t153.5 26q96 0 163.5 -29t109.5 -83t61.5 -131t19.5 -171q0 -106 -19.5 -197.5t-66.5 -159 t-123.5 -105.5t-193.5 -38q-66 0 -144.5 13.5t-148.5 56.5zM311 1409q0 -59 32 -83.5t73 -24.5q29 0 61.5 8t61.5 20q-2 70 -11.5 113t-26 66.5t-39 32t-50.5 8.5q-53 0 -77 -39t-24 -101z" />
<glyph unicode="&#xf814;" d="M66 197q0 217 92 339t286 122q199 0 287 -120t88 -341q0 -209 -91 -331t-284 -122q-197 0 -287.5 120t-90.5 333zM322 203q0 -90 10 -142.5t26.5 -79t38.5 -34.5t47 -8q23 0 44.5 8t37 34.5t24.5 79t9 142.5q0 86 -9 137t-24.5 79t-36 37t-45.5 9q-23 0 -44 -7 t-38.5 -33.5t-28.5 -79t-11 -142.5z" />
<glyph unicode="&#xf815;" d="M92 443l203 143q25 16 45 29.5t40.5 22.5t44.5 14.5t56 5.5q72 0 99.5 -36t27.5 -98v-565h178v-196h-606v196h191v453l-164 -115z" />
<glyph unicode="&#xf816;" d="M94 -112q0 43 21.5 77.5t68.5 73.5l205 178q45 41 79 77t34 83q0 29 -21.5 56.5t-85.5 27.5q-43 0 -94 -17.5t-98 -45.5l-101 155q57 39 145.5 72t192.5 33q86 0 145.5 -19.5t96.5 -53.5t54.5 -80t17.5 -97q0 -49 -13.5 -90t-38 -78t-60.5 -74t-83 -76l-151 -131h360 v-196h-522q-72 0 -112 26.5t-40 98.5z" />
</font>
</defs>
</svg>
